<?xml version="1.0" encoding="utf-8"?>
<!-- Generator: Adobe Illustrator 25.1.0, SVG Export Plug-In . SVG Version: 6.00 Build 0)  -->
<svg version="1.1" id="Calque_1" xmlns="http://www.w3.org/2000/svg" xmlns:xlink="http://www.w3.org/1999/xlink" x="0px" y="0px"
	 viewBox="0 0 567.9 308.4" style="enable-background:new 0 0 567.9 308.4;" xml:space="preserve">
<style type="text/css">
	.st0{fill:#FFFFFF;}
</style>
<g>
	<g>
		<path class="st0" d="M90.4,18c-1.2,21.3-3.6,42.8-8.3,63.6c-1.5,6.6,8.4,8.2,9.3,1.3c2.7-21.6,4.3-43,3.8-64.8
			C95.1,14.9,90.5,14.9,90.4,18L90.4,18z"/>
	</g>
</g>
<g>
	<g>
		<path class="st0" d="M4.5,49.2C48.2,32.3,93,19.1,138.8,9.3c6-1.3,3.5-10.5-2.5-9.2C90.2,10,45.1,24.4,1.8,42.7
			C-1.9,44.3,0.7,50.7,4.5,49.2L4.5,49.2z"/>
	</g>
</g>
<g>
	<g>
		<path class="st0" d="M134.5,29.5c-3,16.3-6.7,32.5-9.9,48.8c-1.1,5.3,7.3,7.4,8.1,2.2c2.5-16.5,4.5-33.1,7.2-49.6
			C140.4,27.5,135.1,26,134.5,29.5L134.5,29.5z"/>
	</g>
</g>
<g>
	<g>
		<path class="st0" d="M133.7,60.8c9.8,2.8,16.7,13.7,13.8,23.8c-1.6,5.4,7.4,7.7,8.3,2.3c2.4-14.5-6.7-28.3-21.5-30.3
			C131.8,56.2,131.4,60.2,133.7,60.8L133.7,60.8z"/>
	</g>
</g>
<g>
	<g>
		<path class="st0" d="M187.1,75.4c2-3.2,4.1-6.3,6.4-9.4c0.9-1.3,0.2-3.1-1-3.9c-10.9-7.3-23.9,3.7-22.3,15.5
			c2.2,16,20.2,20.6,33.4,15.3c6.5-2.6,2.8-11.9-3.8-9c-7.1,3.1-16.9,2.8-20.6-5.2c-3-6.5,3-15.2,10.4-11.7c-0.3-1.3-0.7-2.6-1-3.9
			c-1.8,3.3-3.7,6.6-5.7,9.8C181.1,75.6,185.4,78.1,187.1,75.4L187.1,75.4z"/>
	</g>
</g>
<g>
	<g>
		<path class="st0" d="M238.3,52.7c-1,13.7-0.2,26.5,4.5,39.6c1.1,3.1,5.7,4.3,7.5,1c5.3-9.8,10.4-19.7,15.9-29.4
			c-2.9-0.8-5.8-1.6-8.7-2.4c0,10.7,4.2,20.7,11.5,28.4c2.4,2.6,6,1.4,7.8-1c8.5-11.2,14-24.4,16.1-38.2c1-6.4-8.9-9.2-9.8-2.7
			c-1.9,13.2-7,25.2-14.8,35.9c2.6-0.3,5.2-0.7,7.8-1c-5.8-5.9-8.9-13.1-9.2-21.4c-0.2-4.3-6.6-6.8-8.7-2.4c-4.8,10.1-10,20-14.9,30
			c2.4,0,4.7,0,7.1,0c-5-11.2-8-24.1-7.2-36.4C243.3,49.6,238.6,49.6,238.3,52.7L238.3,52.7z"/>
	</g>
</g>
<g>
	<g>
		<path class="st0" d="M316,55.3c-2.1,8.5-3.7,18.7-1.2,27.3c1,3.4,6.4,2.9,6.3-0.9c-0.2-8.6-1.5-16.4,0-25
			C321.6,53.4,316.8,51.9,316,55.3L316,55.3z"/>
	</g>
</g>
<g>
	<g>
		<path class="st0" d="M355.9,13.9c-5.7,22.2-11.6,44.3-17.6,66.4c-1.5,5.6,7.6,8,8.7,2.4c4.5-22.5,8.9-45,13.7-67.5
			C361.4,12.2,356.7,10.8,355.9,13.9L355.9,13.9z"/>
	</g>
</g>
<g>
	<g>
		<path class="st0" d="M379.8,11.5c-4.2,21.5-8.2,43-12.7,64.4c-1.2,5.6,7.7,7.8,8.5,2.3c3.1-21.7,6.7-43.4,10.1-65
			C386.4,9.3,380.6,7.6,379.8,11.5L379.8,11.5z"/>
	</g>
</g>
<g>
	<g>
		<path class="st0" d="M437.6,24.1c-10.6,13.2-22,28.3-19.8,46.2c1.8,14.3,15.1,28.4,30.4,23.2c3.7-1.2,3.4-7.6-1-7.2
			c-13.4,1.4-22.7-9.5-22.6-22.4c0.1-14.1,8.9-26,16.9-36.9C443.2,24.8,439.4,21.9,437.6,24.1L437.6,24.1z"/>
	</g>
</g>
<g>
	<g>
		<path class="st0" d="M413.2,59.1c12.7-1.7,25.3-3.9,37.9-6.2c4.9-0.9,2.9-8.6-2.1-7.5c-12.3,2.7-24.4,5.5-36.5,8.8
			C409.9,55,410.3,59.5,413.2,59.1L413.2,59.1z"/>
	</g>
</g>
<g>
	<g>
		<path class="st0" d="M479.4,58.5c-3.8,3-6.8,6.7-8.7,11.1c-1.5,3.3-3.7,9.7-2.1,13.3c0.9,2,3.7,3.3,5.4,4.4
			c1.9,1.3,3.9,3.3,6.3,3.2c4.5-0.3,10.1-3.9,13.4-6.8c6.9-5.9,10.2-16.6,5.1-24.7c-4.8-7.7-15.3-8.8-22.1-3.4
			c-4.7,3.8,2.1,10.9,6.7,6.7c5.2-4.8,9.9,3.2,9.2,7.9c-1.1,6.9-7.8,10.8-13.8,12.9c1,0.1,2,0.3,2.9,0.4c-2.7-1.7-5.4-3.4-8.1-5
			c0.6,1,1.2,2,1.8,3.1c-0.4-7.5,2.4-14.1,8.1-19C486.3,60.1,482.3,56.3,479.4,58.5L479.4,58.5z"/>
	</g>
</g>
<g>
	<g>
		<path class="st0" d="M43.5,187.7c9.3-18.7,18.4-37.6,28.4-56c-2.6-0.7-5.3-1.4-7.9-2.1c-0.1,16.8,0.9,33.7,1.5,50.5
			c0.2,4.9,7,7.2,9.6,2.6c9.2-16.7,16.3-34.6,21.6-52.9c-3.5,0-6.9,0-10.4,0c2.7,17.3,5.4,34.5,8.1,51.8c1.1,7.1,11.9,4.1,10.8-3
			c-2.8-17.2-5.7-34.4-8.5-51.6c-0.9-5.4-9-4.8-10.4,0c-4.9,17.6-11.7,34.4-20.1,50.6c3.2,0.9,6.4,1.7,9.6,2.6
			c-1-16.8-1.6-33.7-3.3-50.5c-0.5-4.9-6.5-5.6-8.3-1.1c-7.8,19.1-16.6,37.8-25.1,56.7C37.7,188.1,42,190.7,43.5,187.7L43.5,187.7z"
			/>
	</g>
</g>
<g>
	<g>
		<path class="st0" d="M144.8,158.6c-8.1,1-17.2,1.8-23,8.4c-4.7,5.3-5.6,13.4-0.7,19c5.6,6.5,14,4.4,19.8-0.7
			c6.9-5.9,10.4-14.6,11-23.6c-3.2,0-6.4,0-9.6,0c0.4,13.1,11.1,23.7,24.3,23.7c6.3,0,6.3-9.7,0-9.8c-7.6-0.1-14.3-6.3-14.7-13.9
			c-0.3-6.1-9.3-6.2-9.6,0c-0.2,4.6-1.5,9-4,12.9c-2.2,3.3-7.6,9.9-11.7,5.8c-3.7-3.6-1.1-9,2.1-11.9c4.5-4.1,10.4-5,16.1-5.8
			C147.5,162.4,147.5,158.3,144.8,158.6L144.8,158.6z"/>
	</g>
</g>
<g>
	<g>
		<path class="st0" d="M186.4,134.1c-2.2,17.9-6.1,35.6-7.4,53.6c-0.3,3.7,5.8,4.6,6.5,0.9c3.1-18,3.6-36.4,5.8-54.5
			C191.5,131,186.7,131,186.4,134.1L186.4,134.1z"/>
	</g>
</g>
<g>
	<g>
		<path class="st0" d="M184.7,167.9c7.1-9.7,14.7-19,21.8-28.7c2.7-3.6-3.4-7.1-6-3.5c-7,9.7-13.6,19.7-20.6,29.4
			C177.6,168,182.5,170.8,184.7,167.9L184.7,167.9z"/>
	</g>
</g>
<g>
	<g>
		<path class="st0" d="M185.3,164.9c2.6,10.6,6.3,24.2,15.2,31.3c2.4,1.9,5.5-0.4,4.2-3.2c-2.3-4.9-5.8-8.9-8.4-13.6
			c-2.8-4.9-5.2-10.2-6.7-15.6C188.8,161,184.6,162.2,185.3,164.9L185.3,164.9z"/>
	</g>
</g>
<g>
	<g>
		<path class="st0" d="M225,174.5c5.9-1.3,7.8-9.1,4-13.5c-5.6-6.5-15.7-1.7-18,5.3c-6,18,16.7,31.4,31.9,26.7
			c5.9-1.8,3.3-11.3-2.5-9.2c-6.3,2.2-13.2,0.7-17.9-4.1c-2.5-2.5-4.4-6.1-4-9.7c0.2-2,1.3-4.5,3.6-4.7c2.4-0.3,4,2.9,1.5,3.8
			C220,170.1,221.4,175.2,225,174.5L225,174.5z"/>
	</g>
</g>
<g>
	<g>
		<path class="st0" d="M284.9,165.9c-2.6,10.2-2.6,20.4-1.5,30.9c0.7,6.7,10.8,4.4,8.6-1.2c-3.6-9.1-3.9-18.8-2.4-28.4
			C290.2,164.1,285.7,162.7,284.9,165.9L284.9,165.9z"/>
	</g>
</g>
<g>
	<g>
		<path class="st0" d="M317.7,138.8c-2.6,11.9-3.8,24.1-3.2,36.3c0.2,4.5,0.2,9.6,3,13.4c2.5,3.5,6.8,5.2,11,3.7
			c5.1-1.9,3.1-9.9-2.3-8.4c-4.3,1.3-4.2-17.3-4.2-19.9c-0.1-7.8,0.6-15.6,2-23.3C324.6,136.5,318.6,134.7,317.7,138.8L317.7,138.8z
			"/>
	</g>
</g>
<g>
	<g>
		<path class="st0" d="M308.1,168.5c15.7-2.2,31.5-4.3,47.2-6.6c5.9-0.8,3.5-10.2-2.5-9.1c-15.5,3-31,6-46.5,9.1
			C301.9,162.8,303.9,169,308.1,168.5L308.1,168.5z"/>
	</g>
</g>
<g>
	<g>
		<path class="st0" d="M404.5,170.8c-2.8-5.4-9.6-6.4-14.6-3.6c-6.5,3.6-11.1,12-10.7,19.4c0.4,7.2,6.9,12.4,14.1,10.7
			c8.7-2.1,11.9-10.7,13.9-18.5c-2.8,0-5.6,0-8.5,0c3.1,14.2,18.9,22.7,32.6,19c5.8-1.6,3.4-10.4-2.5-9c-9.3,2.3-18.6-3.4-21.6-12.3
			c-1.3-3.9-7.4-4.5-8.5,0c-0.9,3.7-1.7,8.7-4.8,11.3c-3.5,2.9-7.6,1.8-7.9-3.1c-0.4-7.7,9.9-22.1,17.4-12.9
			C403.9,172.4,404.9,171.5,404.5,170.8L404.5,170.8z"/>
	</g>
</g>
<g>
	<g>
		<path class="st0" d="M116.4,250.4c-2.1,8.1-4.4,16.2-6.2,24.4c-1.1,5.1,6.6,7.3,7.9,2.2c2-8.2,3.4-16.5,5-24.7
			C123.9,247.9,117.5,246,116.4,250.4L116.4,250.4z"/>
	</g>
</g>
<g>
	<g>
		<path class="st0" d="M104.8,241.5c9.1-3.2,18.9-4.4,28.4-2.6c-0.7-1.6-1.3-3.2-2-4.8c-3,7.1-8,12.5-15,15.9
			c-3.9,1.9-1.7,7.6,2.1,7.7c6.3,0.2,16,0.1,19.4,6.7c3.2,6.2-3.6,12.6-7.9,16.1c-10.8,8.8-23.4,14.1-36.3,18.9
			c-5.5,2-3.4,10.2,2.4,8.9c9.3-2.1,18.2-6.3,26.3-11.1c7.9-4.7,16.3-10.3,21.6-18c4.7-6.8,5.3-15.6-0.3-22.1
			c-6.4-7.3-16.2-7.9-25.3-7.7c0.7,2.6,1.4,5.1,2.1,7.7c8.2-4.5,14-11.5,16.8-20.5c0.7-2.2-1.1-4-3.1-4.1
			c-10.6-0.9-20.7,0.3-30.5,4.4C100.7,238,101.8,242.5,104.8,241.5L104.8,241.5z"/>
	</g>
</g>
<g>
	<g>
		<path class="st0" d="M168.3,269.1c5.5-1.9,9.2-6.2,10.3-12c0.3-1.8-0.8-4-3-3.9c-10,0.7-18.5,9.6-16.9,19.9
			c1.6,10.4,12.2,16.4,22.1,14.7c5.8-1,3.4-10.3-2.5-8.9c-4.8,1.1-10.3-1.8-11.8-6.6c-1.8-5.8,3.3-12.2,9-12.9c-1-1-2-2-3.1-3.1
			c0.1,3.8-2,6.6-5.6,7.9C163.9,265.3,165.2,270.2,168.3,269.1L168.3,269.1z"/>
	</g>
</g>
<g>
	<g>
		<path class="st0" d="M208,221.5c-10.6,16.4-14.7,36.1-12.6,55.5c0.7,6.6,10,5.4,9-1.2c-2.4-17.5,1.4-35.3,9.3-50.9
			C215.6,221.1,210.3,217.9,208,221.5L208,221.5z"/>
	</g>
</g>
<g>
	<g>
		<path class="st0" d="M195.5,257.3c9.7-1.8,19.4-3.6,29.1-5.4c5.3-1,3.1-9.1-2.2-8.1c-9.7,1.9-19.3,3.9-29,5.8
			C188.4,250.7,190.6,258.3,195.5,257.3L195.5,257.3z"/>
	</g>
</g>
<g>
	<g>
		<path class="st0" d="M245.6,223.8c-2.7,10.5-5.3,21.2-7.6,31.8c-1.1,5-2.2,10-3.2,15c-1,5.2-2.8,11-2.5,16.3
			c0.3,4.6,6.3,5.3,7.9,1.1c1.6-4.5,1.6-9.7,2.2-14.4c0.7-5.7,1.6-11.4,2.5-17.1c1.7-10.5,3.7-20.9,6-31.3
			C251.5,221.9,246.4,220.4,245.6,223.8L245.6,223.8z"/>
	</g>
</g>
<g>
	<g>
		<path class="st0" d="M234.4,256.5c11.9-3.6,23.9-7,35.9-10.5c4.6-1.3,2.6-8.8-2-7.2c-11.8,4-23.6,8.1-35.5,11.9
			C229,251.8,230.6,257.6,234.4,256.5L234.4,256.5z"/>
	</g>
</g>
<g>
	<g>
		<path class="st0" d="M267.7,267.2c-1-0.7-2-1.5-3-2.3c-1.5-1.2-4.1-1.7-5.5,0c-5.9,7-9.8,17.5-6,26.5c3.3,7.8,11.6,12.6,19.9,10.2
			c6-1.7,3.5-11.2-2.6-9.4c-4.3,1.3-8.4-2.3-9.4-6.4c-1.5-5.7,1.8-11.2,4.3-16.1c-1.8,0.5-3.6,0.9-5.3,1.4c1.4,0.8,2.7,1.6,4.1,2.4
			C268.2,275.9,271.4,269.9,267.7,267.2L267.7,267.2z"/>
	</g>
</g>
<g>
	<g>
		<path class="st0" d="M291.2,294.5c3.2-8,3.5-16.6,1.8-25c-1.6,1.6-3.2,3.2-4.8,4.8c5.9,1.9,12.2,1.2,18-0.6
			c5.8-1.8,3.1-11.1-2.5-9.1c-4.8,1.8-9.4,2-14.5,2c-2.3,0-4.6,2.5-3.7,4.9c2.7,7.2,2.3,14.1-0.3,21.3
			C283.8,296.7,289.7,298.2,291.2,294.5L291.2,294.5z"/>
	</g>
</g>
<g>
	<g>
		<path class="st0" d="M363.2,245.7c-1,14.5-2.2,29-3,43.5c-0.3,4.8,7.6,4.9,7.6,0c-0.1-14.5-0.5-29-0.8-43.5
			C366.9,243.3,363.3,243.3,363.2,245.7L363.2,245.7z"/>
	</g>
</g>
<g>
	<g>
		<path class="st0" d="M344,247.3c12.8-3.7,25.8-6.5,38.9-8.3c6.3-0.9,12.8-1.6,19.2-1.8c5.6-0.2,12.6,0.5,13.9,7
			c0.4-1.6,0.9-3.2,1.3-4.9c-11.3,10.1-24.5,17.7-38.9,22.4c-6.5,2.1-3.6,12.5,2.8,10.3c11.8-4.1,22.9-9.7,32.9-17.2
			c3.6-2.7,11.5-7,11.7-12c0.2-4.7-3.9-9.4-7.6-11.7c-10.1-6.3-24.7-2.4-35.6-0.6c-13.7,2.2-27.2,5.5-40.5,9.7
			C337.5,241.6,339.4,248.6,344,247.3L344,247.3z"/>
	</g>
</g>
<g>
	<g>
		<path class="st0" d="M439.3,222.6c-4,21.9-8.2,43.7-12.4,65.5c-1,5.3,7.3,7.4,8.1,2.2c3.2-22.1,6.4-44.2,9.9-66.2
			C445.4,220.5,440,218.9,439.3,222.6L439.3,222.6z"/>
	</g>
</g>
<g>
	<g>
		<path class="st0" d="M479.3,263.9c-13.8-1.4-30.3,10.8-26.7,26.1c1.7,7.1,9,10.1,15.2,6.3c8.2-5,6.2-14.3,10.7-21.5
			c-2.8-0.8-5.7-1.5-8.5-2.3c0.5,10.5,7.4,19.5,17.7,22.1c6.1,1.5,8.7-8,2.6-9.4c-6.2-1.4-10.9-6.2-11.2-12.7
			c-0.2-4.5-6-6.2-8.5-2.3c-2.4,3.8-3,7.9-4,12.3c-0.5,2.3-1.1,4.7-3.2,6.1c-2.7,1.8-3.6-1-3.6-3.5c0-9.7,10.2-17.6,19.5-16.8
			C482.2,268.6,482.1,264.2,479.3,263.9L479.3,263.9z"/>
	</g>
</g>
<g>
	<g>
		<path class="st0" d="M514.4,252.5c-11.1,3.3-22,11.4-21.9,24.1c0.2,11.2,11.2,20.5,22.3,16.4c6.4-2.4,2.8-11.5-3.7-8.8
			c-7.1,3-11.1-6.4-10-11.8c1.6-7.4,8-12,14.7-14.8C518.9,256.4,517.8,251.4,514.4,252.5L514.4,252.5z"/>
	</g>
</g>
<g>
	<g>
		<path class="st0" d="M547.7,279.8c4.4-3.4,6.8-7.8,6.6-13.5c-0.1-2-1.6-3.4-3.6-3.6c-10.5-0.7-17.5,10.4-14.7,19.9
			c3.7,12.4,16.3,16.7,28,17c4.5,0.1,5.4-6.7,1.1-7.8c-6.2-1.6-13.9-3.2-18.3-8.2c-4.1-4.6-4.1-14.1,4-13.8
			c-1.2-1.2-2.4-2.4-3.6-3.6c0.2,3.5-0.9,5.9-3.6,8.1C540.6,276.8,544.6,282.2,547.7,279.8L547.7,279.8z"/>
	</g>
</g>
</svg>
