<?xml version="1.0" encoding="utf-8"?>
<!-- Generator: Adobe Illustrator 25.1.0, SVG Export Plug-In . SVG Version: 6.00 Build 0)  -->
<svg version="1.1" id="Calque_1" xmlns="http://www.w3.org/2000/svg" xmlns:xlink="http://www.w3.org/1999/xlink" x="0px" y="0px"
	 viewBox="0 0 495.8 317.2" style="enable-background:new 0 0 495.8 317.2;" xml:space="preserve">
<style type="text/css">
	.st0{fill:#FFFFFF;}
</style>
<g>
	<g>
		<path class="st0" d="M47.4,14.1C42.3,30.4,37.3,46.7,32.2,63c-2.5,8.1-5,16.3-7.6,24.5c-2.1,6.7-6.7,15.1-2.8,22
			c3.4,5.9,10.4,7.2,16.6,7.2c8.5,0,17-0.1,25.5-0.2c17.4-0.1,34.7-0.2,52.1-0.7c9.7-0.3,9.7-15.1,0-15.1
			c-15.1,0.1-30.1,0.5-45.2,0.8c-7.2,0.2-14.4,0.3-21.6,0.5c-3.9,0.1-7.9,0.3-11.8,0.3c-1.1,0-2.2-0.1-3.3-0.1c-0.5,0-0.9,0-1.4-0.2
			c0.3,0.7,0.4,0.7,0.4,0c-0.7-2.3,1.6-7.3,2.1-9.6c0.8-3.5,1.7-7,2.6-10.5c1.8-7.3,3.7-14.6,5.5-22c3.7-14.6,7.3-29.3,11-43.9
			C55.4,11.6,48.8,9.7,47.4,14.1L47.4,14.1z"/>
	</g>
</g>
<g>
	<g>
		<path class="st0" d="M41.6,59c17.1-1.7,34.3-3,51.4-5.1c6.6-0.8,6.6-11.2,0-10.4c-17.5,2.1-35,5.1-52.4,7.7
			C36.2,51.9,37.1,59.5,41.6,59L41.6,59z"/>
	</g>
</g>
<g>
	<g>
		<path class="st0" d="M26.9,17.4c30.1-1,60.1-3.1,90.2-4.9c8.1-0.5,7.9-13.3,0-12.5C87,3.2,56.9,6,26.9,9.9
			C22.3,10.5,21.9,17.5,26.9,17.4L26.9,17.4z"/>
	</g>
</g>
<g>
	<g>
		<path class="st0" d="M148.1,67.5c6.1,8.8,12.3,17.6,18.4,26.3c5.9,8.4,11.2,17.3,19.7,23.4c2.8,2,7.2-1.4,6-4.6
			c-3.6-9.8-10.8-17.3-17.3-25.2c-6.8-8.2-13.6-16.5-20.5-24.7C151.5,59.2,145.5,63.8,148.1,67.5L148.1,67.5z"/>
	</g>
</g>
<g>
	<g>
		<path class="st0" d="M149.4,123.9c16.7-18.6,33.5-37,50.4-55.4c5.1-5.5-3.5-13.8-8.2-8.2c-15.9,19.3-31.9,38.7-48.1,57.8
			C140.3,122.1,145.9,127.9,149.4,123.9L149.4,123.9z"/>
	</g>
</g>
<g>
	<g>
		<path class="st0" d="M222.5,77.1c-3.5,25.3-6.5,50.7-10.6,75.9c-1.3,8.1,10.6,9.7,11,1.5c1.5-25.5,4.1-51,6.3-76.5
			C229.6,74.2,223,73.2,222.5,77.1L222.5,77.1z"/>
	</g>
</g>
<g>
	<g>
		<path class="st0" d="M220.9,73.2c12.9-4.6,33.1-11.4,42.7,2.8c3.9,5.8,1.8,12.3-3.4,16.5c-6.5,5.2-15.5,5.4-23.4,6.4
			c-7.1,0.9-7.6,11.8,0,11.5c11.3-0.5,23.4-2.4,31.9-10.5c7.3-6.8,10-17.2,5.6-26.3c-4-8.3-13-13.9-22-15.2
			c-12-1.7-23.5,3.4-34.2,8.2C214.5,68.3,217.1,74.6,220.9,73.2L220.9,73.2z"/>
	</g>
</g>
<g>
	<g>
		<path class="st0" d="M308,10.9c-2.5,15.6-4.9,31.2-7.4,46.8c-2.4,15.4-6.1,30.9-7.4,46.4c-0.6,6.5,10.2,8,11.4,1.5
			c2.9-15.3,3.6-31.2,5.4-46.7c1.8-15.7,3.7-31.4,5.5-47.1C316,7.6,308.7,6.6,308,10.9L308,10.9z"/>
	</g>
</g>
<g>
	<g>
		<path class="st0" d="M357.9,62.9c-13.7-5.4-30.2-3-38.6,10.1c-8,12.4-4.8,29,7.9,36.8c12.8,7.8,29.7,1.7,34.5-12.5
			c5.3-15.5-8.2-28.6-21.7-33.2c-7.2-2.5-11.8,8.6-5.2,12.3c5.7,3.1,16.1,7.4,14.5,15.7c-1.6,8.4-11.3,10.6-17.6,5.8
			c-7.1-5.5-6.9-15.3-1.6-22c6.2-7.8,16.8-9.6,25.8-6.1C360.4,71.4,362.2,64.6,357.9,62.9L357.9,62.9z"/>
	</g>
</g>
<g>
	<g>
		<path class="st0" d="M392.9,105.3c0.9-11.4,0-22.8-1.3-34.1c-2,2-3.9,3.9-5.9,5.9c13-1.6,25.3-3.5,38.5-2.3c9,0.8,9.2-13.8,0-14.2
			c-13-0.6-27.8,0.1-40,4.9c-2.7,1.1-5.3,4-4.1,7.2c4.1,10.5,5,21.4,4.1,32.6C383.7,110.8,392.4,110.8,392.9,105.3L392.9,105.3z"/>
	</g>
</g>
<g>
	<g>
		<path class="st0" d="M459.6,91.4c8.7-1.4,31-10.3,23.7-22.8c-6.7-11.5-23.8-4.2-30.2,3.3c-8.9,10.4-8.4,25.5-0.3,36.2
			c8.9,11.9,24.9,15.4,38.7,10.8c7.7-2.6,4.2-14.9-3.3-12.1c-7.7,2.8-16.5,2.7-23.2-2.5c-5.9-4.6-9.2-12.7-7.1-20.1
			c1.8-6.2,8.6-14.1,15.9-12.5c6.5,1.4-0.5,6.8-3.1,8.6c-3.9,2.7-8.1,4.1-12.7,4.8C453.8,85.9,455.6,92.1,459.6,91.4L459.6,91.4z"/>
	</g>
</g>
<g>
	<g>
		<path class="st0" d="M41.1,174c-9.9,18.3-19.7,36.6-29.6,54.8c-2.8,5.2,5.3,9.8,7.9,4.6c9-18.8,18-37.5,27-56.3
			C48.1,173.5,43,170.4,41.1,174L41.1,174z"/>
	</g>
</g>
<g>
	<g>
		<path class="st0" d="M0.4,171.7c7,12.5,14.9,24.5,24.8,34.9c3.5,3.7,9.3-2,5.6-5.6c-9.9-9.7-18.8-20.1-25.5-32.1
			C3.5,165.7-1.4,168.5,0.4,171.7L0.4,171.7z"/>
	</g>
</g>
<g>
	<g>
		<path class="st0" d="M88.2,181.3c-13-3.8-29.9-4.3-37.5,9.2c-6.7,11.8,1,24.5,12.9,28.6c12.8,4.4,28.5-2.1,32.5-15.5
			c4.2-14.1-7.7-26.9-22-24.2c-7.9,1.5-4.6,14.4,3.4,12.2c7.5-2,8.8,8,5.3,12.4c-4.3,5.3-12.7,6.2-18.5,3.3
			c-6.7-3.4-7.8-10.4-3.1-16.1c6.4-7.7,17.1-7.1,26-5.5C89.9,186.2,91.1,182.1,88.2,181.3L88.2,181.3z"/>
	</g>
</g>
<g>
	<g>
		<path class="st0" d="M104.2,182c-6.4,11.9-2.6,26.6,9,33.6c1.6,1,4.3,0.8,5.6-0.7c7.5-9.3,11.6-20.2,11.6-32.1
			c0-6.5-10.3-6.5-10.1,0c0.2,9.8-2.8,18.8-8.7,26.6c2.1-0.6,4.2-1.1,6.3-1.7c-8.8-4.4-13.6-14.9-10.5-24.4
			C108,181.5,105.2,180.3,104.2,182L104.2,182z"/>
	</g>
</g>
<g>
	<g>
		<path class="st0" d="M145.3,205.9c-0.5-5.7-0.9-11.3-0.8-17c-1.1,1.5-2.2,2.9-3.3,4.4c6.6-1.2,12.9-3.3,19.4-5.1
			c7.2-2,3.8-13.6-3-11c-6.6,2.5-13.4,4.7-19.8,7.8c-1.8,0.9-2.6,3.3-2.1,5.1c1.5,5.5,2.6,11,3.6,16.6
			C139.7,210.2,145.6,209.4,145.3,205.9L145.3,205.9z"/>
	</g>
</g>
<g>
	<g>
		<path class="st0" d="M223.3,177.3c2.1,6,4.3,12,6.3,18.1c0.9,2.7,1.8,5.5,2.7,8.2c1,3.1,2.9,7.2,2.6,10.6c-0.7,6.3,8,7.2,10.9,3
			c8.2-11.8,14-25.1,17.5-39c-3.9,0-7.8,0-11.7,0c2.6,9.5,5.1,19.1,7.7,28.6c1.1,4.1,7.2,6.3,10.2,2.7c17.3-21,34-46.5,39.5-73.6
			c1.1-5.1-6.4-9.1-9-3.8c-5.7,11.9-10.6,24.1-17,35.7c-6.4,11.7-13.8,22.7-22.2,33c3.4,0.9,6.8,1.8,10.2,2.7
			c-2.6-9.5-5.2-19-7.8-28.6c-1.5-5.7-10.2-5.9-11.7,0c-3.2,13-8.6,25.1-16,36.3c3.1-0.4,6.1-0.8,9.2-1.2c-2.3-2-3.6-6-4.8-8.7
			c-1.3-2.9-2.6-5.8-4-8.7c-2.6-5.8-5.1-11.7-7.6-17.6C227.3,172.1,222.3,174.3,223.3,177.3L223.3,177.3z"/>
	</g>
</g>
<g>
	<g>
		<path class="st0" d="M322.8,147.4c-4.7,23.2-10.3,46.3-14.9,69.6c-1.4,7,9.4,9.8,10.6,2.9c3.9-23.6,6.7-47.3,10.4-70.8
			C329.5,145.2,323.6,143.4,322.8,147.4L322.8,147.4z"/>
	</g>
</g>
<g>
	<g>
		<path class="st0" d="M315.2,190c12.4,1.4,24.9,3.9,37.3,5.7c7.8,1.1,9.4-10.2,1.5-10.8c-12.9-1-26-1.2-38.8-2.6
			C310.3,181.8,310.3,189.5,315.2,190L315.2,190z"/>
	</g>
</g>
<g>
	<g>
		<path class="st0" d="M362.1,151.5c-6.3,22.5-12.6,45-18.9,67.6c-1.9,6.6,8.7,9.5,10.2,2.8c5.1-22.9,10.2-45.7,15.4-68.5
			C369.8,149,363.3,147.2,362.1,151.5L362.1,151.5z"/>
	</g>
</g>
<g>
	<g>
		<path class="st0" d="M412.7,172.2c-6.6,15.8-13.1,31.7-19.9,47.4c-3.4,7.8,8,12.6,10.7,4.5c5.5-16.6,11.4-33.2,17.2-49.7
			C422.5,169.3,414.7,167.4,412.7,172.2L412.7,172.2z"/>
	</g>
</g>
<g>
	<g>
		<path class="st0" d="M382.1,155.4c3,13.4,5.6,26.9,9.7,40c1.6,5.2,9.3,3.1,8.1-2.2c-2.9-13.4-7.3-26.5-11.3-39.6
			C387.4,149.4,381.2,151.1,382.1,155.4L382.1,155.4z"/>
	</g>
</g>
<g>
	<g>
		<path class="st0" d="M239.7,241.3c1,0,1-1.6,0-1.6C238.7,239.7,238.7,241.3,239.7,241.3L239.7,241.3z"/>
	</g>
</g>
<g>
	<g>
		<path class="st0" d="M217.7,248.8c1.2,0,1.2-1.9,0-1.9C216.5,246.9,216.5,248.8,217.7,248.8L217.7,248.8z"/>
	</g>
</g>
<g>
	<g>
		<path class="st0" d="M237.7,248.7c44,4,88.1,8.2,132.1,12.2c6.7,0.6,6.9-10.2,0-10.6c-44-2.3-88.1-4.3-132.1-6.6
			C234.4,243.5,234.5,248.4,237.7,248.7L237.7,248.7z"/>
	</g>
</g>
<g>
	<g>
		<path class="st0" d="M276.4,278c15.4,0.6,30.7,1.5,46.1,1.6c6.1,0,6.1-9.2,0-9.5c-15.4-0.6-30.8-0.4-46.1-0.5
			C271,269.6,271.1,277.8,276.4,278L276.4,278z"/>
	</g>
</g>
<g>
	<g>
		<path class="st0" d="M280.6,317c3.8,0,7.7,0.1,11.5,0.1c6.9,0.1,6.9-10.9,0-10.8c-3.8,0-7.7,0.1-11.5,0.1
			C273.9,306.6,273.8,316.9,280.6,317L280.6,317z"/>
	</g>
</g>
</svg>
