<?xml version="1.0" encoding="utf-8"?>
<!-- Generator: Adobe Illustrator 25.0.1, SVG Export Plug-In . SVG Version: 6.00 Build 0)  -->
<svg version="1.1" id="Calque_1" xmlns="http://www.w3.org/2000/svg" xmlns:xlink="http://www.w3.org/1999/xlink" x="0px" y="0px"
	 viewBox="0 0 1911.6 259.7" style="enable-background:new 0 0 1911.6 259.7;" xml:space="preserve">
<style type="text/css">
	.st0{fill:#FEE100;}
</style>
<g>
	<path class="st0" d="M84.8,3.6c50.9,0,77.9,31,77.9,76.5c0,5.8-1.4,14.4-2.5,19.8c-0.4,2.2-0.7,3.6-0.7,5c0,2.9,1.1,4.7,5,6.9
		c24.2,13.7,35,36.1,35,67.8c0,44.4-27.4,76.5-83.7,76.5H7.9c-5.8,0-7.9-2.5-7.9-8.3V11.9c0-5.8,2.2-8.3,7.9-8.3H84.8z M84.8,102.8
		c9.4,0,16.6-5.8,16.6-17c0-10.8-7.2-17-16.6-17H66.4c-5.8,0-7.9,2.5-7.9,8.3v17.3c0,5.8,2.2,8.3,7.9,8.3H84.8z M114.7,190.8
		c14.1,0,22-5,22-17c0-11.5-7.9-17-22-17H66.4c-5.8,0-7.9,2.5-7.9,8.3v17.3c0,5.8,2.2,8.3,7.9,8.3H114.7z"/>
	<path class="st0" d="M301,247.8c0,5.8-2.2,8.3-7.9,8.3h-46.5c-5.8,0-7.9-2.5-7.9-8.3V11.9c0-5.8,2.2-8.3,7.9-8.3h78.6
		C384,3.6,411,35.4,411,84.1c0,28.1-9.7,47.6-28.1,64.9c-3.3,3.2-3.3,6.8,0,10.8l68.9,84c4,5,2.2,12.3-5,12.3h-58.1
		c-6.5,0-10.1-0.7-15.5-7.6l-62.8-79.4c-3.6-4.7-9.4-3.6-9.4,2.9V247.8z M332.8,102.8c9.4,0,16.6-5.8,16.6-17c0-10.8-7.2-17-16.6-17
		H305c-5.8,0-7.9,2.5-7.9,8.3v17.3c0,5.8,2.2,8.3,7.9,8.3H332.8z"/>
	<path class="st0" d="M567.9,220c-8.3,0-11.2,1.8-15.5,9.7l-9,16.6c-4.3,7.9-7.2,9.7-15.5,9.7h-49.1c-6.5,0-8.7-4.3-5.8-10.1
		L599.6,5.8c2.5-4.7,7.9-5.4,10.8,0L737,246c2.9,5.8,0.7,10.1-5.8,10.1h-49.4c-8.3,0-11.2-1.8-15.5-9.7l-9-16.6
		c-4.3-7.9-7.2-9.7-15.5-9.7H567.9z M610.1,136.4c-2.9-5.4-7.2-5.4-10.1,0l-11.9,20.9c-3.6,6.1-1.8,9.4,5,9.4h23.4
		c6.9,0,8.7-3.2,5-9.4L610.1,136.4z"/>
	<path class="st0" d="M840.5,140.7c-4-4.3-9.4-2.9-9.4,3.2v103.9c0,5.8-2.2,8.3-7.9,8.3H777c-5.8,0-7.9-2.5-7.9-8.3V11.9
		c0-5.8,2.2-8.3,7.9-8.3h29.6c8.3,0,9.7,2.9,15.5,9.7l92,106.1c4,4.3,9.4,2.9,9.4-3.3V11.9c0-5.8,2.2-8.3,7.9-8.3h46.2
		c5.8,0,7.9,2.5,7.9,8.3v235.9c0,5.8-2.2,8.3-7.9,8.3H948c-8.3,0-9.7-2.9-15.5-9.7L840.5,140.7z"/>
	<path class="st0" d="M1132.2,3.6c71.8,0,120.8,52.7,120.8,125.9s-49.1,126.6-120.8,126.6h-84.1c-5.8,0-7.9-2.5-7.9-8.3V11.9
		c0-5.8,2.2-8.3,7.9-8.3H1132.2z M1102.3,180.4c0,5.8,2.2,8.3,7.9,8.3h15.5c38.2,0,61.3-22.7,61.3-58.8s-23.1-58.8-61.3-58.8h-15.5
		c-5.8,0-7.9,2.5-7.9,8.3V180.4z"/>
	<path class="st0" d="M1361.6,248.2c0,5.8-2.2,7.9-7.9,7.9h-51.9c-5.8,0-7.9-2.2-7.9-7.9V11.5c0-5.8,2.2-7.9,7.9-7.9h51.9
		c5.8,0,7.9,2.2,7.9,7.9V248.2z"/>
	<path class="st0" d="M1487.2,140.7c-4-4.3-9.4-2.9-9.4,3.2v103.9c0,5.8-2.2,8.3-7.9,8.3h-46.2c-5.8,0-7.9-2.5-7.9-8.3V11.9
		c0-5.8,2.2-8.3,7.9-8.3h29.6c8.3,0,9.7,2.9,15.5,9.7l92,106.1c4,4.3,9.4,2.9,9.4-3.3V11.9c0-5.8,2.2-8.3,7.9-8.3h46.2
		c5.8,0,7.9,2.5,7.9,8.3v235.9c0,5.8-2.2,8.3-7.9,8.3h-29.6c-8.3,0-9.7-2.9-15.5-9.7L1487.2,140.7z"/>
	<path class="st0" d="M1872.4,256.1c-6.1,0-9.4,0-11.9-4c-4.7-7.2-9.7-3.6-16.6-0.7c-9,4-22.7,8.3-44.7,8.3
		c-72.9,0-126.2-54.5-126.2-129.8S1725.9,0,1798.8,0c48,0,90.9,23.4,110,63.5c3.6,7.2,4.7,13-2.5,16.6l-41.1,19.5
		c-5.4,2.5-9,2.9-12.6-2.5c-13-18.8-29.9-28.5-53.4-28.5c-35,0-60.2,27-60.2,61.3c0,37.1,24.5,65.3,62.8,65.3
		c17,0,30.3-3.3,41.1-10.5c5.4-3.6,6.1-6.1,6.1-14.1v-39.7c0-5.8,2.2-8.3,7.9-8.3h46.2c5.8,0,7.9,2.5,7.9,8.3v116.9
		c0,5.8-2.2,8.3-7.9,8.3H1872.4z"/>
</g>
</svg>
