<?xml version="1.0" encoding="utf-8"?>
<!-- Generator: Adobe Illustrator 25.1.0, SVG Export Plug-In . SVG Version: 6.00 Build 0)  -->
<svg version="1.1" id="Calque_1" xmlns="http://www.w3.org/2000/svg" xmlns:xlink="http://www.w3.org/1999/xlink" x="0px" y="0px"
	 viewBox="0 0 553.2 332.4" style="enable-background:new 0 0 553.2 332.4;" xml:space="preserve">
<style type="text/css">
	.st0{fill:#FEE100;}
</style>
<g>
	<g>
		<g>
			<path class="st0" d="M4.1,115.5c4,0,4-6.2,0-6.2C0.1,109.3,0.1,115.5,4.1,115.5L4.1,115.5z"/>
		</g>
	</g>
	<g>
		<g>
			<path class="st0" d="M37.2,36.9c-1.7,17.6-3.1,35.3-4.8,53c-0.6,5.9,9.2,6.1,9.3,0c0.4-17.7,1-35.3,1.4-53
				C43.2,33,37.5,33.2,37.2,36.9L37.2,36.9z"/>
		</g>
	</g>
	<g>
		<g>
			<path class="st0" d="M4.6,32.6C11.1,17,25.7,9.6,42,8.8c5.1-0.3,20.1-1.2,20.3,6.9c0.1,3.2-3.7,4.6-5.9,6.3c-2.5,1.9-4.6,4-6,6.9
				c-6.4,12.5,2.7,27.1,9,37.7C68,81,77.9,94.6,88.7,107.6c4.4,5.3,11.8-2.3,7.6-7.6C84.2,85,72.8,68.8,63.6,51.8
				c-3-5.6-7.5-14.9-2.6-20.6c2.3-2.7,5.8-4.1,8-7c2.1-2.7,3-5.8,2.7-9.1C69.9-3,44.7-1,32.4,1.8C17.9,5.2,2.3,15.5,0,31.3
				C-0.4,34.3,3.5,35.4,4.6,32.6L4.6,32.6z"/>
		</g>
	</g>
	<g>
		<g>
			<path class="st0" d="M122.6,65.5c-4.9,8.7-6.4,18.6-5,28.5c1.2,8.5,4.8,18.8,14.3,20.9c8.8,1.9,18.2-4.2,23.7-10.7
				c6-7.1,9.1-16.2,6.4-25.3c-2.2-7.3-13.6-4.2-11.4,3.1c1.6,5.4,0.1,10.5-3.3,14.9c-2.9,3.9-9.8,10.3-15.1,7.8
				c-4.9-2.3-6.4-11.7-6.9-16.4c-0.7-7,0.5-14,2.7-20.6C129.1,64.5,124.2,62.5,122.6,65.5L122.6,65.5z"/>
		</g>
	</g>
	<g>
		<g>
			<path class="st0" d="M204.6,20c-6.5,29.7-11.8,59.6-16.6,89.5c-1.2,7.3,9.2,8.8,10.1,1.4c3.8-29.8,8.4-59.4,13.1-89.1
				C212,17.5,205.6,15.5,204.6,20L204.6,20z"/>
		</g>
	</g>
	<g>
		<g>
			<path class="st0" d="M238.3,97.8c10.4,5.9,22.1-6.3,23.5-16.2c0.8-5.3-1.6-10.7-6.7-12.8c-5.4-2.2-11.1,0.2-15.3,3.6
				c-10.1,8-13.3,21-6.6,32.3c6.9,11.6,20.5,16.5,33.1,18.5c7.8,1.3,11.2-9.6,3.3-12.1c-10.1-3.2-26.6-6-28.1-19.2
				c-0.6-4.9,3.8-11.9,8.5-13.4c5.4-1.8,2.9,5.2,1.4,7.8c-1.8,2.9-5.6,8.3-9.8,6C237.9,90.3,234.7,95.8,238.3,97.8L238.3,97.8z"/>
		</g>
	</g>
	<g>
		<g>
			<path class="st0" d="M349,91.1c0.7,0,0.7-1,0-1C348.4,90,348.4,91.1,349,91.1L349,91.1z"/>
		</g>
	</g>
	<g>
		<g>
			<path class="st0" d="M365.3,46.4c-6.2,7.1-10.1,16.9-14.4,25.2c-4.3,8.4-8.4,16.8-12.3,25.4c-7.9,17.6-15,35.6-21.4,53.9
				c-2.5,7.3,9.2,10.6,11.6,3.2c5.7-18,12.1-35.7,19.2-53.1c3.6-8.9,7.4-17.8,11.3-26.6c3.7-8.1,8.9-16.3,11.2-24.9
				C371.3,46.5,367.4,43.9,365.3,46.4L365.3,46.4z"/>
		</g>
	</g>
	<g>
		<g>
			<path class="st0" d="M403.7,46.8c-5.5,6.9-9,16.5-12.9,24.4c-4,8.1-7.9,16.2-11.8,24.4c-3.9,8.2-7.7,16.3-11.5,24.5
				c-1.9,4.1-3.8,8.2-5.6,12.3c-1.9,4.3-4.4,8.5-4.7,13.2c-0.2,3.7,5,5.9,7.5,3.1c2.8-3.1,3.8-6.9,5.3-10.8
				c1.6-4.2,3.3-8.4,4.9-12.6c3.4-8.7,6.9-17.3,10.6-26c3.6-8.7,7.4-17.3,11.1-25.9c3.5-7.9,8.6-16.3,10.6-24.7
				C407.8,47,405.2,45,403.7,46.8L403.7,46.8z"/>
		</g>
	</g>
	<g>
		<g>
			<path class="st0" d="M327.4,92.3c29.1-2.8,58-1.9,87.2-0.4c6.1,0.3,5.8-8.6,0-9.3c-29.1-3.6-59.1-1.3-88,3.8
				C323.4,87,324.1,92.6,327.4,92.3L327.4,92.3z"/>
		</g>
	</g>
	<g>
		<g>
			<path class="st0" d="M308.8,126.1c18.2-2.9,36.5-4.9,54.9-6c18.1-1.1,36.3-0.3,54.3-1.7c6.1-0.5,6-8.8,0-9.4
				c-18.5-1.9-37.7,0.2-56.2,2.1c-18.4,1.9-36.6,4.7-54.8,8.3C302.6,120.3,304.5,126.8,308.8,126.1L308.8,126.1z"/>
		</g>
	</g>
	<g>
		<g>
			<path class="st0" d="M460,93.3c6.4-2.5,12.4-5.6,18.2-9.3c5.7-3.7,11.1-9.1,17.3-11.9c-2.6-2.6-5.1-5.1-7.7-7.7
				c-6.3,13.8-10,29.3-13.7,43.9c-3.6,14.5-8.1,30.3-8.4,45.3c-0.1,6.5,9.6,7.8,11.3,1.5c2-7.2,2.8-14.9,4.2-22.3
				c1.4-7.1,2.9-14.3,4.6-21.3c3.5-14.5,8.7-28.4,12.3-42.8c1.3-5.1-5.7-10.1-9.4-5.5c-3.8,4.6-9.9,8.2-14.8,11.5
				c-5.2,3.5-10.6,6.7-16.4,9.1C451.7,86.2,454.1,95.6,460,93.3L460,93.3z"/>
		</g>
	</g>
	<g>
		<g>
			<path class="st0" d="M437.5,176.8c25.6-5.8,51.1-6,77.2-4.7c5.3,0.3,6.7-8.6,1.3-9.4c-26.8-3.7-54.5-0.7-80.7,5.7
				C429.8,169.8,432.1,178,437.5,176.8L437.5,176.8z"/>
		</g>
	</g>
	<g>
		<g>
			<path class="st0" d="M42.3,162.2c124.2,14.9,248.4,29,372.6,44.1c35,4.3,69.9,9,104.9,12.9c6.7,0.7,8.3-10.8,1.6-11.8
				c-62.4-8.8-125.1-15.7-187.7-22.7c-62.1-7-124.1-13.9-186.3-19.9c-35-3.4-70-7-105.1-10C37.5,154.3,37.7,161.6,42.3,162.2
				L42.3,162.2z"/>
		</g>
	</g>
	<g>
		<g>
			<path class="st0" d="M60.7,200.6c-1.1,9.7-1,19.5-1.1,29.2c-0.1,9.6-1.1,19.7-0.2,29.2c0.5,6,8.8,6,9.3,0
				c0.8-9.6-0.2-19.6-0.4-29.2c-0.2-9.7-0.1-19.5-1.3-29.2C66.5,196.6,61.2,196.5,60.7,200.6L60.7,200.6z"/>
		</g>
	</g>
	<g>
		<g>
			<path class="st0" d="M33.4,204.8c1.1-7.4,14.4-9.5,20.3-10.4c8.3-1.3,16.7-0.9,24.8,1.1c-1-1.7-2-3.5-2.9-5.2
				c-2,7.5-9.5,10.9-16,13.7c-4.6,1.9-4.8,10.1,1.3,9.7c10.7-0.7,23.3-0.8,32.3,6.1c4.6,3.5,6.3,8.7,2.7,13.6
				c-3.1,4.1-7.3,7.6-11.5,10.5c-8.3,5.7-17.5,9.7-26.7,13.6c-5.3,2.3-10.6,4.5-16.1,6.2c-5.6,1.7-11.4,2.2-17,3.7
				c-4,1-4.3,7.5,0,8.4c13.6,2.9,28.5-5.2,40.5-10.6c12.3-5.6,24.8-11.6,34.3-21.4c4.2-4.3,8.3-9.5,8.3-15.9
				c0-6.1-3.3-11.7-7.9-15.4c-10.6-8.5-27.2-11-40.2-8.5c1.3,3,2.5,6,3.8,9c8.7-4.5,18.1-10.2,20.4-20.4c0.5-2.1-0.6-4.7-2.9-5.2
				c-11-2.2-22.4-2.1-33.2,0.9c-8.1,2.2-19.2,6-20.1,15.7C27.1,207.4,32.9,208.2,33.4,204.8L33.4,204.8z"/>
		</g>
	</g>
	<g>
		<g>
			<path class="st0" d="M121.8,267.6c-0.4-4.6-0.9-9.2-1.2-13.7c-0.1-2-0.3-3.9-0.4-5.9c-0.1-1.3-0.2-2.6-0.2-3.9
				c-0.2,0.5,0.1,0.5,0.9,0.2c2.9-1.3,8.8-0.6,12-0.9c4.3-0.3,8.6-0.7,13-1c5.9-0.5,5.8-9.8,0-9.2c-5.9,0.6-11.7,1.2-17.6,1.8
				c-4,0.4-10.4,0-13.7,2.8c-3.3,2.8-1.7,7.5-1,11c1.2,6.5,2.1,12.9,3.1,19.4C117.1,271.2,122.1,270.5,121.8,267.6L121.8,267.6z"/>
		</g>
	</g>
	<g>
		<g>
			<path class="st0" d="M161.2,268.6c7.1-4.7,12.2-10.9,13.9-19.4c0.3-1.3-0.2-2.6-1.3-3.3c-8.7-5.1-19.2,2.3-20.6,11.5
				c-1.8,11.7,12.4,17.5,21.3,20.4c4.3,1.4,7.4-5.6,3.1-7.5c-4.7-2-10.8-4.6-14.5-8.2c-4.7-4.5,1.6-14.4,7.7-11.3
				c-0.4-1.1-0.9-2.2-1.3-3.3c-1,6.9-4.5,13.2-10.8,16.6C155.8,265.8,158.5,270.4,161.2,268.6L161.2,268.6z"/>
		</g>
	</g>
	<g>
		<g>
			<path class="st0" d="M204.1,250.1c-2.3-4.2-7.6-5.4-11.8-3.7c-5.4,2.2-8.9,10.1-9.6,15.6c-0.7,5.8,3.6,11.9,10,10.5
				c6.6-1.5,11.2-8.9,14.3-14.3c-2.2-1.3-4.5-2.6-6.7-3.9c-5.3,8.8-1.1,20.4,8.4,23.9c4.5,1.7,7.8-5.9,3.3-7.9
				c-4.7-2.1-7.6-7.2-5-12.1c2.4-4.5-4-8.1-6.7-3.9c-1.4,2.1-3,3.9-4.8,5.6c-0.8,0.8-1.7,1.5-2.6,2.2c-0.4,0.3-0.8,0.6-1.2,0.9
				c-0.7,0.6-0.8,0.5-0.1-0.3c-0.5-2.7,5.2-14.6,8-9.7C201.1,255.9,205.8,253.2,204.1,250.1L204.1,250.1z"/>
		</g>
	</g>
	<g>
		<g>
			<path class="st0" d="M228.2,220.1c-2.2,9.3-3.8,18.8-4.6,28.3c-0.8,9.7-1.8,19.9-0.9,29.6c0.6,5.9,9.1,6.1,9.4,0
				c0.4-9.5-0.2-19.1,0.2-28.6c0.5-9.5,1.2-19,2-28.4C234.7,217.4,229,216.7,228.2,220.1L228.2,220.1z"/>
		</g>
	</g>
	<g>
		<g>
			<path class="st0" d="M232.5,252c7.2-6.3,14.5-12.6,21.6-19c4-3.6-1.8-9.2-5.8-5.8c-7.3,6.2-14.4,12.6-21.6,19
				C222.7,249.7,228.5,255.5,232.5,252L232.5,252z"/>
		</g>
	</g>
	<g>
		<g>
			<path class="st0" d="M233.3,255.3c4.8,9,10.5,18.1,18.3,24.9c3.9,3.4,8.6-1.6,5.6-5.6c-6-7.6-12.2-14.8-17.3-23.2
				C237.4,247.1,231,250.9,233.3,255.3L233.3,255.3z"/>
		</g>
	</g>
	<g>
		<g>
			<path class="st0" d="M301.8,234.1c-3.3,3.2-4.2,8.7-5.3,13.1c-1.3,5.1-2.2,10.3-2.6,15.5c-0.8,10.2-0.8,21.7,3.8,30.9
				c1.8,3.6,7.6,1.8,7.5-2c-0.2-9.4-2.6-18.5-2.4-28c0.1-4.8,0.4-9.6,1.1-14.3c0.7-4.3,2.8-9,2.2-13.3
				C306,233.8,303.6,232.3,301.8,234.1L301.8,234.1z"/>
		</g>
	</g>
	<g>
		<g>
			<path class="st0" d="M286.3,259.8c8.2,2.5,18.3,1.6,26.7,0.7c6-0.7,4.9-9.3-1.1-8.2c-8.5,1.6-17.1,1.2-25.6,2.4
				C283.5,255.1,284,259.1,286.3,259.8L286.3,259.8z"/>
		</g>
	</g>
	<g>
		<g>
			<path class="st0" d="M333.4,235.8c-5.4,15.3-9.5,32.9-8.9,49.3c0.2,4.6,7.8,6.2,8.5,1.1c1.1-7.9,1.4-15.8,2.4-23.7
				c1.1-8.4,2.7-16.7,4.4-24.9C340.6,233.4,334.8,231.8,333.4,235.8L333.4,235.8z"/>
		</g>
	</g>
	<g>
		<g>
			<path class="st0" d="M333.7,268c3.6-4.4,7,0.5,7.3,4.2c0.3,3.6-0.4,7.3,0.4,10.9c1.5,6.4,7.3,10.8,13.9,9.3
				c5.5-1.3,3.1-9.2-2.3-8.3c-3.9,0.6-3.1-10.3-3.4-12.5c-0.4-3.6-1.4-7.2-4.2-9.7c-5.3-4.8-12.5-2.7-16.3,2.6
				C327.1,267.1,331.6,270.6,333.7,268L333.7,268z"/>
		</g>
	</g>
	<g>
		<g>
			<path class="st0" d="M363.9,279.4c8-0.8,14.8-3.9,20.8-9.2c0.9-0.8,1.3-2.7,0.5-3.8c-7.8-10.6-22-5.1-27,5.3
				c-7.2,15.2,12,22,23.5,23.9c6,1,8.4-8.2,2.5-9c-4.9-0.7-19.1-2.5-19.3-9.3c-0.2-7.5,10.3-13.1,15.4-7c0-1.5,0-2.9,0-4.4
				c-4.7,4.8-10.4,7.7-17.1,8.8C360.5,275.1,361.1,279.7,363.9,279.4L363.9,279.4z"/>
		</g>
	</g>
	<g>
		<g>
			<path class="st0" d="M417.6,304.3c-1-11-2.9-22.8-2-33.8c-1.6,1.6-3.2,3.2-4.8,4.8c7.5,0.1,15.6,0.1,22.8-2
				c3.9-1.1,4.6-7.9,0-8.6c-7.9-1.2-16.2,0-24.1,1.3c-2.5,0.4-4,3.6-3.3,5.8c3.2,10.3,3.8,21.9,5.2,32.5
				C412,308.1,418,308.3,417.6,304.3L417.6,304.3z"/>
		</g>
	</g>
	<g>
		<g>
			<path class="st0" d="M448.3,274.7c-1.3,12-0.3,25.8,9.7,34c1.8,1.4,4.1,1.7,5.8,0c8.4-7.9,10-19.9,10.2-30.9
				c0.1-5.4-7.8-5.2-8.2,0c-0.7,8.8-0.9,18.5-7.7,25.1c1.7-0.2,3.3-0.4,5-0.6c-8.5-6.4-7.8-18.1-8.2-27.5
				C454.6,270.5,448.7,270.7,448.3,274.7L448.3,274.7z"/>
		</g>
	</g>
	<g>
		<g>
			<path class="st0" d="M489.5,248.3c-1.9,10.6-3.2,21.2-4.6,31.8c-1.4,11-3.3,22-3.8,33.1c-0.2,4.5,7.3,5.7,8,1.1
				c1.7-10.7,2.3-21.5,3.1-32.3c0.9-11,1.8-22.1,2.2-33.1C494.5,246.2,490,245.5,489.5,248.3L489.5,248.3z"/>
		</g>
	</g>
	<g>
		<g>
			<path class="st0" d="M509.3,303.5c5.7-3.3,17.5-8.9,16-17.2c-1.6-9.1-12.6-8.8-18.4-4.3c-6.6,5.1-10.5,13.8-10.4,22.1
				c0.1,9.2,6.2,16.6,15.8,15.2c5.6-0.8,4.3-10.6-1.3-9.9c-8.1,0.9-3.5-14-1.4-17.2c1.1-1.6,2.4-3.5,4.2-4.5
				c0.7-0.3,1.5-0.5,2.2-0.8c1.6,1.4,1.7,2.6,0.3,3.5c-1.5,3-7.2,6.5-9.7,8.3C503.7,300.8,506.2,305.4,509.3,303.5L509.3,303.5z"/>
		</g>
	</g>
	<g>
		<g>
			<path class="st0" d="M551.2,279.3c-3.9-1.6-7.8-0.2-10.7,2.7c-3.5,3.5-3.9,8.4-3,13.1c1.1,5.8,4.6,11.1,4.8,17
				c0.2,7.3-4.3,10.8-11.1,8.2c-6.8-2.6-9.9,8.6-3,10.9c10.7,3.7,21.4-1.5,24-12.8c1.3-5.5,0.1-11.3-1.8-16.4
				c-1.1-2.9-2.7-5.5-3.8-8.4c-0.9-2.4-2-9.7,3.1-9C553.3,285.2,554.6,280.7,551.2,279.3L551.2,279.3z"/>
		</g>
	</g>
</g>
</svg>
