<?xml version="1.0" encoding="utf-8"?>
<!-- Generator: Adobe Illustrator 25.0.0, SVG Export Plug-In . SVG Version: 6.00 Build 0)  -->
<svg version="1.1" id="Calque_1" xmlns="http://www.w3.org/2000/svg" xmlns:xlink="http://www.w3.org/1999/xlink" x="0px" y="0px"
	 viewBox="0 0 256 256" style="enable-background:new 0 0 256 256;" xml:space="preserve">
<style type="text/css">
	.st0{fill:#FFE521;}
</style>
<path class="st0" d="M119.3,116.9c-2.4,0.3-4.9,0.6-9.9,1.1c8.6-6,15.2-10.7,21.9-15.2c5.8-3.9,13.6-5.6,13.1-15.2
	c-0.1-1.8,4.1-5.7,6-5.5c21.1,1.6,31.3-14.5,40.6-27.8c12.4-17.6,28.6-16.6,45.4-15c10.5,1,15.6,11.5,12.6,21.7
	c-5.4,18.6-17.7,31-34,41.1c-13.2,8.2-24.4,19.6-36.8,29c-5,3.8-10.9,6.2-18.2,6.9c3-2.8,5.9-5.7,8.9-8.5c-0.2-0.5-0.5-0.9-0.7-1.4
	c-19.5,10.7-39.1,21.2-58.4,32.2C96.2,168,83,176.6,69.3,184.1c-7.5,4.1-13.2,11.7-24.6,8.5c-4.4-1.3-11.9,7.4-17.8,11.9
	c-6.9,5.3-13.6,11-20.4,16.5c-1.4-1.8-2.7-3.7-4.1-5.5c18-14.1,36.1-28.1,54.1-42.2c-4.2,0.7-8.8,1.4-13.4,2.1
	c-0.2-0.7-0.5-1.5-0.7-2.2c6.9-3.5,14.6-6.1,20.5-10.9c6.2-4.9,10.3-12.3,16-17.9c4.9-4.7,10.5-8.9,16.4-12.4
	c7.9-4.7,16.4-8.5,24.6-12.7C119.7,118.5,119.5,117.7,119.3,116.9z M186.3,93.6c0.8,1.1,1.6,2.2,2.5,3.3c14.6-7.6,34.1-6,43.6-22.4
	c3.5-5.9,4.4-16.5,1.4-22.3c-4.7-9.2-11.5,0.1-17.2,2.2c-3,1.1-6,2.6-8.4,4.7c-9.9,8.3-19.6,16.8-29.4,25.3c1,1.2,2,2.3,3,3.5
	c5.1-2.2,10.2-4.4,15.3-6.6c1.6,1.8,3.1,3.7,4.7,5.5C196.6,89,191.4,91.3,186.3,93.6z"/>
</svg>
