<svg xmlns="http://www.w3.org/2000/svg" viewBox="0 0 1411.65 283.28"><defs><style>.cls-1{fill:#ffe600;}</style></defs><g id="Calque_2" data-name="Calque 2"><g id="Layer_1" data-name="Layer 1"><path class="cls-1" d="M135.62,36.1c-19.05-11.84-40.79-23-62.85-27.74C66.53,7,64,16,70.12,17.94c10.5,3.31,21.08,6.14,31.34,10.17a209.65,209.65,0,0,1,30.09,15c4.49,2.66,8.47-4.22,4.07-7Z"/><path class="cls-1" d="M74.51,161.88c-11.55,1.37-23.21,2.23-34.82,2.88s-23.56.16-35,1.66c-6.09.79-6.31,9.07,0,9.65,11.75,1.08,24.34-.71,36-2.11s23.17-3.41,34.72-5.64c3.58-.69,2.82-6.88-.87-6.44Z"/><path class="cls-1" d="M108.31,247.34c-8.46,9.19-16.38,18.85-24.43,28.4-4.16,4.93,3.18,10.72,7.07,5.45,7.41-10,15-20,21.92-30.33,1.84-2.74-2.33-5.94-4.56-3.52Z"/><path class="cls-1" d="M1302.22,34.82c19.31-12.95,40.64-21.14,63-27.07,5-1.34,2.84-8.51-2.12-7.68-23.43,3.91-45.42,14.64-64.5,28.59-3.63,2.66-.27,8.75,3.6,6.16Z"/><path class="cls-1" d="M1291.14,126.05c38.76,1.27,77.76.64,116.53-.26,5.3-.12,5.32-8.28,0-8.25-38.79.21-77.81.7-116.53,3.07-3.48.22-3.52,5.33,0,5.44Z"/><path class="cls-1" d="M1286.49,219.56c16.85-.31,31.84,5.44,47.35,11.17,3.87,1.42,6.11-4.49,2.74-6.52-14.82-8.92-33.22-10.4-50.09-9.8-3.31.11-3.33,5.21,0,5.15Z"/></g></g></svg>