<svg xmlns="http://www.w3.org/2000/svg" viewBox="0 0 624.8 215.97"><defs><style>.cls-1{fill:#ffe600;}</style></defs><g id="Calque_2" data-name="Calque 2"><g id="_Calque_" data-name="&lt;Calque&gt;"><path class="cls-1" d="M232.59.71A305.23,305.23,0,0,0,93.92,23.56c-21.4,9-42.46,20.35-60.42,35.18-16.58,13.7-30.3,32-33,53.82-6,47.74,45.66,69.77,83.07,81,49.36,14.75,101.68,18.39,152.89,20.84,105.68,5.07,212.73-1.48,316.1-24.85,20.61-4.66,42.53-10.85,58.06-26,7.52-7.36,13.17-16.89,14.09-27.52,1-11.27-3.74-22.43-10-31.51-25.85-37.19-74-52.13-115.65-63C398.74,15.29,293.18,15,190.41,21q-18.79,1.1-37.57,2.44c-4.12.3-4.19,6.71,0,6.48,98.36-5.31,197.68-9.8,295.19,7.46a614,614,0,0,1,70.69,16.72c20.41,6.17,40.68,13.68,58.79,25.11,17.32,10.92,37.77,28.51,40.34,50.18,2.81,23.65-21.19,39.14-40.4,46.17-21.6,7.91-45,11.67-67.56,15.75q-37.87,6.86-76.18,11a1238.55,1238.55,0,0,1-151,6.83c-49.5-.71-99.71-2.94-148.62-11-23.73-3.9-47.24-9.52-69.76-18-18.44-7-38.3-16.86-49.64-33.7-12.81-19-9.37-42.89,2.7-61.36C29.61,66.28,49,53.13,68.16,42.25A291.09,291.09,0,0,1,199.56,4.84a300.78,300.78,0,0,1,33,.56c3,.21,3-4.48,0-4.69Z"/></g></g></svg>