<svg xmlns="http://www.w3.org/2000/svg" viewBox="0 0 515.07 310.68"><defs><style>.cls-1{fill:#fff;}</style></defs><g id="Calque_2" data-name="Calque 2"><g id="Case_study" data-name="Case study"><path class="cls-1" d="M94.48,22.42l-5,51.35c-.51,5.27,7.88,5.32,8.29,0l3.94-51.35c.36-4.67-6.79-4.58-7.24,0Z"/><path class="cls-1" d="M54.88,19.37A79.17,79.17,0,0,1,111.64,7.61c4.06.73,9.42,1.61,12.17,5,3.25,4,.47,9-2.76,12-6.78,6.19-17.88,6.31-26,10.32-4.38,2.16-.54,8.63,3.82,6.53,10.34-5,23-4.7,30.17-15,6.12-8.83,2.77-19-7-23-10.6-4.29-23.83-4-34.93-2.32a88.28,88.28,0,0,0-35,13.39c-3,2-.21,6.82,2.83,4.85Z"/><path class="cls-1" d="M120.59,82c-3.52-13.58,7.06-25.77,20.91-24.6,5.1.44,5.19-7.79,0-8a26.14,26.14,0,0,0-26.38,34.12c1.09,3.47,6.39,2,5.47-1.5Z"/><path class="cls-1" d="M175.62,74.3a29.71,29.71,0,0,0,8.64-25.79c-.27-1.8-2.52-2.71-4.08-2.31-18.16,4.57-20.6,28.85-4.26,37.56,4.81,2.56,9.09-5,4.25-7.27-11-5.24-10-20.38,1.77-23.9l-4.07-2.32A21.32,21.32,0,0,1,172,70.66c-2.36,2.33,1.28,6,3.64,3.64Z"/><path class="cls-1" d="M192.71,55.23a51.27,51.27,0,0,0,.75,28,3.5,3.5,0,0,0,5.77,1.52A201.37,201.37,0,0,0,233,48.82c2.55-3.5-3.35-8.11-6-4.67a312.88,312.88,0,0,1-32.57,35.69l5.77,1.53A41.35,41.35,0,0,1,198,56.68c.78-3.43-4.46-4.89-5.29-1.45Z"/><path class="cls-1" d="M244.76,62.93a153.13,153.13,0,0,0-5.5,31.66c-.27,4,4.78,5.31,7.39,3.06l5-4.28c3.43-3-1.16-9.05-4.9-6.35l-5.31,3.83,6.52,3.74a138.84,138.84,0,0,1,2.82-30c.8-3.87-4.87-5.51-6-1.64Z"/><path class="cls-1" d="M282.11,54.89c-14.94,8.77-16.69,29-4.26,40.76a4.06,4.06,0,0,0,5.6,0c8.22-7.58,15.78-18.26,11.7-30a15.78,15.78,0,0,0-24.94-7.28c-4.88,4,2.25,11.37,7,7,5.52-5.05,10.44,3.52,10.17,8.38-.36,6.52-5.21,11.84-9.54,16.27h5.6a19,19,0,0,1,1.39-30.49c2.79-2,.32-6.47-2.73-4.67Z"/><path class="cls-1" d="M308.1,62.59a109.47,109.47,0,0,0,1.6,24c.92,4.77,3.73,9.92,9.32,9.73,6.13-.21,9.29-6.63,11.33-11.49A62.75,62.75,0,0,0,335,62.6c.24-6-9.56-6.07-9.39,0a48.18,48.18,0,0,1-1.39,13.05c-.45,1.85-2.61,11.27-4.85,11.68-4.05.75-4.59-21.87-4.63-24.74-.07-4.24-6.45-4.24-6.59,0Z"/><path class="cls-1" d="M251,48.39c4.7,0,4.71-7.3,0-7.3s-4.71,7.3,0,7.3Z"/><path class="cls-1" d="M361.94,52.42c-5.05.87-11.43,4.35-13.29,9.52-1.67,4.63,3.07,10,6.11,13,4.13,4.11,10.52,8,11.76,14.13,2,9.91-11.55,5.89-16.23,4.16-6.32-2.34-9.36,8.18-2.81,10.19,6.34,1.93,13.06,3.45,19.41.73a14.14,14.14,0,0,0,8.92-13.59c-.52-13.83-16.07-17.6-21.22-28.63l.35,2.66a11.82,11.82,0,0,1,8.39-7.15c3.29-.9,1.86-5.59-1.39-5Z"/><path class="cls-1" d="M56,184.71c10-18,19.81-36.08,30.09-53.9l-7.49-2c-.32,10.18-.52,20.36-.68,30.54s-.83,20.42,0,30.54a4.44,4.44,0,0,0,8.87,0c.92-10.11.34-20.39.26-30.54s-.19-20.36-.41-30.54c-.09-3.79-5.61-5.72-7.49-2C69.85,145.11,60,163.22,50.4,181.41c-2,3.71,3.59,7,5.63,3.3Z"/><path class="cls-1" d="M7.3,191.59Q38.13,183.4,68.9,175c20.54-5.57,41.16-10.76,61.3-17.65a3.59,3.59,0,0,0-1.91-6.92c-20.78,4.63-41.08,10.95-61.5,16.91S26,179.3,5.58,185.36c-4,1.19-2.31,7.3,1.72,6.23Z"/><path class="cls-1" d="M150.07,173c-10.8-3.45-24.64-4.37-32.38,5.56-6.12,7.85-6.63,20.71,2.68,26.43,8.51,5.24,21.17,1.84,24.81-7.77s-2.88-22.06-13.48-23c-4.8-.42-7,7.3-2.52,9.3,4.08,1.83,9,5.71,6.37,10.92-2.27,4.42-9.36,4.61-12.25.89-3.53-4.56-.83-11.56,3.1-14.92,6.16-5.25,15.08-4.87,22.37-2.7,3,.9,4.29-3.77,1.3-4.72Z"/><path class="cls-1" d="M147.36,127.61l-7.58,54.09c-1,7-2.79,14.93,1.05,21.42,3.13,5.28,9.54,8.29,15.47,6.25,6.36-2.19,3.35-12.46-2.76-10s-5.75-7.52-5.5-11c.5-6.7,1.23-13.4,1.85-20.09l3.68-39.85c.32-3.51-5.72-4.38-6.21-.84Z"/><path class="cls-1" d="M170.8,178.93a84.94,84.94,0,0,0,3.78,39.51,4.57,4.57,0,0,0,8.24,1.08c6.79-10.05,13.13-20.33,20.42-30.06a365.18,365.18,0,0,1,23.54-28.26c4.72-5.13-3-12.85-7.66-7.65C202.53,172.1,186.34,192.69,175,215h7.79a60.81,60.81,0,0,1-5.36-35.14c.5-3.75-6.14-4.69-6.66-.9Z"/><path class="cls-1" d="M229.51,204.14A36.64,36.64,0,0,0,253,186.49a4,4,0,0,0-1.41-5.39c-12.23-9-29.37-.28-29.91,14.64-.56,15.32,17.22,25.14,29.69,15.93,4.46-3.3.64-10.41-4.44-7.61-6.73,3.72-16-.06-15.94-8.32,0-8.81,9.86-12.3,16.62-7.84l-1.41-5.39a30,30,0,0,1-18.38,15.59c-3.86,1.16-2.26,7,1.66,6Z"/><path class="cls-1" d="M276,209.58A48.61,48.61,0,0,1,291.46,186l-4.85.62a32.66,32.66,0,0,0,3.13,1.57l-1.93-2.52c2.52,9.85-3.51,20.19,1.75,29.72,4,7.23,12.63,9.49,19.13,4.38,3.1-2.44-.26-7.86-3.84-6.6-9.19,3.25-8.33-11.19-8-16.13.3-4,.56-8-.45-11.89s-3.13-4.64-6.76-5.84a3.93,3.93,0,0,0-3.9,1,63.32,63.32,0,0,0-15.05,27.79c-.82,3.43,4.25,4.83,5.28,1.45Z"/><path class="cls-1" d="M335.71,151.26c-6.3,21.31-9.56,43.25-8.56,65.47.25,5.55,9.1,5.4,8.54,0-2.23-21.52-.92-43.25,5.05-64.08.93-3.23-4.08-4.6-5-1.39Z"/><path class="cls-1" d="M323.32,193.1c8.61-1.39,17.23-2.56,25.89-3.63,5.85-.72,4.74-9.24-1.08-8-8.85,1.87-17.68,3.62-26.6,5.16-4.27.73-2.44,7.16,1.79,6.48Z"/><path class="cls-1" d="M366.29,188.73a34.39,34.39,0,0,0-4.44,21.77c.83,6.35,3.39,14.54,9.93,17.14,16.32,6.48,17.66-27,15.19-35.63-1.48-5.17-8.3-3.64-8.83,1.2s0,9.46-.45,14.19a59.68,59.68,0,0,1-1.29,7.48c-.49,2.1-.64,5.2-3.27,3.79-3.5-1.85-4.81-9.08-5.19-12.61a28.47,28.47,0,0,1,2.46-14.92c1.24-2.74-2.55-5.12-4.11-2.41Z"/><path class="cls-1" d="M412.12,225.16c2.59-6.85-1.44-12.95-2.61-19.6-1.66-9.45,8.68-9.94,15.42-10.12,6.05-.16,6.05-9.2,0-9.39-8.3-.26-19.69,1.55-22.75,10.69-3.2,9.55,7.62,17.82,4.34,26.88-1.28,3.53,4.29,5,5.6,1.54Z"/><path class="cls-1" d="M461.67,207.47c4.72-1.25,9.72-3.09,11.68-8a8.31,8.31,0,0,0-3-10.22c-8.32-5.44-18.65,4.22-22.56,10.84-5,8.45-5.29,19.66,1.75,27.08,6.26,6.6,17,9.21,24.72,3.63,5.11-3.68.45-12.16-5-8.61-7.49,4.85-16.5-2.06-16.23-10.32a19.46,19.46,0,0,1,6.32-13.16c1.36-1.28,4-3.55,6.11-3.26,1.6.22,1.64,2.31.7,3.67s-4.39,2.16-6.06,2.65c-3.62,1.06-2.1,6.63,1.56,5.66Z"/><path class="cls-1" d="M506.68,189.92a7.57,7.57,0,0,0-9.77,2.53c-3,4.1-1,9.62,1.62,13.34,3.87,5.53,8.6,9.89,7.32,17.28a14,14,0,0,1-12.06,11.4c-7.53.8-6.17,11.69,1.39,10.32,10-1.81,18.3-9.67,19.67-19.87a23.91,23.91,0,0,0-2.65-14.56,25.87,25.87,0,0,0-4.8-5.88,31.44,31.44,0,0,1-4.11-4.21c-.94-1.37-3.63-8.25,1.88-6.78,2.09.56,3.54-2.54,1.51-3.57Z"/><path class="cls-1" d="M2.05,253.75c62.8-.12,125.93,3.46,188.46,9.16q93.47,8.54,185.84,25.77c35.06,6.55,69.9,14.21,104.73,21.9,4.69,1,6.69-6,2-7.24-61.48-15.84-124.34-26.89-187.21-35.59-61.94-8.58-124.36-14.6-186.86-17.1-35.67-1.43-71.26-1.45-106.95-1.14-2.73,0-2.74,4.24,0,4.24Z"/></g></g></svg>