<svg xmlns="http://www.w3.org/2000/svg" viewBox="0 0 546.79 322.01"><defs><style>.cls-1{fill:#fff;}</style></defs><g id="Calque_2" data-name="Calque 2"><g id="WHAT_WE_DO" data-name="WHAT WE DO"><path class="cls-1" d="M0,15.89c.93,21.35,5.34,41.43,11.7,61.8,1.25,4,7.48,5.5,9.57,1.25,5.17-10.53,10.23-21.13,15.34-31.7l-9.4,1.21c3.29,4,3.83,9.74,5,14.63a32.91,32.91,0,0,0,6.24,13.38c6.7,8.16,17.72,9.15,25.51,1.85,3.63-3.4,6-8,8.17-12.33q4.67-9.23,9.3-18.48l19-37.83c3.68-7.31-7.33-13.78-11-6.44C79.36,23.38,70,44.15,59,63.84,57.63,66.32,55.24,71,51.9,71c-3.19,0-5.46-4.16-6.53-6.67C41.75,55.91,42,47.28,35.68,40c-2.32-2.68-7.92-2.21-9.4,1.21-4.69,10.83-9.43,21.62-14,32.47h9C12.72,55.45,7.32,35.14,3.78,15.38c-.39-2.14-3.87-1.64-3.78.51Z"/><path class="cls-1" d="M107.6,65.56a48.75,48.75,0,0,0,33.1-18.12,4.25,4.25,0,0,0,.63-4.86c-3.82-7.89-13.11-12.09-21.64-10.28-9,1.92-15.27,10.27-16.31,19.13-1.16,9.73,4.48,19,12.75,23.91C126,81.18,137.86,79.78,147,73.4a4.69,4.69,0,0,0-4.73-8.1c-10.43,5.18-27.87,3.21-29-11.19-1-12,14.91-18.86,21.1-7.48V42.58A39,39,0,0,1,107.6,58.34c-4.52.57-4.64,7.74,0,7.22Z"/><path class="cls-1" d="M202.19,16.21c-2.3,5.55-3.19,11.78-4.4,17.65s-2.32,11.9-3.26,17.9c-1.86,11.74-3.66,23.54-3.77,35.44,0,4.35,7.18,5.61,7.82,1.06,1.68-11.77,2.37-23.64,3.7-35.45q1-8.56,2.05-17.1c.8-6.24,2.3-12.6,2.28-18.9,0-2.72-3.49-2.82-4.42-.6Z"/><path class="cls-1" d="M193.34,68.87a11.22,11.22,0,0,1,11.72-6.53c6.22.72,8.58,6.2,10.25,11.52,3,9.52,6.76,19.57,18.09,20.65,6,.58,6.16-9.29,0-9.47-6.86-.19-9-9.62-11.06-14.67s-4.91-10.16-10.07-12.62c-8.44-4-19.64-.06-23.54,8.42-1.43,3.11,3.17,5.82,4.61,2.7Z"/><path class="cls-1" d="M257.79,73.69c5.43-3,8.44-7.21,9.15-13.42A3.62,3.62,0,0,0,265.09,57c-11.95-6.19-25.24,4.16-23.74,17.14,1.79,15.34,17.67,21.57,31.27,18.39,7.2-1.69,4.11-13.17-3.07-11.12-6.64,1.9-15.05.75-17.82-6.56-2.58-6.81,3.4-13.7,10.47-11l-2.75-3.61c0,3.52-1.39,6.72-4.55,8.48s-.33,6.74,2.89,4.94Z"/><path class="cls-1" d="M295.25,13A284,284,0,0,0,283.6,88.24c-.17,6.9,11.06,6.86,10.69,0a248.31,248.31,0,0,1,7.29-73.55c1-4.1-5.11-5.79-6.33-1.74Z"/><path class="cls-1" d="M324.59,59.46A18.57,18.57,0,0,1,326,55.61l-6-2.53c-2.94,15.3-3.67,31.17-5.26,46.66-.68,6.68,10.35,6.91,10.59,0,.53-15.17,1.95-30.62,1.13-45.79-.25-4.75-7.51-3.84-6.46.88a18.43,18.43,0,0,1,.36,4.06,2.17,2.17,0,0,0,4.24.57Z"/><path class="cls-1" d="M318.22,46.25c10.26-.78,24.94-1.73,30.52,9.13,6.12,11.92-10.32,16.76-18.84,17.86s-6.73,13.66,1.57,11.6,16.89-4,22.9-10.62c5-5.44,6.94-12.93,4.32-19.94C352.19,37,332.56,37,317.28,39.35c-3.89.59-3,7.2.94,6.9Z"/><path class="cls-1" d="M421.34,46.14l-20,35.26c-6.62,11.64-14.36,23.19-19.66,35.48-2.61,6.05,5.16,10.94,9,5.25,7.47-11.11,13-23.9,19.16-35.77l18.78-36c2.47-4.74-4.54-8.9-7.21-4.21Z"/><path class="cls-1" d="M385.25,46.17c3.07,10,7,20.07,13,28.66,3.33,4.79,11.15.42,7.93-4.63-5.34-8.39-10.58-16.58-14.29-25.85-1.59-4-7.93-2.49-6.6,1.82Z"/><path class="cls-1" d="M455.72,50.37c-10.4.39-22.66,3.58-27.48,13.84-4.34,9.24-1.53,21.88,9.05,25.2,10.89,3.41,22.55-4.38,27.59-13.74,5.51-10.24,2-26.54-12.21-25.81-7.09.37-7.1,11.51,0,11.07,8.36-.53,2.16,11.35-.6,14.11-3.46,3.45-10.42,7.4-14.66,2.88-3.6-3.82-1.83-10.32,1.09-13.91,4.28-5.27,11.6-7,18-7.84,3.31-.45,2.5-5.92-.78-5.8Z"/><path class="cls-1" d="M486.13,54c-5.1,6.82-10.51,14.62-9.53,23.57.69,6.36,5.7,15.85,13.3,15.72,3.58-.06,7.47-4.17,9.8-6.53A44.54,44.54,0,0,0,507,76.92a45.38,45.38,0,0,0,5.46-25.36c-.58-7.09-11.79-7.05-11.07,0a35.44,35.44,0,0,1-14,32.47l3.84-.5c-11.77-3.41-2.29-19.86,1.45-25.66,2.71-4.2-3.7-7.65-6.55-3.83Z"/><path class="cls-1" d="M127.15,133.88c-26-4-52.81,8.76-65.3,32.14-6.8,12.73-8.7,29.64,3.17,40.1,9.56,8.42,26.73,10,34.6-1.74,4.42-6.57,3.23-14.79-1.57-20.81-5.37-6.74-13.71-9-21.82-10.54v12.29a170.4,170.4,0,0,1,46-2.28c8.37.69,8.29-12.3,0-13a171.27,171.27,0,0,0-49.43,3c-6,1.22-6.15,11.17,0,12.29,5.42,1,13,1.8,16.2,7,3,4.93-2,8.23-6.58,8.42-5.2.22-10.48-3.2-13-7.6-3.46-5.93-2.09-13.34.26-19.41,8.59-22.18,33.61-36.21,56.81-35,2.75.14,3.46-4.45.66-4.88Z"/><path class="cls-1" d="M161.76,152.29l-5.43,30c-1.62,9-5.21,19.45-3.76,28.55.54,3.4,5.89,3.92,7.36,1,2.15-4.31,2.43-9,3-13.74l1.83-14.63,3.79-30.23c.48-3.85-6.12-4.76-6.81-.92Z"/><path class="cls-1" d="M146.61,146.12c9.25-8.37,24.41-14.1,34.95-4.42a13.44,13.44,0,0,1,4,14c-1.68,5.33-6.18,6.78-10.9,8.76-28.12,11.78,3,46.22,18.23,55.5,5.31,3.25,11.88-4.75,6.81-8.83a98.7,98.7,0,0,1-15-14.58,66.34,66.34,0,0,1-6.31-9.44c-1.26-2.26-4.54-6.83-3.33-9.43.91-1.94,4.55-3,6.36-3.83a32.59,32.59,0,0,0,6.65-3.65,21.21,21.21,0,0,0,8-15c1.18-12.15-7.3-22.35-18.79-25.43-13.11-3.52-25.94,2.73-35,12-2.79,2.87,1.43,7,4.37,4.38Z"/><path class="cls-1" d="M240.69,163a20.39,20.39,0,0,0-20.88,18.67c-.91,10.88,7.28,20.28,17.94,21.76a20.68,20.68,0,0,0,22.69-16.22c2.25-11.11-5.83-22.35-17-24.15-9.24-1.48-11.13,12-1.72,12.71,11.56.9,7.65,18.53-3.27,17.25a11.41,11.41,0,0,1-10-10.59c-.53-7.2,5.32-12.47,12.17-12.86,4.19-.24,4.26-6.5,0-6.57Z"/><path class="cls-1" d="M278.63,160.57c.39,14.6,3.42,28.75,7.71,42.68,1.17,3.82,7.11,5.2,9.09,1.19a136.64,136.64,0,0,0,10.4-28.59H295.1c1.34,9.38,4.56,19.2,10.27,26.88,6.19,8.33,15.93,7.12,21.94-.67,6.32-8.19,11.11-18.08,15.82-27.26,5.09-9.91,9.61-20.06,13.74-30.4,1.29-3.25-1.42-7-4.49-7.9-3.67-1.06-6.58,1.29-7.9,4.48a410.62,410.62,0,0,1-20.74,43A103.57,103.57,0,0,1,317.91,194c-2.28,3.16-2.35,2.47-4.34-.7a57.62,57.62,0,0,1-7.74-20.45c-1-5.35-9.69-5.28-10.73,0a124.34,124.34,0,0,1-8.26,26.52h8.59c-6.27-12-9.41-25.37-10.61-38.84-.35-3.9-6.3-4-6.19,0Z"/><path class="cls-1" d="M401.51,236.57c2.62,8.45,5.36,16.9,7.34,25.53a2.47,2.47,0,0,0,2.95,1.67c16.44-2.55,32.53-5,49.23-4.66,16.1.33,33.42,1.86,48.65,7.4a4.05,4.05,0,0,0,4.53-1.84c4.72-7.5,8.78-15.48,13.1-23.22a4.48,4.48,0,0,0-2.65-6.5c-32-7.58-66.55-10.24-99.19-5.48-4.74.69-3.65,8.71,1.14,8.39,15.92-1.07,31.77-1.91,47.72-1.05a306.73,306.73,0,0,1,48,6.67l-2.64-6.5c-4.16,7.84-8.65,15.6-12.38,23.65l4.52-1.84c-17-2.78-33.43-6.07-50.78-6.13-16.76-.07-34.47,1.37-50.5,6.49l2.94,1.67c-3.24-8.25-5.75-16.77-8.37-25.24-.71-2.28-4.3-1.3-3.59,1Z"/><path class="cls-1" d="M406.37,237.5a1.46,1.46,0,0,0,0-2.91,1.46,1.46,0,0,0,0,2.91Z"/><path class="cls-1" d="M429.14,279.22c1.3,5.73,2.66,11.45,3.89,17.2.54,2.55,1.1,5.11,1.6,7.67.67,3.47,2.18,8.3,1.7,11.79-.31,2.29.9,4.67,3.54,4.64,13.72-.14,27.59-.75,41.22,1.4a4.61,4.61,0,0,0,5.48-3.11q5.94-16.63,11.6-33.36c1.84-5.45-6.64-7.69-8.55-2.36q-6,16.62-11.64,33.35l4.3-3.27c-14.13-.64-28.3-1.67-42.41,0L443,315c-3.74-4.84-5.25-12.57-7.13-18.37s-3.69-11.84-5.51-17.76a.65.65,0,0,0-1.25.34Z"/><path class="cls-1" d="M464.7,214.58c-3.74-14.8-2.62-30.5,1.54-45.09,4.24-14.9,12.92-25.94,22.15-38,1.82-2.39-1.73-5.76-4.11-4.11-12.93,9-20.74,25.39-24.55,40.3-4.05,15.85-2.64,32.17,2.9,47.46a1.07,1.07,0,0,0,2.07-.57Z"/><path class="cls-1" d="M457,167.44c-5.89-10.25-18-15.23-29.57-13.78-4.43.56-3.64,6.9.82,6.09,10-1.83,19.34,2.51,26.19,9.67a1.64,1.64,0,0,0,2.56-2Z"/><path class="cls-1" d="M466.51,153.6a246,246,0,0,1,43.64-7.13c3.47-.25,3.36-5.77,0-5.35a252.59,252.59,0,0,0-44.42,9.65,1.47,1.47,0,0,0,.78,2.83Z"/><path class="cls-1" d="M511.14,137.46c9.64-7.88,21.26-9.07,33.05-6.33a2.12,2.12,0,0,0,1.13-4.09c-12.33-4.65-26.75-.24-36.16,8.43-1.35,1.25.61,3.11,2,2Z"/><path class="cls-1" d="M532.66,138.64c-10.38,3.34-21.1,4.6-31.94,5.3a2,2,0,0,0,0,3.91c11.34.88,22.36-1.39,33-5.18,2.5-.89,1.47-4.86-1.11-4Z"/><path class="cls-1" d="M475.58,124.72a12.7,12.7,0,0,1,4.8-16.84c3.8-2.13.17-8.23-3.39-5.8-8,5.43-11,16.71-5.18,24.84a2.18,2.18,0,0,0,3.77-2.2Z"/><path class="cls-1" d="M477.16,111.19a2.38,2.38,0,0,1,2.26-1.51l-2.1-1.21A12.67,12.67,0,0,1,479,118.89c-1,3.64,4.88,5.18,5.6,1.54a18,18,0,0,0-3-14.42,2.59,2.59,0,0,0-2.75-1.12c-2.59.44-4.22,2.51-5.13,4.82-.8,2,2.61,3.47,3.51,1.48Z"/><path class="cls-1" d="M428.27,150.55c-4.93-2.52-8.76-4-14.45-3.07A22.16,22.16,0,0,0,400,155.23c-2.51,3.06,1.85,7.47,4.38,4.38,5-6.11,14.68-10,22.43-6.53,1.69.77,3.19-1.66,1.48-2.53Z"/><path class="cls-1" d="M405.5,163.15c8.78,5.07,18.53,4.11,26.34-2.29,1.82-1.49-.57-4.62-2.53-3.28a25.43,25.43,0,0,1-22.73,3c-1.52-.54-2.43,1.78-1.08,2.56Z"/></g></g></svg>