<svg xmlns="http://www.w3.org/2000/svg" viewBox="0 0 215.23 193.5"><defs><style>.cls-1{fill:#ffe600;}</style></defs><g id="Calque_2" data-name="Calque 2"><g id="Layer_1" data-name="Layer 1"><path class="cls-1" d="M211.76,0a152.07,152.07,0,0,0-20.84,2.78c-6.63,1.39-13.22,3.08-19.7,5a181.23,181.23,0,0,0-19.86,7.59c-6.22,2.71-12.32,5.71-18.25,9A229.37,229.37,0,0,0,98.76,47.78,205.37,205.37,0,0,0,70,76.46C65.42,82,61.11,87.75,57.12,93.72a85.75,85.75,0,0,0-5.3,8.56c-1.71,3.38-3.29,6.79-4.69,10.31a32.24,32.24,0,0,0-1.53,4.7,4.62,4.62,0,0,0,2.08,5.12c1.66.87,4.19.87,5.49-.71a95.21,95.21,0,0,0,6.29-8.9c1.83-2.82,3.74-5.59,5.51-8.45,3.5-5.66,7.29-11.14,11.32-16.42.25-.33,1.17-1.47.07-.1.24-.29.46-.59.69-.88.54-.69,1.08-1.37,1.63-2q1.59-2,3.21-3.88c2.17-2.57,4.41-5.08,6.68-7.55q6.75-7.36,14.18-14.07,3.73-3.37,7.63-6.58c1.3-1.07,2.6-2.12,3.93-3.16l.88-.69-.39.3.6-.45,2.09-1.58c5.34-4,10.87-7.74,16.57-11.19s11.65-6.71,17.7-9.64q4.45-2.16,9-4.11l.69-.29-.34.14,1-.43,2.42-1c1.56-.63,3.13-1.23,4.71-1.82,6.3-2.34,12.64-4.58,19.13-6.37S201.29,9.32,207.78,8c1.63-.35,3.28-.67,4.92-1,3.92-.72,3.05-7.26-.94-7Z"/><path class="cls-1" d="M0,115.17a200.58,200.58,0,0,0,9.67,56.66,41.19,41.19,0,0,0,5.25,11.31,24.11,24.11,0,0,0,11,8.67c7.79,3.08,17,1.51,24.69-1.07,4.76-1.6,9.39-3.58,14.13-5.22a52.28,52.28,0,0,1,7.05-2l.86-.16c.24,0,1.28-.15.16,0,.58-.06,1.16-.12,1.75-.16a27.55,27.55,0,0,1,4,.05,5,5,0,0,0,5-5c-.13-3-2.2-4.68-5-5-9.07-1-17.61,2.39-25.85,5.7a70.82,70.82,0,0,1-11.27,3.72c-.9.2-1.81.36-2.72.5s.92-.09-.41,0c-.51.05-1,.1-1.55.12q-1.35.08-2.7,0-.66,0-1.32-.09l-.57,0c-.64-.06,1,.18,0,0s-1.71-.34-2.55-.59c-.41-.12-.82-.29-1.23-.42s.28.14.32.15a7.34,7.34,0,0,1-.85-.39c-.8-.4-1.52-.91-2.28-1.37-.46-.27.16.15.21.19l-.59-.5a13.77,13.77,0,0,1-1.11-1.05c-.31-.32-.61-.65-.9-1-.13-.15-.24-.3-.37-.44.11.13.56.78,0,0s-1.08-1.59-1.56-2.43-.81-1.48-1.17-2.24c-.23-.47-.44-1-.65-1.43.4.89-.19-.46-.28-.71a183.44,183.44,0,0,1-7.53-25.48A298.57,298.57,0,0,1,6,115.17a3.11,3.11,0,0,0-3-3,3,3,0,0,0-3,3Z"/></g></g></svg>