<svg xmlns="http://www.w3.org/2000/svg" viewBox="0 0 265.01 181.42"><g id="Calque_2" data-name="Calque 2"><g id="Layer_1" data-name="Layer 1"><path d="M11.67,163.38a45.41,45.41,0,0,0,8.12-4.71q3.84-2.62,7.62-5.36,7.71-5.56,15.13-11.54A266.17,266.17,0,0,0,70,116.51a159.91,159.91,0,0,0,13.58-16.27c1.83-2.55-2.09-5.33-4.23-3.27-8.84,8.55-17.25,17.52-26.11,26.05S35.42,139.48,26,147.08q-3.87,3.12-7.83,6.11c-2.84,2.15-6,4.23-8.44,6.8-1.28,1.34,0,4.21,2,3.39Z"/><path d="M20.93,172.81c-2,2.49-5.4,4.27-8.64,3.52a7.7,7.7,0,0,1-5.8-5.86c-.38-2,.29-4.13.76-6.08C7.77,162.2,8.4,160,9,157.85c.65-2.36,1.37-4.72,1.94-7.11a57.58,57.58,0,0,0,.86-7.65c.25-2.62-4-3.85-5.09-1.38-.9,2.1-1.94,4.2-2.71,6.35a64.53,64.53,0,0,0-1.58,6.45c-1,4.26-2.52,8.68-2.4,13.1A14.19,14.19,0,0,0,4.44,178a12.7,12.7,0,0,0,9.69,3.35A11.89,11.89,0,0,0,23.75,175c.86-1.7-1.47-3.87-2.82-2.18Z"/><path d="M49.12,11.58c-.74,9.88-2.15,19.79-2.39,29.7a2.07,2.07,0,1,0,4.13,0C52.1,31.45,52.2,21.45,53,11.58c.18-2.46-3.65-2.45-3.83,0Z"/><path d="M29.3,25c2-.13,3.83-1.28,5.65-2.14,1.65-.78,3.3-1.54,4.94-2.34,3.5-1.7,7-3.47,10.45-5.21C57.21,11.85,64.25,8.64,70.85,4.7a2.6,2.6,0,0,0,.91-3.49A2.61,2.61,0,0,0,68.27.3c-7,3-13.66,6.75-20.41,10.25C44.48,12.3,41.1,14,37.73,15.81c-1.61.84-3.2,1.73-4.79,2.6s-3.79,1.7-5,3.19c-1,1.2-.46,3.48,1.39,3.37Z"/><path d="M37.55,37.83C44.74,34.11,51.88,30.2,58.83,26c2.81-1.69.27-6.06-2.58-4.41-7,4.06-13.89,8.42-20.63,12.91a1.91,1.91,0,0,0,1.93,3.3Z"/><path d="M64.91,28.08C60.49,34,62.68,43,68.68,46.91a2.28,2.28,0,0,0,3.07-.8c1.54-2.6,2.88-5.33,4.3-8s2.87-5.33,4.23-8a2.15,2.15,0,1,0-3.72-2.17c-1.51,2.62-2.94,5.29-4.38,8s-3,5.28-4.3,8L70.94,43c-.3-.16-.6-.34-.89-.53,0,0-.54-.39-.23-.15L69.43,42a10.09,10.09,0,0,1-.74-.72c-.12-.13-.23-.25-.34-.39s-.39-.49-.19-.23a9.85,9.85,0,0,1-1.73-3.55,10.14,10.14,0,0,1,.84-7.68c.9-1.57-1.33-2.75-2.36-1.38Z"/><path d="M82.41,48.21c2.81-3.08,5.07-6.77,7.5-10.14.87-1.22,3.44-5.85,5.12-3.68a7.72,7.72,0,0,1,1.09,4,13.78,13.78,0,0,0,1.62,6c2.05,3.22,6.56,4.35,9.52,1.74,2.22-2-.67-5.7-3.16-4.1-.29.17-.34.21-.14.12h-.11c.26.2-.21-.08-.39-.14.2.06-.19-.15-.29-.25a4.57,4.57,0,0,1-.64-.68c.23.32-.22-.46-.25-.53a8,8,0,0,1-.35-1.27c-.22-1-.33-1.92-.51-2.88-.66-3.46-2.89-7.22-6.78-7.47s-6.13,3.35-7.92,6.22l-3.45,5.55a58.12,58.12,0,0,0-3.34,5.62c-.72,1.52,1.19,3.33,2.48,1.92Z"/><path d="M118.52,31c-5.29-2-12,2-13.15,7.43a9.56,9.56,0,0,0,2.08,8.31,11,11,0,0,0,7.06,3.83,10.33,10.33,0,0,0,4.1-.41,6.59,6.59,0,0,0,3.7-3c.87-1.39-.59-3.49-2.23-2.9a8.16,8.16,0,0,1-1.2.32c-.32.07.54,0,.22,0l-.35,0a8.54,8.54,0,0,0-1.23.21,1.59,1.59,0,0,0-.38.07s.74-.07.29,0l-.61,0-.61,0-.31,0c-.58,0,.74.14.17,0a21.6,21.6,0,0,1-2.63-.68c-.64-.23.6.3,0,0-.2-.11-.41-.21-.61-.33a5.84,5.84,0,0,1-.53-.33,2.27,2.27,0,0,0-.25-.18c.6.31.34.27.11.07a10.1,10.1,0,0,1-.87-.86c-.3-.33.15.17.16.21a2.18,2.18,0,0,0-.22-.31c-.12-.19-.24-.39-.34-.59s-.11-.23-.17-.34c-.17-.3.19.57.1.23s-.13-.39-.18-.59-.06-.27-.1-.4c-.09-.39.14.08,0,.19a5.39,5.39,0,0,0,0-.88c0-.11,0-.23,0-.34,0-.4.1.11,0,.19.07,0,.12-.59.15-.69a5.53,5.53,0,0,1,.2-.66l.12-.33a3.05,3.05,0,0,1,.13-.32l-.12.28c0-.14.25-.51.31-.63s.27-.46.42-.68l.21-.28c.17-.27-.29.26,0,.05s.39-.45.61-.65l.26-.24s.49-.38.26-.22.08,0,.14-.09l.37-.24c.25-.15.51-.28.77-.42s.07,0,0,0a5,5,0,0,1,.5-.18,6.5,6.5,0,0,1,.84-.22,2,2,0,0,1,.34-.06c-.43.06.14,0,.18,0a5.19,5.19,0,0,1,.79,0c.08,0,.45.06.13,0l.53.11a1.76,1.76,0,0,0,.93-3.4Z"/><path d="M125.9,11.51c-.85,6.89-1.68,13.77-2.55,20.66q-.63,5-1.28,10.08-.31,2.58-.57,5.16c-.17,1.76-.7,3.85-.21,5.57.55,1.91,3.46,2.49,4.44.58.85-1.67.76-3.81.94-5.66.17-1.64.33-3.27.44-4.91.25-3.53.49-7.05.73-10.58.49-7,1-13.93,1.52-20.9a1.74,1.74,0,0,0-1.73-1.73,1.78,1.78,0,0,0-1.73,1.73Z"/><path d="M136.5,52.11a8,8,0,0,0,0-3c-.05-1-.1-2-.21-3L136,43.23a5.35,5.35,0,0,1-.09-1.44c0,.27.16-.4.15-.38.08-.23.17-.45.26-.68l-3.6,2.05a12,12,0,0,0,4-.12l3-.41c1.95-.27,3.89-.6,5.83-1a3.07,3.07,0,0,0,2.21-3.4,3,3,0,0,0-3-2.68c-2.15.24-4.3.5-6.44.83s-4.38.4-6.22,1.37a2.84,2.84,0,0,0-1.4,2.14A3,3,0,0,0,131.4,42c.44.53-.27-.45.13.21.06.09.25.39.25.4a9.36,9.36,0,0,1,.27,1.27l.55,2.85c.18,1,.43,1.88.66,2.82a8.28,8.28,0,0,0,.85,2.85,1.33,1.33,0,0,0,2.39-.31Z"/><path d="M159.35,45.77a16,16,0,0,1-.07-1.83.54.54,0,0,0-.28-.47c-6.18-3.48-13.63,3.42-11.77,9.92a10.8,10.8,0,0,0,7.36,7.14,9.48,9.48,0,0,0,9.91-3.2A11.61,11.61,0,0,0,166.4,46c-.61-1.81-3.76-2.25-4.12,0a11,11,0,0,0,9.83,12.71c2.45.2,3.06-4,.58-4.35a7.22,7.22,0,0,1-6.22-7.8l-4.19.57c1,2.47-.24,5.33-1.95,6.9a2.82,2.82,0,0,1-.62.46c-.09.06-1,.53-.65.37a2.93,2.93,0,0,1-1.12.4s-.88.15-.42.1a6,6,0,0,1-3.64-.8,5,5,0,0,1-2.47-6.17,6.55,6.55,0,0,1,7.17-3.88l-.39-.38a13.43,13.43,0,0,1,.33,1.79c.06.47.87.36.83-.11Z"/><path d="M179,43.5c-.68,8.38-1.78,16.85-1.5,25.25.1,3.13,4.53,3,4.79,0,.73-8.36.09-16.86-.14-25.25a1.58,1.58,0,0,0-3.15,0Z"/><path d="M195.09,37.32c-2.62,2.23-3.76,6.16-3.41,9.51.45,4.25,2.86,7.73,4.63,11.49,1.21,2.56,2.15,6.07-.19,8.06a2.16,2.16,0,0,1-1.18.53c.31,0,.28-.07-.1,0,.32.07.3.07-.08,0-.14,0-.88-.38-.38-.11a8,8,0,0,1-.79-.49c.26.2.25.18,0-.07s-.28-.29-.05,0c-.16-.29-.19-.33-.11-.12.15.38.06.16-.28-.66a1.89,1.89,0,0,0-.25-.49c.11.3.11.28,0-.07-.61-2.18-4-2.89-5.11-.66a5.27,5.27,0,0,0-.59,3.73,7.1,7.1,0,0,0,1.75,2.92,7.82,7.82,0,0,0,5.91,2.29c4.83-.25,7.62-4.76,8.12-9.15.53-4.75-2.07-9.27-4.2-13.32-1.58-3-3.53-7.38-.4-10a2.34,2.34,0,0,0,0-3.27,2.36,2.36,0,0,0-3.27,0Z"/><path d="M207.86,47.21c-.89,9.13-1.52,18.3-1.66,27.48a3.25,3.25,0,0,0,6.5,0c.34-9.15.19-18.33-.23-27.48-.13-3-4.33-2.92-4.61,0Z"/><path d="M223.53,65.85c-.14-2.18-.54-5.32,1.23-7a2.43,2.43,0,0,1,.92-.56c-.05,0,.69-.16.43-.13,0,0,.72,0,.39,0,.35,0,.06-.05.34.14-.31-.22.26.23.31.28s.5.6.3.32c.11.15.37.67.38.68a32.66,32.66,0,0,1,1,3.62l1.23,4.49c.84,3,1.6,6.13,2.7,9.1a2.91,2.91,0,1,0,5.62-1.55c-.92-3.76-2.32-7.41-3.56-11.08-.59-1.73-1.14-3.49-1.78-5.21a9,9,0,0,0-2.66-4.1c-2.58-2-6.25-.75-8.26,1.44-2.4,2.62-2.24,6.29-1.86,9.59a1.67,1.67,0,0,0,1.61,1.61,1.62,1.62,0,0,0,1.61-1.61Z"/><path d="M260.92,60.71a9.66,9.66,0,0,0-11.11,2.17,10.3,10.3,0,0,0-.6,12.53,3.72,3.72,0,0,0,4.88,1.28c5.54-2.48,9.64-8.74,10.5-14.62L257,61a59,59,0,0,1,.2,8.72c-.07,1.32-.18,2.64-.34,4,0,0-.18,1.32-.06.53l-.15,1c-.13.78-.27,1.56-.43,2.34a60.31,60.31,0,0,1-2.24,8.23,47.67,47.67,0,0,1-3.2,7.44,62.15,62.15,0,0,1-4.33,7.11c-.42.6-.85,1.18-1.29,1.76s.58-.69-.23.29l-.75.92q-1.4,1.68-2.91,3.25a21.81,21.81,0,0,1-6.25,5.06c-.15.07-.94.39-.34.16a8.77,8.77,0,0,1-1.1.35c-.24.07-.49.12-.73.17.86-.18-.3,0-.43,0-.31,0-.63,0-.94,0-.6,0,.81.24-.21,0-.36-.1-.72-.18-1.07-.3.66.22-.15-.12-.36-.22-.85-.41.29.42-.35-.25-.12-.14-.68-.93-.28-.27l-.53-.91c.4.66,0-.15-.11-.36s-.16-.7-.24-1.06c.19.88,0-.22,0-.37,0-.36,0-.73,0-1.1s.17-1.08,0-.38a14.19,14.19,0,0,1,1.46-4.06c.82-1.64,1.6-3.29,2.47-4.91,1.65-3-2.32-6.3-4.86-3.75-2.79,2.8-5.26,5.63-6.5,9.48a14,14,0,0,0,.75,10.61,11.41,11.41,0,0,0,9.63,5.94,15.76,15.76,0,0,0,10-3.18c5.57-4,10.15-9.69,13.76-15.48a66.34,66.34,0,0,0,7.88-18.4A64.62,64.62,0,0,0,264.72,61c-.19-2-1.64-4-3.88-3.88A4,4,0,0,0,257,61c-.12,1.16.09-.41,0,.25-.06.3-.11.6-.19.89a17.83,17.83,0,0,1-.53,1.76c-.07.23-.19.48,0,.11-.12.28-.25.56-.39.83a17.78,17.78,0,0,1-.92,1.59c-.17.26-.35.51-.53.76.24-.32,0,0-.1.11-.4.46-.81.91-1.25,1.34-.22.21-.45.41-.68.61-.08.06-.69.53-.27.23-.5.36-1,.68-1.53,1l4.32.55s-.68-.78-.38-.37A5.84,5.84,0,0,1,254,70c-.13-.25,0,.11-.14-.36,0,0-.23-1-.17-.55a3.84,3.84,0,0,1,.51-2.79,4.72,4.72,0,0,1,5.22-1.93c2.08.57,3.62-2.69,1.52-3.61Z"/></g></g></svg>