<svg xmlns="http://www.w3.org/2000/svg" viewBox="0 0 236.73 251.81"><g id="Calque_2" data-name="Calque 2"><g id="Layer_1" data-name="Layer 1"><path d="M109.2,107.22a118,118,0,0,0,57,104.67,121.32,121.32,0,0,0,30.72,13.37A5.32,5.32,0,1,0,199.74,215a113.81,113.81,0,0,1-13.56-4.59,4.66,4.66,0,0,1-.73-.3c.12.08,1.05.45.15.06l-1.45-.64c-1.15-.51-2.3-1-3.43-1.6q-3.14-1.51-6.17-3.23a116.53,116.53,0,0,1-11.87-7.66L161.25,196c-.21-.16-.43-.31-.64-.48.85.7.29.22.1.07-1-.78-2-1.57-2.93-2.38-1.78-1.49-3.52-3-5.2-4.64a113.19,113.19,0,0,1-9.64-10.31l-1.13-1.39c-.24-.31-1.09-1.4-.44-.55-.77-1-1.52-2-2.26-3-1.49-2.08-2.91-4.22-4.26-6.4a130.42,130.42,0,0,1-7.24-13.3c-.51-1.09-1-2.19-1.48-3.3-.37-.84-.1-.23,0,0-.11-.27-.21-.53-.32-.79-.27-.66-.54-1.33-.79-2-.93-2.39-1.78-4.82-2.55-7.26a109.14,109.14,0,0,1-3.77-16.64c0-.29-.09-.57-.13-.85-.13-.94.06.49-.07-.54-.09-.71-.17-1.42-.25-2.12-.15-1.35-.27-2.7-.37-4-.21-2.91-.3-5.83-.29-8.75a4.18,4.18,0,0,0-8.36,0Z"/><path d="M213.42,205.36a7.12,7.12,0,0,0,2.13.75c1.17.16.38.08.16,0,.23.05.47.08.7.14.41.09.82.19,1.22.32l.52.16s1.08.4.48.17.05,0,.13.06l.65.31c.38.18.76.36,1.14.56s.74.42,1.09.65,1.31,1,.54.33a20.26,20.26,0,0,1,1.86,1.73c.25.26.47.55.72.82-.74-.81.15.23.32.5s1.36,1.82,1.21,2.23c.06-.16-.3-.81-.08-.14.06.19.14.38.2.57.17.51.32,1,.44,1.55s.19.92.27,1.38c-.16-1,0,.12,0,.51a21.67,21.67,0,0,1-.09,3c0,.25-.2.89,0-.09,0,.2-.07.4-.1.6-.09.47-.19.94-.31,1.4-.26,1-.62,2-.94,2.92-.17.53.07-.13.1-.2l-.34.75c-.21.43-.42.86-.65,1.29a28.37,28.37,0,0,1-1.6,2.63c-.27.4-.56.79-.85,1.18s.06-.09.11-.14c-.18.21-.35.43-.53.65-.63.75-1.3,1.47-2,2.17a60.53,60.53,0,0,1-5.21,4.64l-.49.39c-.73.58.28-.2-.18.14l-1.35,1c-1,.72-1.94,1.42-2.92,2.13a5.25,5.25,0,0,0-2.3,5.64,4.4,4.4,0,0,0,2.3,3,4.94,4.94,0,0,0,5.05,0c7.89-5.9,15.78-12.23,19.72-21.55,3.85-9.14,2.86-20.3-5.21-26.87a21.12,21.12,0,0,0-7.1-4c-2.82-.84-6.11-1.29-8.83,0-2.57,1.2-2.49,5.45,0,6.68Z"/><path d="M39.84.17C22.69,5.57,6.67,18.92,1.48,36.59a34.41,34.41,0,0,0,2.42,26,29.33,29.33,0,0,0,8.71,9.88,24.48,24.48,0,0,0,25,1.73A19.38,19.38,0,0,0,47,63.78c.87-2.12-.77-4.64-2.67-5.44a4.67,4.67,0,0,0-5.75,1.89,2.66,2.66,0,0,1-.38.53s.63-.66.24-.33a9.72,9.72,0,0,0-.75.82c-.55.57-1.14,1.11-1.73,1.64-.05,0-.37.25-.37.31s.85-.6.4-.32-.6.42-.92.62c-.68.43-1.38.79-2.09,1.17-1,.55.8-.27-.06,0l-1.07.38a20.91,20.91,0,0,1-2.36.6c-.32.07-.64.14-1,.19a4.76,4.76,0,0,0-.64.11s1.21-.11.63-.09c-.82,0-1.63.13-2.45.12s-1.55-.2-2.29-.16c0,0,1.17.24.62.08a3.7,3.7,0,0,0-.48-.09c-.43-.08-.85-.18-1.27-.29s-.73-.21-1.1-.33c-.21-.07-.83-.43-1.07-.39.08,0,1.21.56.38.16l-.46-.22c-.43-.22-.86-.44-1.28-.69a17.18,17.18,0,0,0-1.94-1.29c.74.29.59.48.21.16L17,62.61c-.36-.32-.71-.64-1.05-1-.6-.59-1.13-1.23-1.69-1.86-.38-.42.24.31.25.34a4.57,4.57,0,0,0-.43-.58c-.28-.4-.55-.8-.81-1.21-.45-.72-.86-1.46-1.24-2.21-.17-.33-.32-.66-.47-1-.42-.89.1.12.08.2,0-.12-.22-.56-.27-.68A28.48,28.48,0,0,1,10,49.52c-.21-1.2,0,.59-.05-.31,0-.37-.08-.73-.11-1.1-.06-.93-.08-1.86-.05-2.8s.11-1.9.21-2.85c.06-.57,0,.22,0,.27,0-.26.09-.54.14-.8.09-.54.2-1.07.32-1.6a40.3,40.3,0,0,1,1.71-5.47c.06-.16.36-.82,0,0l.26-.56c.19-.44.4-.88.61-1.31.46-.92.95-1.83,1.47-2.72s.93-1.54,1.43-2.28c.27-.4.54-.8.82-1.19.12-.17.24-.34.37-.5,0,0,.7-.95.38-.53s.13-.16.16-.19c.17-.22.34-.43.52-.64.3-.38.61-.74.93-1.11.67-.77,1.37-1.53,2.09-2.27a58.49,58.49,0,0,1,4.71-4.33l.64-.51c.06-.05.7-.55.36-.29s.3-.21.38-.28l.67-.48c.89-.65,1.81-1.26,2.74-1.85a56.79,56.79,0,0,1,5.76-3.21l1.5-.7.56-.25c-.65.29.19-.07.31-.12,1.09-.44,2.19-.84,3.3-1.22A4.29,4.29,0,0,0,45,3.12,4.29,4.29,0,0,0,39.84.17Z"/><path d="M56.46,51.17c5.7-4.45,10.15-10.76,13.81-16.93A90.58,90.58,0,0,0,79.11,14H70.88c3,15.22,6.34,30.37,9.55,45.55a4.87,4.87,0,0,0,5.95,3.38,5,5,0,0,0,3.39-6C86.24,41.9,82.86,26.77,79.11,11.75c-1-4.06-7.23-4.08-8.23,0a79.84,79.84,0,0,1-7.15,18.91,85.84,85.84,0,0,1-5.36,8.81c-2,2.86-4.06,5.66-6,8.52A2.61,2.61,0,0,0,53,51.37a2.69,2.69,0,0,0,3.44-.2Z"/><path d="M47.43,51.25a34.25,34.25,0,0,0,7.9.37L63,51.44l15.11-.35a4.56,4.56,0,0,0,4.5-4.49c-.11-2.33-2-4.63-4.5-4.49L63,42.92l-7.44.4a35.93,35.93,0,0,0-8.15.92c-3.28.95-3.64,6.25,0,7Z"/><path d="M99.42,16.43a13.6,13.6,0,0,0-1.66,4.74c-.39,1.67-.72,3.35-1,5a57,57,0,0,0-.67,10.36c.22,6,.95,12.33,3.68,17.72s8.66,9.17,14.65,7.09,9.59-7.75,10-13.8c.27-3.69-.94-7.38-2.46-10.69s-3.75-7.58-7.56-8.85c-2.18-.73-4.13,1.18-4.25,3.24-.17,3,1.92,5.59,3.28,8.1.27.51.53,1,.78,1.55.12.25.25.52.36.78-.29-.68,0,.17.11.34.22.6.42,1.2.58,1.82.07.27.13.54.19.82,0,.1.21,1.19.14.66s0,.75,0,.69a8,8,0,0,1,0,.85c0,.43-.22,1.49,0,.56-.12.51-.21,1-.38,1.52,0,.13-.27.85-.08.3s-.15.32-.21.44c-.24.47-.56.89-.81,1.35s.68-.72,0,.07c-.16.17-.3.35-.46.51s-1.14,1-.38.44c-.44.33-.95.55-1.4.86.64-.44.49-.17.15-.07s-.4.13-.61.18-1,.06-.37.09-.05,0-.22,0c-.35,0-.93.21,0,.06a2.58,2.58,0,0,1-.65-.14l-.63-.2c.66.19.34.16-.11-.1l-.54-.34c-.28-.17-.38-.47.12.09-.28-.31-.62-.6-.92-.9-.52-.53,0,0,0,.1-.16-.22-.32-.45-.47-.68a15.19,15.19,0,0,1-.85-1.47c-.1-.2-.19-.41-.3-.61-.32-.6.34.93,0-.11-.16-.43-.32-.86-.46-1.3a29.91,29.91,0,0,1-.85-3.22,46.73,46.73,0,0,1-1.1-7.73,71.46,71.46,0,0,1,0-9.37c.08-1.31.2-2.69.38-3.94.24-1.72.86-3.54.68-5.28a3.12,3.12,0,0,0-5.75-1.56Z"/><path d="M139.48,15.23a7,7,0,0,0-2.63,1.06,8.11,8.11,0,0,0-1.24,1c-.15.15-.29.32-.43.48l-.43.56c.19-.24.16-.19-.1.14a11.63,11.63,0,0,0-2.2,6c-.55,5.15,2.62,9.15,5.81,12.83.75.85,1.53,1.67,2.28,2.52l.65.76s.43.57.12.15a15.9,15.9,0,0,1,1.07,1.64c.15.26.28.54.42.81.28.55-.17-.49,0,.09a14.77,14.77,0,0,1,.51,1.55c.06.24.12.48.17.71,0,0,.21,1.12.12.58s0,.3,0,.4c0,.37.05.73.05,1.1,0,.55,0,1.09-.06,1.64,0,.75,0,.26,0,.09,0,.31-.1.6-.16.9-.12.54-.26,1.07-.43,1.59-.08.23-.16.46-.25.68.22-.59-.19.43-.21.46a13.22,13.22,0,0,1-.71,1.27c-.16.26-.33.51-.51.76-.38.53.55-.56-.22.26-.33.35-.65.7-1,1s-.44.4-.67.59-.18.15,0,0l-.3.21c-.56.35-1.1.7-1.69,1a8.43,8.43,0,0,1-.8.39c.45-.18-.16,0-.33.07a15.67,15.67,0,0,1-1.92.43c.16,0,.65,0-.09,0-.35,0-.71.05-1.07.06a15.13,15.13,0,0,1-1.78-.06c-.78,0-.2,0,0,0l-1.05-.2-1-.14c.39.06.44.06.15,0l-.87-.17a4.06,4.06,0,0,0-2.16.05l-1,.42q-1.16.94-.54.39a2.7,2.7,0,0,0-1.23,3A5.16,5.16,0,0,0,125,64.83a6,6,0,0,0,2.35,1.23,12.69,12.69,0,0,0,4.2.61,19.94,19.94,0,0,0,7.27-1.43A18.79,18.79,0,0,0,150,54.49a19.54,19.54,0,0,0-.55-15.17A24.94,24.94,0,0,0,144.85,33c-.86-.93-1.79-1.79-2.66-2.71a14.2,14.2,0,0,1-2-2.5c-.15-.23-.27-.48-.42-.71-.4-.64,0,0-.11-.2a15.47,15.47,0,0,1-.52-1.54c-.05-.18-.08-.38-.13-.57-.22-.83,0,.59-.05-.28,0-.49,0-1,0-1.45,0-.85-.16.5,0-.32a7.79,7.79,0,0,1,.2-.8c.05-.17.12-.33.17-.5-.15.49.28-.24-.06.1l.35-.37c.41-.43-.22.08.25-.2,0,0,.7-.34.37-.21a6.52,6.52,0,0,0,.71-.15,2.8,2.8,0,0,0,1.94-3.41,2.84,2.84,0,0,0-3.41-1.94Z"/><path d="M166.29,40.65a13.12,13.12,0,0,0,10-3.93,12.12,12.12,0,0,0,3.42-10.54c-1.17-7.68-9.42-12.95-16.82-10.32S150.78,26.15,150.1,33.75s2.45,14.86,7.36,20.42a26.86,26.86,0,0,0,22.28,9.12c2.12-.2,4.2-1.73,4.1-4.1a4.18,4.18,0,0,0-4.1-4.1c-.71,0-1.41,0-2.11-.06-.18,0-1.34-.17-.26,0l-1-.17a25,25,0,0,1-4-1.19c1.06.4,0,0-.2-.1l-.93-.46c-.62-.32-1.24-.64-1.84-1s-1-.61-1.47-.94c-.29-.2-.57-.41-.85-.62,1,.71-.26-.22-.43-.37a29.85,29.85,0,0,1-3-2.92c-.39-.43-.77-.88-1.13-1.34.71.9,0,0-.12-.2-.27-.38-.53-.77-.77-1.16a31.33,31.33,0,0,1-1.79-3.39c-.49-1.05.29.89-.08-.22-.12-.32-.24-.65-.35-1a20.73,20.73,0,0,1-.64-2.34c-.08-.33-.13-.67-.2-1-.21-1.1,0,.62,0-.07s-.11-1.28-.12-1.92,0-1.4.08-2.1c.08-1.12-.21.81,0-.3.11-.46.2-.93.32-1.39s.36-1.13.56-1.7c.38-1.07-.36.64.16-.38.17-.31.32-.64.5-1a20.14,20.14,0,0,1,1.14-1.8c.63-.91-.48.47.27-.34.24-.25.46-.52.7-.77s.49-.49.75-.72c.05-.05.92-.73.29-.27.54-.4,1.12-.7,1.69-1,.85-.51-.61.16.33-.15.3-.1.61-.21.92-.29s.42-.1.63-.14c.42-.08.42-.08,0,0q.33,0,.66,0a4.65,4.65,0,0,1,2.82.56,9.38,9.38,0,0,1,.85.54c-.35-.25.09.08.13.12a9.63,9.63,0,0,1,.72.71c.16.16.3.33.45.51-.16-.2-.13-.14.1.17a6.06,6.06,0,0,1,.35,6.89,6.86,6.86,0,0,1-6.6,3.22,2.87,2.87,0,0,0-2.85,2.85,2.91,2.91,0,0,0,2.85,2.85Z"/></g></g></svg>