<svg xmlns="http://www.w3.org/2000/svg" viewBox="0 0 361.46 243.65"><defs><style>.cls-1{fill:#ffe600;}</style></defs><g id="Calque_2" data-name="Calque 2"><g id="Layer_1" data-name="Layer 1"><path d="M261.6,101c3.54,8.28,7.32,16.44,11.06,24.62s7.27,16.14,11,24.18q11,23.76,21.87,47.52,3.13,6.83,6.24,13.68c2.14,4.71,4.2,9.48,6.64,14l4.83-4.83L320.13,218a3.21,3.21,0,0,0-3.89,5l2.69,2.72a3.62,3.62,0,0,0,4.28.56,3.56,3.56,0,0,0,1.62-4c-3.31-8.57-7.55-16.83-11.48-25.15q-5.66-12-11.37-23.95c-7.52-15.79-15-31.59-22.64-47.34-4.43-9.16-8.62-18.44-13.1-27.59a2.71,2.71,0,0,0-3.67-1,2.76,2.76,0,0,0-1,3.67Z"/><path d="M333,211.12c0,8.13.47,18.21-6.29,24a8.66,8.66,0,0,1-4.21,2c-.07,0-.62.06-.17,0q-.35,0-.69,0a8.84,8.84,0,0,1-1.26,0,11.76,11.76,0,0,1-3-.86,47.55,47.55,0,0,1-10.55-6.41,59.85,59.85,0,0,1-5.63-5.05c-1.78-1.81-3.62-3.57-5.37-5.42-2.44-2.59-7,.8-5,3.86a38.17,38.17,0,0,0,5,6.34,64.6,64.6,0,0,0,5.74,5,56.73,56.73,0,0,0,13.21,7.8A14.16,14.16,0,0,0,329,241a21.32,21.32,0,0,0,7.86-11.62c1.67-5.94,1.37-12.16.92-18.24-.22-3-4.73-3.08-4.73,0Z"/><path d="M41.9,72.69c.36-.53.83-1,1.2-1.51s.68-1.08,1-1.62c.68-1.08,1.36-2.15,2.06-3.22q2-3.12,4.09-6.19Q54.5,53.91,59,47.85l-6.26-1.7C52,53.59,51.67,61,51.49,68.51c-.08,3.65-.13,7.3-.13,10.95,0,3.94-.23,8,.37,11.94.28,1.86,2.49,2.95,4.16,2.72a3.83,3.83,0,0,0,3.29-3.72,45.38,45.38,0,0,0-.06-5.47c0-1.83-.09-3.65-.12-5.47q-.09-5.59,0-11.19c.06-7.38.32-14.75.52-22.12.09-3.47-4.52-4.38-6.26-1.69q-4.08,6.32-7.89,12.8-1.87,3.2-3.68,6.42C41,64.8,40.4,65.91,39.79,67c-.3.56-.62,1.12-.91,1.69s-.43,1.21-.71,1.8a2.16,2.16,0,0,0,3.73,2.17Z"/><path d="M81.42,47.87a23.53,23.53,0,0,0-12,14.53A24.44,24.44,0,0,0,69,73.29,19,19,0,0,0,73.6,83c5.29,5.3,14.28,2.39,18.5-2.75,4.59-5.6,5.34-14,3.85-20.86-.88-4-4-6.86-7.79-8.27a17.24,17.24,0,0,0-6.33-1,22.71,22.71,0,0,0-6.93,1.23c-2.4.79-2.09,4.57.61,4.53,1.58,0,3.1-.1,4.67-.25a16.78,16.78,0,0,1,4.8,0c2.17.42,4.43,1.49,5.44,3.57a10.2,10.2,0,0,1,.7,3.55,34.86,34.86,0,0,1,.07,4.57A17.3,17.3,0,0,1,89.1,75.1c-2,3.54-7.58,7.08-11.36,4.16-1.87-1.44-2.85-4.4-3.46-6.59a20.12,20.12,0,0,1-.7-8.06,19.6,19.6,0,0,1,9.46-14,1.61,1.61,0,0,0-1.62-2.78Z"/><path d="M106.64,51.67C101,50.5,97.08,56,97.21,61.15a24.07,24.07,0,0,0,5.6,14.22c1.72,2.12,3.82,4.1,6.7,4.24,3,.15,5.64-1.75,7.29-4.15a18.35,18.35,0,0,0,2.1-15.39c-1.89-5.34-6.93-9.64-12.8-9.34-3.61.18-3.66,5.65,0,5.64a7.22,7.22,0,0,1,6.28,4.1c1.49,2.82,1.21,6.49.07,9.64a9,9,0,0,1-.91,1.86,2.94,2.94,0,0,1-1.24,1.21c-.36.13-.64.27-1,0,.24.15-.27-.23-.28-.24a12.28,12.28,0,0,1-1-1,18.83,18.83,0,0,1-4.73-8.61c-.61-2.51-1.15-8,2.86-7.84,2.2.1,2.72-3.42.52-3.87Z"/><path d="M138.58,49.36a6.53,6.53,0,0,0-3.41,2.33,32.5,32.5,0,0,0-2.23,4.05,83.69,83.69,0,0,0-4.36,9.54A69.53,69.53,0,0,0,126,75c-.33,1.64-.61,3.3-.84,5-.28,2-.72,4-.25,6a3.19,3.19,0,0,0,3,2.32A3.3,3.3,0,0,0,131,86a19.49,19.49,0,0,0,.58-5c.11-1.39.25-2.78.45-4.16a82.3,82.3,0,0,1,1.88-9.22c.78-3,1.45-5.92,2.4-8.82a38.61,38.61,0,0,1,1.57-4.08c.27-.58.59-1.1.91-1.65.15-.26.2-.69.37-.92-.26.34.53-.26.53-.26,1.37-.8.47-3.13-1.1-2.61Z"/><path d="M126.41,33.6a3.42,3.42,0,0,0-2.77-.4,4.94,4.94,0,0,0-2.43,2,9.35,9.35,0,0,0-1.15,2.38c-.34.91-.68,1.83-.93,2.77-1,3.65-.67,8.2,2.48,10.76a3.08,3.08,0,0,0,3.57.46c4.23-2.32,7.57-7.26,5.93-12.22a7.42,7.42,0,0,0-5.24-5.06,6.31,6.31,0,0,0-7,2.6,2.72,2.72,0,0,0,.7,3.53,2.78,2.78,0,0,0,3.59-.22c-.54.47-.18.13,0,0l.38-.19c.22-.12-.67.17,0,.05A1.5,1.5,0,0,0,124,40l-.36.05.26,0h.44c.58,0-.08.08-.17,0a3.8,3.8,0,0,0,.51.13c.56.13-.55-.33,0,0,.12.07.25.16.38.22.29.13-.46-.46-.12-.09a2.6,2.6,0,0,0,.4.41c-.2-.09-.34-.48-.08,0a1.74,1.74,0,0,1,.15.26c.11.23.12.23,0,0s-.09-.23,0,0l.06.19a4.75,4.75,0,0,1,.14.57c.13.54,0-.49,0-.11,0,.16,0,.33,0,.5s0,.59,0,.59c.07-.43.08-.53,0-.3s0,.2,0,.3-.13.8-.3.95q.24-.54.09-.24a2.44,2.44,0,0,1-.14.28c-.1.19-.21.37-.32.54s-.36.6-.13.21-.09.1-.16.19a10.45,10.45,0,0,1-.81.82,6.39,6.39,0,0,1-.9.75c.66-.41,0-.05-.07,0l-.53.35h3c-.37-.25.11,0,.12.1s-.25-.23-.3-.27-.48-.49-.16-.16,0,0-.07-.12-.26-.47-.4-.7.21.63,0,0l-.12-.39a7.16,7.16,0,0,1-.19-.8c-.1-.43.06.07,0,.13s0-.44,0-.51c0-.33,0-.66,0-1,0-.17,0-.33,0-.5,0-.44-.11.59,0-.17a25.54,25.54,0,0,1,1-4l.15-.44c.1-.26.08-.1,0,.06.13-.21.24-.44.38-.65-.1.15-.22.25,0,.07a1.92,1.92,0,0,0,.28-.29c.09-.13-.16.12-.25.15s-.53.07-.16.07a1.89,1.89,0,0,0,1-3.5Z"/><path d="M139.48,71.33a13.81,13.81,0,0,0-3.76,7.1c-.48,2.68-.34,5.94,1.78,7.94a5.73,5.73,0,0,0,8.2-.67c2.25-2.57,2.18-6,.67-8.91A9.59,9.59,0,0,0,143,73c-1.94-1.1-5.08-.44-5.5,2.08a2.55,2.55,0,0,0,1.74,3.06,2.52,2.52,0,0,0,3.06-1.73,1.64,1.64,0,0,1-1.28,1c-.35.06-.14,0,0,0-.17,0-.33-.07-.49-.08l-.14,0c.19.12.2.13,0,0s0,0,0,0c.18.2.36.38.53.58.33.37-.17-.27.11.14l.41.6q.18.27.33.54l.2.37s.2.47.08.16,0,0,0,.07l.12.39a3.11,3.11,0,0,1,.14.59s0-.51,0-.19c0,.14,0,.27,0,.41v.3c0,.4.07,0,0-.08.06.11-.12.45-.14.57,0,.28.06-.25.1-.23s-.17.32-.15.3a2.79,2.79,0,0,0-.28.42s.33-.37.14-.2l-.29.3c-.31.33.37-.21,0,0-.15.1-.34.18-.49.29s.21-.13.24-.1l-.31.1a1.89,1.89,0,0,0-.23,0c-.22.09.44,0,.21,0a1.07,1.07,0,0,0-.31,0c-.25,0,.26,0,.28,0s-.47-.06-.46-.11.47.26.12,0l-.22-.14c-.25-.13.18.12.15.12s-.25-.26-.3-.31c-.21-.18.13.13.1.15a2.3,2.3,0,0,1-.15-.23c-.11-.17-.19-.36-.29-.54.19.34,0,.07,0-.13s-.14-.47-.19-.7-.11-.64-.09-.44,0-.33,0-.42a10.73,10.73,0,0,1,0-1.5l0-.3c0-.34-.05.25,0-.08s.1-.53.16-.8a10.78,10.78,0,0,1,.43-1.44,8.76,8.76,0,0,1,1.47-2.3,1.69,1.69,0,0,0,0-2.32,1.67,1.67,0,0,0-2.32,0Z"/><path d="M313,31.08a.93.93,0,0,0,0-1.86.93.93,0,0,0,0,1.86Z"/><path d="M188.62,21.14c-12.93,6.12-24,18.67-26,33.16a26.79,26.79,0,0,0,4.81,19.78c4.11,5.41,10.26,9.22,17.24,9,7.39-.29,14.85-4.71,16.77-12.19,1-3.92-4.74-6.63-6.7-2.83-.3.58-.67,1.1-1,1.65.4-.64.15-.19,0,0l-.62.81c.3-.39.31-.42,0-.07s-.73.77-1.13,1.13c-.24.21-.49.41-.74.61.85-.67-.28.17-.46.28a13.87,13.87,0,0,1-1.41.8c-.18.09-1.19.48-.16.1l-.61.23c-.62.22-1.24.43-1.88.59-.21.06-.42.11-.64.15s-1.68.23-.48.12a18.83,18.83,0,0,1-3.6,0c1.09.11-.45-.12-.8-.2a17.09,17.09,0,0,1-1.95-.64c.92.36-.16-.09-.29-.15-.31-.16-.63-.33-.93-.51-.51-.3-1-.63-1.48-1-.94-.65.56.55-.28-.23l-.53-.47a21,21,0,0,1-1.61-1.66l-.57-.69c.55.7-.16-.25-.21-.33-.34-.5-.66-1-1-1.53s-.62-1.17-.91-1.77.31.87-.09-.21c-.16-.45-.33-.9-.48-1.36s-.34-1.15-.48-1.74c-.08-.35-.15-.7-.22-1.05,0,.06-.15-1.09-.09-.59s-.07-.85-.06-.74c0-.43-.06-.86-.07-1.29a24.89,24.89,0,0,1,.07-2.59,22.37,22.37,0,0,1,.71-4.1,38.11,38.11,0,0,1,1.32-4.06,37.62,37.62,0,0,1,5-8.46A43.22,43.22,0,0,1,192,26.94a3.36,3.36,0,1,0-3.39-5.8Z"/><path d="M207.45,59.58c4-4.12,6.83-9.45,9.06-14.7a71,71,0,0,0,4.87-16.83h-6.55c4,11.67,8.28,23.23,12.45,34.84A4,4,0,0,0,232,65.58c1.83-.59,3.46-2.73,2.69-4.75C230.29,49.3,226,37.72,221.38,26.25a3.42,3.42,0,0,0-6.68.9,65.83,65.83,0,0,1-3.61,15.44c-1.84,5.06-4.52,9.67-6.91,14.47-1,2,1.54,4.3,3.27,2.52Z"/><path d="M200.9,60.44a28.57,28.57,0,0,0,6.37-.69l6-1,11.94-1.93c1.91-.31,3-2.68,2.5-4.4a3.65,3.65,0,0,0-4.4-2.5l-11.85,2.29c-4,.76-8.29,1.15-12,2.8a2.88,2.88,0,0,0-1.32,3.26,3,3,0,0,0,2.78,2.13Z"/><path d="M237.91,27c-1.23,2.33-1.14,5.69-1.18,8.29a44.6,44.6,0,0,0,.64,8.32c.76,4.62,2,9.8,4.89,13.61,3,4,8.15,6.26,12.87,3.58a12.39,12.39,0,0,0,5.76-11.71,18.17,18.17,0,0,0-3-8c-1.54-2.33-3.69-5.64-6.65-6.2-1.56-.3-3.54.71-3.39,2.58.2,2.4,1.8,4.12,3.1,5.84a17.92,17.92,0,0,1,2.51,4.38,11.88,11.88,0,0,1,.37,1.33c0,.2.09.39.12.59,0-.17,0-.5,0,.12,0,.33,0,.66,0,1,0,.68,0,.22,0,.05,0,.22-.09.44-.14.65s-.42,1.3-.19.74a9.1,9.1,0,0,1-.45.88c-.11.2-.23.37-.35.56,0,0-.34.45-.11.17s-.18.19-.25.25l-.45.44c-.39.36.42-.25,0,0l-.4.24c-.11.08-.61.28,0,0l-.43.14c-.1,0-.73.18-.29.1s-.08,0-.15,0c-.22,0-.43,0-.64,0,.37,0,.15,0-.08,0s-.42-.12-.63-.2c.07,0,.41.19.08,0-.14-.07-1-.64-.55-.3a9.61,9.61,0,0,1-.86-.83c-.12-.12-.23-.25-.34-.38.28.33-.17-.23-.22-.3a16.9,16.9,0,0,1-2.17-4.45,48.15,48.15,0,0,1-1.71-6.14,52.72,52.72,0,0,1-1-7.07c-.08-1.21-.11-2.43-.1-3.65a16.12,16.12,0,0,0-.12-4.05,2.48,2.48,0,0,0-4.49-.59Z"/><path d="M269.51,21.9c-3.12,1.05-4.69,4.08-4.84,7.23-.19,3.8,1.92,6.73,4.61,9.19s5.67,4.31,6.6,7.73a9.19,9.19,0,0,1-1.66,8.31c-2.52,2.87-5.65,3.19-9.27,2.89a3,3,0,0,0-2.61,1.49l.51-.54a2.2,2.2,0,0,0-.75,2.9q-.15-.36-.06,0a3,3,0,0,0,2.11,2.11c7.58,1.91,16.09-4,17.65-11.48a15.63,15.63,0,0,0-1.94-11.51,20.07,20.07,0,0,0-4.09-4.44,43.81,43.81,0,0,1-4.56-3.83,6.6,6.6,0,0,1-1.54-3.23,3.17,3.17,0,0,1,.14-1.81,1.51,1.51,0,0,1,.87-.72c2.68-.9,1.53-5.17-1.17-4.26Z"/><path d="M292.83,39.16c6.24-.42,11.37-6.74,9.29-13a10.43,10.43,0,0,0-15-5.91c-4.92,2.84-7.75,9.08-7.52,14.64a21.9,21.9,0,0,0,7.8,15.6,21.8,21.8,0,0,0,19.24,4.92,3.31,3.31,0,0,0,2.29-4,3.36,3.36,0,0,0-4-2.29c.53-.08-.18,0-.31,0s-.56,0-.84,0q-.67,0-1.35,0l-1-.08c-.12,0-.67-.12-.08,0-.55-.1-1.09-.2-1.64-.34a27,27,0,0,1-2.88-1c.62.25-.06,0-.21-.1l-.76-.37c-.51-.26-1-.54-1.48-.84s-1-.62-1.42-.94l-.55-.4c.49.37,0,0-.06-.06a25.88,25.88,0,0,1-2.43-2.37c-.19-.22-.37-.43-.54-.65-.4-.5.43.67-.15-.22-.25-.38-.52-.74-.76-1.12s-.58-1-.84-1.46l-.29-.6c-.47-.93.17.57-.18-.41a18.86,18.86,0,0,1-.83-2.91c0,.07-.15-1-.1-.57s0-.62,0-.56a15,15,0,0,1,0-1.64c0,.08.12-1,.05-.56s.14-.65.12-.56a11.83,11.83,0,0,1,.34-1.3,7.23,7.23,0,0,1,.41-1.12,12.53,12.53,0,0,1,.79-1.44,7,7,0,0,1,1.56-1.85,6.23,6.23,0,0,1,1.83-1.11c.39-.12.85-.22.88-.23a6.74,6.74,0,0,1,1.42,0,4.55,4.55,0,0,1,2.25,1A5.11,5.11,0,0,1,297.52,31a5.4,5.4,0,0,1-4.69,3.62c-2.92.16-2.92,4.73,0,4.54Z"/><path class="cls-1" d="M122.25,8.22A179.19,179.19,0,0,0,45.58,25.55C34.27,30.92,22.82,37.34,13.47,45.76c-8.89,8-15.26,18.88-13,31.18,2.3,12.6,12.31,22.24,23.36,27.77,12.33,6.16,26.33,9.32,39.84,11.64,28.36,4.86,57.41,4.6,86,2.63a573.81,573.81,0,0,0,85-12.3,568.37,568.37,0,0,0,81.83-24.77C329,77.1,341.36,71.73,351.71,63.16c4.89-4,8.94-9,9.64-15.49.62-5.8-1.51-11.81-5-16.42-7.92-10.58-22-14.39-34.07-17.94a307.65,307.65,0,0,0-41.59-9.06C252.08,0,223-.76,194.14.65c-30,1.45-59.82,5.16-89.55,9.29-7.28,1-14.54,2.21-21.81,3.24-1.41.2-2.16,2-1.83,3.22a2.68,2.68,0,0,0,3.22,1.82c28.64-4,57.39-7.87,86.22-10.29,28.06-2.37,56.31-3.18,84.41-1a344.21,344.21,0,0,1,40.83,5.59,252.65,252.65,0,0,1,39.16,10.73c10,3.74,21.52,11,21.06,23.12-.22,6-4.85,10.29-9.29,13.79A89,89,0,0,1,330.35,70c-11.93,5.8-24.62,10.21-37.16,14.48q-19.54,6.67-39.55,11.9a567.79,567.79,0,0,1-81.07,15.08c-27.32,3-55.1,4.54-82.56,2.67a234,234,0,0,1-41-6.25c-12.09-3-25.17-6.88-34.39-15.72-8.3-8-12.64-20-7.45-30.84,5-10.51,15.36-17.56,25-23.5a177.11,177.11,0,0,1,71.72-25.12,175.12,175.12,0,0,1,18.44-1.23,1.64,1.64,0,0,0,0-3.28Z"/></g></g></svg>