<svg xmlns="http://www.w3.org/2000/svg" viewBox="0 0 416.22 433.91"><defs><style>.cls-1{fill:#ffe600;}</style></defs><g id="Calque_2" data-name="Calque 2"><g id="Layer_1" data-name="Layer 1"><path class="cls-1" d="M6.88,165.41Q28.63,149.66,50.4,134t43.85-31.45q21.9-15.57,43.85-31t44-30.84q22.13-15.47,44.38-30.76L232,6.11a2.8,2.8,0,0,0,1-3.73,2.75,2.75,0,0,0-3.74-1Q207,16.49,184.86,31.77t-44.23,31Q118.7,78.26,96.92,94T53.51,125.73q-21.76,16-43.28,32.36L5,162.1a2,2,0,0,0-.69,2.62,1.94,1.94,0,0,0,2.62.69Z"/><path class="cls-1" d="M30.71,254.23q21.8-20.76,44.51-40.53t46.11-38.36q23.43-18.63,47.64-36.28t49.43-34.3q25-16.55,50.71-32l6.41-3.83c2.61-1.56.23-5.65-2.39-4.09q-25.87,15.39-51,32t-49.47,34.29q-24.47,17.77-48.12,36.64-23.49,18.78-46.13,38.61T34.07,247q-2.7,2.58-5.38,5.18c-1.32,1.28.69,3.28,2,2Z"/><path class="cls-1" d="M216.8,5.17c-22.43-8.46-47.18-5.7-69.36,2.24s-42.3,20.74-60.36,35.85A249.51,249.51,0,0,0,42.91,91.67a244.61,244.61,0,0,0-30.07,58.41,222.65,222.65,0,0,0-12.62,64,220.9,220.9,0,0,0,32.16,124.2,201.56,201.56,0,0,0,42,49.13,196.75,196.75,0,0,0,57.73,33.43,211.62,211.62,0,0,0,131.32,4.95,200.36,200.36,0,0,0,57.73-27.42,218,218,0,0,0,46.21-42.87A227,227,0,0,0,400,300.73a211.2,211.2,0,0,0,15.4-62.62,224.62,224.62,0,0,0-4.31-67,237.45,237.45,0,0,0-23.51-63.4A219.65,219.65,0,0,0,347,54.09a197.86,197.86,0,0,0-55.56-37.78c-20.6-9.23-42.85-14.89-65.51-15a136.54,136.54,0,0,0-32.4,3.8,6.26,6.26,0,0,0-4.31,7.59A6.26,6.26,0,0,0,196.81,17c2.56-.61,5.14-1.16,7.73-1.62,1.34-.24,2.69-.45,4-.65a8.27,8.27,0,0,1,.85-.12l2.18-.25a131.74,131.74,0,0,1,15.89-.71,140.28,140.28,0,0,1,15.86,1.15c.73.1,0,0-.09,0l.93.14,1.86.28c1.34.22,2.67.45,4,.7q3.85.72,7.67,1.65,7.81,1.89,15.42,4.56,3.89,1.37,7.71,2.91l1.76.72c-.74-.31.67.29.87.38,1.27.55,2.53,1.12,3.78,1.7a188.7,188.7,0,0,1,28.28,16.23c2.19,1.52,4.36,3.09,6.49,4.7,1.07.81,1.05.79,2.31,1.79s2.33,1.87,3.49,2.83Q334,58.51,339.7,64.1c3.88,3.78,7.61,7.73,11.18,11.81q2.75,3.12,5.37,6.36c1.84,2.26,2.86,3.57,4.37,5.59a223.44,223.44,0,0,1,17.58,27.51,214.57,214.57,0,0,1,13,28.65,225.24,225.24,0,0,1,9,31.39c.57,2.71,1.09,5.44,1.56,8.17.21,1.26.42,2.53.61,3.79.1.63.2,1.27.29,1.9,0,.27.27,1.93.19,1.32.73,5.38,1.23,10.8,1.54,16.23A201.81,201.81,0,0,1,375.27,324.6a208,208,0,0,1-37.68,46.23Q332,376,326.05,380.74l-1.41,1.12-.74.57c-1,.79-2,1.56-3.1,2.33-2.08,1.53-4.19,3-6.32,4.48a199.27,199.27,0,0,1-26.09,15,182.07,182.07,0,0,1-28.86,10.85q-7.75,2.2-15.67,3.78c-5.3,1.05-10.26,1.83-15.05,2.37a207.35,207.35,0,0,1-31.91,1.14c-5.37-.23-10.74-.66-16.08-1.29l-1.88-.24c-.9-.11-.1,0-1-.13-1.46-.22-2.92-.43-4.38-.67-2.6-.42-5.19-.9-7.77-1.42a190.88,190.88,0,0,1-58.92-22.18,174.3,174.3,0,0,1-25.4-17.88,191.22,191.22,0,0,1-22.06-22.12,205.06,205.06,0,0,1-31.67-52,217.63,217.63,0,0,1-9.83-29.37c-1.31-5.07-2.43-10.2-3.37-15.35-.45-2.53-.87-5.07-1.23-7.61-.05-.31-.09-.61-.13-.92,0,0-.14-1-.07-.47s-.06-.49-.06-.46c0-.31-.08-.62-.11-.92-.18-1.43-.34-2.86-.49-4.29a208,208,0,0,1-.9-31.07q.36-7.89,1.33-15.73c.23-1.91.57-4.24,1-6.8s.92-5.31,1.45-7.95a223.59,223.59,0,0,1,8.46-30.49,215.64,215.64,0,0,1,12.16-28A237.73,237.73,0,0,1,71.67,73.71a241.31,241.31,0,0,1,48-40.68c18.79-12.12,40.46-21.65,63-23.3a92.33,92.33,0,0,1,32.08,3A4,4,0,0,0,219.56,10a4,4,0,0,0-2.76-4.86Z"/><path class="cls-1" d="M85.17,355.56q25.22-28.33,51.52-55.65t54-53.34q27.53-25.92,56.38-50.4t58.9-47.4c20.13-15.35,40.67-30.09,61.33-44.72,2.57-1.82,5.06-3.67,7.49-5.67,2.16-1.78-.6-5-2.91-3.77-5.55,3-10.76,6.7-16,10.25s-10.4,7.26-15.57,10.94q-15.5,11-30.7,22.5c-20.21,15.21-39.95,31.06-59.29,47.35s-38.41,33.19-56.94,50.52-36.34,35-53.81,53.12-34.65,37.14-51,56.57q-3,3.56-6,7.12c-1.48,1.78,1,4.35,2.58,2.58Z"/><path class="cls-1" d="M166.66,407.47q21.42-23.1,43.73-45.34t45.48-43.61Q279,297.16,303,276.72t48.74-39.94q24.64-19.38,50-37.85l6.29-4.55a3,3,0,0,0,1.06-4,3,3,0,0,0-4-1q-25.77,18.55-50.8,38.14t-49,40q-24,20.38-47.22,41.7t-45.72,43.67q-22.44,22.28-44,45.43c-1.77,1.9-3.52,3.8-5.28,5.7-2.19,2.38,1.35,5.95,3.57,3.56Z"/><path class="cls-1" d="M284.75,396.3c18.41-22.77,37.89-44.63,59.15-64.8,6-5.67,12-11.25,18.22-16.69a2.61,2.61,0,0,0-3.69-3.69,572.48,572.48,0,0,0-61.37,63.4c-5.28,6.35-10.32,12.88-15.22,19.54-1.24,1.67,1.59,3.88,2.91,2.24Z"/></g></g></svg>