<svg xmlns="http://www.w3.org/2000/svg" viewBox="0 0 466.85 448.34"><defs><style>.cls-1{fill:#ffe600;}</style></defs><g id="Calque_2" data-name="Calque 2"><g id="Layer_1" data-name="Layer 1"><path class="cls-1" d="M26.81,239.53q32.47-30.78,66.92-59.33,34.13-28.37,69.78-54.83,20.22-15,40.83-29.36a2.89,2.89,0,0,0,1-3.86,2.84,2.84,0,0,0-3.86-1q-37,25.68-72.3,53.76Q94.2,172.7,61,202.68q-18.66,16.84-36.88,34.19c-1.75,1.67.91,4.32,2.66,2.66Z"/><path class="cls-1" d="M371.88,364.17a132.63,132.63,0,0,1-49.21,53.19c-23.67,14.43-51.21,20.88-78.77,21.36-28.49.49-57-5-83.76-14.55a249.39,249.39,0,0,1-67.52-36.53A213.69,213.69,0,0,1,41.08,331.5a201.28,201.28,0,0,1-28-74.23,177.08,177.08,0,0,1,4.54-78c7.79-26.54,21.84-50.8,38.37-72.82A402.81,402.81,0,0,1,82.83,74.63a287.1,287.1,0,0,1,31.05-29.35C135.69,27.86,162.29,14.81,190.62,14a88.27,88.27,0,0,1,19.93,1.62,5.28,5.28,0,0,0,6.34-3.6c.7-2.54-.86-5.79-3.6-6.34-29.88-6-60.63,2.22-86.37,17.73-25.31,15.26-46.4,36.86-65.43,59.24-18.88,22.2-35.65,46.4-47,73.36A185.47,185.47,0,0,0,.29,238.34,209.27,209.27,0,0,0,22,319.25a215,215,0,0,0,49.59,64.46,251,251,0,0,0,67.79,43,263.27,263.27,0,0,0,83.38,21c30.19,2.35,61.09-1.54,88.72-14.34,23.4-10.83,44-28,57.25-50.31A86.94,86.94,0,0,0,376.09,366c.82-2.46-3-4.12-4.21-1.78Z"/><path class="cls-1" d="M203.61,12.47c-1.06,14.31-2.06,28.62-2.74,43s-1.08,28.65-1.17,43c-.17,28.49.33,57,1.76,85.46q1.22,24.09,3.32,48.1c.23,2.6,2.14,5.13,5,5,2.54-.11,5.22-2.21,5-5-2.23-28.57-4-57.2-5.08-85.84-1.09-28.49-1.32-57-1.32-85.49,0-16.06,0-32.14.47-48.18.09-3.4-5-3.33-5.24,0Z"/><path class="cls-1" d="M207.16,236.63c2.37,2.31,4.66,4.71,7.2,6.83l7.63,6.39c5.09,4.27,10.3,8.41,15.46,12.59,10.33,8.39,20.83,16.57,31.26,24.83q31.11,24.68,62.51,49Q349,350,366.76,363.82a5.47,5.47,0,0,0,3.53,1.47,5.11,5.11,0,0,0,3.54-1.47c1.64-1.78,2.21-5.36,0-7.07q-31.62-24.48-63.28-48.91c-21.27-16.43-42.83-32.49-64.26-48.69q-9-6.76-18-13.35c-2.95-2.14-5.94-4.24-8.9-6.37s-6.37-4.14-9.63-6.11a2.12,2.12,0,0,0-2.56,3.31Z"/><path class="cls-1" d="M227.92,7.94c-.37,3.3-1.25,6.55-1.62,9.87-.35,3.11-.54,6.26-.79,9.38q-.78,9.63-1.25,19.28-.93,19.28-1.18,38.58c-.33,25.64.37,51.3,1.91,76.89q.64,10.74,1.51,21.46c.29,3.61.6,7.23.92,10.84.19,2.07.48,4.12.8,6.18.13.81.22,1.62.38,2.43A11.77,11.77,0,0,0,230,206c1.59,3,6.11,2.15,7-.92a12.35,12.35,0,0,0,.67-3c0-.74-.08-1.49-.11-2.22-.09-1.73-.16-3.45-.34-5.17-.33-3.12-.64-6.24-1-9.36q-.91-9.62-1.68-19.23-1.5-19.12-2.34-38.29-1.67-38.31-.73-76.68c.17-7.17.41-14.34.62-21.51q.17-5.43.38-10.86c.15-3.63-.33-7.25-.21-10.86a2.22,2.22,0,0,0-2.19-2.19,2.25,2.25,0,0,0-2.19,2.19Z"/><path class="cls-1" d="M231.52,6.64c2.48.28,4.54.58,7,.7s4.66.3,7,.49c4.66.38,9.32.63,14,1.18,2.54.3,3.39.41,6,.82,2.3.35,4.6.75,6.88,1.19,4.51.86,9,1.87,13.44,3a224.16,224.16,0,0,1,26.56,8.86c1.05.42,2.1.85,3.14,1.29-.92-.39.24.11.55.24l1.75.76q3.19,1.43,6.35,2.95,6.29,3,12.37,6.54c4,2.28,7.89,4.71,11.72,7.25q2.91,1.94,5.76,4l2.74,2,1.35,1,.67.51,0,0a171.49,171.49,0,0,1,19.4,17.23q4.52,4.58,8.75,9.45,2.21,2.53,4.33,5.16c.62.77,1.24,1.54,1.85,2.32l.49.62.2.26c-.43-.56.1.12.2.26l.6.78A203.63,203.63,0,0,1,409,107.2q3.26,5.67,6.14,11.54,1.45,2.94,2.8,5.92c.43,1,.86,1.92,1.28,2.89.18.43.37.85.55,1.28.3.69-.35-.85-.07-.15.13.3.26.61.38.91a198.58,198.58,0,0,1,8.37,24.76q.81,3.08,1.52,6.16l3.66-6.44q-42.29,7.68-84.55,15.5l-42.28,7.75c-13.43,2.46-26.92,4.73-40.3,7.44-12.64,2.56-25.41,6.57-34.32,16.4-1.69,1.87-2,5,0,6.8s5,2,6.79,0a31.24,31.24,0,0,1,2.88-2.76l.73-.61c1-.81-.83.58.2-.15.61-.43,1.22-.87,1.85-1.28a52.46,52.46,0,0,1,6.95-3.78c.83-.38,0,0-.14.05l1.07-.43c.59-.24,1.19-.46,1.79-.68,1.34-.48,2.68-.92,4-1.32,2.62-.78,5.28-1.43,7.95-2,6.16-1.33,12.4-2.36,18.61-3.48l20.66-3.73,83.63-15.09q23.61-4.26,47.22-8.53c2.86-.52,4.25-3.88,3.66-6.43a205.65,205.65,0,0,0-19-50.25,209.5,209.5,0,0,0-31.23-43.7A198.9,198.9,0,0,0,294.88,6.69a213.14,213.14,0,0,0-28.66-5.4,153.82,153.82,0,0,0-28.13-1,58,58,0,0,0-7.29,1.09,2.67,2.67,0,0,0-1.93,3,2.75,2.75,0,0,0,2.65,2.34Z"/><path class="cls-1" d="M253.5,235.21a13.67,13.67,0,0,0,2.56,0c.86-.17,1.72-.43,2.57-.64l4.92-1.17c3.27-.79,6.49-1.8,9.73-2.7l19.48-5.39q19.49-5.37,39.15-10.07c26.23-6.25,52.6-11.82,79.17-16.37q11.26-1.92,22.58-3.63c3.72-.56,7.46-1.1,11.19-1.62l5.72-.79c.07,0,.86-.12.26,0l1.91-.25,2.86-.38c2.28-.29,4.53-1.81,4.42-4.41-.1-2.13-2-4.74-4.42-4.42Q415,188.74,374.74,197q-39.84,8.19-78.95,19.42c-7.25,2.07-14.48,4.2-21.65,6.55-3.66,1.2-7.33,2.4-11,3.66-1.83.63-3.61,1.38-5.41,2.09l-2.7,1.07a11.41,11.41,0,0,0-2.6,1.61c-1.58,1.17-1.16,3.83,1,3.86Z"/><path class="cls-1" d="M455.19,193.06a9,9,0,0,0-.55,2.32A21.57,21.57,0,0,0,455,198c.14,1.05.08,2.89.13,4.26a24,24,0,0,0,.32,2.53c.06.37.11.74.16,1.11.18,1.23-.1-.84.05.38.2,1.59.39,3.17.54,4.76.57,5.88.87,11.83.95,17.73a162.51,162.51,0,0,1-.71,17.79c-.14,1.48-.3,3-.48,4.43,0,.37-.09.74-.14,1.1s-.31,1.49,0,.14c-.15.72-.21,1.47-.32,2.2-.44,2.94-.94,5.86-1.53,8.77a170,170,0,0,1-4.53,17.63c-.89,2.83-1.86,5.65-2.9,8.44q-.7,1.91-1.47,3.81l-.84,2.07c-.11.26-.53,1.45,0,.1-.16.47-.39.92-.58,1.37a175.08,175.08,0,0,1-17.51,30.95q-1.5,2.12-3.06,4.19c-.22.3-.45.59-.67.88-.36.46-.31.4.15-.2L422,333l-1.39,1.74q-3.15,3.89-6.54,7.58T407,349.63c-1.21,1.15-2.38,2.34-3.6,3.48-.63.59-1.29,1.16-1.91,1.76a11.81,11.81,0,0,0-1.91,2.79c-1.75,3.14,1.19,7.62,4.9,6.37a15.2,15.2,0,0,0,2.8-1,22.88,22.88,0,0,0,2.46-2c1.25-1,2.49-2.06,3.7-3.12,2.33-2,4.51-4.24,6.66-6.46a170.79,170.79,0,0,0,12.43-14.56,159.23,159.23,0,0,0,18.59-31.17,173.74,173.74,0,0,0,15.77-72.49,134.81,134.81,0,0,0-1.77-21.14c-.55-3.39-1.14-6.83-2-10.15a20.84,20.84,0,0,0-1.15-3,19.93,19.93,0,0,1-.75-1.9c-.27-.82-.53-1.66-.84-2.46a7,7,0,0,0-1.87-2.42,2,2,0,0,0-3.26.86Z"/><path class="cls-1" d="M275.22,240.06a3.69,3.69,0,0,0-.94-2.69,9.85,9.85,0,0,0-1.47-1.59c-.31-.24-.35-.28-.13-.11l-.45-.35a4,4,0,0,0-.9-.33,6.24,6.24,0,0,0-1.61-.21,5,5,0,0,0-3.63,1.68,4,4,0,0,0-.6,4.63c1.61,2.93,4.65,5.07,7.23,7.17q3.58,2.93,7.2,5.82,7.71,6.16,15.52,12.19c10,7.74,20.17,15.34,30.46,22.71,20.46,14.64,41.52,28.48,63,41.63q9.09,5.56,18.27,11c3.06,1.79,6.13,3.59,9.21,5.34A62.67,62.67,0,0,0,426.53,352a4.67,4.67,0,0,0,5.25-2.13c.9-1.71.9-4.31-.72-5.64a64.75,64.75,0,0,0-8.79-5.65c-2.67-1.56-5.35-3.08-8-4.63q-8.21-4.78-16.33-9.7-16.05-9.7-31.75-20-31.59-20.62-61.83-43.25c-2.84-2.13-5.68-4.26-8.5-6.42l-4.22-3.23-.92-.71-.51-.4-2.2-1.7q-4.2-3.27-8.37-6.59-2.28-1.8-4.6-3.54l-2.21-1.66a9,9,0,0,0-3-1.35l2.81,3.69c0-.52-.05.23-.09.36a1.32,1.32,0,0,1-.35.67c-.17.2-.2.24-.08.11s-.35.2-.4.24c-.28.11-.22.09.18-.08a2,2,0,0,0,.93-.6c0,.15-1.1.49-.51.38.34-.06,0,0,0,0s-.76-.28-.67-.31,0-.58,0,.14c0,2.35,3.38,2.26,3.6,0Z"/><path class="cls-1" d="M52.91,119.89a3.18,3.18,0,0,1,.34.7c.19,0-.78.56.08-.19.08-.07.29-.42.38-.53a7.73,7.73,0,0,1,1.65-1.58l5.67-4.2c3.8-2.79,7.64-5.51,11.43-8.3q11.4-8.4,23-16.5,23.22-16.19,47.23-31.2,13.59-8.55,27.41-16.68a3.4,3.4,0,1,0-3.43-5.87Q141,50.72,116.15,67.33T67.53,102c-4.46,3.36-8.8,6.9-13.16,10.4-1.91,1.52-4.14,2.93-5.16,5.25s-.8,4.74,1.37,6.24a2.33,2.33,0,0,0,3.16-.83,2.36,2.36,0,0,0-.83-3.16Z"/><path class="cls-1" d="M39.33,327.19c9.67-8.26,18.91-17,28.34-25.57s19.12-17,28.77-25.42c19.23-16.77,38.94-32.93,58.83-48.91Q171.86,214,188.82,201.1a2.88,2.88,0,0,0,1-3.82,2.81,2.81,0,0,0-3.82-1c-20.67,15.24-41,30.95-60.72,47.37s-38.91,33.2-57.64,50.61c-10.56,9.82-21.2,19.67-30.93,30.31a1.85,1.85,0,0,0,2.62,2.62Z"/><path class="cls-1" d="M113.07,405.49c19.63-14.4,38.8-29.42,58.43-43.83s39.62-28.44,59.63-42.4c11.26-7.85,22.6-15.57,33.86-23.41,1.68-1.17.17-3.88-1.62-2.78-20.82,12.85-41,26.72-60.9,40.93s-39.53,28.89-58.86,43.92c-10.81,8.4-21.46,17-31.75,26-.85.74.29,2.25,1.21,1.57Z"/><path class="cls-1" d="M208.26,421c11.68-13,23.43-25.84,35.7-38.26s24.86-24.53,37.79-36.25c7.32-6.64,14.92-13,21.89-20,1.53-1.53-.52-4.44-2.39-3.1A225.93,225.93,0,0,0,281,340.44q-9.68,8.81-19.07,17.93c-12.59,12.21-24.66,24.95-36.37,38-6.61,7.37-13.1,14.84-19.33,22.53-1.16,1.43.78,3.48,2.06,2.06Z"/><path class="cls-1" d="M290.89,428.41a29,29,0,0,1,3.1-5.47,45.23,45.23,0,0,1,3.71-4.78c3-3.42,6.25-6.58,9.35-9.9q10.06-10.78,20.22-21.49,5.72-6,11.38-12.1c2.16-2.31-1.31-5.8-3.47-3.48q-10.33,11.07-20.49,22.28c-6.52,7.17-13.16,14.28-19.3,21.78a56.22,56.22,0,0,0-4.23,5.8,29.48,29.48,0,0,0-2.91,6.63c-.54,1.7,2,2.33,2.64.73Z"/><path class="cls-1" d="M246.91,30.89l-.47.08a2.59,2.59,0,1,0,1.37,5l.16,0c2.44-.43,2.44-4.5,0-4.93l-.16,0a2.66,2.66,0,0,0-3.18,1.81A2.6,2.6,0,0,0,246.44,36l.47.08a2.67,2.67,0,1,0,0-5.15Z"/><path class="cls-1" d="M260.83,85c3.63,0,3.63-5.64,0-5.64s-3.64,5.64,0,5.64Z"/><path class="cls-1" d="M262.48,161a1.16,1.16,0,0,0,0-2.31,1.16,1.16,0,0,0,0,2.31Z"/><path class="cls-1" d="M260.83,177.73c2.89,0,2.89-4.5,0-4.5s-2.9,4.5,0,4.5Z"/><path class="cls-1" d="M262.48,65.7c4.29,0,4.3-6.67,0-6.67s-4.31,6.67,0,6.67Z"/><path class="cls-1" d="M305.41,137.76c3.52,0,3.52-5.47,0-5.47s-3.52,5.47,0,5.47Z"/><path class="cls-1" d="M270.73,157.29c4.22,0,4.23-6.56,0-6.56s-4.22,6.56,0,6.56Z"/><path class="cls-1" d="M245.64,130.89l-.16-3.3a3.09,3.09,0,0,0-.82-2,2.17,2.17,0,0,0-.91-.59,2.15,2.15,0,0,0-1.09-.24,2.79,2.79,0,0,0-2,.83l-.45.57a2.82,2.82,0,0,0-.38,1.42l-.15,3.3a3.24,3.24,0,0,0,.87,2.11,2.22,2.22,0,0,0,1,.61,2.13,2.13,0,0,0,1.14.26,3,3,0,0,0,2.1-.87,3,3,0,0,0,.88-2.11Z"/><path class="cls-1" d="M278.16,113.32c3.95,0,4-6.13,0-6.13s-4,6.13,0,6.13Z"/><path class="cls-1" d="M348.34,129c3.91,0,3.92-6.07,0-6.07s-3.91,6.07,0,6.07Z"/><path class="cls-1" d="M368.23,112.73v-3.3a2.61,2.61,0,0,0-.29-1.3,2.5,2.5,0,0,0-.7-1.08,2.47,2.47,0,0,0-1.08-.7,2.56,2.56,0,0,0-1.3-.29l-.9.12a3.33,3.33,0,0,0-1.48.87,3.45,3.45,0,0,0-1,2.38v3.3a2.53,2.53,0,0,0,.29,1.3,2.41,2.41,0,0,0,.7,1.08,3.7,3.7,0,0,0,2.38,1l.89-.12a3.36,3.36,0,0,0,1.49-.87,3.48,3.48,0,0,0,1-2.38Z"/><path class="cls-1" d="M373.11,93.32a3.71,3.71,0,1,0-3.7-3.71,3.77,3.77,0,0,0,3.7,3.71Z"/><path class="cls-1" d="M294.68,83.78c4.18,0,4.18-6.5,0-6.5s-4.19,6.5,0,6.5Z"/><path class="cls-1" d="M291.07,32.26l.31-.49.16-.24v0l0,0,.23-.55.08-.61v-.15a1.62,1.62,0,0,0-.19-.84,1.6,1.6,0,0,0-.44-.69l-.44-.34a2.17,2.17,0,0,0-1.09-.29h-.1a2.21,2.21,0,0,0-.35,0,1.78,1.78,0,0,0-.88.28l0,0-.25.16-.49.31a2.53,2.53,0,0,0-.91.9,2.47,2.47,0,0,0-.34,1.27l.09.67a2.41,2.41,0,0,0,.65,1.11,1.75,1.75,0,0,0,.81.52,1.9,1.9,0,0,0,1,.22,2.57,2.57,0,0,0,1.27-.34,2.53,2.53,0,0,0,.9-.91Z"/><path class="cls-1" d="M377.24,145.09a3.46,3.46,0,1,0-3.46-3.46,3.51,3.51,0,0,0,3.46,3.46Z"/><path class="cls-1" d="M330.18,100.05c2.81,0,2.82-4.37,0-4.37s-2.82,4.37,0,4.37Z"/></g></g></svg>