<svg xmlns="http://www.w3.org/2000/svg" viewBox="0 0 191.6 161.08"><g id="Calque_2" data-name="Calque 2"><g id="Layer_1" data-name="Layer 1"><path d="M3.56,5.39c-.85,3.28-.7,7-.9,10.34L2.06,26c-.41,6.91-.92,13.81-1,20.73,0,2.66,3.92,2.61,4.1,0,.48-6.9.55-13.82.73-20.73l.26-10.23c.09-3.38.52-7,0-10.34-.22-1.31-2.22-1.18-2.52,0Z"/><path d="M1.64,27.86c3.93-1.1,7.84-2.34,11.66-3.76,1.89-.7,3.75-1.45,5.6-2.24a35.8,35.8,0,0,0,5.44-3c1.22-.79.45-3.11-1.06-2.5-1.93.78-3.85,1.49-5.72,2.41s-3.49,1.68-5.27,2.45A96.82,96.82,0,0,1,.93,25.3a1.33,1.33,0,0,0,.71,2.56Z"/><path d="M27.91,1.5a166.32,166.32,0,0,0-4,28.78q-.36,7.17-.08,14.36a75.17,75.17,0,0,0,1.66,14.65c.58,2.41,4.41,1.91,4.34-.59-.15-4.78-.73-9.53-1-14.3-.25-4.62-.31-9.26-.17-13.88A161.71,161.71,0,0,1,31.94,2.61c.54-2.61-3.43-3.74-4-1.11Z"/><path d="M37.52,50.26c1.2,2.64,5.5,2.94,8,2.64a12.23,12.23,0,0,0,8-4.06c1.93-2.28,3.07-5.91,1.19-8.58-2.15-3.06-6.23-2.49-9.1-.88a16.45,16.45,0,0,0-8,13.89,15,15,0,0,0,8,13.81,16.56,16.56,0,0,0,18.2-1.83,2.54,2.54,0,0,0,0-3.57,2.59,2.59,0,0,0-3.56,0C54.63,66.12,44.8,63.2,43,56.09a12.57,12.57,0,0,1,2.14-10.18,8.31,8.31,0,0,1,4.37-3.2c.44-.11,1.12-.27,1.48.06s.13,1.52-.11,2.06c-.9,2.05-3.2,3.25-5.26,3.78a9.17,9.17,0,0,1-3.3.22c-1.26-.16-2.42-.69-3.66-.54a1.33,1.33,0,0,0-1.13,2Z"/><path d="M74.15,9.75A237.44,237.44,0,0,0,71,36.32q-.37,6.59-.35,13.17c0,4.55.33,9.08.41,13.63a2.3,2.3,0,1,0,4.53-.61,120.57,120.57,0,0,1-.84-13q-.2-6.47,0-12.92a200.86,200.86,0,0,1,2.3-26c.29-1.86-2.54-2.68-2.87-.79Z"/><path d="M89.84,10.61h-.15l1.15.66-.26,1.26-1.14.14.17,0-.9-.69c-.1-.52-.1-.48,0,.1a2.44,2.44,0,0,1-.07.46c-.06.64-.23,1.3-.34,1.93-.2,1.13-.41,2.25-.62,3.38-.44,2.3-.81,4.6-1.1,6.93-.59,4.74-1.11,9.49-1.51,14.25a161.83,161.83,0,0,0-.32,28.53,2.8,2.8,0,0,0,2.73,2.73A2.75,2.75,0,0,0,90.2,67.6a187.06,187.06,0,0,1-.32-27.3c.57-9.18,1.69-18.31,2.31-27.49a2.76,2.76,0,0,0-.94-2.65,2,2,0,0,0-2.46.05c-1.18,1.07-.38,3.63,1.4,3,1.32-.49,1.21-2.6-.35-2.57Z"/><path d="M106.32,43.77c-6.62-.49-11.21,5.52-12.17,11.48-1,6.14-.44,13.89,4.58,18.26a12,12,0,0,0,8.3,3.18,10.21,10.21,0,0,0,7.76-4.33,17.1,17.1,0,0,0,2.9-8.21,17.56,17.56,0,0,0-1.45-10.06A14.57,14.57,0,0,0,99.7,47c-3.55,1-2,6.63,1.53,5.54a8.93,8.93,0,0,1,9.5,3.06c2.45,3.09,2.26,8.65.64,12.31a6.33,6.33,0,0,1-3.28,3.5,6.24,6.24,0,0,1-5.45-.89c-4-2.55-4.74-8.07-4.59-12.42.16-4.81,2.32-11.57,8.27-11.23,2,.12,2-3,0-3.12Z"/><path d="M72.44,102c-.79,1.26-.62,3.13-.74,4.58-.15,1.72-.29,3.45-.41,5.18-.25,3.37-.41,6.74-.53,10.12a167,167,0,0,0,.09,20.26c.22,2.54,4,2.62,4,0,.2-6.75-.14-13.5-.14-20.26,0-3.29,0-6.58.07-9.87,0-1.73,0-3.46.08-5.19,0-1.57.39-3.37-.29-4.82a1.26,1.26,0,0,0-2.16,0Z"/><path d="M56.68,105.66l.06.88a.59.59,0,0,1,.24-.2c.16,0,.34-.21.5-.27a7.52,7.52,0,0,1,1.63-.28l4.6-.57c3-.36,6-.85,9-1.23q9-1.15,18.07-1.9a2.89,2.89,0,0,0,2.81-2.81c0-1.38-1.3-3-2.81-2.82q-11.34,1.38-22.6,3.34a88.06,88.06,0,0,0-11,2.34c-2.12.66-5.39,3.72-2.76,5.82a1.63,1.63,0,0,0,2.3-2.3Z"/><path d="M91.25,116.77a9.25,9.25,0,0,1,0-3,1.14,1.14,0,0,0-1.89-1.1c-1,.85-1,2.07-1.09,3.26s-.3,2.63-.44,3.94q-.41,3.94-.61,7.9-.42,7.89-.38,15.8c0,3.17,5.06,3.16,4.92,0-.24-5.27-.35-10.53-.29-15.8,0-2.63.06-5.27.11-7.9,0-1.31,0-2.62.09-3.94s.12-2.24-.71-3.26l-1.78,1.37a9.24,9.24,0,0,1,1.09,2.84c.15.55,1.1.46,1-.14Z"/><path d="M91.1,130.19c-.14-1.31,1.51-2.11,2.61-1.71,1.94.72,2.69,3,3.18,4.88.69,2.62,1,5.43,2.55,7.76s4.06,4.25,7,4a2.47,2.47,0,0,0,2.4-2.4,2.44,2.44,0,0,0-2.4-2.41,2.1,2.1,0,0,1-1.12-.18,7.27,7.27,0,0,1-.85-.5c.25.18-.4-.36-.47-.43s-.59-.69-.44-.49a6.4,6.4,0,0,1-.42-.64,9,9,0,0,1-.79-1.83c-.93-2.81-1.35-5.8-3.15-8.25s-4.4-4-7.37-3.25a5.23,5.23,0,0,0-4.11,5.91c.34,1.88,3.59,1.48,3.37-.46Z"/><path d="M112.34,134.62a23.81,23.81,0,0,0,8.34-1.14,12,12,0,0,0,3.64-1.65,3.26,3.26,0,0,0,1-3.9,8.06,8.06,0,0,0-5-4.17,11.1,11.1,0,0,0-6.18-.08,10.66,10.66,0,0,0-5.3,3.09,11.53,11.53,0,0,0-2.71,6.56,13.66,13.66,0,0,0,5.8,12.16,15.32,15.32,0,0,0,8,2.62,15.89,15.89,0,0,0,8.4-2c2.31-1.24.73-5.26-1.82-4.32a16.78,16.78,0,0,1-2.8.76l-1.31.21c.11,0,.44,0-.1,0-.35,0-.7.06-1.05.07s-.88,0-1.32,0l-.53,0c-.83-.05.47.11-.34,0a16.68,16.68,0,0,1-2.77-.75c.4.15-.12-.05-.21-.1s-.39-.19-.58-.29c-.39-.21-.75-.45-1.12-.69-.67-.44.29.29-.26-.2-.12-.1-.24-.2-.35-.31a10.47,10.47,0,0,1-1-1c.34.4-.14-.2-.17-.24l-.26-.39a10.51,10.51,0,0,1-.62-1.14c0-.1-.25-.57-.08-.15-.09-.22-.17-.44-.24-.67a12.54,12.54,0,0,1-.33-1.24c0-.19-.08-.39-.11-.58.09.55,0-.21,0-.27a11.2,11.2,0,0,1,0-1.16c0-.15,0-.3,0-.46,0-.71-.13.43,0-.26.11-.46.23-.89.36-1.34.2-.68-.11.2.06-.18.08-.17.17-.35.26-.52a7,7,0,0,1,.59-.93c-.31.4.14-.13.17-.17l.3-.3.47-.42s.54-.44.18-.17a6.4,6.4,0,0,1,.89-.57s.64-.31.24-.14l.4-.15a8.91,8.91,0,0,1,1.12-.32l.52-.11c-.4.07.29,0,.38,0a11,11,0,0,1,1.15,0l.41,0c-.42,0,.25,0,.27.06a5.58,5.58,0,0,1,1.81.67,14.32,14.32,0,0,1,1.3,1.1s.08-.26,0-.24a3.85,3.85,0,0,1-.72.39,15.32,15.32,0,0,1-1.6.72,22.46,22.46,0,0,1-7.28,1.5,1.45,1.45,0,0,0,0,2.89Z"/><path d="M137.58,144.25a5.92,5.92,0,0,0,.65-1.91c.06-.53.11-1.06.13-1.59a20,20,0,0,0-.24-3.62,24.06,24.06,0,0,0-2.23-6.74l-1.27,3.1a76.3,76.3,0,0,0,12.59-3.41,2.31,2.31,0,0,0-1.23-4.45,76.73,76.73,0,0,0-12.48,3.79,2.16,2.16,0,0,0-.93,3.53,13.06,13.06,0,0,1,2.23,5.1c.46,2,.3,3.94.6,5.92a1.21,1.21,0,0,0,2.18.28Z"/><path d="M161.16,137.39c1.7-.66,3.48-1.4,4.51-3a4.35,4.35,0,0,0-.17-5.14c-2.47-2.9-6.71-1-9.31.64a9,9,0,0,0-3.55,3.66c-1,2.15-.42,4.32.48,6.39a18.72,18.72,0,0,0,6.48,7.73,16.53,16.53,0,0,0,10.88,3,2.11,2.11,0,0,0,0-4.22,19.42,19.42,0,0,1-3.14-.66,13.32,13.32,0,0,1-3.07-1.19,16.84,16.84,0,0,1-1.49-.85l-.65-.44-.32-.23c-.18-.13.05.06-.23-.18a19.12,19.12,0,0,1-2.51-2.5c-.17-.22,0-.07,0,0l-.31-.42c-.15-.22-.29-.44-.43-.66a14.9,14.9,0,0,1-.89-1.61,5.18,5.18,0,0,1-.53-1.54c0-.1,0-.68,0-.34,0-.12.06-.24.08-.36s.19-.52.06-.23a5.19,5.19,0,0,1,1.95-2,11,11,0,0,1,2.83-1.48l.67-.2c.12,0,.5,0,.4,0,.19.11.23.31.2.58-.14,1.37-2,2.06-3,2.55-1.48.71-.43,3.28,1.13,2.68Z"/><path d="M188.19,108.86a121.3,121.3,0,0,0-1.92,14.71q-.27,3.63-.36,7.28a57.6,57.6,0,0,0,.5,7.53c.25,2.47,3.91,2.59,3.94,0,.1-9.72.21-19.39,1.18-29.07.19-1.9-3-2.33-3.34-.45Z"/><path d="M189.11,161.08c3.31,0,3.32-5.15,0-5.15s-3.33,5.15,0,5.15Z"/></g></g></svg>