<?xml version="1.0" encoding="utf-8"?>
<!-- Generator: Adobe Illustrator 25.1.0, SVG Export Plug-In . SVG Version: 6.00 Build 0)  -->
<svg version="1.1" id="Calque_1" xmlns="http://www.w3.org/2000/svg" xmlns:xlink="http://www.w3.org/1999/xlink" x="0px" y="0px"
	 viewBox="0 0 746.2 303.1" style="enable-background:new 0 0 746.2 303.1;" xml:space="preserve">
<style type="text/css">
	.st0{fill:#FFFFFF;}
</style>
<g>
	<g>
		<path class="st0" d="M71.6,11.1c-4.3,15.6-8.3,31.4-11.3,47.3c-2.9,15.4-6.4,32.1-6.1,47.8c0.1,6,10,7.9,11,1.5
			c2.3-15.7,2.4-31.8,4.6-47.6C72,44.2,75,28.6,79.2,13.2C80.5,8.3,72.9,6.2,71.6,11.1L71.6,11.1z"/>
	</g>
</g>
<g>
	<g>
		<path class="st0" d="M5.3,36.2c48.1-8.7,96.1-17.3,144.2-26c6.6-1.2,3.8-11.4-2.8-10.1C98.8,9.4,50.9,18.8,3,28.1
			C-2.3,29.1,0,37.2,5.3,36.2L5.3,36.2z"/>
	</g>
</g>
<g>
	<g>
		<path class="st0" d="M118.6,34.2c-2.8,5.6-3.6,12.5-4.7,18.6c-1.2,6.5-2.1,13-2.9,19.5c-0.8,6.5-1.5,13-2,19.5
			c-0.5,6.9-1.4,14.1,0,20.9c1,4.9,9.3,5.1,10.1,0c1.1-6.2,0.4-12.7,0.4-19c-0.1-6.5,0-13,0.4-19.5c0.4-6.2,1-12.3,1.7-18.4
			c0.8-6.5,2.7-13.6,2.2-20.2C123.5,33.1,119.9,31.6,118.6,34.2L118.6,34.2z"/>
	</g>
</g>
<g>
	<g>
		<path class="st0" d="M116.6,88.2c5.9-5.8,14.4-2.6,18.7,3.5c4.5,6.5,5.3,14.6,5.8,22.3c0.5,8.2,12.9,6.7,11.2-1.5
			c-2.2-11.3-4.7-23.4-14.7-30.6c-7.8-5.7-19.1-6-25.8,1.5C108.9,86.7,113.5,91.3,116.6,88.2L116.6,88.2z"/>
	</g>
</g>
<g>
	<g>
		<path class="st0" d="M180.8,97.4c5.3-2.7,10.4-12.5,5.1-17.7c-5.9-5.8-16.8-1.2-21.2,4c-5.8,6.8-5.1,17.1,0,24.1
			c6,8.3,16.3,10.7,26,8.7c7.8-1.5,4.5-13.7-3.3-11.9c-6.4,1.5-14-0.9-15.8-7.9c-1.6-6.6,4-12.6,10.8-10.9c-0.7-0.6-1.4-1.1-2.2-1.7
			c1.9,3.1,1.3,6.9-1.8,9.2C176,95.1,178,98.8,180.8,97.4L180.8,97.4z"/>
	</g>
</g>
<g>
	<g>
		<path class="st0" d="M220.8,40.1c1,17.7,3.9,35.4,5.5,53.2c0.5,5.6,7.9,6.8,9.9,1.3c4.1-11.9,7.4-24.1,9.7-36.5
			c-3.9-0.5-7.8-1.1-11.7-1.6c1.4,15,4.7,29.6,9.8,43.7c1.9,5.2,9,6.7,12.1,1.6c14.1-23.8,24.2-50,30.5-76.9
			c2-8.8-11.5-12.5-13.5-3.7c-5.9,26-15.5,50.6-28.4,73.9c4,0.5,8,1.1,12.1,1.6c-5.4-13.5-8.9-27.4-10.8-41.8
			c-0.8-5.7-10.7-5.7-11.5,0c-1.7,12.5-4.3,24.9-7.9,37c3.2,0,6.4,0,9.7,0c-4.3-17.3-7.4-35.1-12.3-52.2
			C223.3,38.1,220.7,38.4,220.8,40.1L220.8,40.1z"/>
	</g>
</g>
<g>
	<g>
		<path class="st0" d="M286.7,80.2c-4,9.2-8.2,19.8-3.7,29.6c3.2,7,14.7,16.2,22.3,9.5c6.8-6,8.8-17.3,6.6-25.7
			c-2.6-9.6-10.6-17.1-20.3-19.4c-8.6-2-12.2,11.2-3.6,13.2c4.5,1.1,8.6,3.5,10.7,7.8c2.3,4.6,1.2,8.6-0.4,13.1
			c-0.4,1.3-1.2,1,0,0.9c-1.1,0.1-2.6-0.9-3.4-1.5c-1.7-1.4-2.9-3.4-3.5-5.5c-1.7-6.2,1.1-13.1,3.1-18.8
			C296.2,79,288.7,75.7,286.7,80.2L286.7,80.2z"/>
	</g>
</g>
<g>
	<g>
		<path class="st0" d="M330.3,121.5c3.3-9.2-1.6-17.5-2-26.7c-0.5-10.5,9-10.7,17-10.3c8,0.5,7.9-11.8,0-12.4
			c-9.9-0.7-22.6,1-25.4,12.4c-1.2,4.9-0.3,10.3,1.2,15c2.1,6.7,5.7,13.1,3.3,20.2C323.1,123.6,329,125.2,330.3,121.5L330.3,121.5z"
			/>
	</g>
</g>
<g>
	<g>
		<path class="st0" d="M382.9,24.5c-9.1,28-13.8,57.4-13.7,86.9c0,8.4,13.6,8.3,13,0c-2-28.6,0.6-57.2,8.1-84.9
			C391.7,21.7,384.4,19.7,382.9,24.5L382.9,24.5z"/>
	</g>
</g>
<g>
	<g>
		<path class="st0" d="M431.8,71.1c-17.4-7.3-34.9,10-29.3,27.5c6.2,19.3,31.4,20.9,42.1,4.7c4.6-7-6.6-13.5-11.3-6.6
			c-5.2,7.8-17,6.2-20.1-2.4c-3.8-10.2,7-18.2,16.4-15.3C434.8,80.6,436.5,73.1,431.8,71.1L431.8,71.1z"/>
	</g>
</g>
<g>
	<g>
		<path class="st0" d="M452.7,31.7c-4,16.6-6.9,33.5-8.5,50.5c-1.2,13.2-3.7,33.5,14.3,35.7c6.6,0.8,8.2-10.7,1.6-11.7
			c-6-0.9-5.8-7.6-5.7-12.5c0.1-6.7,0.4-13.4,0.9-20.1c1-13.3,2.8-26.6,5.4-39.7C461.6,28.7,453.9,26.5,452.7,31.7L452.7,31.7z"/>
	</g>
</g>
<g>
	<g>
		<path class="st0" d="M508.4,120.2c3.8-3.8,6.2-8.4,9-13c1.8-2.9,7.3-10.3,11.6-6.6c1.6,1.4,1.5,5.2,1.8,7.1c0.4,3,0.9,5.9,1.4,8.9
			c1.1,7,2.1,13.6,4.7,20.3c1.9,4.8,9.2,4.4,9.3-1.3c0.2-9.2-2-18-3.8-27c-1.4-6.9-2.4-14.9-9.9-17.7c-6.1-2.3-12.7-0.2-17.2,4.3
			c-5.6,5.6-7.1,13.7-12.3,19.5C499.6,118.5,504.8,123.8,508.4,120.2L508.4,120.2z"/>
	</g>
</g>
<g>
	<g>
		<path class="st0" d="M574.4,113.7c7.4-4,17.6-12.9,10.5-22c-7.9-10.1-19.8,0.2-24.1,8c-5.5,9.8-7.7,23-0.6,32.6
			c6.2,8.4,17,11.8,26.5,7.2c6.6-3.2,0.8-13.3-5.8-9.9c-3.9,2-8.6,0.1-11.5-2.8c-4.1-4.1-4.4-10.4-3.1-15.7c1-4.5,4.3-14.5,9.9-15.1
			c3.9-0.4,4,3.7,2.5,6.2c-1.6,2.7-5,4.3-7.6,5.8C567.3,110,570.7,115.7,574.4,113.7L574.4,113.7z"/>
	</g>
</g>
<g>
	<g>
		<path class="st0" d="M620,117.2c10.3-1.2,19.6-7.4,24-17c1-2.2,0.4-5.8-2.5-6.2c-8.8-1.3-17.9-2.4-26.3,1.5
			c-7.4,3.4-12.6,10.4-12.9,18.6c-0.8,19.4,17.6,29,33,35.3c3.2,1.3,6.9-1.4,7.8-4.4c1-3.6-1.3-6.5-4.4-7.8
			c-9.6-3.9-22.8-9.2-24.3-21.1c-2-14.5,16.4-14.5,26-13.8c-1.4-1.8-2.7-3.6-4.1-5.4c-2.5,8.1-8.5,14-16.7,16.2
			C617.3,113.7,617.6,117.5,620,117.2L620,117.2z"/>
	</g>
</g>
<g>
	<g>
		<path class="st0" d="M670.6,103.4c-11.8,2.3-20,15.3-16.2,27c3.9,12.2,19.6,19,30.4,11.4c4.3-3,1.8-9.8-3.6-8.6
			c-5.9,1.3-13.8-0.6-16.6-6.4c-3.1-6.5,1.2-14.7,7.7-16.9C676.5,108.5,674.9,102.6,670.6,103.4L670.6,103.4z"/>
	</g>
</g>
<g>
	<g>
		<path class="st0" d="M697.9,48.4c-4.4,18.4-6.9,37.4-7.1,56.3c-0.1,8.1-0.9,17.6,2.6,25.1c3.2,7,9.9,11,17.6,9.4
			c6.4-1.4,5.1-11.8-1.6-11.5c-6,0.3-6.8-6.9-7.3-11.4c-0.7-7.3-0.9-14.7-0.9-22.1c0.1-14.7,1.6-29.3,4.3-43.7
			C706.5,45.6,699.1,43.4,697.9,48.4L697.9,48.4z"/>
	</g>
</g>
<g>
	<g>
		<path class="st0" d="M739.8,96.3c-5.1-2.5-11-0.9-14,4.2c-3.2,5.4-1.3,12.2,1.9,17c3.6,5.5,8.6,10.5,5.6,17.6
			c-2.3,5.4-8.2,7.7-13.6,6c-8.9-2.6-12.6,12.1-3.8,13.7c12.4,2.2,25.5-3.7,29.4-16.4c1.7-5.8,1.3-12.3-1.4-17.7
			c-1.5-3-3.7-5.5-5.8-8c-0.5-0.6-6.8-10.1-1.7-8.4C741,106,744.3,98.5,739.8,96.3L739.8,96.3z"/>
	</g>
</g>
<g>
	<g>
		<path class="st0" d="M98,168.2c-1.3,3.3-1.4,7.1-1.8,10.7c-0.5,4.3-1,8.5-1.5,12.8c-0.9,8-2.6,16.5-2.4,24.6
			c0.2,5.9,9.7,7.8,10.8,1.5c1.4-8.2,0.9-16.8,1.1-25c0.1-7.7,1.7-17-0.2-24.4C103.1,165,99,165.5,98,168.2L98,168.2z"/>
	</g>
</g>
<g>
	<g>
		<path class="st0" d="M64.4,190.6c32.8-11.9,67-19.8,101.7-22.8c7.6-0.7,7.5-12.8,0-11.9c-35.8,4.2-70.7,12.9-103.9,26.8
			C57.5,184.7,59.4,192.4,64.4,190.6L64.4,190.6z"/>
	</g>
</g>
<g>
	<g>
		<path class="st0" d="M179.7,192.3c-11.4,0.7-27.6,4.6-26.7,19.3c0.8,12.6,15.5,18.1,26.3,15.7c12.6-2.8,21.1-15.7,16.8-28.3
			c-4.1-12.2-20.2-16.8-29.5-7.5c-4.4,4.4,1.4,12.6,6.9,8.9c4.6-3.1,10.9-1.4,11.8,4.5c1,6.3-4.6,11.1-10.3,12.1
			c-5.1,0.8-14-1.8-13-8.4c1.2-7.9,12.3-9.4,18.5-10.3C183.9,197.7,183.1,192.1,179.7,192.3L179.7,192.3z"/>
	</g>
</g>
<g>
	<g>
		<path class="st0" d="M297.6,186.4c-15.3-4.2-30.8,7.4-29.5,23.6c1.4,18,20.5,27.2,36.2,19.5c7.1-3.5,0.9-13.8-6.2-10.5
			c-8.6,4-18.1-2-18.9-11.1c-0.8-9.9,8.4-16.6,17.6-15.4C300.3,192.9,300.9,187.3,297.6,186.4L297.6,186.4z"/>
	</g>
</g>
<g>
	<g>
		<path class="st0" d="M324.6,152.8c-4.2,24.1-7.4,48.2-10.8,72.4c-1,7.3,9.5,8.7,9.9,1.3c1.5-24.5,3.1-48.9,3.8-73.4
			C327.6,151.6,324.9,151.2,324.6,152.8L324.6,152.8z"/>
	</g>
</g>
<g>
	<g>
		<path class="st0" d="M323.1,208.9c1.3-2.6,4.9-2.3,7-0.7c3.5,2.6,4.5,8.2,5.8,12.1c2.5,7.5,6.2,14.9,14.6,16.5
			c5.3,1,9.3-6.4,3.9-9.3c-9.8-5.2-9.5-19-17.6-26.1c-6.2-5.4-17.7-5.5-21.5,2.8C312.8,209.6,320.5,214.2,323.1,208.9L323.1,208.9z"
			/>
	</g>
</g>
<g>
	<g>
		<path class="st0" d="M391.9,193.8c-18.4,6.8-27.4,26.9-20,45.2c1.2,3,3.6,4.4,6.8,3.9c17.8-3.2,24.6-21.4,29.6-36.5
			c-3.9-0.5-7.9-1.1-11.8-1.6c-0.3,14.2,6.5,26.7,17.7,35.2c6.4,4.8,12.7-6,6.3-10.8c-7.7-5.7-11.9-15-11.9-24.4
			c-0.1-6.8-9.8-8.1-11.8-1.6c-3.5,11.5-8.2,25.1-20.9,29c2.1,0.8,4.2,1.7,6.2,2.5c-7.4-13.4-1.4-29.4,12-36.1
			C396.6,197.4,394.8,192.8,391.9,193.8L391.9,193.8z"/>
	</g>
</g>
<g>
	<g>
		<path class="st0" d="M432.8,239.9c4.1-14.3,12.6-26.9,24.5-35.9c-2.2-0.9-4.3-1.8-6.5-2.6c2.7,10.5,5.3,21.6,9.2,31.7
			c3.3,8.3,10.5,14.7,19.9,12.4c7-1.7,4-12.7-3-10.8c-6.6,1.9-9-10.3-10.4-14.5c-2.4-7.1-4.7-14.1-7.2-21.1
			c-1.2-3.2-4.8-4.3-7.4-1.9c-12.1,11-20.4,25.6-23.7,41.6C427.7,241.6,432,242.9,432.8,239.9L432.8,239.9z"/>
	</g>
</g>
<g>
	<g>
		<path class="st0" d="M533,201.9c-11.2-3.6-24.6-5.2-34.4,2.8c-7.8,6.3-12,18.1-6.7,27.4c5.2,9.2,17.1,11.8,26.6,8.3
			c11.6-4.2,17.6-16.1,19.7-27.5c-4.3-0.6-8.5-1.2-12.8-1.7c-1.6,24.6-12.7,48-30.9,64.7c-4.2,3.9-9.6,8.9-15.4,10
			c-5.4,1-8.5-2.2-7.4-7.5c1.2-5.8,7.1-9.3,11.8-12c5.7-3.4,11.5-6.4,16.6-10.7c4.7-3.9-1.6-12.2-6.6-8.5
			c-12.9,9.3-34.1,12.7-35.7,32.1c-0.6,7.5,2.7,14.7,9.3,18.3c8,4.4,17.6,2.1,24.9-2.5c27.9-17.5,44.9-51.6,46.4-83.8
			c0.3-7.2-11.5-9-12.8-1.7c-1.2,6.8-3.4,14.6-9.7,18.5c-4.1,2.5-11.2,3-14.1-1.7c-2.9-4.8,0.5-11.5,4.5-14.6
			c6.8-5.3,16.9-4.5,24.8-3C535.6,209.5,537.4,203.3,533,201.9L533,201.9z"/>
	</g>
</g>
<g>
	<g>
		<path class="st0" d="M552.9,239.6c18.3-2.7,33.6-17,38.3-34.8c0.7-2.7-0.9-5.7-3.7-6.4c-16.2-4.4-35.1,6.1-38.8,22.8
			c-3.8,17,8.2,35.3,25.4,38.4c8.3,1.5,11.9-11.2,3.5-12.7c-10.2-1.8-18.7-11.6-17-22.3c1.7-10.8,13.7-18.1,24.2-16
			c-1.2-2.1-2.4-4.3-3.7-6.4c-2.9,15.5-14.8,27.3-30.2,30.3C546.1,233.3,548.2,240.3,552.9,239.6L552.9,239.6z"/>
	</g>
</g>
<g>
	<g>
		<path class="st0" d="M65.1,251.1c79.4,21.5,160.5,37,242.4,46c23.1,2.6,46.2,4.5,69.4,6c5.5,0.4,5.4-8.1,0-8.5
			c-81.4-5.8-162.4-16.9-242.2-33.9c-22.7-4.8-45.5-9.7-68-15.3C62.9,244.5,61.4,250.1,65.1,251.1L65.1,251.1z"/>
	</g>
</g>
</svg>
