<svg xmlns="http://www.w3.org/2000/svg" viewBox="0 0 617.99 548.74"><defs><style>.cls-1{fill:#ffe600;}.cls-2{fill:#fff;}.cls-3{opacity:0.3;}</style></defs><g id="Calque_2" data-name="Calque 2"><g id="Layer_1" data-name="Layer 1"><path d="M426.63,249.08h0c-1.9-9.91-12.52-18.36-21.82-23.7l0,0,0,0-.58-.33c-1.34-.77-2.86-1.57-4.53-2.37l-.48-.23c-3.34-1.57-7.26-3.18-11.62-4.8a46.42,46.42,0,0,0-13.32-21.07l-.13-.15-.17-.28c0-.13-.07-.26-.1-.39.18-7.89-4.66-15.57-12.4-17.87s-15.1,1.31-19.61,7.38c-.15.16-.32.31-.48.46a.41.41,0,0,1-.11.07,7.69,7.69,0,0,1-1.08.24l0,0a50,50,0,0,0-25.81,12.14c-5.73-1-10.87-1.79-15-2.2v0c-9-2-19.5-1.41-26.64,2.06s-10.9,9.72-10.21,16.77c.73,7.4,6,14.84,16.72,23.42a120.84,120.84,0,0,0,17.31,11.46,51.82,51.82,0,0,0,1.37,5.79,48,48,0,0,0,13.72,22,3.74,3.74,0,0,0,.41.87c-.16,7.86,4.68,15.51,12.4,17.81s15.1-1.31,19.62-7.38c.14-.16.31-.31.47-.46l.47-.19H345a4.75,4.75,0,0,0,1-.19,50.19,50.19,0,0,0,29.52-16.22c4.19.36,8.61.61,13.08.61,1.09,0,2.19,0,3.28,0,9.69-.27,19.66-1.17,26.95-5.92C425,262.38,427.94,255.9,426.63,249.08Z"/><path class="cls-1" d="M363.31,267c-5.27-.72-10.51-1.6-15.57-2.63A181,181,0,0,1,306,250.81a38.92,38.92,0,0,0,12.11,20.29v0a9.59,9.59,0,0,1,2.83,6.51s0,0,0,0c-.32,4.37,2,8.4,5.87,9.65s8.11-.7,10.39-4.45h0a9.63,9.63,0,0,1,6.09-3.66h0a39.61,39.61,0,0,0,24-11.64C365.9,267.37,364.56,267.19,363.31,267Z"/><path class="cls-1" d="M344.76,245.67a210.27,210.27,0,0,0,33.12,5.61c.37-.95.72-1.91,1-2.9,5.61-17.51.68-35.56-11.09-45.73,0,0,0,0,0,0A9.62,9.62,0,0,1,365,196.1v0c.31-4.38-2-8.41-5.88-9.66s-8.11.71-10.39,4.45h0a9.59,9.59,0,0,1-6.09,3.67s0,0,0,0c-15.51,1.45-30,13.28-35.59,30.8a47.15,47.15,0,0,0-1.25,4.84A145.37,145.37,0,0,0,344.76,245.67ZM368,224.92a3,3,0,1,1,3.35,5,3.29,3.29,0,0,1-1.82.57,2.87,2.87,0,0,1-2.43-1.35h0A3,3,0,0,1,368,224.92Zm-6.27-13.69a3.2,3.2,0,0,1,2.61-1.75,2.78,2.78,0,0,1,2.5,1.28,2.82,2.82,0,0,1-.85,4,3.16,3.16,0,0,1-1.73.54,2.89,2.89,0,0,1-2.53-4.09Zm-7.09,10.37a2.62,2.62,0,1,1,2.92,4.36,2.93,2.93,0,0,1-1.59.5,2.5,2.5,0,0,1-2.11-1.18h0A2.58,2.58,0,0,1,354.64,221.6Z"/><path class="cls-2" d="M417.94,250.74c-1.78-9.26-19.15-19.86-28-22.53a2.45,2.45,0,0,0-3.06,1.1,2.41,2.41,0,0,0,1.28,3.09c8,4.24,15.57,8.58,20.6,15,1.65,2.12,2.17,3.82,1.54,5.06-.76,1.5-4,4.08-17.49,4.5-14.1.45-31.21-1.69-49.47-6.21-18.08-4.46-34.27-11.4-46.8-20.06s-15.16-13.13-15.29-15.44a2.35,2.35,0,0,1,1-2.1c4.34-3.41,12.48-1.55,19-.07l1.89.43a3.49,3.49,0,0,0,4.16-1.59,3.06,3.06,0,0,0-1.28-3.85c-6.8-4.85-21.75-5.9-29.58-2.09-3.73,1.81-5.6,4.64-5.27,8,.46,4.8,4.86,10.49,13.45,17.38a120.12,120.12,0,0,0,23.45,14.43,175.68,175.68,0,0,0,40.58,13.17q7.4,1.51,15.25,2.58a172,172,0,0,0,27.69,2c8.39-.23,16.92-.94,22.37-4.49C418.06,256.34,418.38,253.05,417.94,250.74Z"/><text/><path class="cls-1" d="M410.69,116.74a6.21,6.21,0,1,0-6.21-6.21,6.27,6.27,0,0,0,6.21,6.21Z"/><path class="cls-1" d="M596.5,282a4,4,0,1,0-4-4,4.07,4.07,0,0,0,4,4Z"/><path class="cls-1" d="M256.68,103.51l-.9-.09-.21,0a5.22,5.22,0,0,0-2.83.74,5.58,5.58,0,0,0-2,2l-.14.19a5.09,5.09,0,0,0,0,5.12l.14.19a5.58,5.58,0,0,0,2,2,5.31,5.31,0,0,0,2.83.74l.21,0,.9-.09a4,4,0,0,0,2.06-.46,4.09,4.09,0,0,0,1.73-1.11,6,6,0,0,0,1.56-3.78l-.19-1.42a5.35,5.35,0,0,0-1.37-2.37l-1.09-.83a5.21,5.21,0,0,0-2.7-.73Z"/><path class="cls-1" d="M209.81,377.13a3.79,3.79,0,1,0-3.79-3.79,3.83,3.83,0,0,0,3.79,3.79Z"/><path class="cls-1" d="M425.75,399.94c4.07,0,4.08-6.32,0-6.32s-4.08,6.32,0,6.32Z"/><path class="cls-1" d="M559.67,81.19a4.14,4.14,0,1,0-4.14-4.14,4.18,4.18,0,0,0,4.14,4.14Z"/><path class="cls-1" d="M516.15,172.13a4.69,4.69,0,1,0-4.69-4.68,4.73,4.73,0,0,0,4.69,4.68Z"/><path class="cls-1" d="M121.09,6.8c4.37,0,4.38-6.8,0-6.8s-4.38,6.8,0,6.8Z"/><path class="cls-1" d="M107.7,515.77a5.16,5.16,0,1,0-5.16-5.16,5.23,5.23,0,0,0,5.16,5.16Z"/><path class="cls-1" d="M117.74,197.63c4.38,0,4.38-6.8,0-6.8s-4.38,6.8,0,6.8Z"/><path class="cls-1" d="M189.72,284c3.52,0,3.53-5.47,0-5.47s-3.52,5.47,0,5.47Z"/><path class="cls-1" d="M605.49,509.68c1-2,1.72-4.07,2.52-6.13a5.57,5.57,0,0,0-3.76-6.64l-1.43-.19a5.46,5.46,0,0,0-2.73.74l-1.09.84a5.4,5.4,0,0,0-1.38,2.38l-.72,2.54c-.12.42-.24.83-.35,1.25s-.18.88-.27,1.32a5.74,5.74,0,0,0,.5,3.89l.79,1a3.9,3.9,0,0,0,1.62,1,2.5,2.5,0,0,0,1.28.34,3.82,3.82,0,0,0,2-.09l1.2-.51a5,5,0,0,0,1.81-1.8Z"/><path class="cls-1" d="M360.47,11.79a5.1,5.1,0,0,0,5-5,5,5,0,1,0-10.08,0,5.12,5.12,0,0,0,5,5Z"/><path class="cls-1" d="M.57,373.93a.59.59,0,0,0,0-1.17.59.59,0,0,0,0,1.17Z"/><path class="cls-1" d="M384.12,499.16l.13,0-1.83.25h.11l-1.82-.25.09,0-1.63-.69a.21.21,0,0,1,.1.06l-1.38-1.07a.57.57,0,0,1,.11.11l-1.06-1.37a.52.52,0,0,1,.1.18l-.67-1.61a1.07,1.07,0,0,1,.07.27l-.24-1.77a.7.7,0,0,1,0,.25l.24-1.76a.3.3,0,0,1,0,.1v.06a5,5,0,0,0-.11,2.62c0,.29.07.59.12.88a7.31,7.31,0,0,0,3,3.92L381,500a6.66,6.66,0,0,0,3.49,0l1.58-.67,1.33-1,0,0,0,0c.18-.22.55-.72.52-.68s.37-.46.53-.69a.57.57,0,0,0,.08-.13,11.45,11.45,0,0,0,.73-1.74.94.94,0,0,0,0-.16,7.84,7.84,0,0,0,0-3.88.25.25,0,0,1,0-.07v0c-.05-.14-.63-1.49-.69-1.63s0,0,0,0l0-.06h0c-.06-.08-1-1.33-1.08-1.39l0,0,0,0c-.21-.18-1.55-1.19-.7-.54.21.17-.47-.39-.71-.55l-.08,0c-.1,0-1.55-.66-1.65-.69h-.06a11.34,11.34,0,0,0-1.93-.26,6.8,6.8,0,0,0-3.49.94l-1.4,1.08a7,7,0,0,0-1.78,3,5.29,5.29,0,0,0-.12,2.76,5.17,5.17,0,0,0,.82,2.57,7.75,7.75,0,0,0,4.13,3.18,7,7,0,0,0,3.68,0Z"/><path class="cls-1" d="M54.13,107.08a4.92,4.92,0,1,0-4.92-4.92,5,5,0,0,0,4.92,4.92Z"/><g class="cls-3"><path class="cls-1" d="M514.53,166.73C500.94,172.88,488,180.52,475,187.89s-25.81,15.05-38.53,22.89c-7.24,4.47-14.4,9.08-21.54,13.74-1.9,1.24-.15,4.3,1.8,3.07,25.24-16,50.81-31.45,76.79-46.2,7.4-4.2,14.89-8.28,22.09-12.81a1.07,1.07,0,0,0-1.08-1.85Z"/><path class="cls-1" d="M409.83,110.66a15.39,15.39,0,0,0-.92,3.87c-.23,1.41-.48,2.81-.73,4.22-.51,2.81-1,5.64-1.46,8.45q-1.49,8.34-3.29,16.61c-2.42,11-5.21,22-8.42,32.81-1.84,6.17-3.85,12.29-5.88,18.4-.52,1.6,1.92,2.22,2.49.69A369.48,369.48,0,0,0,409,129.55c.52-3.09,1.06-6.19,1.44-9.3.2-1.57.39-3.14.57-4.72a17.19,17.19,0,0,0,.22-4.69.77.77,0,0,0-1.39-.18Z"/><path class="cls-1" d="M359.44,5.43c-1.64,11-2.53,22-3.64,33l-3.32,33q-3.35,33.14-6.61,66.26c-1.23,12.41-2.46,24.81-3.61,37.23-.18,2,2.92,2,3.13,0,2.28-22,4.36-44,6.52-66s4.2-44,6.31-66c1.18-12.38,2.68-24.8,3.25-37.22.06-1.14-1.85-1.44-2-.28Z"/><path class="cls-1" d="M557.33,76.89c-4.54,1-9,2.59-13.42,4s-8.77,2.74-13.17,4.06q-13.32,4-26.82,7.36c-18,4.48-36.2,8.1-54.52,11q-7.81,1.25-15.66,2.27c-5.13.67-10.28,1.18-15.39,2-1.13.18-.86,2,.27,2,9.26-.43,18.54-1.87,27.7-3.21s18.47-3,27.63-4.81Q501.34,96,528.08,87.83,535.6,85.54,543,83a113.3,113.3,0,0,0,14.5-5.64c.27-.13.08-.52-.19-.46Z"/><path class="cls-1" d="M423.89,254.79c25.06,4.43,50.14,8.83,75.25,13s50.25,8.3,75.39,12.33l20.89,3.33c7.08,1.12,14.17,2.36,21.29,3.16,1.46.17,1.79-2.28.35-2.57-6.26-1.22-12.61-2.09-18.91-3.05l-18.95-2.9q-18.71-2.89-37.4-5.83-37.63-5.91-75.25-12-21.15-3.39-42.29-6.84c-.88-.15-1.27,1.2-.37,1.35Z"/><path class="cls-1" d="M380,276.73a336.12,336.12,0,0,0,11.77,48.78,366,366,0,0,0,18.29,46.39c4,8.51,8.33,16.92,13.14,25a1.47,1.47,0,0,0,2.53-1.48A413.51,413.51,0,0,1,404,350.67a378.12,378.12,0,0,1-15.67-47.19c-2.35-9-4.33-18.18-6.11-27.35-.29-1.44-2.41-.81-2.19.6Z"/><path class="cls-1" d="M424.62,400.67a444.88,444.88,0,0,0,56.32,49,467.94,467.94,0,0,0,63.7,39.53c12.47,6.4,25.22,12.29,38.23,17.5,1.71.68,2.43-2.07.76-2.75a489.23,489.23,0,0,1-66.48-33.35A469.9,469.9,0,0,1,457,427.5c-10.68-9-20.94-18.5-30.87-28.33a1.06,1.06,0,0,0-1.49,1.5Z"/><path class="cls-1" d="M424.76,394.3l-.27.1a.77.77,0,0,0-.16.07c-.11.08.19,0,.07,0a2.78,2.78,0,0,0-1.07.24,5.08,5.08,0,0,0-1.21.95,3.59,3.59,0,0,0-.81,3.26,4.47,4.47,0,0,0,4.26,3.22,3.63,3.63,0,0,0,2.75-1.28,4,4,0,0,0,.8-1.48,4,4,0,0,0,.16-1.29,4.82,4.82,0,0,0-.79-2.55,5,5,0,0,0-1.23-1.24,4.76,4.76,0,0,0-1.18-.57,2.27,2.27,0,0,0-2,.12A3.75,3.75,0,0,0,423,395a4.32,4.32,0,0,0-.64,1.66,5.62,5.62,0,0,0,.05,2.31,4.88,4.88,0,0,0,1.11,2.06,2.29,2.29,0,0,0,1.6.66,2.24,2.24,0,0,0,1.61-.66,5.85,5.85,0,0,0,1.09-1.87,3.41,3.41,0,0,0,.14-.55,8.19,8.19,0,0,0,.12-1.11,5.35,5.35,0,0,0-1.38-3.53,2.18,2.18,0,0,0-1.94-.63,2.27,2.27,0,0,0-1.68,1.1,8.1,8.1,0,0,0-1.26,2.81,4.88,4.88,0,0,0,0,2.28,3.86,3.86,0,0,0,1,1.63,3.7,3.7,0,0,0,1.62.92,4.37,4.37,0,0,0,1.8,0,2.94,2.94,0,0,0,2.28-2.11,1.88,1.88,0,0,0-1.09-2.21,1.77,1.77,0,0,0-1.22-.09l-.45.19a1.87,1.87,0,0,0-.67.67l0,0,.29-.38a.87.87,0,0,1-.17.16l.39-.3a.72.72,0,0,1-.19.11l.47-.2a.79.79,0,0,1-.22.06l.54-.07h-.32l.56.07a1.78,1.78,0,0,1-.38-.1l.52.22a2.39,2.39,0,0,1-.34-.21l.45.35-.75-.58.47.36a2.59,2.59,0,0,1-.4-.41l.37.47a1.92,1.92,0,0,1-.18-.31l.23.56a2.08,2.08,0,0,1-.11-.48l.08.62a2.91,2.91,0,0,1,0-.66l-.08.62a4.22,4.22,0,0,1,.28-1l-.23.56a9.14,9.14,0,0,1,.7-1.31l-3.62.46.13.16-.36-.47a2.73,2.73,0,0,1,.37.64l-.23-.55a3,3,0,0,1,.21.77l-.08-.61a3.66,3.66,0,0,1,0,.81l.08-.61a3.46,3.46,0,0,1-.21.78l.23-.55a3,3,0,0,1-.33.58l.35-.46-.08.11h3.21a1.83,1.83,0,0,1-.13-.16l.35.46a3.94,3.94,0,0,1-.36-.63l.23.54a3.52,3.52,0,0,1-.21-.77l.08.59a3.57,3.57,0,0,1,0-.8l-.08.58a3.55,3.55,0,0,1,.19-.71l-.22.52a2.82,2.82,0,0,1,.37-.63l-.34.43.05-.05-1.51.62a3.83,3.83,0,0,0,.67-.08l-.57.07a2.14,2.14,0,0,1,.44,0l-.54-.07a.88.88,0,0,1,.23.07l-.48-.2a2.4,2.4,0,0,1,.46.27l-.41-.32a2.79,2.79,0,0,1,.45.46l-.31-.4a3.37,3.37,0,0,1,.36.61l-.2-.47a3,3,0,0,1,.22.78l-.07-.51a2.66,2.66,0,0,1,0,.69l.07-.5a2.27,2.27,0,0,1-.14.51l.19-.45a1.76,1.76,0,0,1-.24.42l.29-.37a1.62,1.62,0,0,1-.32.32l.37-.28a2.22,2.22,0,0,1-.42.25l.44-.19a1.94,1.94,0,0,1-.51.14l.48-.06a2.36,2.36,0,0,1-.65,0l.47.06a2.76,2.76,0,0,1-.68-.19l.41.18a3,3,0,0,1-.67-.39l.34.26a2.63,2.63,0,0,1-.5-.5l.26.34a2.62,2.62,0,0,1-.3-.51l.17.38a2.23,2.23,0,0,1-.13-.46l.06.43a2,2,0,0,1,0-.49l0,.42a2.48,2.48,0,0,1,.18-.66l-.15.37c.09-.21.17-.42.25-.63l-.15.36a4.06,4.06,0,0,1,.26-.51l.17-.24c.08-.11,0-.08-.08.1l.09-.12a2.28,2.28,0,0,0,.38-.68l0-.12c0-.1,0-.07,0,.08s0,0,.08-.07l.21-.2a.86.86,0,0,0,.13-1,.87.87,0,0,0-1-.4Z"/><path class="cls-1" d="M425.31,401.73c-1.17,2.86-1.83,6-2.72,8.94s-1.84,6-2.81,8.92c-1.88,5.77-3.85,11.52-5.95,17.22q-6.39,17.4-14.23,34.21c-3,6.36-6.2,12.6-9,19-.5,1.12,1,2.09,1.68,1a178.1,178.1,0,0,0,8.51-16.62q3.92-8.4,7.47-17,7.18-17.25,12.91-35.05,1.58-4.89,3-9.82a78.76,78.76,0,0,0,2.79-10.38.84.84,0,0,0-1.62-.45Z"/><path class="cls-1" d="M210.73,376.58c10.72-9.25,21.31-18.63,31.72-28.24s20.67-19.34,30.8-29.22C279,313.52,284.86,308,290.19,302a1.05,1.05,0,0,0-1.49-1.49c-5.23,4.76-10.14,9.88-15.16,14.86s-10.07,9.94-15.16,14.86q-15.25,14.74-30.92,29.07c-5.93,5.42-11.83,10.9-17.81,16.26-.73.66.34,1.71,1.08,1.07Z"/><path class="cls-1" d="M193.38,285.19a680.46,680.46,0,0,1,77.72-33.35q11.34-4.07,22.75-7.93c1.3-.44.77-2.47-.57-2.08-27.3,8-53.83,18.54-79.59,30.54q-10.92,5.08-21.63,10.56c-1.5.77-.18,3,1.32,2.26Z"/><path class="cls-1" d="M117.09,194.94c7.43.57,14.89.82,22.33,1.34q10.91.75,21.78,1.94,22,2.42,43.81,6.63c8.11,1.57,16.18,3.37,24.25,5.11,1.84.39,2.62-2.35.78-2.83a426.71,426.71,0,0,0-43.86-8.56q-21.83-3.25-43.85-4.75c-8.4-.57-16.83-1.09-25.24-.87a1,1,0,0,0,0,2Z"/><path class="cls-1" d="M54,107.54a246.53,246.53,0,0,0,18.78,37,294.4,294.4,0,0,0,23.8,33.61q7.43,9.09,15.56,17.56c1.34,1.4,3.48-.73,2.13-2.12a304.1,304.1,0,0,1-48.46-66.11c-3.66-6.74-7.11-13.59-10.46-20.49-.36-.75-1.67-.22-1.35.57Z"/><path class="cls-1" d="M114.74,8.84Q102.71,25,91.36,41.63c-7.46,11-14.81,22-21.65,33.36-3.88,6.44-7.59,12.93-11,19.63a.9.9,0,0,0,1.55.91c7.42-11.18,14.36-22.67,21.43-34.07S95.85,39.08,103.24,28.1c4.19-6.22,8.39-12.43,12.68-18.57.51-.73-.67-1.39-1.18-.69Z"/><path class="cls-1" d="M35,231.42a2.66,2.66,0,0,0-3.19.46,3,3,0,0,0-.83,1.37,2.87,2.87,0,0,0,.26,2.09,1.93,1.93,0,0,0,3.51-.46,20.83,20.83,0,0,0,.39-2.63l.25-2.22-.08-.58a1.56,1.56,0,0,0-.38-.73,2,2,0,0,0-1.13-.78,2.22,2.22,0,0,0-2.44,1c-.54.91-1.08,1.82-1.64,2.72l-.81,1.3-.41.65-.23.37a3,3,0,0,0-.4,1.43A2.36,2.36,0,0,0,29,237.49a2.4,2.4,0,0,0,1.22.33,2.38,2.38,0,0,0,1.22-.33,2.82,2.82,0,0,0,1-1l.17-.35.35-.74.67-1.39c.45-1,.93-1.91,1.41-2.86L31,230a37,37,0,0,0-.08,4.34L34.23,233a.34.34,0,0,1-.08-.09l.3.39a.82.82,0,0,1-.12-.2l.19.45a1,1,0,0,1-.06-.22l.06.48a1.31,1.31,0,0,1,0-.28l-.07.47a1.33,1.33,0,0,1,.1-.34l-.17.41a2.12,2.12,0,0,1,.11-.21c.1-.17-.14.19-.15.19a.52.52,0,0,0,.11-.1c.07-.1-.31.19-.19.14l.1-.06c.07-.06-.32.09-.22.1l.13,0-.41.06H34c.12,0-.42-.07-.2,0A1.49,1.49,0,0,0,35,231.42Z"/><path class="cls-1" d="M116.7,194.5c-5.73,1.19-10.64,4.13-15.53,7.22C96,205,90.7,208.24,85.38,211.35q-16,9.35-32.55,17.59c-6.26,3.09-12.72,5.81-18.9,9.06-1.75.92-.54,4,1.37,3.25A181.18,181.18,0,0,0,52,233.56q8.34-4.12,16.52-8.57,16.26-8.82,31.8-18.88c5.39-3.49,10.84-7.32,17-9.24a1.23,1.23,0,0,0-.65-2.37Z"/><path class="cls-1" d="M204,377.08c-13.21,16.82-25.91,34.07-38.63,51.27L127.1,480.14c-7.21,9.76-14.63,19.39-21.38,29.48-.93,1.38,1.26,3.12,2.33,1.79,6.72-8.33,12.91-17.06,19.23-25.7l19-26q19-26,37.92-52c7.12-9.82,14.26-19.62,21.14-29.61.55-.8-.75-1.82-1.35-1.05Z"/></g><path class="cls-1" d="M254.78,113.12q17.16,28.84,34.87,57.37c3.32,5.37,6.65,10.7,10.25,15.89a1.1,1.1,0,0,0,1.89-1.11c-5.4-9.79-11.55-19.17-17.47-28.66s-11.9-19-18-28.36L256,112.39c-.5-.77-1.73-.08-1.25.73Z"/><path class="cls-1" d="M201.34,162.22c3.35,0,3.35-5.19,0-5.19s-3.34,5.19,0,5.19Z"/><path class="cls-1" d="M278.44,63.4c3.22,0,3.22-5,0-5s-3.22,5,0,5Z"/><path class="cls-1" d="M515.37,326.1l-.56,0a2.78,2.78,0,0,0,0,5.56,4.19,4.19,0,0,0,1.27-.18,2.72,2.72,0,0,0,0-5.2,3.9,3.9,0,0,0-1.27-.18,2.78,2.78,0,0,0,0,5.56l.56,0a2.76,2.76,0,0,0,0-5.51Z"/><path class="cls-1" d="M105.44,346.09c2.82,0,2.82-4.38,0-4.38s-2.82,4.38,0,4.38Z"/><path class="cls-1" d="M469.3,135.62c3,0,3-4.65,0-4.65s-3,4.65,0,4.65Z"/><path class="cls-1" d="M447.67,31c2.67,0,2.67-4.14,0-4.14S445,31,447.67,31Z"/><path class="cls-1" d="M482.46,548.74a1.76,1.76,0,0,0,0-3.52,1.76,1.76,0,0,0,0,3.52Z"/><path class="cls-1" d="M316.71,404.57c-.19-.74-.41-1.49-.56-2.24l.06.44-.07-.83a2.51,2.51,0,0,0-.3-1.17c-.07-.12-.16-.24-.24-.36a1.77,1.77,0,0,0-.79-.67,1.61,1.61,0,0,0-1.08-.09,1.9,1.9,0,0,0-.74.43,1.71,1.71,0,0,0-.48,1.17c0,.15,0,.29-.05.44a2.49,2.49,0,0,0,.32,1.16l.33.76-.17-.4c.23.74.38,1.5.57,2.24a1.64,1.64,0,0,0,2,1.16,1.7,1.7,0,0,0,1.16-2Z"/></g></g></svg>