<?xml version="1.0" encoding="utf-8"?>
<!-- Generator: Adobe Illustrator 25.1.0, SVG Export Plug-In . SVG Version: 6.00 Build 0)  -->
<svg version="1.1" id="Calque_1" xmlns="http://www.w3.org/2000/svg" xmlns:xlink="http://www.w3.org/1999/xlink" x="0px" y="0px"
	 viewBox="0 0 313.3 67.6" style="enable-background:new 0 0 313.3 67.6;" xml:space="preserve">
<style type="text/css">
	.st0{fill:#FFE600;}
	.st1{enable-background:new    ;}
	.st2{fill:#FFFFFF;}
</style>
<g id="Calque_2_1_">
	<g id="Layer_1">
		<path class="st0" d="M74.1,31.8c1.2,2.1,3,3.8,5.2,4.8c1.4,0.6,2.8,1,4.2,1.5l-2.4-1c1.7,0.9,3.6,1.4,5.6,1.6l1,0.1l2.7,0.2
			c1.7,0.1,3.4,0.2,5.1,0.4L92.7,39c0.7,0.2,1.3,0.5,2,0.8c1.6,0.4,3.1,0.6,4.7,0.7L104,41c2.9,0.4,5.8,0.8,8.8,1
			c5.9,0.4,11.8,0.8,17.7,1.1c11.8,0.6,23.6,0.3,35.4,0.4c23.5,0.1,47-0.1,70.5,1.2c13.4,0.7,26.7,1.9,40,3.7l-3.9-0.5
			c7.4,1,14.7,2.2,22,3.6c1.9,0.6,3.9,0.7,5.9,0.3c2-0.1,3.9-0.7,5.5-1.8c3.3-2,5.8-5.1,6.8-8.8c0.9-3.8,0.7-8-1.5-11.4
			c-2-3.1-5.1-6.1-8.8-6.8c-27.5-5.2-55.6-7.6-83.5-8.4c-26.4-0.8-52.8-0.2-79.2,0.3c-7.5,0.1-14.9,0.7-22.3,1.1
			c-3.7,0.2-7.5,0.4-11.2,0.8l-5.3,0.5c-1,0.1-2,0.1-2.9,0.2c-1.2,0-2.4,0.2-3.5,0.5c-0.6,0.2-1.2,0.4-1.8,0.6l2.8-0.4
			c-2.8,0.1-5.5,0-8.3,0.1c-2,0.1-4,0.5-5.9,1.1c-2.4,0.5-4.5,1.9-6,3.8C73.2,25.4,72.2,29,74.1,31.8L74.1,31.8z"/>
		<g class="st1">
			<path d="M100.1,36.1c-0.3-0.2-0.6-0.7-0.6-1.2c0-0.8,0.7-1.5,1.5-1.5c0.4,0,0.6,0.1,0.9,0.3c0.6,0.5,1.2,0.7,1.9,0.7
				c1.2,0,2-0.7,2-2.4l0-7.8c0-0.9,0.7-1.6,1.6-1.6c0.9,0,1.6,0.7,1.6,1.6l0,7.9c0,1.7-0.5,3-1.4,3.8c-0.9,0.9-2.2,1.3-3.7,1.3
				C102.2,37.3,101,36.8,100.1,36.1z"/>
			<path d="M111.3,31.7L111.3,31.7c0-3.2,2.6-5.8,6-5.8c3.4,0,5.9,2.5,5.9,5.7v0c0,3.2-2.6,5.7-6,5.7
				C113.8,37.4,111.3,34.9,111.3,31.7z M120.2,31.7L120.2,31.7c0-1.7-1.2-3.1-2.9-3.1c-1.8,0-2.9,1.4-2.9,3v0c0,1.6,1.2,3,2.9,3
				C119.1,34.7,120.2,33.3,120.2,31.7z"/>
			<path d="M125.5,23.5c0-0.9,0.8-1.5,1.7-1.5c1,0,1.7,0.6,1.7,1.5l0,0c0,0.9-0.8,1.5-1.7,1.5C126.2,25.1,125.5,24.5,125.5,23.5
				L125.5,23.5z M125.6,27.6c0-0.9,0.7-1.6,1.6-1.6c0.9,0,1.6,0.7,1.6,1.6l0,8.1c0,0.9-0.7,1.6-1.6,1.6c-0.9,0-1.6-0.7-1.6-1.6
				L125.6,27.6z"/>
			<path d="M131.7,27.6c0-0.9,0.7-1.6,1.6-1.6c0.9,0,1.6,0.7,1.6,1.6v0.1c0.7-0.9,1.6-1.8,3.2-1.8c2.4,0,3.7,1.6,3.7,4.1l0,5.7
				c0,0.9-0.7,1.6-1.6,1.6c-0.9,0-1.6-0.7-1.6-1.6l0-4.7c0-1.5-0.7-2.2-1.9-2.2c-1.2,0-2,0.8-2,2.2l0,4.7c0,0.9-0.7,1.6-1.6,1.6
				c-0.9,0-1.6-0.7-1.6-1.6L131.7,27.6z"/>
			<path d="M150.1,31.8L150.1,31.8c0-3.2,2.6-5.8,6-5.8c3.4,0,5.9,2.5,5.9,5.7v0c0,3.2-2.6,5.7-6,5.7
				C152.6,37.5,150.1,34.9,150.1,31.8z M159,31.8L159,31.8c0-1.7-1.2-3.1-2.9-3.1c-1.8,0-2.9,1.4-2.9,3v0c0,1.6,1.2,3,2.9,3
				C157.9,34.8,159,33.4,159,31.8z"/>
			<path d="M174.3,35.8c0,0.9-0.7,1.6-1.6,1.6c-0.9,0-1.6-0.7-1.6-1.6v-0.1c-0.7,0.9-1.6,1.8-3.2,1.8c-2.4,0-3.7-1.6-3.7-4.1l0-5.7
				c0-0.9,0.7-1.6,1.6-1.6c0.9,0,1.6,0.7,1.6,1.6l0,4.7c0,1.5,0.7,2.2,1.9,2.2s2-0.8,2-2.2l0-4.7c0-0.9,0.7-1.6,1.6-1.6
				c0.9,0,1.6,0.7,1.6,1.6L174.3,35.8z"/>
			<path d="M177.1,27.7c0-0.9,0.7-1.6,1.6-1.6c0.9,0,1.6,0.7,1.6,1.6l0,0.5c0.5-1.1,1.2-2.1,2.1-2.1c1,0,1.5,0.6,1.5,1.5
				c0,0.8-0.5,1.3-1.2,1.5c-1.6,0.4-2.5,1.6-2.5,3.8l0,2.9c0,0.9-0.7,1.6-1.6,1.6c-0.9,0-1.6-0.7-1.6-1.6L177.1,27.7z"/>
			<path d="M191.8,27.7c0-0.9,0.7-1.6,1.6-1.6c0.9,0,1.6,0.7,1.6,1.6v0.1c0.7-0.9,1.6-1.8,3.2-1.8c2.4,0,3.7,1.6,3.7,4.1l0,5.7
				c0,0.9-0.7,1.6-1.6,1.6c-0.9,0-1.6-0.7-1.6-1.6l0-4.7c0-1.5-0.7-2.2-1.9-2.2c-1.2,0-2,0.8-2,2.2l0,4.7c0,0.9-0.7,1.6-1.6,1.6
				c-0.9,0-1.6-0.7-1.6-1.6L191.8,27.7z"/>
			<path d="M209.8,37.5c-3.3,0-5.7-2.3-5.7-5.7v0c0-3.1,2.2-5.7,5.5-5.7c3.7,0,5.3,3,5.3,5.3c0,0.9-0.6,1.5-1.5,1.5l-6.2,0
				c0.3,1.4,1.3,2.2,2.7,2.2c0.9,0,1.6-0.3,2.2-0.7c0.2-0.2,0.4-0.2,0.8-0.2c0.7,0,1.2,0.5,1.2,1.2c0,0.4-0.2,0.7-0.4,0.9
				C212.7,37,211.4,37.6,209.8,37.5z M211.9,30.9c-0.2-1.4-1-2.3-2.3-2.3c-1.3,0-2.1,0.9-2.4,2.3L211.9,30.9z"/>
			<path d="M217.7,34.2l0-5.2h-0.1c-0.7,0-1.3-0.6-1.3-1.3s0.6-1.3,1.3-1.3h0.1l0-1.4c0-0.9,0.7-1.6,1.6-1.6c0.9,0,1.6,0.7,1.6,1.6
				l0,1.4l1.4,0c0.7,0,1.3,0.6,1.3,1.3c0,0.7-0.6,1.3-1.3,1.3l-1.4,0l0,4.7c0,0.7,0.3,1.1,1,1.1c0.1,0,0.3,0,0.4,0
				c0.7,0,1.3,0.6,1.3,1.3c0,0.6-0.4,1-0.8,1.2c-0.6,0.2-1.1,0.3-1.8,0.3C219,37.5,217.7,36.7,217.7,34.2z"/>
		</g>
		<g class="st1">
			<path d="M227.8,36.1l-2.7-7.8c-0.1-0.2-0.1-0.5-0.1-0.8c0-0.7,0.6-1.4,1.5-1.4c0.8,0,1.3,0.5,1.5,1.2l1.7,5.6l1.7-5.6
				c0.2-0.7,0.8-1.3,1.6-1.2h0.2c0.8,0,1.4,0.5,1.6,1.3l1.7,5.6l1.7-5.6c0.2-0.7,0.7-1.2,1.5-1.2c0.9,0,1.5,0.7,1.5,1.4
				c0,0.2-0.1,0.5-0.1,0.6l-2.8,7.9c-0.3,1-1,1.4-1.7,1.4l-0.1,0c-0.8,0-1.4-0.4-1.7-1.3l-1.7-5.5l-1.8,5.5
				c-0.3,0.9-0.9,1.3-1.7,1.3h-0.1C228.8,37.5,228.1,37.1,227.8,36.1z"/>
		</g>
		<g class="st1">
			<path d="M242.4,31.9L242.4,31.9c0-3.2,2.6-5.8,6-5.8c3.4,0,5.9,2.5,5.9,5.7v0c0,3.2-2.6,5.7-6,5.7
				C244.9,37.6,242.4,35.1,242.4,31.9z M251.2,31.9L251.2,31.9c0-1.7-1.2-3.1-2.9-3.1c-1.8,0-2.9,1.4-2.9,3v0c0,1.6,1.2,3,2.9,3
				C250.2,34.9,251.2,33.5,251.2,31.9z"/>
			<path d="M256.6,27.8c0-0.9,0.7-1.6,1.6-1.6c0.9,0,1.6,0.7,1.6,1.6v0.5c0.5-1.1,1.2-2.1,2.1-2c1,0,1.5,0.6,1.5,1.5
				c0,0.8-0.5,1.3-1.2,1.5c-1.6,0.4-2.5,1.6-2.5,3.8l0,2.9c0,0.9-0.7,1.6-1.6,1.6c-0.9,0-1.6-0.7-1.6-1.6L256.6,27.8z"/>
			<path d="M265.2,23.8c0-0.9,0.7-1.6,1.6-1.6c0.9,0,1.6,0.7,1.6,1.6l0,6.8l3.9-3.7c0.5-0.4,0.8-0.7,1.4-0.7c0.8,0,1.4,0.7,1.4,1.4
				c0,0.5-0.3,0.9-0.7,1.4l-2.5,2.1l2.9,4c0.3,0.4,0.4,0.7,0.4,1c0,0.8-0.7,1.4-1.5,1.4c-0.6,0-1-0.2-1.4-0.7l-2.7-3.8l-1.3,1.1
				l0,1.8c0,0.9-0.7,1.6-1.6,1.6c-0.9,0-1.6-0.7-1.6-1.6L265.2,23.8z"/>
		</g>
		<path d="M92.8,40.6L92.8,40.6c-1.1-5.6-7.1-10.4-12.3-13.4l0,0l0,0L80.1,27c-0.8-0.4-1.6-0.9-2.6-1.3l-0.3-0.1
			c-1.9-0.9-4.1-1.8-6.6-2.7c-1.4-4.6-4-8.7-7.5-11.9l-0.1-0.1L63,10.7v-0.2c0.2-4.5-2.7-8.7-7-10.1c-4.3-1.3-8.5,0.7-11.1,4.2
			c-0.1,0.1-0.2,0.2-0.3,0.3h-0.1C44.4,4.9,44.2,5,44,5l0,0c-5.4,0.8-10.5,3.2-14.6,6.9c-3.2-0.6-6.1-1-8.5-1.2l0,0
			c-5.1-1.1-11-0.8-15,1.2s-6.3,5.5-5.9,9.5c0.4,4.2,3.4,8.4,9.4,13.2c3.1,2.5,6.3,4.6,9.8,6.5c0.2,1.1,0.4,2.2,0.7,3.2
			c1.4,4.8,4.1,9.1,7.8,12.4c0.1,0.2,0.1,0.3,0.2,0.5c-0.2,4.5,2.7,8.6,7,10.1c4.3,1.3,8.5-0.7,11.1-4.2c0.1-0.1,0.2-0.2,0.3-0.3
			l0.3-0.1l0,0c0.2,0,0.4,0,0.6-0.1c6.4-1,12.3-4.3,16.7-9.2c2.4,0.2,4.9,0.3,7.4,0.3h1.8c5.5-0.2,11.1-0.7,15.2-3.3
			C91.7,48.4,93.5,44.5,92.8,40.6z"/>
		<path class="st0" d="M57,50.7c-3-0.4-5.9-0.9-8.8-1.5c-8.1-1.6-16.1-4.2-23.6-7.7c1,4.4,3.4,8.4,6.8,11.5l0,0c1,1,1.6,2.3,1.6,3.7
			l0,0c-0.3,2.4,1.1,4.6,3.3,5.5c2.3,0.6,4.7-0.4,5.9-2.5l0,0c0.8-1.1,2.1-1.8,3.4-2.1l0,0c5.2-0.5,10-2.9,13.6-6.6
			C58.5,50.9,57.8,50.8,57,50.7z"/>
		<path class="st0" d="M46.6,38.7c6.1,1.6,12.4,2.6,18.7,3.2c0.2-0.5,0.4-1.1,0.6-1.6c3.2-9.9,0.4-20.1-6.3-25.8l0,0
			c-1-1-1.6-2.3-1.6-3.7l0,0c0.3-2.4-1.1-4.6-3.3-5.4c-2.3-0.6-4.7,0.4-5.9,2.5l0,0c-0.8,1.1-2.1,1.8-3.4,2.1l0,0
			c-8.8,0.8-16.9,7.5-20.1,17.4c-0.3,0.9-0.5,1.8-0.8,2.8C31.4,33.9,38.8,36.9,46.6,38.7z M59.7,27c0.7-0.6,1.8-0.4,2.4,0.3
			s0.4,1.8-0.3,2.4c-0.1,0-0.1,0.1-0.2,0.1c-0.3,0.2-0.6,0.3-1,0.3c-0.6,0-1.1-0.3-1.4-0.8l0,0C58.7,28.6,58.9,27.6,59.7,27
			C59.6,27,59.7,27,59.7,27z M56.1,19.3c0.3-0.6,0.8-1,1.5-1c0.6,0,1.1,0.3,1.4,0.7c0.5,0.7,0.3,1.7-0.4,2.2c0,0-0.1,0-0.1,0.1
			c-0.3,0.2-0.6,0.3-1,0.3c-0.9,0-1.6-0.8-1.6-1.7C55.9,19.7,56,19.5,56.1,19.3L56.1,19.3z M52.1,25.1c0.7-0.5,1.6-0.3,2.1,0.4
			s0.3,1.6-0.4,2.1c-0.3,0.2-0.6,0.3-0.9,0.3c-0.5,0-0.9-0.3-1.2-0.7l0,0c-0.5-0.7-0.3-1.6,0.3-2C52.1,25.1,52.1,25.1,52.1,25.1
			L52.1,25.1z"/>
		<path class="st2" d="M87.9,41.5c-1-5.2-10.8-11.2-15.8-12.7c-0.6-0.3-1.4-0.1-1.7,0.6c-0.3,0.6-0.1,1.4,0.6,1.7
			c0.1,0,0.1,0.1,0.2,0.1c4.5,2.4,8.8,4.8,11.6,8.5c0.9,1.2,1.2,2.2,0.9,2.8c-0.4,0.8-2.3,2.3-9.9,2.5c-8,0.2-17.6-1-27.9-3.5
			s-19.4-6.4-26.4-11.3s-8.6-7.4-8.6-8.7c0-0.5,0.2-0.9,0.6-1.2c2.4-1.9,7.1-0.9,10.7,0l1.1,0.2c0.9,0.3,1.9-0.1,2.4-0.9
			c0.3-0.8,0-1.7-0.7-2.2c-3.8-2.8-12.3-3.4-16.7-1.2c-2.1,1-3.2,2.6-3,4.5c0.3,2.7,2.8,5.9,7.6,9.8c4.1,3.2,8.5,5.9,13.2,8.1
			c7.3,3.4,15,5.9,22.9,7.4c2.8,0.6,5.7,1,8.6,1.5c5.2,0.8,10.4,1.1,15.6,1.1c4.7-0.1,9.6-0.5,12.6-2.5
			C87.3,45.3,88.3,43.4,87.9,41.5z"/>
	</g>
</g>
</svg>
