<svg xmlns="http://www.w3.org/2000/svg" viewBox="0 0 216.82 87.84"><defs><style>.cls-1{fill:#ffe600;}.cls-2{fill:#333;}</style></defs><g id="Calque_2" data-name="Calque 2"><g id="_Calque_" data-name="&lt;Calque&gt;"><path class="cls-1" d="M1.81,55.49C1.5,65.22,1.7,74.94.05,84.58a2.64,2.64,0,0,0,3.2,3.2c13.11-2.37,25.64-4.24,39-3.43a3.19,3.19,0,0,0,3.15-3.15c0-10.83.54-20.69,5-30.77,1.06-2.41-.75-6.12-3.84-5a161.68,161.68,0,0,1-17.46,5.29q-4,1-8,1.7c-1.46.27-8.16,2.14-9.24.84-2-2.46-6.24.17-5.29,3.08C8.67,62.92,17.06,60.2,22,59.3A158.2,158.2,0,0,0,48.37,52l-3.83-5C39.88,57.72,37,70.36,39.24,82l3-4c-13.34-.58-27.7.31-40.4,4.71l3.29,2.51c.51-9.9,1.36-19.88.25-29.78-.25-2.25-3.53-2.37-3.6,0Z"/><path class="cls-1" d="M15.65,31.68c.23,14.25,2.67,28,6.16,41.81.5,2,3.74,2.67,4.64.61,4.7-10.74,8.7-21.78,13.89-32.3C45.72,30.89,52.6,21.66,60.07,12.13a2.86,2.86,0,0,0-4-4c-9.11,7.77-15.52,19.19-20.74,29.79A230.55,230.55,0,0,0,21.81,72.14h4.9c-4.63-13-7-26.72-8.12-40.46-.15-1.86-3-1.92-2.94,0Z"/><path class="cls-2" d="M71.44,51.23C78.13,39.57,82.5,26.11,87.62,13.69l-4.56-.61c.59,11.92.24,24.37,2.26,36.15.43,2.53,4.14,1.75,4.27-.58.65-11.7-1.14-23.88-1.89-35.57a2.33,2.33,0,0,0-4.56-.62c-4.88,12.32-11,24.84-14.24,37.7a1.4,1.4,0,0,0,2.54,1.07Z"/><path class="cls-2" d="M70.86,35c7.88-1.81,15.86-2.82,23.86-3.89,2.58-.34,2.77-4.32,0-4.18a83.13,83.13,0,0,0-24.59,5.43A1.37,1.37,0,0,0,70.86,35Z"/><path class="cls-2" d="M106.41,5.93c-1.72,7.63-2.76,15.36-3.8,23.1q-.73,5.41-1.41,10.83c-.46,3.6-1.38,7.41-.45,11a1.37,1.37,0,0,0,2.49.33c3-5.86,2.33-14.44,3.05-20.89.89-8,2-16,2.47-24a1.2,1.2,0,0,0-2.35-.32Z"/><path class="cls-2" d="M122.23,7.71l-.13-1.54a1.47,1.47,0,0,0-2.88-.39c-2.8,7.26-4,15.29-5.24,22.94-1.15,7.22-2.57,14.84-2.3,22.15.08,2.16,3.5,2.86,3.95.54,1.48-7.67,1.74-15.64,2.9-23.37,1.11-7.29,2.88-14.54,3.57-21.87l-2.74.74.83,1.35c.53.87,2.14.58,2-.55Z"/><path class="cls-2" d="M141.24,29.91a7.74,7.74,0,0,0-9.59,2.3c-2.81,3.41-5.07,11-2.94,15.16,6.35,12.36,17.11-12.53,19.08-16L143,30a80.37,80.37,0,0,1-7.81,27.11,75.81,75.81,0,0,1-6.52,10.93c-1.48,2-3.2,4.31-5.52,5.46-3.87,1.92-8.81-.4-6.33-4.9.9-1.64-1-3.9-2.72-2.72-3.9,2.69-3.57,8.32,0,11.3,5.14,4.31,12.21,1.12,16.15-3.13,10.81-11.7,16.34-28.51,17.89-44.05.26-2.59-3.6-3.4-4.77-1.3-2.44,4.41-4.8,8.86-7.33,13.22a25.89,25.89,0,0,1-1.95,3.23,4.93,4.93,0,0,1-1-5.42c.63-3.36,2-8.71,7-7.25,1.52.44,2.61-1.93,1.1-2.61Z"/><path class="cls-2" d="M164.54,36a5.64,5.64,0,0,0-6.17-4.24c-3.51.42-6.45,3.83-8.51,6.42-5,6.34-1.49,14.35,6.8,13.89,7.05-.39,14.34-6,13.62-13.58-.6-6.48-9.13-11.05-13.91-5.53-1.59,1.85.55,5.3,2.81,3.64,2.72-2,6.27-.83,6.54,2.78.3,3.9-3.2,6.46-6.56,7.43s-8.49.56-6.62-4.26c.57-1.48,7.67-10.45,8.88-5.69.52,2,3.52,1.16,3.12-.86Z"/><path class="cls-2" d="M181,35.71c-4.4-3.47-11-1.71-12.4,3.94-1.46,5.81,3.42,10.89,9.19,10.58s10.07-6.09,9.27-11.66a7.84,7.84,0,0,0-4.54-6.24c-2.67-1.14-6.2-.81-7.72,1.92-.92,1.65.63,4,2.6,3.37,2.36-.8,4.71-1,4.92,2.29a5.22,5.22,0,0,1-4.53,5.42,4.17,4.17,0,0,1-4.59-3.69c-.2-3.08,3-4.44,5.36-2.77,1.84,1.3,4.23-1.74,2.44-3.16Z"/><path class="cls-2" d="M199.69,34.5a4,4,0,0,0-4.44-3.73c-2.92.21-4.32,3.24-5.12,5.66-1,3-1.22,6.44.37,9.27,1.44,2.55,4.14,4.4,7.12,3.65a2.22,2.22,0,0,0,.53-4c-1.74-.94-3.14-1.59-3.58-3.72a8.18,8.18,0,0,1,.13-3.41c.11-.52,1.32-3,1.25-3.21.58,2,4,1.7,3.74-.5Z"/><path class="cls-2" d="M215.93.78c-7.06-4.73-9.48,13.39-10.32,17A138.42,138.42,0,0,0,203,32.93c-.62,5.43-1.72,11.7-.38,17.06a2.25,2.25,0,0,0,4.31,0c.87-3.46.59-7.12.81-10.67q.42-6.51,1.41-13c.28-1.79,4.26-22.33,5.31-22.08A1.92,1.92,0,0,0,215.93.78Z"/></g></g></svg>