<svg xmlns="http://www.w3.org/2000/svg" viewBox="0 0 272.95 132.83"><g id="Calque_2" data-name="Calque 2"><g id="_Calque_" data-name="&lt;Calque&gt;"><path d="M22.57,9.43c-5.86,15.42-11.12,31.65-13.4,48-.44,3.15,4.14,4.65,4.92,1.36,3.84-16.23,7.24-32.39,12.36-48.3.81-2.51-3-3.46-3.88-1.08Z"/><path d="M0,2C1.46,12.38,5.2,23,9.51,32.47c1,2.29,4.9.66,4.07-1.71C10.13,20.92,7,10.84,3.19,1.15A1.65,1.65,0,0,0,0,2Z"/><path d="M35.44,19.08c-9.9-3.4-12.53,19.3-1.13,20,5.64.32,8.57-6.4,7.86-11.21-.76-5.09-5.91-8.25-10.61-5.81-3,1.57-.32,6.22,2.67,4.58,4.32-2.38,3.72,10.92-1.41,6.78C30,31.07,30.55,21.67,35.07,21.85c1.65.06,1.82-2.27.37-2.77Z"/><path d="M51.16,25.25a10.48,10.48,0,0,1-.07-2c0-1.91-2.56-2.06-3.16-.43-2.7,7.26-3,16.66,4.6,21a2.62,2.62,0,0,0,3.09-.4c6-5.26,11.77-15.38,8.31-23.39-.72-1.66-3.21-1-3.64.47-1,3.27-.85,6.67-2,9.91A22.78,22.78,0,0,1,52,39.83l3.09-.4c-6.19-3.12-4.43-10.59-4-16.2l-3.16.43a11,11,0,0,1,.61,1.95c.37,1.42,2.76,1.18,2.62-.36Z"/><path d="M75,39.55a18.4,18.4,0,0,0,2.44-11.08c-.26-2.83-.74-2.25,2.07-3,2.44-.66,4.92-1.24,7.41-1.69,3.11-.57,2.44-5.94-.75-5.58-3.82.44-11.8.9-13.68,5.05-.94,2.08.28,3.83.78,5.8.83,3.22.11,6.34-1.09,9.33C71.54,40,74.17,41,75,39.55Z"/><path d="M99.63,23.46c-.94,7.47,2.1,14.27,5.88,20.55a2.58,2.58,0,0,0,4.41,0c5-8.7,9.36-17.62,14.89-26,2-3.06-2.9-5.91-4.89-2.86-5.56,8.48-11.08,17.39-14.67,26.91l4.27-1.12c-4.46-5.07-6.1-11.4-7.78-17.75-.33-1.27-2-.85-2.11.29Z"/><path d="M131.19,32.58c2.23-1.94,5.66-6.23,4.2-9.45-1.56-3.45-5.94-1.57-8,.27-7.19,6.41-3.26,17.2,4.89,20.26,3.27,1.23,4.86-4.22,1.46-5.29a7.42,7.42,0,0,1-5.2-8.94c.3-1.16,2.12-5.19,3.64-4.84,1.18.27.46,3.18.13,3.83a12.06,12.06,0,0,1-2.31,3c-.78.77.38,1.9,1.19,1.19Z"/><path d="M146.7,43.31a58.35,58.35,0,0,0,1.76-11.68c.12-2.29-.46-2.79,1.86-3.21s4.82-.88,7.23-1.35c3.93-.75,2.29-7-1.67-6.05-3.31.82-10.38,1.16-11.87,4.88-.82,2.07.38,5.13.54,7.16a40,40,0,0,1-.47,9.53c-.26,1.68,2.18,2.46,2.62.72Z"/><path d="M179.82,18.08c-7,7.36-12,20.8-11.8,30.91.08,3,4.72,3.87,5.43.73,1.12-4.88,1.57-9.79,3.12-14.59,1.66-5.13,4.41-9.59,6.6-14.47.92-2.06-1.56-4.48-3.35-2.58Z"/><path d="M166.14,12.92q2.24,10.4,4.27,20.83c.53,2.67,4.84,1.54,4.12-1.13-1.85-6.83-3.67-13.66-5.41-20.52-.49-1.94-3.4-1.12-3,.82Z"/><path d="M210.35,25.65c-2.31-4.15-8.27-3.46-10.65.25-2.62,4.1-2.26,10.93,1.45,14.26,4.15,3.71,10.26,1.06,12.27-3.59,2.45-5.67-1.7-11.3-6.44-14.09-3.6-2.11-6.91,3.57-3.27,5.59,1.76,1,3.74,2.43,4.14,4.56.27,1.4-.92,3.88-2.66,3.32s-1.81-3.49-1.74-4.87c.06-1,1.7-5.64,3.42-3.39,1.53,2,4.78.3,3.48-2Z"/><path d="M218.13,22.36c-2.13,5.59-.19,12.42,2.41,17.52a2.56,2.56,0,0,0,3.46.9c5.18-3.06,4.42-9.08,7.11-13.76l-5.24-1.42a16.4,16.4,0,0,0,4,10.39A3,3,0,0,0,234,36a44.67,44.67,0,0,0,10.51-14.32c1.39-3-2.83-5.68-4.57-2.67a56,56,0,0,1-10.06,12.86H234a10.32,10.32,0,0,1-2.55-6.26c-.18-2.61-3.83-4-5.23-1.42-1.86,3.48-1.58,9.83-4.81,12.24l3.45.91c-2.86-4.78-3-9.19-3.45-14.52a1.7,1.7,0,0,0-3.32-.45Z"/><path d="M250,36.85c.46-.79,5.25-8.91,6-8.63s2.51,3.57,3.57,4.33a11,11,0,0,0,12.11.39c2.93-1.72.36-5.93-2.62-4.49-3.7,1.78-6.35-.2-8.48-2.94-1.08-1.39-2-2.8-4-2.9-4.91-.27-8.83,8.33-10.8,11.75-1.59,2.75,2.64,5.22,4.25,2.49Z"/><path d="M40.65,60.53c-1.46,11.08-3.06,22.89-1.8,34a2.37,2.37,0,0,0,4.73,0c1.38-11.22,1-22.74,1.85-34,.23-3.13-4.39-3-4.78,0Z"/><path d="M42.85,81.42l-.21-1.28L40.9,82.42c3.56-1.17,6.8-.51,10.05,1.23,2.78,1.48,8.13,4.92,4.59,8.31-4,3.87-12.85,3.94-18,4.53-4.12.47-4.32,6.37,0,6.56,7.7.35,26.84-2.8,25.6-13.91-1.1-9.85-16.2-15-24.09-11A2.4,2.4,0,0,0,38,80.77a4.56,4.56,0,0,0,1.92,2.93,1.88,1.88,0,0,0,2.94-2.28Z"/><path d="M73.75,98.22c.33-3.5.41-7,.75-10.5.28-2.81.44-2.38,3-3.14,1.76-.53,3.51-1.1,5.26-1.68,3.66-1.19,2.07-7-1.6-5.78-3.32,1.13-9.94,2-11.16,5.95-.62,2-.06,4.56-.07,6.61,0,2.85,0,5.69,0,8.54.06,2.48,3.57,2.39,3.8,0Z"/><path d="M102,82.36c-2.2-3.77-6.77-2.18-8.76.87-2.77,4.23-5,11-.31,14.78,4.21,3.4,9.54-.29,10.79-4.79a9.42,9.42,0,0,0-7-11.62c-3.67-.93-5.23,4.84-1.56,5.65a3.87,3.87,0,0,1,3.36,3.26c.18,1.71-1.6,4.86-3.18,2.58-1.17-1.7.21-5.07.83-6.82.35-1,2.22-4.4,3.53-2.57,1,1.37,3.2.17,2.31-1.34Z"/><path d="M116.05,81.68c-6,1.29-13.72,9.43-9.54,15.89,2.08,3.21,6.14,2.74,8.68.34,3.2-3,5.13-7.56,6.07-11.79l-5.45.71a12.25,12.25,0,0,0,9.91,6.38c3.35.38,4.18-5.48.8-5.94A7.09,7.09,0,0,1,121,83.82c-1.24-2-4.95-1.9-5.45.71-.25,1.3-3.65,10.82-5,8.94-.69-1,.87-3.78,1.4-4.6a9.2,9.2,0,0,1,5.07-3.8,1.76,1.76,0,0,0-.94-3.39Z"/><path d="M143.24,81.34a4.77,4.77,0,0,0-6.52-2.59c-3.11,1.48-4.78,6.24-5,9.41-.29,3.56,1.19,7,4.55,8.55,3.14,1.44,6.62.34,7.83-3,.79-2.18-1.82-3.53-3.54-2.73s-2.91-.6-3.11-2a9.58,9.58,0,0,1,.44-3.56c.09-.34,1.37-4.13,2.27-2.72s3.81.59,3.12-1.32Z"/><path d="M148.32,54.41a134.61,134.61,0,0,0-5.61,28.48c-.53,5.51-2.54,16.32,6,16.16,3.73-.07,3.55-5.29,0-5.67-4.26-.47,2.36-34.38,3.11-38a1.83,1.83,0,0,0-3.53-1Z"/><path d="M175.3,76.26c.13-3-3.51-2.17-5.13-1.18C165.8,77.75,161.81,82,160.42,87a10,10,0,0,0,4.49,11.65c5,2.94,10.49,1.45,15.5-.58,2.89-1.17,1.87-5.55-1.32-4.79-4.16,1-13.33,3.48-14.17-3.19-.36-2.78,1.18-5.59,2.73-7.8.76-1.08,5.65-5.32,5.57-5.74.22,1.21,2,.85,2.08-.28Z"/><path d="M194.39,74.46c-7.41-2.2-8.54,10.47-7.62,15a2.73,2.73,0,0,0,2.57,2c6.76.7,10.06-5.87,11.49-11.42.86-3.31-4.15-4.68-5.11-1.41-1.54,5.26-3,10.81,1.39,15.13,2.75,2.69,7.06-1.74,4.18-4.17s-1.67-6.47-.46-9.55l-5.11-1.41c-1.09,3.07-2.42,7.48-6.38,7.5l2.57,2a12.72,12.72,0,0,1-.7-4.66c0-.9.69-5.64,2.21-5.37,2.28.41,3.26-2.85,1-3.52Z"/><path d="M215.66,69.55c-5.72.38-11.42,3.5-11.61,9.93a9.26,9.26,0,0,0,3,6.92c1,1.08,2.52,1.84,3.47,3,2.65,3.21,1,7.47-3.51,5.87-4.15-1.48-6.15,5.49-1.83,6.64,6.22,1.67,13-1.84,13.34-8.78A10.52,10.52,0,0,0,215,84.94c-1.17-1.14-3.1-2-4-3.38-3-4.69,1.84-6.9,5.31-7.59,2.47-.49,1.93-4.58-.6-4.42Z"/><path d="M238.5,59.66a53.73,53.73,0,0,0-10.05,28c-.38,6.65,0,17.44,8.27,19.05,3.89.75,5.44-5.32,1.62-5.87-6.38-.93-4.83-14.26-4.3-18.61a48.57,48.57,0,0,1,7.58-20.72c1.27-2-1.79-3.69-3.12-1.82Z"/><path d="M227.22,84.66c5.46-.21,11-1.24,16.41-1.91a2.77,2.77,0,1,0-.74-5.47c-5.39.93-11,1.54-16.27,2.92-2.45.63-2,4.57.6,4.46Z"/><path d="M19.33,132.83a1460,1460,0,0,0,198.25-15.16c3.46-.51,2-5.73-1.44-5.25A1776.49,1776.49,0,0,1,19.33,129.18c-2.34.07-2.36,3.67,0,3.65Z"/></g></g></svg>