<svg xmlns="http://www.w3.org/2000/svg" viewBox="0 0 358.66 192.22"><g id="Calque_2" data-name="Calque 2"><g id="_Calque_" data-name="&lt;Calque&gt;"><path d="M2.55,61.81C16.89,44.17,29.7,25.57,42.16,6.57L36.5,5c.83,9.94,1.91,19.86,2.92,29.78,1,9.55,1.52,19.25,3.23,28.71.69,3.79,6.88,2.91,6.72-.91-.42-9.94-2.12-19.91-3.32-29.79-1.16-9.54-2.25-19.08-3.58-28.6-.38-2.7-4.36-2.8-5.56-.73C25.68,22.93,13,41.61.23,60c-.95,1.36,1.26,3.09,2.32,1.79Z"/><path d="M2.18,44c7.39,1,15.91-1.62,23.31-2.35,7.82-.77,15.67-1.19,23.53-1.34,4-.08,4-6.43,0-6.24-8.5.42-17,1.16-25.4,2.29-7.1,1-15.9,1.21-22.21,4.8C0,42,.79,43.78,2.18,44Z"/><path d="M64.18,40.62c-1.52,6.29-.87,13.49-.85,19.94,0,7.16.17,14.31.43,21.46.14,3.88,6.31,3.82,6,0-.58-7.14-1.06-14.3-1.4-21.46-.31-6.49.25-13.6-1.2-19.94a1.56,1.56,0,0,0-3,0Z"/><path d="M60.3,40c-.5-.65-1-1.31-1.41-2l-1.07,2.64a98,98,0,0,1,9.92-3.35c1.7-.43,3.42-.81,5.15-1.07,3.38-.52,5.33-1.23,7.73,1.26s1.24,3.42-.6,5.82a23.18,23.18,0,0,1-3.37,3.56c-2.48,2.12-5.43,3.44-7.9,5.58a2.39,2.39,0,0,0,1.68,4c8.23-.57,21.18-12.42,17-21.5-2.16-4.67-7.67-4.63-12-4.06a46.62,46.62,0,0,0-19,6.43,1.82,1.82,0,0,0,0,3.11c.71.42,1.4.86,2.07,1.33,1.06.7,2.58-.74,1.8-1.8Z"/><path d="M101.15,33.22l.7-2.6-3.81-1-.3,44.13c0,3.6,5.67,3.6,5.58,0l-1.19-44.13c-.09-3-4.77-2.36-4,.55l.23,3.09c-.14,1.82,2.63,1.78,2.81,0Z"/><path d="M90.33,31.34c6.09-2.76,14.59-3.9,20.5,0,8.61,5.72-6.5,14.72-11.37,16.62a2.89,2.89,0,1,0,2.24,5.31c7.14-3.09,22-13.21,15.37-22.57-6.11-8.6-20.61-7.15-28.21-1.89a1.46,1.46,0,0,0,1.47,2.51Z"/><path d="M133.87,29.26c-6-4.37-13.39.54-15.17,6.9A13.66,13.66,0,0,0,128,52.75c7,2.2,15.73-.53,19-7.38,4.05-8.56-4.53-15.91-12.26-17.44-3.06-.61-5.24,3.61-2.22,5.27,3.34,1.83,10.84,3.79,9.29,9.14-1.17,4-6.47,5.89-10.26,5.49a8.88,8.88,0,0,1-8.11-7.1c-.91-5,3-11.91,9-9a1.46,1.46,0,0,0,1.47-2.51Z"/><path d="M157.56,1.51C156,18.68,155.83,36,155.26,53.22c-.12,3.46,5.34,3.47,5.39,0,.21-17.22.86-34.5,0-51.71a1.57,1.57,0,0,0-3.14,0Z"/><path d="M192,33.29c.81-10.92-15.11-7.8-20.24-3.28-7.57,6.67-7.22,19.4,1.08,25.29a15.67,15.67,0,0,0,23.61-6.58c4.12-10-3.36-20.09-13.74-20.62-4.3-.22-4.31,6.52,0,6.7,5.51.23,9.82,5.47,8.06,10.94a9.44,9.44,0,0,1-13.18,5.5c-5.19-2.49-7-8.82-4.94-14a11.51,11.51,0,0,1,5.41-5.81c2.13-1.14,10.87-3.62,10.94,1.84a1.5,1.5,0,0,0,3,0Z"/><path d="M214,27A99.65,99.65,0,0,0,229.83,5.7l-4.46-1.89c-4.18,19.87-6.63,40.22-9.8,60.26-.62,4,5.44,5.6,6,1.66,2.94-20.36,6.67-40.78,8.58-61.27.28-3-3.83-2.93-4.79-.65a75.12,75.12,0,0,1-13.56,21c-1.35,1.49.79,3.67,2.22,2.22Z"/><path d="M198.77,75.63C216.25,74,233.9,73,251.45,72.7c3.69-.06,3.67-5.91,0-5.72a458.4,458.4,0,0,0-53.06,5.85c-1.57.26-1.22,3,.38,2.8Z"/><path d="M70.58,98.1c-1,10-.91,20.17-1.15,30.25-.09,3.86,6.09,3.86,6,0-.24-10.08-.11-20.23-1.15-30.25a1.85,1.85,0,0,0-3.7,0Z"/><path d="M45.17,111.37c.45.52,9.08-3.22,10.11-3.6q5.4-2,10.81-3.88c7.22-2.53,14.5-4.91,21.8-7.22,3.69-1.17,2-7.09-1.6-5.78Q70.06,96.76,54,103.13c-2.69,1.07-17.5,5.5-11.13,10.52a1.62,1.62,0,0,0,2.29-2.28Z"/><path d="M92.13,123.74c4.18-2.5,9.28-6.67,7-12.2s-9.08-3.83-12.2-.2a13.22,13.22,0,0,0-.43,16.26c2.73,3.6,11.36,8.42,14.64,3.14a2.1,2.1,0,0,0-.32-2.53c-1.87-1.55-3.78-1.06-6-1.71a7.61,7.61,0,0,1-5.42-6.63,8.27,8.27,0,0,1,.4-3.53c.53-1.5,3-5.37,5.25-3.45,1.46,1.24.15,4-.69,5a15.82,15.82,0,0,1-3.92,2.9c-1.87,1.16-.17,4.09,1.72,2.95Z"/><path d="M262.41,33.46l-.14-.34c-2-4.83-8.16-.06-4.9,2.85l.32.28a2.91,2.91,0,0,0,4.11-4.11l-.28-.31c-2.9-3.25-7.72,2.88-2.86,4.89l.35.15c1.85.76,4.17-1.55,3.4-3.41Z"/><path d="M255.9,48.86l-.19.09-.08,0a1.11,1.11,0,0,0-.33.25,2.14,2.14,0,0,0-.74.81l-.3.69a1.52,1.52,0,0,0-.06.42l-.06.44,0,.16a2.07,2.07,0,0,0,.24,1,2,2,0,0,0,.55.87l.55.42a2.8,2.8,0,0,0,1.36.37,3.78,3.78,0,0,0,1.71-.44l.59-.45a1.79,1.79,0,0,0,.46-.6l0-.09.1-.2L260,52a2.2,2.2,0,0,0,.05-1.11,1.44,1.44,0,0,0-.19-.7,2.15,2.15,0,0,0-.58-.9l-.57-.44-.66-.28a2.2,2.2,0,0,0-1.11,0,2.16,2.16,0,0,0-1,.33Z"/><path d="M119.73,108.21c-3.31-.55-6.73-1-9.46,1.38s-2.63,6.43-.56,9.32a11.65,11.65,0,0,0,4.73,3.72c2.38,1.1,6.13,1.42,7.71,3.72,1.78,2.56.68,6.68-2.52,7.25-2.58.46-4.87-1.48-6.49-3.25-2.06-2.26-5.52.14-4.89,2.85,2.3,10,17.18,9.58,20.57.54a12,12,0,0,0-2.29-12.29,15.28,15.28,0,0,0-6.25-3.46c-2.12-.74-5.55-.9-5.42-3.75.1-2.45,2-2.43,4.38-2.44,2,0,2.58-3.24.49-3.59Z"/><path d="M147.91,96.44l.78-1.06-3.3-1.4c-4.87,11.69-6,25.26-6.6,37.77-.19,3.82,6,3.86,6,0-.11-12.57,2.45-24.44,4.14-36.81.3-2.22-2.93-3.29-3.49-1l-.3,1.27a1.55,1.55,0,0,0,2.82,1.19Z"/><path d="M138.21,117.54c8-.49,16.25-2.31,24.2-3.63,3-.5,2.28-5.41-.71-5.25-8.17.43-17,1.6-24.59,4.82-2,.85-1,4.19,1.1,4.06Z"/><path d="M180.72,96.11c-4.15,14.74-6.22,30.57-6.93,45.87-.18,4,5.94,3.94,6.14,0,.8-15.26,2.61-30.22,4.57-45.36.28-2.19-3.21-2.54-3.78-.51Z"/><path d="M204.65,119.51c-5.49-.15-11.54,1-15,5.77-3,4.13-3.46,10.39.09,14.36s9.82,4.58,14.4,2.06c5.33-2.94,7.49-8.89,7.59-14.69a2.76,2.76,0,0,0-4.67-1.93c-5.43,5.32-2.08,13.43,5.33,13.93,3.8.26,3.86-5.87,0-5.95a2.3,2.3,0,0,1-1.46-4.12L206.28,127c-.12,3.27-1.08,6.72-3.6,9s-7.35,2.78-9.57-.32c-5.19-7.24,6-12.76,11.54-12.87a1.64,1.64,0,0,0,0-3.28Z"/><path d="M221.51,123.24c-6.8,5.3-1,15.29,6.19,16.21,8.05,1,16.37-7.47,13.55-15.65a2.71,2.71,0,0,0-5.29.72c-.33,4.42-1,9.68-6.66,10s-7.84-5.19-5.76-9.76a1.3,1.3,0,0,0-2-1.56Z"/><path d="M291.64,115.57c-7.74,1.26-13.5,9-11.77,16.89,1.83,8.25,10.58,12.72,18.47,11,4.08-.9,2.35-7.37-1.73-6.29-4.61,1.23-10.06-1.34-11.33-6.18-1.35-5.12,2.63-10.3,7.39-11.65,2.46-.7,1.39-4.15-1-3.75Z"/><path d="M315,93.77c-2.78,6.11-3.18,13.71-4,20.34-.95,7.72-1.95,15.72-1.42,23.5a2.65,2.65,0,0,0,5.29,0c.85-7.13.83-14.38,1.44-21.55.6-6.92,2.57-14.49,2.05-21.38-.12-1.6-2.56-2.69-3.36-.91Z"/><path d="M311,122.77c4.35-3.71,9.26.27,10.49,4.64,1.1,3.88-.19,7.41-.61,11.26-.51,4.7,1,9.36,6.05,10.54,4.19,1,5.89-5.67,1.76-6.37-3.12-.53-.9-10.75-1.13-13.07a16,16,0,0,0-3.75-9.14c-4.17-4.72-11.21-5.43-15.57-.61a2,2,0,0,0,2.76,2.75Z"/><path d="M358.16,92.19l.43-1.65c.67-2.61-3.33-3.71-4-1.11-3.55,13.06-6.16,26.31-5.88,39.89.07,3.43,4.82,3.25,5.2,0,1.52-12.93,2.47-25.94,4.72-38.78h-4l.44,1.65a1.66,1.66,0,0,0,3.17,0Z"/><path d="M350.72,159c4.28,0,4.29-6.66,0-6.66s-4.29,6.66,0,6.66Z"/><path d="M63.71,163.45c32.77,3.59,65.66,6.09,98.46,9.43q49.67,5,99.17,11.46,28.46,3.69,56.86,7.84c4.34.63,6.2-6,1.83-6.64-66.17-9.43-132.58-17.18-199.18-22.8-19-1.61-38.07-3.15-57.14-3.84-3-.11-2.84,4.24,0,4.55Z"/><path d="M253.83,139.37c-.27-4.42-1.11-13.54,5.12-14.51s5.6,8.61,5.36,12.19c-.25,3.84,5.84,3.87,6,0,.3-7.32-1.77-18.92-11.73-17.69s-10.12,13-8.53,20.52c.45,2.1,3.91,1.66,3.78-.51Z"/></g></g></svg>