<?xml version="1.0" encoding="utf-8"?>
<!-- Generator: Adobe Illustrator 25.0.1, SVG Export Plug-In . SVG Version: 6.00 Build 0)  -->
<svg version="1.1" id="Calque_1" xmlns="http://www.w3.org/2000/svg" xmlns:xlink="http://www.w3.org/1999/xlink" x="0px" y="0px"
	 viewBox="0 0 1909.5 342.9" style="enable-background:new 0 0 1909.5 342.9;" xml:space="preserve">
<style type="text/css">
	.st0{fill:#FEE100;}
</style>
<g>
	<path class="st0" d="M121.4,4.8C216.2,4.8,281,74.3,281,171c0,96.7-64.8,167.1-159.5,167.1h-111c-7.6,0-10.5-3.3-10.5-11V15.7
		c0-7.6,2.9-11,10.5-11H121.4z M81.9,238.1c0,7.6,2.9,11,10.5,11h20.5c50.5,0,81-30,81-77.6c0-47.6-30.5-77.6-81-77.6H92.4
		c-7.6,0-10.5,3.3-10.5,11V238.1z"/>
	<path class="st0" d="M426.2,327.6c0,7.6-2.9,10.5-10.5,10.5h-68.6c-7.6,0-10.5-2.9-10.5-10.5V15.2c0-7.6,2.9-10.5,10.5-10.5h68.6
		c7.6,0,10.5,2.9,10.5,10.5V327.6z"/>
	<path class="st0" d="M745.2,338.1c-8.1,0-12.4,0-15.7-5.2c-6.2-9.5-12.9-4.8-21.9-1c-11.9,5.2-30,11-59,11
		c-96.2,0-166.7-71.9-166.7-171.4C481.9,71.9,551.9,0,648.1,0c63.3,0,120,31,145.2,83.8c4.8,9.5,6.2,17.1-3.3,21.9l-54.3,25.7
		c-7.1,3.3-11.9,3.8-16.7-3.3c-17.1-24.8-39.5-37.6-70.5-37.6c-46.2,0-79.5,35.7-79.5,81c0,49,32.4,86.2,82.9,86.2
		c22.4,0,40-4.3,54.3-13.8c7.1-4.8,8.1-8.1,8.1-18.6v-52.4c0-7.6,2.9-11,10.5-11h61c7.6,0,10.5,3.3,10.5,11v154.3
		c0,7.6-2.9,11-10.5,11H745.2z"/>
	<path class="st0" d="M954.3,327.6c0,7.6-2.9,10.5-10.5,10.5h-68.6c-7.6,0-10.5-2.9-10.5-10.5V15.2c0-7.6,2.9-10.5,10.5-10.5h68.6
		c7.6,0,10.5,2.9,10.5,10.5V327.6z"/>
	<path class="st0" d="M1018.1,94.3c-7.6,0-10.5-3.3-10.5-11V15.7c0-7.6,2.9-11,10.5-11H1280c7.6,0,10.5,3.3,10.5,11v67.6
		c0,7.6-2.9,11-10.5,11h-78.6c-7.6,0-10.5,3.3-10.5,11v221.9c0,7.6-2.9,11-10.5,11h-62.9c-7.6,0-10.5-3.3-10.5-11V105.2
		c0-7.6-2.9-11-10.5-11H1018.1z"/>
	<path class="st0" d="M1406.7,290.5c-11,0-14.8,2.4-20.5,12.9l-11.9,21.9c-5.7,10.5-9.5,12.9-20.5,12.9H1289
		c-8.6,0-11.4-5.7-7.6-13.3L1448.6,7.6c3.3-6.2,10.5-7.1,14.3,0L1630,324.8c3.8,7.6,1,13.3-7.6,13.3h-65.2c-11,0-14.8-2.4-20.5-12.9
		l-11.9-21.9c-5.7-10.5-9.5-12.9-20.5-12.9H1406.7z M1462.4,180c-3.8-7.1-9.5-7.1-13.3,0l-15.7,27.6c-4.8,8.1-2.4,12.4,6.7,12.4h31
		c9,0,11.4-4.3,6.7-12.4L1462.4,180z"/>
	<path class="st0" d="M1766.2,237.6c0,7.6,2.9,11,10.5,11h122.4c7.6,0,10.5,3.3,10.5,11v67.6c0,7.6-2.9,11-10.5,11H1690
		c-7.6,0-10.5-3.3-10.5-11V15.7c0-7.6,2.9-11,10.5-11h65.7c7.6,0,10.5,3.3,10.5,11V237.6z"/>
</g>
</svg>
