<svg xmlns="http://www.w3.org/2000/svg" viewBox="0 0 448.52 259.43"><defs><style>.cls-1{fill:#333;}</style></defs><g id="Calque_2" data-name="Calque 2"><g id="_Calque_" data-name="&lt;Calque&gt;"><path class="cls-1" d="M140.94,37c5.75-.67,11.67-3.9,16.74-6.57,3.09-1.62.26-6.52-2.74-4.69q-3.63,2.19-7.38,4.15c-2.46,1.28-5.22,2.21-7.53,3.75-1.33.89-1,3.58.91,3.36Z"/><path class="cls-1" d="M167.24,5.42c2.18,5.43,1.92,10.28,1.11,15.94-.38,2.67,3.42,5,4.84,2,3-6.3,1.69-13.91-2-19.66-1.25-2-4.95-.72-4,1.68Z"/><path class="cls-1" d="M0,43.33a107.36,107.36,0,0,0,10.83,32c1.05,2,4.14,1.43,4.74-.62A114,114,0,0,0,20,37.9l-5.76.78a109.1,109.1,0,0,0,9.75,30,3,3,0,0,0,3.39,1.38c3.95-1.36,6.15-4.24,7.74-8,2.48-5.91,4.33-12.15,6.38-18.21Q48.3,23.74,54,3.32C55,0,49.89-1.41,48.83,1.88q-5.26,16.45-10.7,32.86c-1.75,5.31-3.51,10.62-5.32,15.91-1.32,3.88-2.55,12.09-7,13.64l3.38,1.37a108.53,108.53,0,0,1-9.28-28.54c-.59-3.25-5.93-2.51-5.76.78a117.9,117.9,0,0,1-3.54,35.39l4.74-.62A95.59,95.59,0,0,1,3.1,42.48c-.46-2-3.4-1.13-3.08.85Z"/><path class="cls-1" d="M63.67,14.23C61.09,30.84,62,48.62,62.88,65.35c.21,3.84,6.21,3.86,6,0-.89-16.82-.36-34-2-50.69-.17-1.65-2.88-2.38-3.18-.43Z"/><path class="cls-1" d="M68.91,53.8c-1.74-4.33,3.82-1.94,4.68-.73a9.16,9.16,0,0,1,1,2.61c.64,2.11.92,4.29,1.69,6.37,1.32,3.55,3.16,6.83,6.68,8.47a2,2,0,0,0,2.76-2.75c-2.22-4-4.86-7.06-6.22-11.59-.94-3.13-2.22-6.45-5.25-8.13-4.37-2.41-11.44,1.83-7.71,6.73.78,1,2.91.48,2.32-1Z"/><path class="cls-1" d="M109.46,48.77a19.78,19.78,0,0,0-13.66,8.8c-2.65,4.17-4.39,10.73-.64,14.81,4.14,4.51,10.4,1.77,14.11-1.74,5.36-5.08,8.68-12.22,10.35-19.31l-6-.81c-.09,5,.26,10.67,4.72,13.77,3.52,2.44,8.51,2.35,11.26-1.16,2.45-3.13-1.81-7.63-4.48-4.47-4.17,4.92-5.42-6.48-5.43-8.14,0-3.33-5.19-4.22-6-.8-1.19,5.32-6.26,19.84-13.31,17.88-3-.84-2.56-2.25-1.74-5.08a15.47,15.47,0,0,1,2.38-4.75,16.12,16.12,0,0,1,9.13-6.19c1.84-.51,1-3.1-.77-2.81Z"/><path class="cls-1" d="M137.38,10.86a136.28,136.28,0,0,0-3.45,22.91c-.42,6.63-.68,13.75,2.23,19.92,4.87,10.3,19.67,14,25.23,2.19a2.7,2.7,0,0,0-4.66-2.72c-3.29,4.91-9,5.5-13.32,1.42-3.51-3.35-4.47-8.4-4.79-13-.69-9.9.42-20,2.11-29.76.37-2.16-2.82-3.13-3.35-.92Z"/><path class="cls-1" d="M190.62,33.87a12.36,12.36,0,0,0-8.78,3.35,2.79,2.79,0,0,0-.44,3.35c3,4.19,7.21,6.49,10.84,10,2.57,2.5,4.37,5.45,2.88,9a11.75,11.75,0,0,1-2.85,3.85c-.75.71-3.76,2.23-3.71,2.91-.26-3.13-5.3-4.41-5.93-.8-.73,4.13,1.93,7.52,6.31,7.13,5.08-.45,10-5.8,12-10.19,5.72-12.42-8.72-17.94-15.19-25.3l.43,3.35a4.65,4.65,0,0,1,4.45-2.91c2.42-.11,2.46-3.82,0-3.79Z"/><path class="cls-1" d="M241.92,32.92c-5.11,14.64-10.15,30-11,45.61-.13,2.24,3.53,2.78,4,.53,2.91-15.26,4-30.86,7.19-46.11,0-.06-.08-.09-.1,0Z"/><path class="cls-1" d="M226.74,32.1a54.22,54.22,0,0,0,7.82,25.45c1.8,3,6.58.09,4.62-2.7A52.48,52.48,0,0,1,230,31.66c-.26-1.83-3.32-1.4-3.22.44Z"/><path class="cls-1" d="M260.68,41.48A5.86,5.86,0,0,0,255,35c-4.2-.24-7.7,3.46-9.95,6.54-5.53,7.56-5.5,19.33,4,23.81,8.3,3.92,18.58-3.93,19.86-12.31,1.22-8-5.32-16.68-13.65-16.59-3.3,0-4.17,5.12-.79,5.9,9.2,2.12,11.35,13.74,1.59,17.43-5.86,2.21-9.69-3.91-8.84-9.17a16.82,16.82,0,0,1,2.56-6.31c.19-.31,7.45-8.68,7.34-2.81,0,2.34,3.32,2.22,3.56,0Z"/><path class="cls-1" d="M280.78,38.1c-2.56,5.95-3.78,12-2.27,18.42,1.15,4.89,4.28,10.12,10.05,9.41,13.56-1.66,10.12-23.49,7-31.89-1.37-3.72-7.37-2.09-6,1.64,2.34,6.23,4.62,15.91,1.07,22.14-4.33,7.62-8.12-3.76-8.46-7.06a23.41,23.41,0,0,1,1.59-11.38c.7-1.73-2.29-3-3-1.28Z"/><path class="cls-1" d="M310.85,57.49c-1.58-5.22-3.49-10.36-4.73-15.68l-1.95,3.45c8-2.51,15.89-5.51,23.8-8.35,3.6-1.3,2-7.1-1.6-5.79-7.92,2.85-15.9,5.56-23.69,8.74A2.85,2.85,0,0,0,301,44c2.56,4.79,4.51,9.89,6.75,14.82.8,1.76,3.63.51,3.09-1.3Z"/><path class="cls-1" d="M205.07,103c-7.22-.26-16.53-.21-23.15,3.19-5.2,2.66-6.56,8.35-1.79,12.21,5.83,4.7,14.54,5.94,21.51,8,8.45,2.46,17.19,6.29,23.73,12.34,3.52,3.25,7,8,4.21,12.83-1.86,3.29-5.6,5.94-8.79,7.79-6.8,3.94-14.79,5.35-22.57,5.38-13.32,0-40.64-4.93-36.15-24.15,1.13-4.8-6.14-6.84-7.41-2-3.44,13,5.55,24.25,17.11,29.08s25.72,5.7,37.95,3.28c10.52-2.07,25.78-9.06,27.45-21.14,1.83-13.28-14.79-22-24.84-26.22-7.65-3.17-16-4.2-23.62-7.3a29.69,29.69,0,0,1-3.08-1.44c-1.66-.91-2.37-.85-1.62-2.67.88-2.12,3.83-2.47,5.87-3a65.36,65.36,0,0,1,15.19-2,2.07,2.07,0,0,0,0-4.13Z"/><path class="cls-1" d="M249.67,101.59a80.15,80.15,0,0,0-5.06,48.62c1.27,6.29,2.81,15.68,8.31,19.85s11.39.38,15.23-4.16c2.78-3.3-2-8.1-4.78-4.78-2.05,2.44-5.23,6-8,2.19-1.61-2.21-2.41-5.28-3.22-7.86A77,77,0,0,1,248.9,138a96.82,96.82,0,0,1,4-35.08c.57-1.89-2.44-3.25-3.26-1.37Z"/><path class="cls-1" d="M244.16,133.53a60.29,60.29,0,0,0,19.5-5.91c2.47-1.27.3-4.82-2.16-3.69a79.42,79.42,0,0,1-18.3,6.12c-2.32.45-1.28,3.79,1,3.48Z"/><path class="cls-1" d="M372.35,85.08c-2-2.7-2.88-7.78.89-9.59,5.43-2.6,9.15,5.59,9.88,9.47,1.82,9.75-2.33,20.51-4.68,29.85-3.16,12.6-11.55,37.73,8.71,40.39,4.28.56,5.34-6.94,1-7.6-13.27-2-4.31-24.87-2.5-32.74,2.41-10.54,6.35-22.38,3.11-33.16-2.12-7-9.44-15.37-17.59-11.83C364.42,72.81,364,82.29,368,87.61c1.92,2.52,6.28.06,4.33-2.53Z"/><path class="cls-1" d="M397.9,179.49a19.3,19.3,0,0,0-3.5-6.78,2.93,2.93,0,0,0-3.51-.46,5.87,5.87,0,0,0-2.55,2.82,6,6,0,0,0-.51,2c0,.38,0,.24,0,0a2.65,2.65,0,0,0-.06,1.31c0,.24.07.48.11.71.31,1.91,2.47,2.57,4.08,2.32l1.14-.17c1.75-.27,2.88-2.56,2.36-4.16a3.43,3.43,0,0,0-4.15-2.35l-1.12.29,4.08,2.31c-.15-.35-.73-1.69-.32-.63.09.46.13.55.13.27s0-.18,0,.14c.13-.32.16-.19,0,0-.4.39.25-.2.28-.22h-4.1a12.25,12.25,0,0,1,1.92,1.66,7.54,7.54,0,0,1,1.07,2.3c.93,2.92,5.47,1.71,4.61-1.27Z"/><path class="cls-1" d="M144.23,259.42a901.43,901.43,0,0,1,236.1-9.68c22.15,2,44.22,5,66.29,7.79,2.17.27,2.66-3.39.52-3.82-38.75-7.71-78.58-10.46-118-11.28a884.36,884.36,0,0,0-119.88,5.91q-32.82,3.79-65.24,10.22c-.56.12-.32,1,.24.86Z"/><path class="cls-1" d="M299,140.1c-5.8,8.44-8.7,20.13-11.54,29.87-1.47,5-2.78,10.12-3.89,15.24s-2.84,11-2.35,16.32a2.62,2.62,0,0,0,5.11.69c1.87-4.78,2.1-10.36,3.09-15.39s2.18-10.28,3.51-15.35q1.89-7.15,4.22-14.19c1.72-5.19,4.2-10.4,5.28-15.75A1.88,1.88,0,0,0,299,140.1Z"/><path class="cls-1" d="M284.71,132.4l-.13-.12a1.1,1.1,0,0,0-1.51,0c-1.15,1-.61,2.09-.41,3.52.51,3.62,1.18,7.2,1.86,10.79,1.36,7.29,2.1,15.41,4.69,22.35.73,1.93,4,1.85,3.87-.52-.37-5.72-2.27-11.46-3.57-17-.67-2.89-1.38-5.78-2.08-8.67s-2.55-6.68-2.54-9.67l-1.06,1.06.19,0c.76-.1,1.39-1.05.69-1.68Z"/><path class="cls-1" d="M319.47,100c-2.88,10.82-4.18,22.25-5.23,33.38-1.09,11.58-2.24,23.48-1.89,35.12.12,3.79,5.63,3.75,5.86,0,.69-11.37.62-22.77,1.48-34.14s2.3-22.63,2.77-33.95a1.53,1.53,0,0,0-3-.41Z"/><path class="cls-1" d="M341.58,150c2.68-2.92,11.56-11.82,7.38-16.07-4.38-4.46-12.85,1.45-15.47,5.07-4.41,6.08-4.27,15.86-.74,22.33,4.11,7.51,14.07,8.33,21.67,7.33,4.4-.57,4.6-7.52,0-7.07-3.95.38-9.71,1-13.28-1.35-3.81-2.49-4.56-8.34-4.05-12.5a11.5,11.5,0,0,1,2.68-6.53c.58-.63,3.84-3.43,4.41-2.8,1.34,1.46-3.89,8.62-4.69,10s1.05,2.76,2.09,1.62Z"/></g></g></svg>