<?xml version="1.0" encoding="utf-8"?>
<!-- Generator: Adobe Illustrator 25.0.1, SVG Export Plug-In . SVG Version: 6.00 Build 0)  -->
<svg version="1.1" id="Calque_1" xmlns="http://www.w3.org/2000/svg" xmlns:xlink="http://www.w3.org/1999/xlink" x="0px" y="0px"
	 viewBox="0 0 440.6 249.2" style="enable-background:new 0 0 440.6 249.2;" xml:space="preserve">
<style type="text/css">
	.st0{fill:#FFFFFF;}
	.st1{fill:#FEE100;}
</style>
<g>
	<g>
		<path class="st0" d="M382.9,148.4L382.9,148.4c-5.4-28.3-55.5-53.5-74.1-60.3c-1.9-0.7-3.4-2.3-4-4.2c-4.8-15.6-12.7-28-25.5-39.3
			c-0.1-0.1-0.2-0.4-0.4-0.7c-0.1-0.3-0.1-0.5-0.2-0.8c0.4-15.6-9.2-30.7-24.5-35.3c-15-4.5-29.8,2.6-38.7,14.6
			c-0.3,0.3-0.6,0.6-0.9,0.9c-0.1,0-0.1,0.1-0.2,0.1c-0.7,0.2-1.4,0.4-2.1,0.5c0,0-0.1,0-0.1,0C191.2,27.1,173.1,34,158.4,48
			c-1.6,1.5-4,2.1-6.1,1.5c-66-17.9-87.2,0.3-93.5,16.4c-7.3,18.4,11.9,44.1,33,61c9.3,7.5,19.9,14.6,31.6,21.2
			c1.6,0.9,2.8,2.5,3.1,4.3c0.6,2.9,1.3,5.7,2.2,8.5c4.9,16.2,13.8,31.4,26.4,42.8c0.9,0.9,1.5,2.2,1.5,3.4
			c0.1,15.1,9.6,29.7,24.5,34.1c15,4.5,29.8-2.6,38.7-14.6c1.1-1.5,2.9-1.3,4.4-1.7c22-3.6,41.1-14.3,55.8-29.7
			c1.3-1.4,3.2-2.1,5.2-2c7.3,0.6,15,0.9,22.7,0.9c2.2,0,4.3,0,6.5-0.1c19.1-0.5,38.8-2.3,53.2-11.7
			C379.7,174.7,385.5,161.9,382.9,148.4z"/>
		<g>
			<path class="st1" d="M257.9,183.8c-10.4-1.4-20.8-3.2-30.7-5.2c-30.5-6.2-58.3-15.2-82.5-26.8c3.9,15.9,12.2,30,23.9,40.1
				c0,0,0,0,0,0c3.3,3.2,5.4,7.8,5.6,12.9c0,0,0,0,0,0.1c-0.6,8.6,3.9,16.6,11.6,19.1c7.7,2.5,16-1.4,20.5-8.8c0,0,0.1,0,0.1,0
				c3.1-4,7.4-6.6,12-7.2l0,0c17.4-1.6,34.1-9.9,47.3-23C263,184.5,260.3,184.2,257.9,183.8z"/>
		</g>
		<g>
			<path class="st1" d="M221.2,141.7c23,5.7,45.2,9.4,65.4,11.1c0.7-1.9,1.4-3.8,2-5.7c11.1-34.6,1.3-70.2-21.9-90.3
				c0,0,0-0.1,0-0.1c-3.3-3.2-5.3-7.8-5.6-12.9c0,0,0,0,0,0c0.6-8.6-3.9-16.6-11.6-19.1c-7.7-2.5-16,1.4-20.5,8.8c0,0-0.1,0-0.1,0
				c-3.1,4-7.4,6.6-12,7.2c0,0,0,0,0,0c-30.6,2.9-59.2,26.2-70.3,60.8c-1,3.2-1.8,6.4-2.5,9.6C165.9,124,192.3,134.5,221.2,141.7z
				 M267.1,100.7c2.5-1.7,6.2-1.7,8.4,1.5c2.2,3.2,0.8,6.7-1.8,8.3c-1.1,0.7-2.3,1.1-3.6,1.1c-1.8,0-3.5-0.8-4.8-2.7v0
				C263.2,105.8,264.6,102.4,267.1,100.7z M254.7,73.7c1-2,3-3.3,5.2-3.4c1.9-0.1,3.8,0.8,4.9,2.5c2.1,3.1,0.7,6.3-1.7,7.9
				c-1,0.7-2.2,1.1-3.4,1.1c-1.7,0-3.4-0.7-4.6-2.5C254,77.5,253.9,75.5,254.7,73.7z M240.8,94.2c2.2-1.5,5.4-1.5,7.3,1.4
				c1.9,2.8,0.7,5.8-1.5,7.3c-0.9,0.6-2,1-3.1,1c-1.5,0-3.1-0.7-4.2-2.3v0C237.3,98.6,238.6,95.6,240.8,94.2z"/>
		</g>
		<g>
			<path d="M365.7,151.7c-3.5-18.3-37.8-39.2-55.3-44.5c-2.9-0.9-5.3,0.5-6,2.2c-1,2.2,0.1,4.8,2.5,6.1
				c15.8,8.4,30.7,16.9,40.7,29.7c3.3,4.2,4.3,7.5,3.1,10c-1.5,3-8,8-34.5,8.9c-27.8,0.9-61.6-3.3-97.6-12.3
				c-35.7-8.8-67.7-22.5-92.4-39.6c-24.5-16.9-29.9-25.9-30.2-30.5c-0.1-1.7,0.6-3,2-4.1c8.6-6.7,24.6-3.1,37.5-0.1l3.7,0.8
				c3.7,0.9,6.9-0.5,8.2-3.1c1.3-2.6,0.3-5.6-2.5-7.6c-13.4-9.6-42.9-11.7-58.4-4.1c-7.4,3.6-11.1,9.2-10.4,15.7
				c0.9,9.5,9.6,20.7,26.6,34.3c12.9,10.4,28.5,20,46.3,28.5c23.5,11.2,50.4,19.9,80.1,26c9.7,2,19.8,3.7,30.1,5.1
				c15.2,2.1,35.1,4.4,54.7,3.8c16.6-0.5,33.4-1.8,44.1-8.9C366,162.7,366.6,156.2,365.7,151.7z"/>
		</g>
	</g>
</g>
</svg>
