<svg xmlns="http://www.w3.org/2000/svg" viewBox="0 0 252 248.99"><g id="Calque_2" data-name="Calque 2"><g id="_Calque_" data-name="&lt;Calque&gt;"><path d="M11.18,64.28C2,63.6.31,78.69,0,85.17A48,48,0,0,0,9.57,116c4.62,6,14.56,12.65,20.94,4.7,7.43-9.26-7.18-19.06-14.29-22.1l1.12,4.29c4-6.22,9.11-10.55,14.76-15.16,2.75-2.25-.76-6.28-3.67-4.74-7,3.68-12.41,10.1-16.5,16.74-1.17,1.89.07,3.87,1.87,4.6a30.87,30.87,0,0,1,9,5.5c1.12,1,3.41,3.1,3.55,4.71.25,3-2.08,4.12-4.4,4C15.85,118.3,11,109.62,8.7,104.9A43.84,43.84,0,0,1,4.26,86.71c-.1-4.21.34-19.36,6.92-19.29,2,0,2-3,0-3.14Z"/><path d="M46.92,105.11C45.77,97.9,41.69,90.85,39.21,84L38,86.92c4.92-2.21,9.55-5.42,14.14-8.26,3.28-2,.27-7.22-3-5.18-4.79,3-9.88,5.81-14.24,9.38A2.6,2.6,0,0,0,34.49,86c3.56,6.51,6.18,14.26,10.91,20,.64.78,1.65-.1,1.52-.89Z"/><path d="M67.46,74c-6.19-2.52-11.84,3.9-12,9.76-.21,7.67,7.21,10.55,13.61,7.82C75,89,78.85,81.7,74.35,76,70.08,70.65,61,73.48,60.93,80.49c0,3.53,5.53,3.53,5.49,0a2.13,2.13,0,0,1,2.45-2c1.29.19,2,1.67,2.22,2.82.52,3.3-2.71,5.68-5.53,6.46-9.53,2.64-5.94-14,1.22-11.28,1.54.57,2.15-1.84.68-2.45Z"/><path d="M78.14,67.31a46,46,0,0,0,13.16,13,2.36,2.36,0,0,0,3.53-2A139.07,139.07,0,0,0,92.27,61.5l-5,2.09a60.3,60.3,0,0,0,9.85,15.53c1.8,2.08,4.9.27,5-2.08a107.16,107.16,0,0,0-2-28.14c-.8-3.89-6.79-2.25-6,1.65A102.85,102.85,0,0,1,96.29,77l5-2.09A60.57,60.57,0,0,1,92,60.85C90.63,58,86.3,60,87,62.94c1.32,5.27,2.34,10.58,3.2,15.93l3.45-2.65A61.72,61.72,0,0,1,80.09,65.8c-1-1-2.76.31-2,1.51Z"/><path d="M132.53,46.87c-1.43-3.79-6.09-4.13-8.83-1.42-3.6,3.55-5.48,11.67-3.84,16.34s6.94,7.43,11.28,4.6c5.64-3.66,3.71-10.92,4.15-16.47l-5.67.76c1.09,7.11,9.55,10.61,15.56,7,3.34-2,.28-7.25-3.05-5.22a4.6,4.6,0,0,1-6.94-3.33c-.61-3.35-5.51-2.33-5.68.77-.11,2.15.14,4.25.23,6.4.09,2.37-1.66,9.24-5,4.09-1.56-2.39-.49-5.89.29-8.41.49-1.62,3-7.69,5.22-4.16.72,1.17,2.84.42,2.31-1Z"/><path d="M153.38,31.74c-2.27-3-5.89-1.94-7.57,1.17-2.47,4.6-2.94,11.51-.75,16.24,1.94,4.2,6.2,7.52,11,7a9.08,9.08,0,0,0,8.28-9.77c-.37-3.62-6-3.74-5.77,0,.39,6-6.8,4.3-8.91.71a11.59,11.59,0,0,1-1.27-6.44c0-.14,1.25-8.13,2.45-7s3.69-.44,2.54-2Z"/><path d="M168,49.74C166,44.38,162.88,39,161.6,33.39l-1.17,2.85a55.14,55.14,0,0,0,8.38-6.3c2.93-2.48-1.26-6.52-4.18-4.18a51.62,51.62,0,0,0-7.26,6.51,2.56,2.56,0,0,0-.39,3.06c3.51,4.6,5.69,10.43,8.53,15.48.75,1.32,3.11.43,2.53-1.07Z"/><path d="M177.52,22a16.92,16.92,0,0,0-3.92,15.07c1.13,4.6,6,8.45,10.15,4.39,8.93-8.71-5.76-23.76-14.28-14.41-1.88,2.06.46,4.65,2.81,3.65,2-.86,4.64-1.44,6.61-.19s4,6.54.71,6.83c-2.48.22-2.45-4.47-2.27-6.31a13.61,13.61,0,0,1,2.84-7c1.14-1.53-1.4-3.49-2.65-2Z"/><path d="M197.09,10.77c-.2-3.11-2.72-5.13-5.84-3.71-4.5,2-7.69,8.64-9.61,12.8-.54,1.18-.45,3,1,3.62,4.34,1.91,9,3.3,13.23,5.43,8,4-1.16,9.1-6,9.32-4.1.19-4.09,6.66,0,6.38,6.53-.46,16.5-4.86,15.64-12.91-.9-8.36-14.5-11-20.81-13l1.84,3.25a38.76,38.76,0,0,1,2.92-6.59c.43-.76.88-1.5,1.37-2.23A2.83,2.83,0,0,1,194,10.77c.13,2,3.22,2,3.09,0Z"/><path d="M212.64,1.17c-8.4-4.85-16.44,6.59-8.65,12.46,4.22,3.17,9.64,1.21,14.43,1.78,4.49.54,6.86,3.94,4.77,8.27s-6.88,5-11.2,4.85c-3.58-.15-4.42,5.55-.85,6.31,9.68,2,20.68-5.76,18.92-16.34a10.71,10.71,0,0,0-8.12-8.71,27.12,27.12,0,0,0-7.84-.4c-1.2,0-2.4.15-3.61.12A13.22,13.22,0,0,1,208,9.3q-5.41-4.38,2.88-5.09c2,1,3.75-1.9,1.78-3Z"/><path d="M21.39,151.22c-1.13,10.6-1.06,26.72,7,35,7.76,8,18.73.36,21.1-8.52a1.7,1.7,0,0,0-2.82-1.64c-2.65,2.49-4.5,6.23-7.87,7.88-5.22,2.55-8.37-2-10.19-6.11a56.61,56.61,0,0,1-4.38-26.62c.12-1.83-2.62-1.76-2.81,0Z"/><path d="M26.61,178.91c3.69-2.61,7.15-5.41,11.17-7.51,2.61-1.36.22-5.52-2.32-4-4.12,2.52-8.08,5.47-10.8,9.51-.78,1.16.79,2.78,1.95,2Z"/><path d="M48.59,147.19a21.56,21.56,0,0,1-1.34-1.94,1.9,1.9,0,0,0-3.46,1.46c2,11.1,6.63,22.14,10.8,32.58a2.76,2.76,0,1,0,5.06-2.13c-4.61-10.46-7.87-21.45-12.4-31.91l-2.59,2.59a19.68,19.68,0,0,1,1.94,1.34c1.15.84,2.83-.84,2-2Z"/><path d="M53.55,169.06a3.33,3.33,0,0,1,.9-4.77c1.73-1,3.46.37,4.69,1.54,2.71,2.56,4.16,5.58,5.85,8.8,1,1.91,2.94,3.77,5.25,2.62a3.44,3.44,0,0,0,1.25-5,2.63,2.63,0,0,0-2.28-1.3l-.34,0c-3.25.41-3.46,5.43,0,5.25l.34,0-2.27-1.3.59-2.33,2.07-.27c-.61-.17-2.3-3.72-2.78-4.37a36.19,36.19,0,0,0-3.52-4.11c-2-2-4.7-4.17-7.77-3.83-4.81.53-7.45,6.75-4.69,10.63,1.16,1.63,3.89.06,2.71-1.59Z"/><path d="M74.53,161c1.35-1.84,2.11-3.19,1.77-5.59a8.73,8.73,0,0,0-3.19-5.54,2.06,2.06,0,0,0-3.41.9c-1.38,5.67-1.88,12.71,3.42,16.6a8,8,0,0,0,12.34-3.49c1.42-3.49-4.25-5-5.65-1.55-1.1,2.7-4.61-.12-5.32-1.47-1.52-2.86-1-6.45-.78-9.54l-3.07,1.76a6.06,6.06,0,0,1,2.4,7,.87.87,0,0,0,1.49.88Z"/><path d="M108.66,139l.07-.3a.74.74,0,0,0-.51-.89c-3.74-.9-5.68,6.18-6.13,8.72-.75,4.18-.38,10.66,3.86,13s8-2.17,9.49-5.78a16.49,16.49,0,0,0-2-16.31L109,140.85c6.82,7.53,13.81,13.92,9.91,24.87-1.3,3.66-3.47,8.48-7.18,10.3-.7.35-2.93,1.25-3.67.69-1.34-1,.16-3.79.53-4.91.91-2.75,1.63-5.54,2.38-8.33s-3.49-4.73-4.71-2c-2.44,5.47-9.12,15.7-2.19,20.25,5.54,3.63,12.43-.35,16-4.88,4.23-5.42,7.3-13.34,6.34-20.28-1.1-8-7.24-14.92-13.34-19.76a2.86,2.86,0,0,0-4,4,11.09,11.09,0,0,1,2.44,6.83c0,2.22-.8,7.35-3.59,6.89-2.55-.42-2.81-4.67-2.77-6.94.06-3.23,2.07-5.8,2.22-8.87a.71.71,0,0,0,1.38.19Z"/><path d="M136,129c-1.69-3.14-5.49-2.23-7.69-.1-3.29,3.2-4.28,8.15-3.39,12.54.8,4,3.64,8.54,8.36,7.26,5.77-1.56,4.89-7.43,7-11.65l-4.85.63c3.69,4.46,10.67,2.65,12.47-2.54,1.07-3.07-3.78-5.12-5.27-2.22a1.64,1.64,0,0,1-2.83.39,3.11,3.11,0,0,0-4.86.62,22.49,22.49,0,0,0-1.63,5.62c-.11.58-.37,2.77-1.1,3-1.24.41-1.66-1.35-1.9-2.11a10.17,10.17,0,0,1,.1-6.08c.26-.88,2.08-5.27,3.35-3.63,1,1.32,3-.37,2.25-1.74Z"/><path d="M145.85,94.38c-4.11,5-1.8,12.12-.45,17.86a99,99,0,0,0,8.73,23.57c1.81,3.4,6.86.4,5.14-3a124.23,124.23,0,0,1-7.54-17.61c-1.54-4.76-5.34-13.6-2.68-18.35,1.09-1.94-1.69-4.33-3.2-2.47Z"/><path d="M171.62,115.54a20.66,20.66,0,0,1,.19-3.85c.1-.77-.49-1.76-1.41-1.41-5.72,2.14-12.46,11.58-6.79,17.11,2.54,2.48,6.25,1.84,8.63-.51,3.41-3.38,4.08-8.86,3.56-13.38-.41-3.66-6.18-3.72-5.78,0,.51,4.82,1.74,10.17,6.28,12.79,3.72,2.15,8.67,1.77,11.44-1.67,2.5-3.12-1.91-7.6-4.45-4.44-4.16,5.19-7.17-4.57-7.59-7.45l-5.58,1.53a13.7,13.7,0,0,1-.41,7c-.93,2.44-3.73,3.59-4,.3-.3-4.06,2.87-7.08,5.77-9.36l-1.92-.5a25.89,25.89,0,0,1,1,4c.11.6,1.07.45,1.06-.15Z"/><path d="M191.21,104a4.35,4.35,0,0,0-.11.76l.81-1.05,0,0a2,2,0,0,0-1,1.78c.22,2.47,2.14,5,3.63,6.85a21.33,21.33,0,0,0,6.7,6c3.67,1.9,6.11-3.64,2.22-5.27a16.72,16.72,0,0,1-5.33-4.28c-1.37-1.47-2.35-3.27-3.7-4.71a2,2,0,0,0-2-.53h0L194,104c.09.22.11.22.06,0-.25-1.57-2.46-1.27-2.89,0Z"/><path d="M197.28,124.44l-.25.4,1.78-.73c1.09.23,1.77-11,1.92-12.13.6-4.79,1.34-9.55,1.9-14.34.28-2.48-3.67-2.9-4.29-.58a87.68,87.68,0,0,0-2.66,17.8c-.2,3.41-1.5,9.13.95,12a1.7,1.7,0,0,0,1.65.44l.53-.12a1.52,1.52,0,0,0,1.1-1.1l.07-.47a1.49,1.49,0,0,0-2.7-1.14Z"/><path d="M223.06,91.59a16.29,16.29,0,0,1,0-2.42c.08-1.8-2.61-1.75-2.78,0-.7,7.28.31,15,.63,22.25l1,22.24c.15,3.27,5.32,3.24,5.07,0l-1.86-23.21c-.57-7.13-.53-14.65-2.1-21.65l-2.68.74a17.2,17.2,0,0,1,.53,2.34c.24,1.23,2.2.94,2.17-.29Z"/><path d="M206.57,94.94c1.12,2.7,3.41,5,5.27,7.28,2.28,2.76,4.45,5.69,7,8.23,1.88,1.9,4.53-.89,2.89-2.88-2.16-2.61-4.7-4.93-7.07-7.34-2.11-2.13-4.24-4.77-6.89-6.19-.55-.3-1.46.21-1.17.9Z"/><path d="M232.51,64.61A77.25,77.25,0,0,0,237,92.1c1.11,3.08,6,1.84,5-1.37a174,174,0,0,1-6.18-26.56c-.29-1.91-3.23-1.37-3.27.44Z"/><path d="M249.24,120.74c3.68,0,3.69-5.72,0-5.72s-3.68,5.72,0,5.72Z"/><path d="M52.33,248.8c15-7.22,29.55-15.55,44.4-23.11q22.72-11.58,45.7-22.68c30.32-14.7,61-28.57,91.76-42.32,2.82-1.26.38-5.32-2.41-4.13-30.95,13.27-61.41,27.69-91.6,42.59q-22.44,11.07-44.6,22.67c-15,7.83-30.43,15.36-44.91,24.15a1.64,1.64,0,0,0,1.66,2.83Z"/></g></g></svg>