<svg xmlns="http://www.w3.org/2000/svg" viewBox="0 0 511.49 103.07"><g id="Calque_2" data-name="Calque 2"><g id="_Calque_" data-name="&lt;Calque&gt;"><path d="M31.62,9.22c-.51,7.32-.57,14.68-1,22s-1.9,14.76-1.33,22c.14,1.76,2.69,2.29,3.19.43,1.85-6.84,1.6-14.4,1.85-21.44.27-7.63.59-15.35.14-23a1.41,1.41,0,0,0-2.81,0Z"/><path d="M3.4,14.91C-1.48,9.05,18.75,6.32,20.76,6.34A52.93,52.93,0,0,1,37.12,9.45a66.3,66.3,0,0,1,15.1,7c6.89,4.57,7.26,11.92,4.13,19-4.41,10-12.8,18.21-20.93,25.26-9.16,7.94-19.35,14.23-30,20-2.54,1.39-.31,5,2.23,3.81,14.88-6.68,28.57-17,39.77-28.77,8.16-8.6,20.32-23.61,13.67-36.2-3.31-6.25-10.74-9.32-16.92-11.9A62.54,62.54,0,0,0,24,2.56c-6.59-.4-13.68.61-19.4,4.09C.92,8.87-2,13,1.68,16.63c1.12,1.13,2.71-.54,1.72-1.72Z"/><path d="M71.94,29.58c-.8,7.8-2.68,16.63-1.75,24.44.18,1.46,2.33,2,2.76.37,2-7.73,1.33-16.86,1.59-24.81,0-1.7-2.44-1.63-2.6,0Z"/><path d="M82.34,27.14c-.15,9.78.44,19.61.65,29.4a2.12,2.12,0,0,0,3.92,1.06c8.89-15.35,19.68-28.48,34-39.15,2.2-1.65.1-5.4-2.19-3.76C104.06,25.17,91.24,39.25,83.28,55.48l3.92,1.06c-.58-9.79-.78-19.64-1.71-29.4-.19-2-3.12-2.06-3.15,0Z"/><path d="M123.9,41.17c2.77-1.49,11.36-6.67,9.38-10.78-2.3-4.79-10.54.75-12.63,2.91-3.82,4-7.85,11.14-5.73,16.75,2.51,6.64,10.21,7,16.1,5.58,3.1-.73,1.79-5.54-1.32-4.78-4.6,1.13-11.38,1-10.64-5.59.3-2.65,2-5.57,3.54-7.67,1.35-1.84,4.93-5.78,7.61-4.93-.89-.28-6.4,5.59-7.57,6.36a1.25,1.25,0,0,0,1.26,2.15Z"/><path d="M177,30.11c-2.86,5.92-3.59,12.64-3.1,19.13.21,2.8,4.64,2.79,4.38,0-.6-6.18.4-11.82,1.91-17.78.46-1.85-2.3-3.19-3.19-1.35Z"/><path d="M188.12,47.77a55.68,55.68,0,0,1,4.56-8.34A38.35,38.35,0,0,1,195.33,36c.53-.59,1.08-1.17,1.64-1.74a2.54,2.54,0,0,1,.51,2.5c.37,4.46,2.47,7.7,7.36,7.95,2.73.13,2.66-4,0-4.21-4.57-.42-2.35-5.83-4.28-8.55a3.79,3.79,0,0,0-5.26-1.16c-2.17,1.38-3.92,4.24-5.32,6.35a33.06,33.06,0,0,0-4.39,9.54c-.41,1.47,1.86,2.53,2.53,1.07Z"/><path d="M227.17.36c-2.55.82-3.23,2.84-4.19,5.24a84.86,84.86,0,0,0-3.92,12.8C217.15,26.9,216,36,217,44.7c.31,2.75,4.44,2.91,4.41,0-.06-7.31-.2-14.44,1-21.69a94.92,94.92,0,0,1,2.06-9.61c.87-3.22,1.7-8.22,4.15-10.64a1.45,1.45,0,0,0-1.4-2.4Z"/><path d="M213.48,25.77a104,104,0,0,0,21.6-4.6c2.1-.73,1.26-4-.93-3.37A160.56,160.56,0,0,1,213,22.54c-1.81.25-1.4,3.45.44,3.23Z"/><path d="M242,27.23c-16.06-7.84-22.42,28-6.13,23.52,7.34-2,11.34-11,10.44-18.12-.84-6.61-8.35-11.48-13.89-6.4-2.28,2.08,1.11,5.45,3.39,3.38s5,.54,5.56,2.75a11.38,11.38,0,0,1-.19,5.06c-.76,3.33-2.42,7.4-6,8.52-5.56,1.72-4.71-5.53-3.87-8.61,1.14-4.15,4.41-9.09,9.42-7,1.75.72,3-2.23,1.29-3.06Z"/><path d="M304.67,31.53c-4.82-5.56-15.85-1.25-19.13,4.26-3.78,6.36.75,14.15,7.52,15.63,7.57,1.67,14.84-3.53,17.52-10.48,3.28-8.53-6.35-14.16-13.57-10.23-1.79,1-1,4,1.06,3.92s4.73-1,6.7.14c2.91,1.73,1.63,4.25.29,6.43-2,3.33-5.52,6-9.6,5.81-4.29-.21-8.61-4.62-6.15-9,1.84-3.3,9.94-7,13.13-4.23a1.58,1.58,0,0,0,2.23-2.23Z"/><path d="M325.07,33.84c-.65-1.67-2.23-2.06-3.89-1.53A7.22,7.22,0,0,0,317,36.8a9.42,9.42,0,0,0,4.6,11.94,10.69,10.69,0,0,0,13.16-3.51A11.39,11.39,0,0,0,333,31c-2.13-2.06-5.23,1.07-3.24,3.24,3.7,4,1.81,11.08-4.21,10.9a5,5,0,0,1-5-4.1,6.54,6.54,0,0,1,.08-3.23c.09-.32,1.93-3.53,2.26-3.07.7,1,2.67.43,2.15-.91Z"/><path d="M341.52,46.5c1.35-3.36.87-6.34.27-9.8l-2.11,2.77c5.14-.57,10.37-1,15.38-2.29,2.24-.58,1.81-4.14-.55-4.07a109.88,109.88,0,0,0-15.41,2.06c-1.72.3-2,2.55-1,3.66,1.68,1.84,1.55,4.78,1,7a1.23,1.23,0,0,0,2.38.65Z"/><path d="M387.13,23.65l-.3-1.61c-.16-1.75-3-2.47-3.33-.45-1.83,11.14.72,23.9,2.79,34.89.46,2.43,4.24,2.3,4.79,0,2.09-8.73,4.42-17.39,7.09-26l-5.06-.68c.68,6.88,1.55,13.63,5.36,19.57,1,1.55,3.57,1.83,4.49,0,5.5-10.92,11.15-21.79,16.16-32.94,1.16-2.6-2.46-4.87-3.9-2.28-6,10.66-11.29,21.67-16.75,32.59H403c-3.32-5.15-4.09-11-4.7-16.94-.28-2.8-4.15-3.61-5.06-.69-2.65,8.58-5,17.23-6.91,26h4.79c-1.24-6-2.22-12-2.88-18-.56-5.15-.46-10.47-1.43-15.55l-3.1,1.31.66,1.52a1.45,1.45,0,0,0,2.8-.77Z"/><path d="M417,36.94a8.2,8.2,0,0,0-8.77,8.93c.46,4.76,5.57,9.27,10.19,6.19,4.25-2.84,4.26-9.34,1.47-13.15a9.94,9.94,0,0,0-13.16-2.32c-2.46,1.49-.25,5.31,2.27,3.87,4.14-2.38,9.8,1.31,7.95,6.22-1.14,3-4,1.44-4.43-1.11A4.44,4.44,0,0,1,417,40.5a1.78,1.78,0,0,0,0-3.56Z"/><path d="M427.16,49l.44.36.19,1.43c.91-4,0-8.25-.24-12.24l-3.33,2.53a25.81,25.81,0,0,0,14.6.1c2.67-.78,2.31-5.42-.69-5.07a46.79,46.79,0,0,1-12.51-.1c-1.89-.27-3.85,1.12-3.24,3.24,1.1,3.8.89,7.74,1.82,11.54a1.88,1.88,0,0,0,2.73,1.11,4.48,4.48,0,0,0,1.38-.93c.79-.79,0-2.37-1.15-2Z"/><path d="M454.82,18.2l-.23-1.63c-.09-1.56-2.43-2-2.83-.38-1.71,7.1-2.16,14.6-3.06,21.84-.55,4.44-3.06,11.91.82,15.44a1.8,1.8,0,0,0,3-1.73c-2.15-11.35,2.24-23.65,2.09-35.17l-2.69.72.74,1.51a1.13,1.13,0,0,0,2.18-.6Z"/><path d="M469.31,39.28c-.79-2.89-4.09-2.71-6.24-1.47a10.36,10.36,0,0,0-5.29,8.72c-.09,7.66,9.62,12.86,14.69,6.09,1.29-1.73-1.23-4.11-3-2.95-2.73,1.85-6.26,1.28-7.06-2.3a5.78,5.78,0,0,1,.84-4.24c.29-.5,3-2.89,2.94-3,.7,1.89,3.61,1.17,3.07-.85Z"/><path d="M484.14,16.79a3.9,3.9,0,0,0-.48-3.5c-.81-1.56-2.85-.91-3.39.45-5.48,13.73-8.58,29.23-6.94,44.06.34,3,4.89,3.17,4.83,0-.29-14.85.9-28.92,5.68-43.08l-2.72,1.11.51,1a1.31,1.31,0,0,0,2.51,0Z"/><path d="M96.1,91C173.3,85.18,250.55,80.63,328,78.68c21.83-.55,43.67-.9,65.51-1.42a1.8,1.8,0,0,0,0-3.59c-77.38-.83-155,3.35-232.08,9.3-21.8,1.68-43.55,3.81-65.29,6.16-1.21.13-1.25,2,0,1.91Z"/><path d="M508.77,1c-2.64,8.7-5.26,17.4-7.8,26.14-2.48,8.54-6.1,17.47-7.34,26.27-.26,1.86,2.5,3.57,3.41,1.43,3.45-8,5-17.32,7.28-25.77,2.44-9.1,4.79-18.21,7.12-27.34A1.38,1.38,0,0,0,508.77,1Z"/><path d="M493.79,98.73a5.22,5.22,0,0,0-2.88,0,2,2,0,0,0-1.41,1.64,2,2,0,0,0,.94,2,5.27,5.27,0,0,0,2.77.78,2.2,2.2,0,0,0,1.56-.65,2.3,2.3,0,0,0,.61-1.26,2.2,2.2,0,0,0-1.59-2.43Z"/></g></g></svg>