<svg xmlns="http://www.w3.org/2000/svg" viewBox="0 0 316.12 57.52"><defs><style>.cls-1{fill:#ffe600;}.cls-2{fill:#333;}</style></defs><g id="Calque_2" data-name="Calque 2"><g id="_Calque_" data-name="&lt;Calque&gt;"><path class="cls-1" d="M11.27,16.34C6.43,28.81,4.1,41.71.76,54.59H5.31c.19,1.26,9.38-.94,10.74-1.11,3.36-.41,6.75-.66,10.13-.76a110.49,110.49,0,0,1,22.24,1.63v-5.7c-.91.35,1-5.48.92-5.23.63-1.9,1.28-3.79,1.92-5.68l3.52-10.42L62.14,5.54c.79-2.34-1.66-4.44-3.87-3.87C49,4.06,39.71,6.26,30.34,8.21S11.43,11.33,2.17,13.54c-3.3.78-2.68,6.32.81,6,19.06-1.66,38.5-7,57-11.82L56.08,3.87,44.32,38.93c-1.3,3.89-3.75,8.7-1.62,12.71A5.81,5.81,0,0,0,50,54.35c2.37-.93,3.21-5.18,0-5.7C44,47.69-3.15,44,.76,55.84a2.37,2.37,0,0,0,4.63-.62C6.5,42.33,10.57,29.5,13.94,17.07c.48-1.75-2-2.36-2.67-.73Z"/><path class="cls-2" d="M92.16,11.38l.58-2.92a1.62,1.62,0,0,0-3.12-.86c-1.26,4.56-1.87,9.35-2.72,14-.75,4.18-2,8.57-1.66,12.83a1.81,1.81,0,0,0,3.54.48c1.59-4,1.76-8.53,2.32-12.75.62-4.68,1.5-9.42,1.69-14.14H89.56a12.53,12.53,0,0,1,0,3.35c-.12,1.71,2.41,1.63,2.61,0Z"/><path class="cls-2" d="M74.65,14.69C77.29,8.53,87,6.25,93,5.64c6.68-.67,17.29,0,19.74,7.69C115,20.45,105,26.18,100.08,29.25c-6.61,4.1-12.55,5.07-20.16,4.72-2.47-.12-2.62,3.3-.55,4.07,9.64,3.58,20.49-2.78,27.92-8.4,6.11-4.62,13.29-11,9.07-19.38S101.39.61,93,1.64c-7,.86-19,4-21,11.94-.38,1.52,2,2.68,2.65,1.11Z"/><path class="cls-2" d="M122.09,22.19c-4.39-3.89-9.74,1.66-11.87,5.46-2.79,5,.59,10.66,6.43,9.56,4.68-.88,11-7.13,10.36-12.19-.84-6.28-8.8-5.81-12.77-3.12A1.69,1.69,0,0,0,115.53,25c2.06-.48,6.21-2.58,7.39.2,1,2.33-2.61,5.39-4.26,6.74A5.54,5.54,0,0,1,115,33.44c-2.09-.15-2.38-2.37-1.66-4s4.35-6.89,6.54-5.1c1.52,1.25,3.71-.85,2.2-2.19Z"/><path class="cls-2" d="M132.34,31.84c.59-1.9,2.53-5.66,4.88-6,3.12-.38,1.23,1.73,1,3a5.37,5.37,0,0,0,.06,2.36c.87,3.32,4.65,5.46,7.72,3.69a1.77,1.77,0,0,0-.89-3.28c-1.74,0-3.39-.59-3.25-2.67.08-1.23.69-2.2.5-3.48a3.35,3.35,0,0,0-3.2-3c-4.45-.28-8.22,4.85-9.34,8.58a1.32,1.32,0,0,0,2.55.71Z"/><path class="cls-2" d="M162.19.8A78.26,78.26,0,0,0,155.56,18c-1.46,5.21-3.59,11.46-2.69,16.88a1.67,1.67,0,0,0,3,.4c2.17-4.93,2.25-10.94,3.63-16.18,1.52-5.83,3.81-11.33,5.73-17,.61-1.81-2.14-2.93-3.07-1.29Z"/><path class="cls-2" d="M153,24c4.68-1.18,9.7-1.24,14.49-1.2,2.63,0,2.59-3.91,0-4.06-5.37-.3-10.21.72-15.38,2-2.09.53-1.2,3.76.89,3.24Z"/><path class="cls-2" d="M175.14,24.32c-2,3.28-4,7-2.63,10.91a6.33,6.33,0,0,0,6.67,4.42c3.9-.44,6.68-4,8.09-7.37,1.22-2.91,2.38-7.92-.07-10.45a1.41,1.41,0,0,0-2.32.62c-.67,1.83,0,3.91-.33,5.85a11.25,11.25,0,0,1-3.19,6.5c-2.14,2-5.14,2-6.19-1.09-.93-2.76.63-5.92,1.76-8.35a1,1,0,0,0-1.79-1Z"/><path class="cls-2" d="M202.37,22.91c-2.64-3.22-8.12-2.5-9.2,1.76-.64,2.53.54,5.12,1.84,7.22,1,1.67,3,3.84,1.88,6-1.75,3.41-4.6.46-5.89-1.35a1.88,1.88,0,0,0-3.47.94c-.31,5.84,7.66,8,11.54,4.49a7.3,7.3,0,0,0,2.32-6.82,12.13,12.13,0,0,0-2.09-4.45,27.72,27.72,0,0,1-1.58-2.31c-1-1.9,0-6.36,2.78-3.58,1.22,1.24,2.94-.58,1.87-1.87Z"/><path class="cls-2" d="M148.28,5a25.61,25.61,0,0,0-.57,7.46,2,2,0,0,0,3.93,0A25.59,25.59,0,0,0,151.11,5a1.48,1.48,0,0,0-2.83,0Z"/><path class="cls-2" d="M209.63,32c3.24-.47,7.79-2.59,6-6.73-1.91-4.55-7.52-.79-9.85,1.21-3.21,2.76-5.38,7.6-2.94,11.58s7.58,4,11.64,3.38c2.42-.38,1.73-4.09-.56-4.15-3.27-.09-9-.25-7.2-5.21a10.12,10.12,0,0,1,3.64-4.23c.4-.31.82-.61,1.25-.88,1.23.14,1.39.5.5,1.07-.59,1.06-2.19,1.12-3.25,1.32-1.75.34-1,2.89.73,2.64Z"/><path class="cls-2" d="M235.49,3.24c-3.58,6.26-5.55,13.79-7.56,20.67s-4.21,14.42-4.54,21.65c-.1,2.1,3,2.41,3.58.48,2.05-6.85,3-14.12,4.8-21.07s4.64-13.71,6.18-20.7a1.35,1.35,0,0,0-2.46-1Z"/><path class="cls-2" d="M228.54,29.7c3.42-.36,7.17-.43,10.47-1.46a1.63,1.63,0,0,0-.43-3.18c-3.46,0-7.06,1-10.45,1.67-1.64.32-1.3,3.15.41,3Z"/><path class="cls-2" d="M254.07,1.11c-3.69,6-6.06,13.25-8.64,19.81-2.72,6.9-6.32,14.4-7.52,21.74-.37,2.22,2.75,4,3.93,1.66,3.18-6.37,4.83-13.71,7.25-20.41,2.57-7.13,6.11-14.19,8.12-21.48a1.73,1.73,0,0,0-3.14-1.32Z"/><path class="cls-2" d="M247.52,30.81c.94-.76,2,.9,2.29,1.62a5.75,5.75,0,0,1-.07,2.64,40.2,40.2,0,0,0-.76,4.2,6.42,6.42,0,0,0,2.64,5.85c1.79,1.3,3.87-1.53,2.33-3-3.22-3.15.64-8.35-1.54-12.2a4.64,4.64,0,0,0-7.14-1.33c-1.58,1.33.68,3.54,2.25,2.25Z"/><path class="cls-2" d="M266.39,36.77a3.63,3.63,0,0,0-2-6.71c-4.89-.31-8.05,6.14-8.08,10.28,0,5.4,5.11,8.11,9.68,5.56a16,16,0,0,0,7.68-12.19c.32-2.62-3.2-2.8-4.41-1.19-2.58,3.42-5.27,7.26-4,11.78a7.05,7.05,0,0,0,8.18,5.07c3.17-.49,1.8-5.25-1.32-4.79-2.14.31-2.42-2.69-2.11-4a13.2,13.2,0,0,1,3-5.15l-4-2.3A11.68,11.68,0,0,1,264.14,41c-2.45,1.56-3-.6-2.39-2.74a8.93,8.93,0,0,1,.91-2.24l.4-.69c.76-1.23,1.51-1.22,2.23.05-.68.71.23,2.06,1.1,1.43Z"/><path class="cls-2" d="M290.84,8a159.38,159.38,0,0,0-13.95,41.45c-.44,2.5,3.28,3.62,3.88,1.06A293.1,293.1,0,0,1,293.22,9c.54-1.37-1.74-2.33-2.38-1Z"/><path class="cls-2" d="M282.13,33.69c4.42.57,8.92,1,13.38,1.21,3.08.12,3-4.42,0-4.72-4.43-.45-8.94-.62-13.38-.67-2.78,0-2.59,3.84,0,4.18Z"/><path class="cls-2" d="M313.79,8.15C308.73,19.93,303.16,31.78,299.2,44c-.65,2,2.58,3.46,3.48,1.47,5.29-11.69,9.19-24.21,13.38-36.33.45-1.31-1.71-2.26-2.27-1Z"/></g></g></svg>