<svg xmlns="http://www.w3.org/2000/svg" viewBox="0 0 412.27 196.22"><g id="Calque_2" data-name="Calque 2"><g id="_Calque_" data-name="&lt;Calque&gt;"><path d="M49.52,15.86c-1,7-.32,14.3-.51,21.36-.21,7.64-.84,15.25-1.12,22.87-.11,3.17,4.56,3.06,4.86,0a226.54,226.54,0,0,0,.73-22.87c0-7,.41-14.51-1.13-21.36-.3-1.34-2.63-1.46-2.83,0Z"/><path d="M1.81,35.27c12.77-3.91,25.19-10,37.53-15.06L76.75,4.74A2.43,2.43,0,1,0,74.87.27l-37.2,16C25.41,21.53,12.41,26.2.7,32.62a1.46,1.46,0,0,0,1.11,2.65Z"/><path d="M78.77,39.6c-5.27-6.33-14.72-4.45-19.48,1.48-4.62,5.76-8,18.71,1,22.13,7.5,2.85,17.38-1.42,19.92-9.17,2.45-7.49-2.69-16.3-10.68-16.87-2.64-.18-3.13,3.93-.62,4.58,4.52,1.17,7.79,5.63,6.44,10.38C74,56.69,68.41,59.69,63.83,59c-7-1.13-4.21-10.55-1.59-14.68,3.12-4.91,10.06-7.19,14.59-2.74,1.28,1.26,3-.6,1.94-1.94Z"/><path d="M117.2,4.59c-3.31,17.83-5.2,36-7.65,54a2.3,2.3,0,1,0,4.53.61c2.26-18,5.12-36,6.5-54.12.15-1.92-3-2.37-3.38-.46Z"/><path d="M100.2,43.82a25.74,25.74,0,0,1,19.94-4.89c7.27,1.16,16.14,6.83,13.35,15.42-2.17,6.67-10.34,10.72-16.65,12.23-6.9,1.66-13.29.47-20-1.56-2.4-.73-4,2.88-1.72,4.08,8.26,4.4,18.78,4.07,27.34.63,7.19-2.89,15.44-9.05,15.81-17.54s-7-14.77-14.78-16.6a29.52,29.52,0,0,0-25.43,5.52c-1.5,1.22.54,3.9,2.09,2.71Z"/><path d="M152.77,49a15.2,15.2,0,0,0,10.48-11.3A1.83,1.83,0,0,0,162,35.41c-9.92-1.54-20.48,4.42-20.5,15.36,0,12.79,14.56,16.85,25,15.83,3.37-.32,3.45-5.58,0-5.32-7.15.55-18.69-.6-20-9.46s7.43-13.39,15-12.83l-1.82-1.83a11.71,11.71,0,0,1-7.53,9.49c-1.39.56-.87,2.78.63,2.3Z"/><path d="M211.64,32.49c-6.67-1.76-13,.54-17.57,5.63a2.46,2.46,0,0,0,0,3.35c4.36,5.46,20.07,11.62,15.27,20.39-3.44,6.29-18.25,11.17-23.73,5.82l.44,3.43c1-1.41,2-2.84,3-4.26,1.68-2.36-2.11-5.28-4-3.1q-1.74,1.95-3.47,3.93a2.89,2.89,0,0,0,0,4c8.11,7.74,25,2.57,31.25-5.6a12.15,12.15,0,0,0,.49-14.21c-3.9-6.11-11.35-8.31-15.9-13.76L197.8,41c3-4.55,8.24-6.26,13.44-5.58,1.69.23,2-2.5.4-2.92Z"/><path d="M227.92,55c2.37-1.78,14.16-8.54,7.16-12.19-5.7-3-13.54,2.17-16.31,7-8.45,14.66,9.3,30.61,23.62,24.72,1.88-.77,1.85-3.85-.52-3.8-8.57.15-19.17-2.46-19.91-12.85A10.8,10.8,0,0,1,227.9,47.5a9.18,9.18,0,0,1,4-1c.77.72.48,1.28-.85,1.69-1.24,1.6-3.56,2.94-5.13,4.23-1.42,1.18.5,3.71,2,2.59Z"/><path d="M253.55,56.59a19.42,19.42,0,0,0,14.92-12.13A2.09,2.09,0,0,0,267,41.89c-9.79-1.69-24.39,3.92-23.07,16,1.26,11.46,14.61,21.28,25.74,19.39,2.77-.47,2.14-5.08-.67-4.92-7.79.45-15.41-4.45-19-11.37-5.21-10.13,7.5-16.25,15.86-15.08l-1.45-2.57a15.31,15.31,0,0,1-11.7,10.37c-1.89.41-1.06,3.18.8,2.87Z"/><path d="M276.74,71c2.77-4.06,3.63-9.38,6.34-13.66a48.39,48.39,0,0,1,10.79-12l-3.69-.48c4.26,9.22,10,29.73,24.18,25,3.23-1.08,1.85-6.23-1.41-5.13-6.07,2-9.57-3.74-11.91-8.32s-4.54-9.28-6.8-13.92c-.72-1.47-2.62-1.37-3.69-.48A48.38,48.38,0,0,0,279,55.83c-2.31,4.23-5.28,9.94-4.59,14.84.16,1.17,1.75,1.08,2.29.3Z"/><path d="M103.94,118.51c-2.27-12.72-18.67-6.21-24.45-.25C71.92,126.09,73.16,138.09,84,142c10.36,3.78,24.4-4.12,28.65-13.91,2.06-4.73.56-9.77-3.17-13.18-4.75-4.34-11.48-4.49-17.54-4.41-3.38,0-3.39,5.24,0,5.24,5.69,0,20.13,1.46,15.4,10.91-2.85,5.68-11.1,10.93-17.33,11.16-7.72.29-13.52-6.63-9.29-13.86,3-5.2,18.11-15.78,20.74-4.8.4,1.64,2.78.93,2.5-.68Z"/><path d="M122.17,135.42c7.93-5.69,8.17-16.21.79-22.54l-1,3.87a59.35,59.35,0,0,1,14.71-.28c2.59.24,3.21-4.13.62-4.58a43,43,0,0,0-16.57.39,2.35,2.35,0,0,0-.55,4.24c6.67,3.62,6.93,12.61,1,17.14-1,.77-.05,2.53,1,1.76Z"/><path d="M160,142.12c-1-10.29,2.9-20.19,12-25.59h-2.6c5,3.66,4,12.09,6.72,17.2,3.34,6.23,9.89,7.12,16.17,5,2.5-.83,2.26-5-.66-4.84-3.8.24-8.12,1.1-10.47-2.55-1.41-2.2-1.84-5.14-2.47-7.63-1.18-4.64-2.64-8.8-6.69-11.66a2.53,2.53,0,0,0-2.6,0c-10.23,6.37-16.16,18.63-13.23,30.55.51,2.09,4.07,1.71,3.85-.52Z"/><path d="M217.34,120.31a6.61,6.61,0,0,0-5.84-5c-3.74-.48-6.78,2-9,4.81-2.34,3-4.86,6.69-4.85,10.64,0,3.42,2,6.8,5.46,7.69,7.06,1.84,14.53-5.74,12.75-12.74-1.55-6.11-10.79-9.83-14.87-4-1.25,1.78.86,4.64,2.94,3.83s4.72-1.62,6.17.85c1.65,2.8-1.62,7.19-4.72,7-9.48-.51,6.25-20.84,8.6-12.14.58,2.14,3.81,1.24,3.32-.92Z"/><path d="M238.13,99.21a7.11,7.11,0,0,0-2.24-4.95,2.13,2.13,0,0,0-3.29.43c-6.83,9.19-11.41,21.32-9.85,32.9,1.24,9.19,8.4,17.68,18.33,16.63,3.65-.39,3.69-6.15,0-5.76-10,1.06-13.65-9.31-13.22-17.5.45-8.61,3.77-17,8.36-24.15l-2.87.75,1.13,2.15c.33,2.05,3.85,1.59,3.65-.5Z"/><path d="M225.23,118.1a210.93,210.93,0,0,0,26.69-5.5c2.83-.75,1.59-4.76-1.18-4.3a206.71,206.71,0,0,0-26.05,5.8c-2.09.63-1.83,4.31.54,4Z"/><path d="M283.71,94.32c-6.48,11-10.74,24.74-10.38,37.62.22,8,7.44,19.55,16.65,13.38a2.47,2.47,0,0,0-2.49-4.26c-11,4.76-9.33-14.74-8.59-20A92.42,92.42,0,0,1,286.65,96c.89-2-1.8-3.65-2.94-1.72Z"/><path d="M272.83,118.19c9.32-1,19.44-1.39,28.46-4,2.34-.68,2-4.42-.59-4.35-9.42.29-19.12,3-28.33,4.93-1.89.38-1.5,3.64.46,3.42Z"/><path d="M312.49,124.42c-5.05-7.17-14.26-1.43-18.23,4-5.92,8.05,1.8,14.9,10.11,14.28,8-.59,16.7-4.16,14.37-13.83-2-8.34-11.82-12.54-19.75-12.11a2.44,2.44,0,0,0-.65,4.77c3.92,1.5,8.27,1.52,11.77,4.07s5.33,8.78.07,10.62c-3,1.05-12.57,3-13-2.18-.39-4.53,8.88-11.27,12.26-7.22,1.41,1.69,4.35-.55,3.07-2.37Z"/><path d="M347.65,95.2a2.61,2.61,0,0,0-2.16-4c-4.35-.09-5,9.07-5.75,11.67q-5.87,21-11.32,42.14c-.9,3.46,4.47,4.94,5.36,1.48,2.26-8.77,4.41-17.56,6.61-26.34,1.1-4.39,2.15-8.79,3.19-13.2l1.35-5.66.89-3.78A2.2,2.2,0,0,0,344.9,94c-.68,1.67,1.85,2.5,2.75,1.17Z"/><path d="M329.91,120.36c5.31-1.87,12.08-3.64,17,.08,4.6,3.47,5.47,10.19,3,15.2-5.43,11-19,11.68-29.6,11.8-3.57,0-3.54,5.34,0,5.52,14.09.74,34.15-3.89,36-20.93.66-6.18-1.78-12.67-7.22-16-6.39-3.88-14.31-2.26-20.65.8-1.94.94-.58,4.23,1.48,3.51Z"/><path d="M364.12,129.16a19.39,19.39,0,0,0,17.13-11.8,2.64,2.64,0,0,0-1.54-3.79c-12.43-4.86-22.83,9-24.32,20-1.79,13.3,11.2,17.22,21.8,18.1,4,.33,4-6,0-6.31-7.23-.51-17.51-2.12-16-11.82,1.18-7.81,8.16-18.33,17.19-15l-1.8-3.17c-2.32,5.63-7.24,8.41-13,9.25-2.59.37-1.94,4.59.62,4.54Z"/><path d="M395.9,91.09c.38,1.31,4.13,1,5.55,1.41,3,.75,6.33,1.25,5.38,6.18-.62,3.17-3.82,7.19-5.44,9.94-3.56,6-7.72,11.66-11.43,17.59-5.75,9.17-9,21.14-1.15,30.13,2.06,2.36,6.27-.8,4.4-3.39-6.12-8.47-2.19-18.29,2.77-26.26,5.34-8.58,11.27-16.9,15.31-26.22,3-6.93-1.24-10.44-7.76-12-3-.72-14-2.48-11,4.09.89,1.93,4,.55,3.4-1.44Z"/><path d="M389.24,168.15l-.58.51a1.87,1.87,0,0,0-.51.64l-.28.66a.85.85,0,0,0-.08.42,3.44,3.44,0,0,0,0,.63,2.52,2.52,0,0,0,2.48,2.48h.26a3,3,0,0,0,1.46-.4,3.49,3.49,0,0,0,.63-.52l.51-.58a2.11,2.11,0,0,0,.56-.88,2.4,2.4,0,0,0,0-2.09,2.11,2.11,0,0,0-.56-.88,2.73,2.73,0,0,0-1.92-.79l-.73.09a2.8,2.8,0,0,0-1.2.7Z"/><path d="M105.16,191.73A49.37,49.37,0,0,1,100,190v3.71c15.46-4.93,31.91-5.89,48-7q24.42-1.69,48.92-2a893,893,0,0,1,98.8,4.09q28.86,2.81,57.51,7.46c3.6.58,5.15-4.92,1.52-5.52a868.58,868.58,0,0,0-202.84-9.15C134.1,182.79,116,183.88,99,190a1.93,1.93,0,0,0,.51,3.77,31.16,31.16,0,0,1,4.91.66c1.74.34,2.49-2.21.74-2.68Z"/></g></g></svg>