<svg xmlns="http://www.w3.org/2000/svg" viewBox="0 0 266.12 201.63"><g id="Calque_2" data-name="Calque 2"><g id="_Calque_" data-name="&lt;Calque&gt;"><path d="M4.1,84.06c22-18.91,38.26-42.91,54.3-66.85l-5.83-2.46c-5.27,22-10.29,44.54-5.39,67.05.64,3,5.37,3.72,6.73.87Q72.16,44.3,90.31,5.87l-7-3C80.63,16,78.05,29.17,76.45,42.46c-1.52,12.71-3.15,27.17.07,39.72,1,4,7,3.06,7-1,.11-6.46-.71-12.9-.62-19.38.08-6.15.52-12.3,1.19-18.42,1.43-12.94,4-25.72,6.56-38.48.79-4-5.07-7.16-7-3Q65.57,40.45,47.55,79l6.73.88c-4.9-21.18-.25-42.62,4.45-63.39A3.21,3.21,0,0,0,52.89,14C37.45,37.62,21.65,61.47.76,80.71-1.51,82.79,1.81,86,4.1,84.06Z"/><path d="M124,54.33c-2.17-5.65-8.47-6.77-13.43-3.73-5.71,3.49-10.58,12.26-9.83,18.95a10.29,10.29,0,0,0,12.74,9.12c8.11-2,10.9-10,12.53-17.22,1-4.55-5.54-6.36-7-1.93-2.43,7.46-4.24,16.67,2.26,22.7,4.87,4.51,12.87,3.56,16.09-2.31,2.17-4-3.33-6.91-5.91-3.46s-6.52-1-7.16-3.68c-.9-3.72.61-7.79,1.7-11.32l-7-1.93c-.65,3.16-1.22,6.88-3.18,9.54-2.4,3.26-8.24,4.63-8.71-.91-.38-4.47,8.15-19.65,13.61-12.45,1.09,1.45,4,.7,3.25-1.37Z"/><path d="M146.55,58.73c-1.88,6.21-1.81,13.16-2.87,19.55-1.1,6.55-3.15,12.94-4.15,19.48a3.22,3.22,0,0,0,6.2,1.71c2.42-6.36,3.21-13.63,4.08-20.36.86-6.58,2.07-13.83.63-20.38-.45-2-3.34-1.82-3.89,0Z"/><path d="M146.86,51.84c8.49-2.19,22.35-.5,24.74,10C174,72.51,158,77.78,150.19,77.92c-4.93.09-4.91,7.87,0,7.64,12.26-.56,31.49-9.46,28.11-24.81-3.11-14.17-21.6-19.34-33.43-13.62-2.69,1.3-.77,5.42,2,4.71Z"/><path d="M215.2,69.7c.23-1.33.46-2.62.82-3.92a1.85,1.85,0,0,0-3.36-1.42c-3.73,6.17-5.64,13.22-6.76,20.29-1,6.41-2.25,14.34-.05,20.59.8,2.25,4.88,2.93,5.29,0,.87-6.21-.22-12.62.42-18.91.72-7,2.8-13.72,4.46-20.55l-3.61-.49c.05,1.36,0,2.67-.07,4-.07,1.61,2.56,2,2.86.39Z"/><path d="M242.87,25.47A125.3,125.3,0,0,0,228.45,71c-.78,6.8-1.69,14.73,2.29,20.77,3,4.56,8.49,7,13.76,5.29a3.19,3.19,0,0,0-1.69-6.15c-12.93,2.82-8-23.77-6.88-29.77a126.3,126.3,0,0,1,11-33.3c1.33-2.71-2.62-5.09-4.09-2.39Z"/><path d="M231.16,73.31A58.74,58.74,0,0,1,262.37,69a3.06,3.06,0,1,0,.81-6,58.46,58.46,0,0,0-33.93,5.85c-2.47,1.25-.71,5.63,1.91,4.54Z"/><path d="M103,132.68a18.19,18.19,0,0,0-29.48,9.86c-3.38,14.28,9.15,26.15,23.07,25.53,13.71-.61,28.88-12.17,26.94-27.11a17.18,17.18,0,0,0-13-14.88c-8.12-2-15.94,1.35-23.21,4.63C83,132.64,86.72,139,91,137c8.06-3.72,23.13-8.76,25.57,4.36,2,10.57-9.5,18.9-18.75,20.06-9.8,1.23-20.32-5.63-18.93-16.4,1.41-11,13.77-15.92,23.26-11.26.67.32,1.5-.57.85-1.11Z"/><path d="M141.29,131.09c-9.43,8.86-6.15,26.28,3,34.15,4.84,4.18,11.42,4.49,14.55-1.66,3.66-7.21,3.71-16.31,2.55-24.09-.69-4.68-7.91-2.73-7.14,2a37.34,37.34,0,0,1-.49,15c-.58,2.35-.9,5.75-4.13,4.4-2-.81-3.88-3.58-4.9-5.25-4.5-7.36-3.15-15.13-.45-22.8.62-1.74-1.73-2.83-2.94-1.71Z"/><path d="M184.61,109.16c-8.44,12.43-13.82,30.26-10.93,45.28,2.15,11.19,15.66,25.62,27.66,16.88a2.8,2.8,0,0,0-2.15-5.09c-13,2.68-19.86-8.28-20-20.08-.12-12.23,3.87-24,8.63-35.1a1.88,1.88,0,0,0-3.24-1.89Z"/><path d="M185.17,141,183,139.21l-2,3.4a80.73,80.73,0,0,0,11.21.57c3.79,0,7.79.3,11.47-.65,2.69-.69,3-5.31,0-5.78-6.86-1.09-15.94.33-22.68,1.93-2.33.56-1.66,3.85.54,4l2.25.62c1.53.74,2.87-1.46,1.35-2.3Z"/><path d="M237.77,173.89a14.15,14.15,0,0,0-1.33-1.82,4.6,4.6,0,0,0-2-1.18,7.59,7.59,0,0,0-1.48-.18,3.16,3.16,0,0,0-2.65,1.33,2.56,2.56,0,0,0-.61,1.15,3.4,3.4,0,0,0,0,1.79c0,.19,0,.37.09.56a4.48,4.48,0,0,0,1.93,2.56c.38.25.77.47,1.16.69a3.61,3.61,0,0,0,4.34-.56,4.21,4.21,0,0,0,.93-1.58,3.6,3.6,0,0,0-.36-2.76Z"/><path d="M218.9,52.41l.3-.66a3.35,3.35,0,0,0-5.79-3.38,3.33,3.33,0,0,0,0,3.38l.3.66a3.1,3.1,0,0,0,1.08,1.08,3.07,3.07,0,0,0,3,0,3.1,3.1,0,0,0,1.08-1.08Z"/><path d="M54.56,201.51a643,643,0,0,1,186.77.08c4.38.65,6.32-6,1.86-6.74a553.09,553.09,0,0,0-190,1.69c-3.3.62-1.84,5.44,1.37,5Z"/></g></g></svg>