<?xml version="1.0" encoding="utf-8"?>
<!-- Generator: Adobe Illustrator 25.1.0, SVG Export Plug-In . SVG Version: 6.00 Build 0)  -->
<svg version="1.1" id="Calque_1" xmlns="http://www.w3.org/2000/svg" xmlns:xlink="http://www.w3.org/1999/xlink" x="0px" y="0px"
	 viewBox="0 0 250.9 6.8" style="enable-background:new 0 0 250.9 6.8;" xml:space="preserve">
<style type="text/css">
	.st0{fill:#FEE100;}
</style>
<g>
	<g>
		<path class="st0" d="M2,4.6c16,0.3,32,0.7,48,0.9C66,5.7,82,5.9,98,6c32,0.2,64,0.5,96,0.7c18,0.1,36,0.1,54,0c3.9,0,3.9-6,0-6
			c-32-0.5-64-0.5-96-0.6C120,0,88,0,56,0C38,0,20,0.3,2,0.4C-0.7,0.5-0.7,4.6,2,4.6L2,4.6z"/>
	</g>
</g>
</svg>
