<?xml version="1.0" encoding="utf-8"?>
<!-- Generator: Adobe Illustrator 25.1.0, SVG Export Plug-In . SVG Version: 6.00 Build 0)  -->
<svg version="1.1" id="Calque_1" xmlns="http://www.w3.org/2000/svg" xmlns:xlink="http://www.w3.org/1999/xlink" x="0px" y="0px"
	 viewBox="0 0 292.2 7.4" style="enable-background:new 0 0 292.2 7.4;" xml:space="preserve">
<style type="text/css">
	.st0{fill:#FDE000;}
</style>
<g>
	<g>
		<path class="st0" d="M29.9,0.4c0,0,0.6-0.5,0.5-0.3c-0.1,0.1-0.2,0,0.1,0c-0.3,0-0.5,0.1-0.8,0.1c-0.8,0.1-1.5,0.1-2.3,0.1
			c-2.4,0.1-4.7,0.1-7.1,0.2C15.2,0.5,10.1,0.7,5,1C3.6,1.1,1.7,0.9,0.6,1.8c-1.3,1-0.2,3.1,1.3,3.1C18.9,5,36,5,53,5
			c19.5,0,39-0.1,58.5-0.1c20.4,0,40.8,0,61.1,0.1c19.7,0.1,39.4,0.3,59.1,0.6c17.4,0.3,34.9,0.7,52.3,1.5c1.9,0.1,3.8,0.2,5.8,0.3
			c3.2,0.2,3.2-4.9,0-5c-17-0.8-34.1-1.2-51.1-1.5c-19.5-0.3-39-0.5-58.5-0.5c-20.4-0.1-40.8,0-61.1,0.1C99.3,0.6,79.6,0.7,59.9,0.9
			C42.5,1,25.1,1.1,7.6,1.2c-1.9,0-3.8,0-5.8,0c0.4,1,0.9,2.1,1.3,3.1C3.2,4.3,2.1,5,2.5,4.8c0,0,0.2,0,0.2,0c0,0-0.4,0-0.1,0
			c0.2,0,0.3,0,0.5,0c0.8-0.1,1.5-0.1,2.3-0.2c2.4-0.2,4.7-0.3,7.1-0.4c5.1-0.3,10.2-0.6,15.3-1c1.2-0.1,3.2,0.1,4.2-0.8
			C33.3,1.2,31.3-0.8,29.9,0.4L29.9,0.4z"/>
	</g>
</g>
</svg>
