<?xml version="1.0" encoding="utf-8"?>
<!-- Generator: Adobe Illustrator 25.0.1, SVG Export Plug-In . SVG Version: 6.00 Build 0)  -->
<svg version="1.1" id="Calque_1" xmlns="http://www.w3.org/2000/svg" xmlns:xlink="http://www.w3.org/1999/xlink" x="0px" y="0px"
	 viewBox="0 0 174.4 98.7" style="enable-background:new 0 0 174.4 98.7;" xml:space="preserve">
<style type="text/css">
	.st0{fill:#161615;}
	.st1{fill:#FFFFFF;}
</style>
<g>
	<g>
		<g>
			<path class="st0" d="M24.9,26.5c3,0,4.4,0,7.3-0.1c1,0,1.3,0.4,1.2,1.3c-0.2,2,0.7,2.7,2.2,2.7c1.4,0,2.6-0.9,2.7-2.3
				c0.2-1.7-0.8-2.4-2.2-2.5c-8-0.8-12.2-4.1-11.2-12.5C25.8,4.5,31.3,0,38.6,0C45.9,0,50,4.7,49.3,12.7c-0.1,1.5-0.7,1.8-1.6,1.8
				c-2.7,0-4.1,0-6.9,0.1c-0.9,0-1.2-0.4-1.1-1.3c0.2-1.7-0.8-2.6-2.2-2.6c-1.4,0-2.5,0.9-2.7,2.3c-0.2,1.7,0.8,2.4,3.1,2.6
				c7,0.6,11.2,4.6,10.5,12.4c-0.7,8.5-6.3,13-14,13.1c-8.3,0.1-12.4-4.3-11.5-12.7C23.3,26.8,24,26.5,24.9,26.5z"/>
			<path class="st0" d="M62.6,27.7c-0.2,4.5-0.3,6.8-0.6,11.3c0,0.9-0.4,1.3-1.3,1.3c-3,0-4.6,0-7.6,0.1c-0.9,0-1.3-0.4-1.2-1.3
				c1-15,1.6-22.4,2.8-37.2C54.7,1,55,0.6,55.9,0.6c3.1,0,4.6,0,7.6,0c7.8,0,12.5,4.1,12.3,12.6c-0.2,8.4-4.3,13-12,13.1
				C63,26.3,62.6,26.7,62.6,27.7z M64.1,16.1c1.4,0,2.5-0.9,2.6-2.7c0.1-1.7-0.9-2.6-2.3-2.6c-0.1,0-0.2,0-0.3,0
				c-0.9,0-1.2,0.4-1.3,1.3c-0.1,1.1-0.1,1.6-0.2,2.7c-0.1,0.9,0.3,1.3,1.1,1.3C63.9,16.1,64,16.1,64.1,16.1z"/>
			<path class="st0" d="M84.4,38.5c-0.3,1.4-0.8,1.6-2.3,1.6c-2.8,0-4.2,0-7,0.1c-0.7,0-1-0.3-1-0.9c0-0.2,0.1-0.4,0.1-0.7
				c4-15,5.9-22.5,9.5-36.7c0.3-1,0.7-1.3,1.5-1.2c2.4,0,3.7,0,6.1,0c0.8,0,1.2,0.3,1.5,1.2c3.6,14,5.6,21.4,10.1,36.4
				c0.1,0.3,0.1,0.5,0.1,0.7c0,0.6-0.2,0.9-1,0.9c-2.8,0-4.2,0-7,0.1c-1.5,0-2-0.2-2.4-1.5c-0.4-1.4-0.6-2.1-0.9-3.5
				c-0.3-1-0.7-1.3-1.6-1.2c-1.3,0-2,0-3.3,0c-0.9,0-1.3,0.2-1.6,1.3C84.9,36.4,84.8,37.1,84.4,38.5z M86.6,23.3
				c-0.1,0.5-0.2,0.9-0.2,1.1c0,0.5,0.4,0.6,1,0.6c0.8,0,1.2,0,2,0c0.6,0,0.9-0.2,0.9-0.6c0-0.2-0.1-0.6-0.2-1.1
				c-0.4-1.8-0.6-2.7-1-4.4c-0.2-0.7-0.4-1.2-0.8-1.2c-0.4,0-0.6,0.5-0.7,1.2C87.2,20.6,87,21.5,86.6,23.3z"/>
			<path class="st0" d="M117.7,24.2c-0.1-0.9,0.2-1.2,1.1-1.3c2.9,0,4.3,0,7.3-0.1c0.9,0,1.3,0.3,1.5,2.1
				c0.8,7.8-0.6,15.3-10.5,15.4c-8.4,0.1-12.7-5-13.4-20.5C103,4.5,106.4,0.2,114.1,0.2c9.1,0,11.8,7.1,12.4,14.2
				c0.2,1.8-0.1,2.1-1,2.1c-2.9,0-4.3,0-7.2,0.1c-0.9,0-1.2-0.3-1.3-1.2c0-0.6-0.1-0.8-0.1-1.4c-0.2-2.5-0.9-3.3-1.9-3.3
				c-0.9,0-1.4,0.7-1.5,2c-0.2,1.4-0.3,3.5,0,7.1c0.3,3.6,0.6,5.8,1,7.2c0.4,1.4,1,2.1,1.9,2.1c1,0,1.6-0.9,1.4-3.5
				C117.8,25.1,117.8,24.8,117.7,24.2z"/>
			<path class="st0" d="M148.7,27.9c1,0,1.4,0.4,1.5,1.3c0.4,3.5,0.7,5.3,1.1,8.9c0.1,0.9-0.2,1.3-1.2,1.4
				c-6.3,0.1-9.3,0.1-15.4,0.1c-1,0-1.4-0.4-1.5-1.3c-1.6-15.2-2.4-22.7-3.8-36.3c-0.1-0.8,0.2-1.2,1.1-1.2c5.7,0,8.6,0,14.7,0
				c1,0,1.4,0.4,1.5,1.2c0.4,3.1,0.6,4.8,1,8c0.1,0.9-0.2,1.2-1.2,1.2c-2,0-3,0-4.9,0c-0.9,0-1.3,0.3-1.2,1.2c0,0.4,0.1,0.6,0.1,0.9
				c0.1,0.9,0.5,1.2,1.4,1.2c1.5,0,2.2,0,3.7,0c1,0,1.4,0.4,1.5,1.2c0.4,2.9,0.5,4.4,0.9,7.3c0.1,0.9-0.2,1.3-1.2,1.3
				c-1.5,0-2.3,0-3.7,0c-1,0-1.3,0.4-1.2,1.3c0,0.4,0.1,0.6,0.1,1c0.1,0.9,0.5,1.3,1.5,1.2C145.7,27.9,146.7,27.9,148.7,27.9z"/>
		</g>
		<g>
			<path class="st1" d="M22.5,83.9c1.2,0,1.6,0.4,1.5,1.5c-0.4,4.4-0.7,6.7-1.1,11.2c-0.1,1.1-0.6,1.5-1.8,1.5c-7.8,0-11.7,0-19.5,0
				c-1.2,0-1.6-0.4-1.5-1.5C1.9,78.6,2.9,70,4.9,52.6c0.1-1.1,0.6-1.5,1.8-1.5c4.1,0,6.2,0,10.3-0.1c1.2,0,1.6,0.4,1.5,1.5
				c-1.3,11.9-2,17.9-3.3,29.9c-0.1,1.1,0.3,1.5,1.5,1.5C19,83.9,20.2,83.9,22.5,83.9z"/>
			<path class="st1" d="M50.4,84.5c1.2,0,1.6,0.5,1.5,1.6c-0.2,4.2-0.4,6.2-0.6,10.4c-0.1,1.1-0.5,1.5-1.8,1.5c-7.7,0-11.5,0-19.1,0
				c-1.2,0-1.6-0.5-1.5-1.6c1.6-17.7,2.4-26.5,4.1-44c0.1-1.1,0.6-1.5,1.7-1.5c7.2,0,10.8-0.1,17.8-0.1c1.1,0,1.5,0.5,1.4,1.5
				c-0.3,4.1-0.4,6.2-0.6,10.4c-0.1,1.1-0.5,1.6-1.7,1.6c-2.3,0-3.5,0-5.8,0c-1.1,0-1.6,0.4-1.7,1.5c0,0.5-0.1,0.7-0.1,1.1
				c-0.1,1.1,0.3,1.5,1.5,1.5c1.8,0,2.7,0,4.5,0c1.1,0,1.5,0.5,1.5,1.6c-0.2,3.6-0.3,5.3-0.6,8.9c-0.1,1.1-0.5,1.6-1.7,1.6
				c-1.8,0-2.7,0-4.5,0c-1.2,0-1.6,0.4-1.7,1.5c0,0.5-0.1,0.7-0.1,1.1c-0.1,1.1,0.3,1.5,1.5,1.5C46.8,84.5,48,84.5,50.4,84.5z"/>
			<path class="st1" d="M77.3,84c-1.6-2.6-2.5-3.9-4.1-6.5c-0.3-0.5-0.6-0.6-0.9-0.6c-0.4,0-0.7,0.4-0.7,0.9
				c-0.2,7.5-0.2,11.2-0.4,18.6c0,1.1-0.5,1.5-1.7,1.5c-3.9,0-5.8,0-9.6,0c-1.2,0-1.6-0.5-1.6-1.5c0.8-17.6,1.2-26.5,2.1-44.2
				c0.1-1.1,0.5-1.6,1.6-1.6c2.2,0,3.3,0,5.5,0c1.6,0,2,0.4,2.9,1.8c2.8,4.6,4.2,6.9,7.1,11.5c0.3,0.5,0.6,1,1.1,0.9
				c0.5,0,0.8-0.4,1.1-1c3-4.6,4.4-7,7.3-11.6c0.9-1.4,1.3-1.8,2.9-1.9c2.2,0,3.3,0,5.5,0c1.1,0,1.5,0.5,1.6,1.6
				c0.6,17.8,1,27,1.5,44.4c0,1.1-0.4,1.5-1.6,1.5c-3.9,0-5.8,0-9.6,0c-1.2,0-1.7-0.5-1.7-1.5c0-7.4-0.1-11.1-0.1-18.6
				c0-0.5-0.3-1-0.7-1c-0.3,0-0.5,0.1-0.9,0.6c-1.6,2.6-2.5,3.9-4.1,6.5c-0.3,0.5-0.7,0.7-1.2,0.7C78,84.7,77.6,84.5,77.3,84z"/>
			<path class="st1" d="M134.7,74.4c1.9,18.9-2.7,24.3-13.8,24.3c-11.1,0-16.4-5.5-17.3-24.3c-0.9-18.8,3.4-24.7,13.6-24.7
				C127.3,49.6,132.7,55.5,134.7,74.4z M121.8,74.4c-0.8-9.4-1.7-10.9-3.6-10.9c-1.9,0-2.6,1.5-1.9,10.9c0.7,9.4,1.6,10.8,3.6,10.8
				C121.9,85.2,122.6,83.8,121.8,74.4z"/>
			<path class="st1" d="M156.1,83.3c-0.4-0.8-0.7-1.2-1.2-1.2c-0.5,0-0.8,0.3-0.7,1c0.7,5.5,1,8.2,1.6,13.5c0.1,1.1-0.3,1.5-1.5,1.5
				c-3.9,0-5.8,0-9.7,0c-1.2,0-1.7-0.5-1.8-1.5c-1.8-17.3-2.9-26.6-4.9-44.7c-0.1-1.1,0.2-1.6,1.4-1.6c2.3,0,3.5,0,5.9,0
				c1.7,0,2.5,0.3,3.3,1.8c2.8,5.4,4.2,8.1,7.1,13.5c0.4,0.8,0.7,1.2,1.2,1.2c0.5,0,0.8-0.3,0.7-1c-0.7-5.6-1.1-8.4-1.8-14
				c-0.1-1.1,0.2-1.6,1.4-1.6c3.8,0,5.7,0,9.5-0.1c1.2,0,1.7,0.5,1.9,1.6c2.4,18.2,3.7,27.8,5.9,44.9c0.1,1-0.3,1.5-1.5,1.5
				c-2.5,0-3.7,0-6.2,0c-1.7,0-2.5-0.3-3.5-1.8C160.4,91.1,159,88.5,156.1,83.3z"/>
		</g>
	</g>
</g>
</svg>
