<svg xmlns="http://www.w3.org/2000/svg" viewBox="0 0 178.95 156.54"><g id="Calque_2" data-name="Calque 2"><g id="Layer_1" data-name="Layer 1"><path d="M2.53,25.81c-.17,6.49-.42,13-.88,19.47-.23,3.2-.5,6.39-.82,9.59S-.25,61.48.08,64.68a2,2,0,0,0,4,.54c1.06-3.07,1-6.65,1.24-9.86s.4-6.56.53-9.84C6.1,39,6.17,32.38,6,25.81a1.72,1.72,0,0,0-3.44,0Z"/><path d="M5.52,30c-1-.24-1.34-.21-1,.06a.66.66,0,0,1,.22.32c.06.2.21.45.28.66.28.86.45,1.77.68,2.65L7,39,9.75,49.61c1.8,7.08,3.72,14.16,5.25,21.31a2.48,2.48,0,0,0,2.36,1.8,2.56,2.56,0,0,0,2.37-1.8C23,62,26.11,53,29.6,44.1s7.14-17.52,11-26.14c2.25-5,4.48-10,6.54-15.13,1-2.42-2.94-4-4.17-1.76a264.23,264.23,0,0,0-12.17,26.3Q25.27,40.66,20.35,54.2C18.5,59.31,16.61,64.43,15,69.62h4.73C17.09,61.39,14.91,53,12.59,44.69L9.1,32.2c-.48-1.73-.75-3.65-2.35-4.73a2.43,2.43,0,0,0-3.66.63C2.24,29.58,4.31,31.29,5.52,30Z"/><path d="M35.39,41.69c-1.07,4.62-2,9.27-3,13.91A137.86,137.86,0,0,0,30,69.69c-.23,2.23,3.27,2.6,3.83.52a133.38,133.38,0,0,0,2.64-13.75c.75-4.63,1.51-9.25,2.14-13.89a1.72,1.72,0,0,0-1.16-2,1.68,1.68,0,0,0-2,1.16Z"/><path d="M63,47.26c-1.45-2.58-4.77-1.63-6.64-.15a21.42,21.42,0,0,0-5.84,6.45c-2.73,5.24-1.68,12.61,4.33,14.93a7.81,7.81,0,0,0,8.55-1.84,2.55,2.55,0,0,0,0-3.53,2.51,2.51,0,0,0-3.53,0c-.08.08-.72.68-.28.34a4.72,4.72,0,0,1-.72.43c.51-.26-.27.08-.4.11a3.15,3.15,0,0,1-.42.09c.31,0,.32,0,0,0s-.43,0-.65,0a3.11,3.11,0,0,1-.43,0c.28,0,.28,0,0,0l-.84-.24c-.27-.1-.28-.1,0,0l-.39-.21c-.08,0-.64-.43-.48-.3s-.36-.37-.42-.42c-.18-.22-.21-.25-.1-.1a3.51,3.51,0,0,1-.27-.4,5.89,5.89,0,0,1-.47-.85c.12.27-.16-.51-.18-.6s-.12-.47-.17-.71-.06-.33,0-.14c0-.16,0-.33,0-.49,0-.33,0-.67,0-1a12.51,12.51,0,0,1,2.83-6.47A15.23,15.23,0,0,1,59,49.42a6.13,6.13,0,0,1,1.37-.76l.38-.11c.24,0,.24-.07,0-.07a1.22,1.22,0,0,1,.32.29c.89,1.15,2.63-.32,2-1.51Z"/><path d="M76.73,59c.67-1.37,2.07-2.15,3-3.32A5.41,5.41,0,0,0,81.06,51a4.1,4.1,0,0,0-4.77-2.67,6.66,6.66,0,0,0-4.23,3.2,13.07,13.07,0,0,0-1.66,9.76,10.05,10.05,0,0,0,6.33,7.24,9.19,9.19,0,0,0,9.9-2.16,2.52,2.52,0,0,0-3.57-3.57c-.16.18-.33.34-.51.51-.36.34.09-.05.09-.07s-.29.2-.36.25-.75.41-.41.23,0,0-.1,0l-.42.13c-.12,0-.6.21-.7.15.07,0,.53,0,.15,0l-.45,0-.73,0c-.09,0-.49,0-.11,0s-.1,0-.2,0c-.51-.09-1-.27-1.49-.41-.33-.09.39.22.09,0-.1-.06-.22-.11-.32-.16-.25-.13-.47-.28-.71-.42s0,0,.07.06a3.11,3.11,0,0,1-.28-.23,6.35,6.35,0,0,1-.58-.58c0-.06-.3-.39-.12-.15s-.07-.11-.11-.17a7.83,7.83,0,0,1-.47-.79l-.17-.36c.21.44,0,0,0-.09a7.75,7.75,0,0,1-.24-.78c-.07-.27-.11-.54-.17-.8s0,.37,0,0c0-.17,0-.34,0-.52a12.94,12.94,0,0,1,.06-1.76c0-.36-.08.34,0,0,0-.14,0-.28.08-.41.06-.31.14-.61.23-.92s.19-.59.3-.88-.13.28,0-.05l.18-.37c.13-.26.26-.51.4-.75s.15-.26.23-.38l.18-.28h0l.3-.32s.37-.29.21-.19.2-.1.24-.12c.29-.14-.24.08.07,0s-.28,0,0,0c0,0,.44,0,.22,0s.28,0,.07,0,.14,0,.1.08.09.13,0,0,.07.29,0,0a1.06,1.06,0,0,1-.06.7,2.86,2.86,0,0,1-.8,1.27,12.62,12.62,0,0,0-2.77,3.36,1.6,1.6,0,0,0,.56,2.11A1.56,1.56,0,0,0,76.73,59Z"/><path d="M50.37,85.47l.37-1.87A1.11,1.11,0,0,0,48.6,83a52.58,52.58,0,0,0-2.86,11.48q-.47,2.94-.65,5.93c-.12,1.85-.52,4.2.34,5.9a1.63,1.63,0,0,0,2.8,0c.79-1.75.39-4,.44-5.9s.16-3.67.31-5.49c.3-3.84,1.12-7.55,1.76-11.33L48.6,83l-.34,1.88c-.24,1.37,1.84,2,2.11.58Z"/><path d="M32.11,94.51A225,225,0,0,1,63.17,79.78c2.22-.89,1.4-4.42-1-3.69A124.94,124.94,0,0,0,30.28,91.38c-2,1.26-.2,4.33,1.83,3.13Z"/><path d="M67.36,93.83c-3.33,1-7.1,2.37-8.83,5.67a7.49,7.49,0,0,0-.76,5.25,5.9,5.9,0,0,0,3.52,4c3.91,1.65,7.78-.66,10.5-3.39,1.42-1.44,3-3,3.59-5a6.44,6.44,0,0,0-1.23-5.74,8.69,8.69,0,0,0-5.86-3.26,14.06,14.06,0,0,0-3.55,0,9.28,9.28,0,0,0-2,.35c-.69.25-1.36.56-2,.85a2.11,2.11,0,0,0-1,2.4,2.16,2.16,0,0,0,2,1.56,19.47,19.47,0,0,0,3-.25c.38-.08.76-.15,1.15-.2-.11,0-.43,0,.05,0,.31,0,.61,0,.92,0a10.94,10.94,0,0,1,1.15,0c-.41,0,0,0,0,0,.23,0,.46.09.68.16l.43.14c.34.09-.46-.27,0,0a8.38,8.38,0,0,1,1,.59c-.39-.3-.06,0,0,0l.33.33c.07.08.4.55.1.1l.2.3c.09.16.17.32.25.48-.21-.4-.06-.19,0,0s.17.39.13.5c0-.28,0-.34,0-.16a2.17,2.17,0,0,1,0,.26c0,.16-.12.62,0,.11,0,.12-.07.25-.1.38-.11.54.2-.25-.09.22a4,4,0,0,1-.26.45c-.09.15-.19.29-.29.43.25-.35-.17.19-.18.21-.25.3-.51.59-.77.88-.49.56-1,1.11-1.54,1.63-.25.24-.52.48-.78.71-.5.44.16-.11-.16.12a6.58,6.58,0,0,1-.61.42,7.4,7.4,0,0,1-.92.5c.37-.17,0,0-.1,0l-.44.14-.54.13c-.07,0-.4.06,0,0a8.09,8.09,0,0,1-1.1,0c-.55,0,.36.11-.18,0l-.35-.09s-.56-.24-.19,0l-.32-.17s-.47-.36-.19-.11l-.32-.31c-.21-.22.2.35-.07-.09a4.21,4.21,0,0,1-.29-.51c-.12-.26.08.39,0-.1,0-.17-.08-.33-.12-.49s0-.35,0,0c0-.17,0-.35,0-.52s0-.23,0-.35.07-.58,0-.23a6.33,6.33,0,0,1,.26-1,4.9,4.9,0,0,1,.84-1.47,8.34,8.34,0,0,1,1.65-1.49,25.53,25.53,0,0,1,4.32-2.22c1.2-.52.34-2.49-.89-2.1Z"/><path d="M93.41,106.15c1.94-5.72,4.12-11.79,7.4-16.89l-3.62-1c0,3.13.15,6.21,0,9.34a2.31,2.31,0,0,0,1.69,2.22c3.41.66,6-1.85,7.29-4.75,1.58-3.44,3.06-6.92,4.59-10.38l-4.8-1.3c.14,4,.43,8,.94,12,.26,2,.55,4,.9,6a16.64,16.64,0,0,0,1.9,6.11,2.29,2.29,0,0,0,4.23-1.14,20.43,20.43,0,0,0-.7-6q-.57-2.85-1-5.73a110.37,110.37,0,0,1-1.12-11.32,2.66,2.66,0,0,0-1.89-2.49,2.59,2.59,0,0,0-2.91,1.19l-3.7,8.66A28.47,28.47,0,0,1,101,94.18c-.49.82-.78,1.23-1.54,1.14l2.3,2.3a53.19,53.19,0,0,0-.74-9.85,2,2,0,0,0-1.87-1.43,2,2,0,0,0-1.87,1.43c-1.14,2.91-2.44,5.75-3.45,8.72a66.73,66.73,0,0,0-2.36,9.12,1,1,0,0,0,2,.54Z"/><path d="M122.38,101.13c2.4-1.24,5.06-2.94,5.57-5.82s-1.12-5.8-4.23-6c-3.46-.17-5.55,3-6.82,5.71-.85,1.86-1.26,3.72-.38,5.65a10.55,10.55,0,0,0,2.88,3.46,20.93,20.93,0,0,0,9.6,4.68,2.46,2.46,0,0,0,1.31-4.75,18.75,18.75,0,0,1-3.37-.87l-.69-.27s.26.11,0,0l-.45-.21a16,16,0,0,1-1.53-.83c-.46-.28-.91-.58-1.34-.9l-.16-.12-.25-.2-.65-.57a14.72,14.72,0,0,1-1.18-1.19c.19.22-.14-.21-.18-.29s-.17-.33-.09-.14-.07-.34,0-.09a6.31,6.31,0,0,1,.78-2.72,6.14,6.14,0,0,1,1.63-2.46,1.57,1.57,0,0,1,1.77-.24,2.11,2.11,0,0,1,.37.47,2.42,2.42,0,0,1,.19,1.07c0,2.14-2.36,3.53-3.93,4.6a1.16,1.16,0,0,0,1.17,2Z"/><path d="M136.87,100.87a16.22,16.22,0,0,0,6.82-9.56,1.69,1.69,0,0,0-1.17-2.07,8.53,8.53,0,0,0-6.68,1.85,9.94,9.94,0,0,0-3.59,6.3,15.54,15.54,0,0,0,1,8,7,7,0,0,0,2.66,3.57,9.7,9.7,0,0,0,3.77,1c1.6.21,3.21.37,4.83.42a29.21,29.21,0,0,0,5.11-.43,2.18,2.18,0,0,0,1.58-2.42,2.21,2.21,0,0,0-2.16-1.92,72.55,72.55,0,0,1-8.72-.44A13,13,0,0,1,139,105a4.1,4.1,0,0,1-.5-.14c.14.07.14.06,0,0s-.15-.08-.05,0a4.4,4.4,0,0,1-.38-.37,9.83,9.83,0,0,1-1.13-2.83,8.6,8.6,0,0,1,.49-6.36,5.2,5.2,0,0,1,4.67-2.71l-1.62-2.13a13.24,13.24,0,0,1-4.86,8.25,1.33,1.33,0,0,0-.45,1.74,1.28,1.28,0,0,0,1.73.46Z"/><path d="M162.53,77.28a2,2,0,0,1-.05-.88,1.4,1.4,0,0,0-2.74-.37,51.88,51.88,0,0,0-.81,9c-.14,3.11-.16,6.23-.05,9.34s.36,6.05.67,9.06.47,6.37,2.23,9c.64.95,2.48,1,2.71-.36.52-3-.28-5.81-.8-8.73s-.86-6-1.1-9-.37-5.9-.38-8.86.36-6.08.27-9.09l-2.6.7a5.12,5.12,0,0,1,.24.85c.35,1.59,2.67.89,2.41-.67Z"/><path d="M158,96c6.48-2.28,13-4.43,19.41-7a2.1,2.1,0,0,0,1.42-2.5,2.06,2.06,0,0,0-2.5-1.42c-6.51,2.2-12.91,4.78-19.34,7.22a2,2,0,0,0-1.32,2.33A1.9,1.9,0,0,0,158,96Z"/><path d="M90.73,122.35c-1.18,1.49-1.77,3.64-2.47,5.4-.76,1.92-1.53,3.84-2.26,5.78s-1.37,3.75-2,5.64a34.39,34.39,0,0,0-1.67,6,2.27,2.27,0,0,0,4.37,1.21,51.68,51.68,0,0,0,1.56-5.77c.48-1.93,1-3.85,1.54-5.76s1.12-3.82,1.77-5.7,1.65-3.75,1.84-5.65a1.58,1.58,0,0,0-2.67-1.1Z"/><path d="M75.17,116.39A63.36,63.36,0,0,0,77.84,128q.9,2.73,2,5.38a19,19,0,0,0,1.34,2.93,21,21,0,0,0,2,2.45,1.61,1.61,0,0,0,2.68-1.56c-.3-1-.58-1.92-1-2.85s-.86-1.7-1.29-2.54c-.82-1.63-1.58-3.28-2.26-5A81.74,81.74,0,0,1,78,116c-.38-1.52-3-1.25-2.8.37Z"/><path d="M106.51,132.53a5.57,5.57,0,0,0-4.53-3.64,6.83,6.83,0,0,0-6.22,2.43,12.11,12.11,0,0,0-1.49,12.8c2.17,4.4,7.47,5.79,11.8,3.9s6.33-7.41,4.69-11.81a9.86,9.86,0,0,0-5.52-5.71,10.66,10.66,0,0,0-3.82-.84,7.25,7.25,0,0,0-4,1,2.23,2.23,0,0,0-1,2.47,2.18,2.18,0,0,0,2.11,1.61c.72-.09,1.46-.07,2.18-.1a9.89,9.89,0,0,1,1.22,0c-.64,0,0,0,.14,0s.39.09.59.15.39.12.58.18c.62.2-.43-.25.14.06.3.17.6.32.88.5.09.06.6.47.15.08.15.13.3.26.45.41s.28.29.41.44c.43.46-.23-.41.11.13a9.66,9.66,0,0,1,.6,1.09c-.24-.55.1.4.14.57a6,6,0,0,1,.13.61c-.13-.62,0,0,0,.15a8.58,8.58,0,0,1,0,1.24c0-.63,0,0,0,.14s-.1.4-.16.6a5.66,5.66,0,0,1-.2.58c0-.09.23-.43,0,0a5.79,5.79,0,0,1-.31.54c0,.09-.47.59-.09.16a9.18,9.18,0,0,1-.83.82c.47-.4,0,0-.12.06s-.33.2-.51.29c0,0-.59.27-.23.12s-.23.08-.24.08a7.58,7.58,0,0,1-1.14.28c.57-.11.14,0,0,0s-.45,0-.68,0l-.58-.05c.64.07,0,0-.11,0s-1-.36-.52-.13a7.59,7.59,0,0,1-1-.57c.4.27.05,0,0,0s-.32-.31-.48-.47-.42-.57-.1-.12c-.11-.15-.22-.31-.32-.47s-.31-.56-.44-.85c.23.51,0-.09,0-.17s-.12-.37-.17-.56l-.09-.38c0-.11-.13-.93-.07-.36a12.32,12.32,0,0,1,0-2.19c0,.54,0-.1,0-.18a5.41,5.41,0,0,1,.12-.58,11.74,11.74,0,0,1,.37-1.19c.23-.63-.2.32.12-.27.12-.23.23-.45.37-.67s.19-.31.29-.46l0-.07.28-.33.44-.46s.49-.41.23-.22c.17-.12.36-.22.54-.33s.25-.13,0,0c.11-.05.23-.08.34-.12s.62-.13.2-.07a4.89,4.89,0,0,1,.54,0s.61.05.23,0a3.4,3.4,0,0,1,.7.17c.34.12.14.06.07,0s.53.35.38.22a1.73,1.73,0,0,1,.54.79c.73,1.65,3.51.47,2.93-1.24Z"/><path d="M117.05,132.11a17,17,0,0,0-.68,2.54,8.77,8.77,0,0,0,.09,2.8,15.13,15.13,0,0,0,10.06,12.09,2.15,2.15,0,0,0,2.11-.56c3.88-4.23,5.46-11.29,3.23-16.67a2.41,2.41,0,0,0-4.64,1.28c.18.6.3,1.2.42,1.81.07.31.13.61.19.91s0,.31,0,0c0,.16,0,.31.05.47,0,.61.07,1.23.06,1.85q0,.47-.06.93c0,.16,0,.31,0,.46,0-.21,0-.23,0-.05a14.34,14.34,0,0,1-1,3.46c.14-.33-.21.44-.24.51-.14.28-.29.55-.45.82q-.46.79-1,1.56l2.45-1a9,9,0,0,1-3.78-1.71,10.82,10.82,0,0,1-1.48-1.3,11,11,0,0,1-1.33-1.66,12.08,12.08,0,0,1-1.71-3.93,13.91,13.91,0,0,1-.44-4.4c.1-1.13-1.54-1.21-1.88-.25Z"/><path d="M147,120.62a106.91,106.91,0,0,0,.85,22.33,2.21,2.21,0,0,0,2.69,1.53,2.24,2.24,0,0,0,1.53-2.7,121.93,121.93,0,0,1-1.94-21.16c0-2-3-2-3.13,0Z"/><path d="M148.09,156.54c3,0,3-4.73,0-4.73s-3.05,4.73,0,4.73Z"/></g></g></svg>