<svg xmlns="http://www.w3.org/2000/svg" viewBox="0 0 555.2 193.89"><defs><style>.cls-1{fill:#ffe600;}</style></defs><g id="Calque_2" data-name="Calque 2"><g id="_Calque_" data-name="&lt;Calque&gt;"><path class="cls-1" d="M207.1.62A272.78,272.78,0,0,0,83,21.2C49.16,35.51,6.05,59.48.52,99.84c-5.87,42.86,39,63.27,72.81,73.61,43.79,13.4,90.29,16.73,135.79,19,94,4.61,189.32-1.16,281.27-22,18.89-4.29,39.21-10.19,53-24.68,6.38-6.73,11.07-15.23,11.75-24.6.74-10.29-3.48-20.43-9.26-28.73-23-32.89-65.08-46.34-102-56.07C355.21,13,261.41,12.2,170.49,17.78q-16.89,1-33.78,2.34c-6,.46-6.13,9.74,0,9.45,86.37-4.18,173.34-8.55,259,6.44a544.65,544.65,0,0,1,61.62,14.38C475.22,55.71,493,62.11,509,71.88c15.16,9.27,32.55,23.76,36,42.19,3.8,20.26-17.13,34-33.42,40.1-19.45,7.24-40.65,10.58-61,14.25q-32.61,5.88-65.56,9.44a1092.67,1092.67,0,0,1-133.28,6.07c-43.49-.6-87.62-2.54-130.6-9.53-21-3.42-41.87-8.35-61.81-15.88C43.23,152.47,25.75,143.86,16,129.08c-11-16.71-7.27-37.35,3.5-53.17s27.31-26.84,43.58-36.1A254,254,0,0,1,177.68,6.94a267.38,267.38,0,0,1,29.42.5c4.38.32,4.37-6.53,0-6.82Z"/></g></g></svg>