<?xml version="1.0" encoding="utf-8"?>
<!-- Generator: Adobe Illustrator 25.1.0, SVG Export Plug-In . SVG Version: 6.00 Build 0)  -->
<svg version="1.1" id="Calque_1" xmlns="http://www.w3.org/2000/svg" xmlns:xlink="http://www.w3.org/1999/xlink" x="0px" y="0px"
	 viewBox="0 0 315.1 97.4" style="enable-background:new 0 0 315.1 97.4;" xml:space="preserve">
<g>
	<g>
		<g>
			<path d="M17.7,14.7C15,30.6,13.1,47,9.4,62.7c-1,4.2,5.7,5.2,5.9,0.8C16.3,47.4,19,31.2,21,15.1C21.2,13.3,18,12.9,17.7,14.7
				L17.7,14.7z"/>
		</g>
	</g>
	<g>
		<g>
			<path d="M4.5,24C3.5,18.5,2.3,11.3,7.1,7.1C11.2,3.5,17.5,5.3,22,7.2c11.9,5,10.5,16.5,2.3,24.4c-5.3,5.1-11.6,9.1-9.5,17.5
				c2,8,9.5,11.9,16.5,14.8c4.3,1.8,6.8-4.1,2.5-5.9C28.6,56,21.4,53,20.7,46.6C20.1,40.9,27.8,37,31.1,33c5.6-6.9,8.3-17.2,2-24.6
				C27.7,2.1,16-2,8.1,1c-9.9,3.8-8.7,15.5-6.8,23.8C1.8,27,4.8,26.1,4.5,24L4.5,24z"/>
		</g>
	</g>
	<g>
		<g>
			<path d="M49.6,50.9c8.6,2.1,17.2-1.2,22.3-8.4c0.8-1.1,0.2-2.8-0.9-3.5c-9-5.6-23-1.3-23.8,10.4c-0.4,5.4,2.9,10,7.6,12.5
				c6.1,3.2,12.9,2.1,19.3,0.9c4.2-0.8,2.4-7-1.7-6.3c-5.8,1-17.5,2.6-18.9-5.7c-1.4-8.4,9.3-10.8,14.9-7.5
				c-0.3-1.2-0.6-2.3-0.9-3.5c-3.7,5.7-10.2,8.6-17,7.3C48.2,46.9,47.2,50.3,49.6,50.9L49.6,50.9z"/>
		</g>
	</g>
	<g>
		<g>
			<path d="M91.8,42.9c-3.8,2-7.8,4.4-9.2,8.8c-1.2,3.7,0.4,7.8,3.9,9.6c9.5,4.8,14.7-12.4,16.1-18.6c0.7-3.2-3.9-5.5-5.5-2.3
				c-5.4,10.7,4.2,21.7,14.7,23.8c2.2,0.4,4.4-2.4,2.4-4.1c-4.7-4-16.3-8.4-11.9-16.6c-1.8-0.8-3.7-1.5-5.5-2.3
				c-1,3.9-2.3,7.7-4.3,11.2c-0.4,0.8-0.9,1.6-1.5,2.3c-1.3,2.4-2.4,1.1-3.2-3.8c0.7-2.2,3.8-3.9,5.6-5.1
				C94.9,44.4,93.5,41.9,91.8,42.9L91.8,42.9z"/>
		</g>
	</g>
	<g>
		<g>
			<path d="M134.8,41.4c-2.3-1.1-3.3-2.4-6.1-2.5c-2.1-0.1-4.1,0.4-6,1.5c-4.3,2.4-6.8,7.1-6.6,12c0.5,10.9,13,16.9,21.9,10.8
				c3.7-2.5,0.3-8.5-3.6-6.1c-5.1,3.3-12,0.7-12.4-5.7c-0.2-3.1,1.2-5.8,3.8-7.4c2-1.2,6.1-2.9,8.5-2C134.8,42,135,41.5,134.8,41.4
				L134.8,41.4z"/>
		</g>
	</g>
	<g>
		<g>
			<path d="M148.2,11c-1.6,13.2-2.1,26.4-1.4,39.7c0.2,3.4,5.7,3.3,5.3,0c-1.4-13.2-1.8-26.4-1.2-39.7C151,9.2,148.4,9.3,148.2,11
				L148.2,11z"/>
		</g>
	</g>
	<g>
		<g>
			<path d="M150.1,40c5.4-3.4,11.6-0.4,12.3,5.9c0.3,3.4-1.1,6.7-0.6,10.1c0.7,4.7,4.5,8.5,9.5,6.8c2.8-1,1.7-4.8-1.2-4.4
				c-5.6,0.8-3.3-9.7-3.5-12.5c-0.3-2.9-1.4-5.6-3.6-7.5c-4.1-3.5-9.8-2.9-13.8,0.3C148.4,39.3,149.3,40.4,150.1,40L150.1,40z"/>
		</g>
	</g>
	<g>
		<g>
			<path d="M210.4,38.2c-7.8-5-18.5-1.1-20.5,8.2c-2.1,10,6.9,17.4,16.3,17.4c8.9,0,22.8-6.5,24.2-16.4
				c1.5-11.4-13.1-17.1-22.2-14.6c-2.8,0.8-2.9,5,0,5.8c4.9,1.4,14.1-0.4,15.6,6.4c1.3,6.1-8.9,10.8-13.5,12c-5.3,1.4-13,0.1-14.8-6
				c-2.4-8.2,6.4-13.6,13.3-10C210.6,42.1,212.2,39.4,210.4,38.2L210.4,38.2z"/>
		</g>
	</g>
	<g>
		<g>
			<path d="M239,36.2c-2.4,4.5-5,9.5-3.6,14.7c1,3.8,4.1,7.4,8.2,7.9c10.9,1.2,15.5-13.9,13.6-22.1c-0.8-3.4-5.6-1.9-5.2,1.4
				c0.7,4.8-1.3,15.4-7.8,15.3c-7.9,0-4.1-12.1-2.6-16.1C242.2,35.8,239.8,34.8,239,36.2L239,36.2z"/>
		</g>
	</g>
	<g>
		<g>
			<path d="M276.5,13.1c-8,9.9-12.9,22.1-12.4,35c0.2,4.9,1.4,10.3,5.7,13.2c3.6,2.4,8.3,2.4,11.2-1c1.5-1.7-0.4-4.2-2.4-3.1
				c-10.8,5.8-9.8-14.6-9-19.8c1.2-8.2,4.2-16,8.8-22.8C279.2,13.4,277.4,12,276.5,13.1L276.5,13.1z"/>
		</g>
	</g>
	<g>
		<g>
			<path d="M269.1,37.9c3.2-0.4,6.5-0.8,9.7-1.2c3.1-0.4,2.5-4.7-0.6-4.2c-3.2,0.5-6.5,1-9.7,1.5C266.4,34.3,266.9,38.2,269.1,37.9
				L269.1,37.9z"/>
		</g>
	</g>
	<g>
		<g>
			<path d="M311.5,11.4c-2,11.7-4,23.3-5.5,35.1c-0.3,2.5,4.1,3.1,4.5,0.6c1.8-11.7,3.2-23.4,4.6-35.2
				C315.3,9.9,311.9,9.4,311.5,11.4L311.5,11.4z"/>
		</g>
	</g>
	<g>
		<g>
			<path d="M309,73.8c4.1,0,4.1-6.4,0-6.4C304.9,67.4,304.9,73.8,309,73.8L309,73.8z"/>
		</g>
	</g>
	<g>
		<g>
			<path d="M2.2,97.4c77.9-2.3,155.9-4.1,233.8-6.5c22-0.7,44-1.4,65.9-2c4-0.1,4-6.4,0-6.2c-77.9,2.7-155.8,5.4-233.8,8.3
				c-22,0.8-44,2.1-65.9,2.9C-0.1,93.9-0.2,97.5,2.2,97.4L2.2,97.4z"/>
		</g>
	</g>
</g>
</svg>
