<?xml version="1.0" encoding="utf-8"?>
<!-- Generator: Adobe Illustrator 25.1.0, SVG Export Plug-In . SVG Version: 6.00 Build 0)  -->
<svg version="1.1" id="Calque_1" xmlns="http://www.w3.org/2000/svg" xmlns:xlink="http://www.w3.org/1999/xlink" x="0px" y="0px"
	 viewBox="0 0 399.7 60.9" style="enable-background:new 0 0 399.7 60.9;" xml:space="preserve">
<style type="text/css">
	.st0{fill:#FEE100;}
	.st1{fill:#FFFFFF;}
</style>
<g>
	<g>
		<path class="st0" d="M68.3,41.7c0.5,0.4,1.1,0.8,1.6,1.2c-0.7-0.5-1.3-1-2-1.6c1.7,1.4,3.3,2.5,5.5,3c0.9,0.2,1.7,0.3,2.6,0.4
			c2.5,0.4,5,0.9,7.6,0.8c3.5,0,7-0.1,10.4,0c-1.1-0.1-2.2-0.3-3.3-0.4c2.2,0.3,4,1.1,6.4,1.2c1,0.1,2,0.1,3.1,0.1
			c2.5,0.1,4.9,0.2,7.4,0.3c4.7,0.2,9.4,0.4,14.1,0.4c9.4,0.1,18.8,0.4,28.3,0.5c9.4,0.1,18.9-0.1,28.3-0.1
			c9.4,0.1,18.9,0.2,28.3,0.3c37.6,0.4,75.2,2.1,112.6,5c21.2,1.6,42.3,3.6,63.4,6c4.1,0.5,9.4-2.2,12.1-5c3-3,5.2-7.9,5-12.1
			c-0.2-4.4-1.7-9-5-12.1c-1.2-0.9-2.3-1.8-3.5-2.7c-2.7-1.6-5.6-2.3-8.7-2.3c-37.1-4.1-74.2-7.1-111.5-8.9
			c-37.1-1.8-74.2-2.3-111.3-1.3c-10.5,0.3-20.9,1-31.3,1.9c-5.1,0.4-10.3,0.7-15.4,1.4c-6.3,0.8-12.6,1.7-18.9,2.6
			c1.2-0.2,2.4-0.3,3.5-0.5c-3,0.3-5.1,0.7-7.8,2.1c1-0.4,2.1-0.9,3.1-1.3c-0.8,0.3-1.5,0.6-2.3,0.8c1.1-0.1,2.2-0.3,3.3-0.4
			c-3.9,0.5-7.8,0.8-11.7,1.3c-1.8,0.2-3.5,0.4-5.2,0.9c-0.9,0.3-1.7,0.5-2.6,0.8c-2.3,0.7-4.5,1.4-6.3,3.2
			c-0.6,0.5-1.1,1.1-1.6,1.6c-1.9,1.9-2.6,4.4-2.3,7C64.7,38.3,66.1,40,68.3,41.7L68.3,41.7z"/>
	</g>
</g>
<g>
	<g>
		<path class="st1" d="M84,36.6L84,36.6C82.6,29.3,69.7,22.8,64.9,21c-0.5-0.2-0.9-0.6-1-1.1c-1.2-4-3.3-7.2-6.6-10.1
			c0,0-0.1-0.1-0.1-0.2c0-0.1,0-0.1,0-0.2c0.1-4-2.4-7.9-6.3-9.1C47-0.8,43.2,1,40.9,4.1c-0.1,0.1-0.2,0.2-0.2,0.2s0,0-0.1,0
			c-0.2,0.1-0.4,0.1-0.5,0.1l0,0c-5.4,0.8-10,2.6-13.8,6.2c-0.4,0.4-1,0.5-1.6,0.4C7.5,6.5,2,11.2,0.4,15.3C-1.5,20,3.5,26.7,8.9,31
			c2.4,1.9,5.1,3.8,8.1,5.5c0.4,0.2,0.7,0.6,0.8,1.1c0.2,0.7,0.3,1.5,0.6,2.2c1.3,4.2,3.6,8.1,6.8,11c0.2,0.2,0.4,0.6,0.4,0.9
			c0,3.9,2.5,7.6,6.3,8.8c3.9,1.2,7.7-0.7,10-3.8c0.3-0.4,0.7-0.3,1.1-0.4c5.7-0.9,10.6-3.7,14.4-7.7c0.3-0.4,0.8-0.6,1.3-0.5
			c1.9,0.1,3.9,0.2,5.9,0.2c0.6,0,1.1,0,1.7,0c4.9-0.1,10-0.6,13.7-3C83.2,43.4,84.6,40.1,84,36.6z"/>
		<g>
			<path class="st0" d="M51.7,45.7c-2.7-0.4-5.3-0.8-7.9-1.3c-7.9-1.6-15-3.9-21.3-6.9c1,4.1,3.1,7.7,6.2,10.3l0,0
				c0.9,0.8,1.4,2,1.4,3.3l0,0c-0.2,2.2,1,4.3,3,4.9c2,0.6,4.1-0.4,5.3-2.3l0,0c0.8-1,1.9-1.7,3.1-1.9l0,0c4.5-0.4,8.8-2.5,12.2-5.9
				C53.1,45.9,52.4,45.8,51.7,45.7z"/>
		</g>
		<g>
			<path class="st0" d="M42.3,34.9c5.9,1.5,11.7,2.4,16.9,2.9c0.2-0.5,0.4-1,0.5-1.5c2.8-9,0.3-18.2-5.7-23.3l0,0
				c-0.9-0.8-1.4-2-1.4-3.3l0,0c0.2-2.2-1-4.3-3-4.9s-4.1,0.4-5.3,2.3l0,0c-0.8,1-1.9,1.7-3.1,1.9l0,0c-7.9,0.7-15.3,6.8-18.1,15.7
				c-0.3,0.8-0.5,1.6-0.6,2.5C28,30.3,34.8,33,42.3,34.9z M54.1,24.3c0.7-0.4,1.6-0.4,2.2,0.4c0.6,0.8,0.2,1.7-0.5,2.2
				c-0.3,0.2-0.6,0.3-0.9,0.3c-0.5,0-0.9-0.2-1.2-0.7l0,0C53.1,25.6,53.5,24.7,54.1,24.3z M50.9,17.3c0.2-0.5,0.8-0.9,1.3-0.9
				s1,0.2,1.3,0.7c0.5,0.8,0.2,1.6-0.4,2c-0.3,0.2-0.6,0.3-0.9,0.3c-0.4,0-0.9-0.2-1.2-0.7C50.8,18.3,50.7,17.8,50.9,17.3z
				 M47.3,22.6c0.6-0.4,1.4-0.4,1.9,0.3c0.5,0.7,0.2,1.5-0.4,1.9c-0.2,0.2-0.5,0.3-0.8,0.3c-0.4,0-0.8-0.2-1.1-0.6l0,0
				C46.5,23.7,46.8,23,47.3,22.6z"/>
		</g>
		<g>
			<path d="M79.5,37.4c-0.9-4.7-9.7-10.1-14.3-11.5c-0.7-0.2-1.4,0.1-1.6,0.6c-0.3,0.6,0,1.2,0.7,1.6c4.1,2.2,7.9,4.4,10.5,7.6
				c0.8,1.1,1.1,1.9,0.8,2.6c-0.4,0.8-2.1,2.1-8.9,2.3c-7.2,0.2-15.9-0.9-25.2-3.2c-9.2-2.3-17.4-5.8-23.8-10.2
				c-6.3-4.4-7.7-6.7-7.8-7.9c0-0.4,0.1-0.8,0.5-1.1c2.2-1.7,6.4-0.8,9.7,0l1,0.2c1,0.2,1.8-0.1,2.1-0.8c0.3-0.7,0.1-1.5-0.6-2
				c-3.5-2.5-11.1-3-15.1-1.1c-1.9,0.9-2.8,2.4-2.7,4c0.2,2.4,2.5,5.3,6.8,8.8c3.3,2.7,7.4,5.2,11.9,7.3c6.1,2.9,13,5.1,20.7,6.7
				c2.5,0.5,5.1,1,7.8,1.3c3.9,0.5,9.1,1.1,14.1,1c4.3-0.1,8.6-0.5,11.4-2.3C79.6,40.3,79.8,38.6,79.5,37.4z"/>
		</g>
	</g>
</g>
<g>
	<path d="M92,39.2V28.3c0-0.9,0.7-1.5,1.5-1.5h7.8c0.8,0,1.4,0.6,1.4,1.4c0,0.8-0.6,1.4-1.4,1.4h-6.2v2.8h5.3c0.8,0,1.4,0.6,1.4,1.4
		c0,0.8-0.6,1.4-1.4,1.4h-5.3V38h6.3c0.8,0,1.4,0.6,1.4,1.4s-0.6,1.4-1.4,1.4h-7.9C92.7,40.8,92,40.1,92,39.2z"/>
	<path d="M105.1,31.4c0-0.8,0.7-1.5,1.5-1.5c0.8,0,1.5,0.7,1.5,1.5v0.1c0.7-0.9,1.6-1.7,3.1-1.7c2.3,0,3.6,1.5,3.6,4v5.5
		c0,0.8-0.7,1.5-1.5,1.5s-1.5-0.7-1.5-1.5v-4.6c0-1.4-0.7-2.2-1.8-2.2s-1.9,0.7-1.9,2.2v4.6c0,0.8-0.7,1.5-1.5,1.5
		c-0.8,0-1.5-0.7-1.5-1.5V31.4z"/>
	<path d="M123.3,39.8c-0.3-0.2-0.6-0.6-0.6-1c0-0.7,0.5-1.2,1.2-1.2c0.2,0,0.4,0.1,0.6,0.2c1,0.6,2,1,2.9,1c0.9,0,1.3-0.3,1.3-0.8v0
		c0-0.7-1-0.9-2.2-1.2c-1.5-0.4-3.2-1.1-3.2-3.2v0c0-2.2,1.8-3.4,3.9-3.4c1.1,0,2.3,0.3,3.3,0.8c0.4,0.2,0.7,0.6,0.7,1.1
		c0,0.7-0.5,1.2-1.2,1.2c-0.2,0-0.4,0-0.6-0.1c-0.9-0.4-1.7-0.7-2.3-0.7c-0.7,0-1.1,0.3-1.1,0.7v0c0,0.6,1,0.9,2.2,1.3
		c1.5,0.5,3.2,1.2,3.2,3.2v0c0,2.4-1.8,3.5-4.1,3.5C126,41,124.6,40.6,123.3,39.8z"/>
	<path d="M133,37.7L133,37.7c0-2.4,1.8-3.5,4.3-3.5c1.1,0,1.9,0.2,2.6,0.4v-0.2c0-1.3-0.8-2-2.3-2c-0.8,0-1.5,0.1-2.1,0.3
		c-0.2,0.1-0.3,0.1-0.4,0.1c-0.7,0-1.3-0.5-1.3-1.2c0-0.5,0.3-1,0.8-1.2c1-0.4,2-0.6,3.4-0.6c1.7,0,2.9,0.4,3.6,1.2
		c0.8,0.8,1.2,2,1.2,3.4v4.9c0,0.8-0.7,1.5-1.5,1.5c-0.9,0-1.5-0.6-1.5-1.3v0c-0.7,0.8-1.8,1.4-3.2,1.4C134.6,41,133,39.8,133,37.7z
		 M140,37v-0.5c-0.5-0.2-1.2-0.4-1.9-0.4c-1.3,0-2.1,0.5-2.1,1.5v0c0,0.8,0.7,1.3,1.7,1.3C139,38.9,140,38.1,140,37z"/>
	<path d="M149.8,41h-0.2c-0.8,0-1.4-0.5-1.7-1.3l-3.3-7.6c-0.1-0.2-0.2-0.5-0.2-0.7c0-0.7,0.7-1.4,1.5-1.4c0.8,0,1.3,0.5,1.5,1.1
		l2.3,6.2L152,31c0.2-0.5,0.6-1,1.4-1s1.5,0.6,1.5,1.4c0,0.3-0.1,0.6-0.2,0.7l-3.3,7.6C151.1,40.5,150.6,41,149.8,41z"/>
	<path d="M156,35.5L156,35.5c0-3.1,2.5-5.6,5.8-5.6c3.3,0,5.8,2.5,5.8,5.5v0c0,3.1-2.5,5.6-5.8,5.6C158.5,41,156,38.6,156,35.5z
		 M164.6,35.5L164.6,35.5c0-1.6-1.1-3-2.8-3c-1.7,0-2.8,1.3-2.8,2.9v0c0,1.6,1.1,3,2.8,3C163.6,38.4,164.6,37.1,164.6,35.5z"/>
	<path d="M169.8,27.5c0-0.9,0.7-1.4,1.7-1.4s1.7,0.5,1.7,1.4v0c0,0.9-0.7,1.4-1.7,1.4S169.8,28.4,169.8,27.5L169.8,27.5z M170,31.4
		c0-0.8,0.7-1.5,1.5-1.5s1.5,0.7,1.5,1.5v7.9c0,0.8-0.7,1.5-1.5,1.5s-1.5-0.7-1.5-1.5V31.4z"/>
	<path d="M175.9,31.4c0-0.8,0.7-1.5,1.5-1.5c0.8,0,1.5,0.7,1.5,1.5v0.5c0.4-1,1.2-2,2.1-2c0.9,0,1.5,0.6,1.5,1.5
		c0,0.8-0.5,1.3-1.1,1.4c-1.5,0.4-2.4,1.5-2.4,3.7v2.8c0,0.8-0.7,1.5-1.5,1.5c-0.8,0-1.5-0.7-1.5-1.5V31.4z"/>
	<path d="M190.2,31.4c0-0.8,0.7-1.5,1.5-1.5c0.8,0,1.5,0.7,1.5,1.5v0.1c0.7-1,1.8-1.7,3.3-1.7c2.5,0,4.9,2,4.9,5.5v0
		c0,3.6-2.3,5.5-4.9,5.5c-1.6,0-2.6-0.7-3.3-1.6v3.2c0,0.8-0.7,1.5-1.5,1.5c-0.8,0-1.5-0.7-1.5-1.5V31.4z M198.5,35.4L198.5,35.4
		c0-1.8-1.2-3-2.6-3c-1.4,0-2.6,1.2-2.6,3v0c0,1.8,1.2,3,2.6,3C197.2,38.4,198.5,37.2,198.5,35.4z"/>
	<path d="M203.9,27.6c0-0.8,0.7-1.5,1.5-1.5s1.5,0.7,1.5,1.5v11.8c0,0.8-0.7,1.5-1.5,1.5s-1.5-0.7-1.5-1.5V27.6z"/>
	<path d="M219.5,39.4c0,0.8-0.7,1.5-1.5,1.5s-1.5-0.7-1.5-1.5v-0.1c-0.7,0.9-1.6,1.7-3.1,1.7c-2.3,0-3.6-1.5-3.6-4v-5.5
		c0-0.8,0.7-1.5,1.5-1.5c0.8,0,1.5,0.7,1.5,1.5V36c0,1.4,0.7,2.2,1.8,2.2s1.9-0.7,1.9-2.2v-4.6c0-0.8,0.7-1.5,1.5-1.5
		s1.5,0.7,1.5,1.5V39.4z"/>
	<path d="M221.9,39.8c-0.3-0.2-0.6-0.6-0.6-1c0-0.7,0.5-1.2,1.2-1.2c0.2,0,0.4,0.1,0.6,0.2c1,0.6,2,1,2.9,1c0.9,0,1.3-0.3,1.3-0.8v0
		c0-0.7-1-0.9-2.2-1.2c-1.5-0.4-3.2-1.1-3.2-3.2v0c0-2.2,1.8-3.4,3.9-3.4c1.1,0,2.3,0.3,3.3,0.8c0.4,0.2,0.7,0.6,0.7,1.1
		c0,0.7-0.5,1.2-1.2,1.2c-0.2,0-0.4,0-0.6-0.1c-0.9-0.4-1.7-0.7-2.3-0.7c-0.7,0-1.1,0.3-1.1,0.7v0c0,0.6,1,0.9,2.2,1.3
		c1.5,0.5,3.2,1.2,3.2,3.2v0c0,2.4-1.8,3.5-4.1,3.5C224.7,41,223.2,40.6,221.9,39.8z"/>
	<path d="M238,39.8c-0.3-0.2-0.6-0.6-0.6-1c0-0.7,0.5-1.2,1.2-1.2c0.2,0,0.4,0.1,0.6,0.2c1,0.6,2,1,2.9,1c0.9,0,1.3-0.3,1.3-0.8v0
		c0-0.7-1-0.9-2.2-1.2c-1.5-0.4-3.2-1.1-3.2-3.2v0c0-2.2,1.8-3.4,3.9-3.4c1.1,0,2.3,0.3,3.3,0.8c0.4,0.2,0.7,0.6,0.7,1.1
		c0,0.7-0.5,1.2-1.2,1.2c-0.2,0-0.4,0-0.6-0.1c-0.9-0.4-1.7-0.7-2.3-0.7c-0.7,0-1.1,0.3-1.1,0.7v0c0,0.6,1,0.9,2.2,1.3
		c1.5,0.5,3.2,1.2,3.2,3.2v0c0,2.4-1.8,3.5-4.1,3.5C240.7,41,239.3,40.6,238,39.8z"/>
	<path d="M258,39.4c0,0.8-0.7,1.5-1.5,1.5s-1.5-0.7-1.5-1.5v-0.1c-0.7,0.9-1.6,1.7-3.1,1.7c-2.3,0-3.6-1.5-3.6-4v-5.5
		c0-0.8,0.7-1.5,1.5-1.5c0.8,0,1.5,0.7,1.5,1.5V36c0,1.4,0.7,2.2,1.8,2.2s1.9-0.7,1.9-2.2v-4.6c0-0.8,0.7-1.5,1.5-1.5
		s1.5,0.7,1.5,1.5V39.4z"/>
	<path d="M260.8,31.4c0-0.8,0.7-1.5,1.5-1.5c0.8,0,1.5,0.7,1.5,1.5v0.5c0.4-1,1.2-2,2.1-2c0.9,0,1.5,0.6,1.5,1.5
		c0,0.8-0.5,1.3-1.1,1.4c-1.5,0.4-2.4,1.5-2.4,3.7v2.8c0,0.8-0.7,1.5-1.5,1.5c-0.8,0-1.5-0.7-1.5-1.5V31.4z"/>
	<path d="M275.3,27.6c0-0.8,0.7-1.5,1.5-1.5s1.5,0.7,1.5,1.5v11.8c0,0.8-0.7,1.5-1.5,1.5s-1.5-0.7-1.5-1.5V27.6z"/>
	<path d="M286.2,41c-3.2,0-5.6-2.3-5.6-5.5v0c0-3.1,2.2-5.6,5.3-5.6c3.6,0,5.2,2.9,5.2,5.2c0,0.9-0.6,1.5-1.4,1.5h-6
		c0.3,1.4,1.3,2.1,2.6,2.1c0.8,0,1.5-0.3,2.2-0.7c0.2-0.2,0.4-0.2,0.7-0.2c0.7,0,1.2,0.5,1.2,1.2c0,0.4-0.2,0.7-0.4,0.9
		C289,40.5,287.8,41,286.2,41z M288.2,34.6c-0.2-1.4-1-2.3-2.3-2.3c-1.3,0-2.1,0.9-2.3,2.3H288.2z"/>
	<path d="M299.7,28.3c0-0.9,0.7-1.5,1.5-1.5h3.9c4.4,0,7.4,3,7.4,7v0c0,3.9-3,7-7.4,7h-3.9c-0.9,0-1.5-0.7-1.5-1.5V28.3z M305.2,38
		c2.5,0,4.2-1.7,4.2-4.2v0c0-2.5-1.7-4.2-4.2-4.2h-2.4V38H305.2z"/>
	<path d="M315,27.5c0-0.9,0.7-1.4,1.7-1.4s1.7,0.5,1.7,1.4v0c0,0.9-0.7,1.4-1.7,1.4S315,28.4,315,27.5L315,27.5z M315.2,31.4
		c0-0.8,0.7-1.5,1.5-1.5s1.5,0.7,1.5,1.5v7.9c0,0.8-0.7,1.5-1.5,1.5s-1.5-0.7-1.5-1.5V31.4z"/>
	<path d="M322,43.3c-0.5-0.2-0.9-0.6-0.9-1.2c0-0.7,0.6-1.2,1.2-1.2c0.2,0,0.4,0,0.5,0.1c0.9,0.4,1.8,0.6,3,0.6c2.1,0,3.1-1,3.1-2.9
		v-0.5c-0.9,1.1-1.9,1.7-3.5,1.7c-2.5,0-4.8-1.8-4.8-5v0c0-3.2,2.3-5,4.8-5c1.7,0,2.6,0.7,3.5,1.6v0c0-0.8,0.7-1.5,1.5-1.5
		c0.8,0,1.5,0.7,1.5,1.5v6.9c0,1.9-0.5,3.3-1.4,4.2c-1,1-2.5,1.4-4.6,1.4C324.5,44,323.2,43.8,322,43.3z M328.9,34.9L328.9,34.9
		c0-1.5-1.1-2.5-2.6-2.5s-2.6,1-2.6,2.5v0c0,1.5,1.1,2.5,2.6,2.5S328.9,36.4,328.9,34.9z"/>
	<path d="M334.6,27.5c0-0.9,0.7-1.4,1.7-1.4s1.7,0.5,1.7,1.4v0c0,0.9-0.7,1.4-1.7,1.4S334.6,28.4,334.6,27.5L334.6,27.5z
		 M334.7,31.4c0-0.8,0.7-1.5,1.5-1.5s1.5,0.7,1.5,1.5v7.9c0,0.8-0.7,1.5-1.5,1.5s-1.5-0.7-1.5-1.5V31.4z"/>
	<path d="M341.1,37.7v-5.1H341c-0.7,0-1.3-0.6-1.3-1.3c0-0.7,0.6-1.3,1.3-1.3h0.1v-1.3c0-0.8,0.7-1.5,1.5-1.5s1.5,0.7,1.5,1.5V30
		h1.3c0.7,0,1.3,0.6,1.3,1.3c0,0.7-0.6,1.3-1.3,1.3h-1.3v4.6c0,0.7,0.3,1,1,1c0.1,0,0.3,0,0.4,0c0.7,0,1.3,0.6,1.3,1.3
		c0,0.5-0.4,1-0.8,1.1c-0.6,0.2-1.1,0.3-1.7,0.3C342.4,41,341.1,40.2,341.1,37.7z"/>
	<path d="M348.3,37.7L348.3,37.7c0-2.4,1.8-3.5,4.3-3.5c1.1,0,1.9,0.2,2.6,0.4v-0.2c0-1.3-0.8-2-2.3-2c-0.8,0-1.5,0.1-2.1,0.3
		c-0.2,0.1-0.3,0.1-0.4,0.1c-0.7,0-1.3-0.5-1.3-1.2c0-0.5,0.3-1,0.8-1.2c1-0.4,2-0.6,3.4-0.6c1.7,0,2.9,0.4,3.6,1.2
		c0.8,0.8,1.2,2,1.2,3.4v4.9c0,0.8-0.7,1.5-1.5,1.5c-0.9,0-1.5-0.6-1.5-1.3v0c-0.7,0.8-1.8,1.4-3.2,1.4
		C350,41,348.3,39.8,348.3,37.7z M355.3,37v-0.5c-0.5-0.2-1.2-0.4-1.9-0.4c-1.3,0-2.1,0.5-2.1,1.5v0c0,0.8,0.7,1.3,1.7,1.3
		C354.3,38.9,355.3,38.1,355.3,37z"/>
	<path d="M360.9,27.6c0-0.8,0.7-1.5,1.5-1.5s1.5,0.7,1.5,1.5v11.8c0,0.8-0.7,1.5-1.5,1.5s-1.5-0.7-1.5-1.5V27.6z"/>
</g>
</svg>
