<?xml version="1.0" encoding="utf-8"?>
<!-- Generator: Adobe Illustrator 25.1.0, SVG Export Plug-In . SVG Version: 6.00 Build 0)  -->
<svg version="1.1" id="Calque_1" xmlns="http://www.w3.org/2000/svg" xmlns:xlink="http://www.w3.org/1999/xlink" x="0px" y="0px"
	 viewBox="0 0 97.6 51.3" style="enable-background:new 0 0 97.6 51.3;" xml:space="preserve">
<style type="text/css">
	.st0{fill:#FFFFFF;}
</style>
<g>
	<g>
		<path class="st0" d="M34.3,25.8c19.6,0.9,39.6-0.2,59.1,1.8c5.6,0.6,5.6-9.3,0-8.7c-19.5,2-39.5,1-59.1,1.8
			C31,20.8,31,25.6,34.3,25.8L34.3,25.8z"/>
	</g>
</g>
<g>
	<g>
		<path class="st0" d="M31.8,0.3c-7.5,4.8-14.3,10-21.2,15.5C5.7,19.6-1.3,23.5,0.2,30.7C1.4,36.9,9,41.2,14,44
			c6.7,3.7,14,6.1,21.6,7.2c5.4,0.8,7.8-7.6,2.3-8.3c-5.5-0.7-10.8-2.1-15.8-4.3c-2.3-1-4.5-2.2-6.6-3.6c-1.9-1.2-5.8-3.1-6.8-5.3
			c-2-4.1,8.5-11,11.1-13.2c5-4.4,9.5-9,14-13.8C34.8,1.4,33.3-0.7,31.8,0.3L31.8,0.3z"/>
	</g>
</g>
</svg>
