<?xml version="1.0" encoding="utf-8"?>
<!-- Generator: Adobe Illustrator 25.1.0, SVG Export Plug-In . SVG Version: 6.00 Build 0)  -->
<svg version="1.1" id="Calque_1" xmlns="http://www.w3.org/2000/svg" xmlns:xlink="http://www.w3.org/1999/xlink" x="0px" y="0px"
	 viewBox="0 0 481 67.6" style="enable-background:new 0 0 481 67.6;" xml:space="preserve">
<style type="text/css">
	.st0{fill:#FFFFFF;}
	.st1{fill:#FEE100;}
</style>
<g>
	<g>
		<g>
			<path class="st0" d="M407.5,53.5c7.2,0.1,13.4-5.5,13.6-12.7c0-0.3,0-0.6,0-0.9c-0.2-5-1.9-10.2-5.7-13.7c-1.3-1-2.6-2-3.9-3
				c-3-1.7-6.3-2.6-9.8-2.6c-46.9-3.9-34-4.7-81.1-6.1c-47-1.5-94-1.6-141-0.2c-13.1,0.4-26.2,1.5-39.3,2.5
				c-6.7,0.5-13.3,1.1-20,1.9c-3.3,0.4-6.7,0.8-10,1.3c-1.5,0.2-3.1,0.4-4.6,0.6c-1.8,0.2-3.7,0.4-5.4,0.9c-1,0.3-1.9,0.6-2.9,0.9
				c1.2-0.2,2.5-0.3,3.7-0.5c-4.9,0.5-9.7,0.9-14.6,1.5c-3.2,0.3-6.2,1.1-9.4,1.9c-2.8,0.7-5,1.7-7.3,3.6c-0.7,0.6-1.5,1.2-2.2,1.8
				c-5,3.9-2.8,11.7,1.9,14.7l0,0c0.7,0.5,1.4,0.9,2.2,1.4c2.4,1.4,4.5,1.7,7.2,2.1c-1-0.1-2.1-0.3-3.1-0.4
				c4.6,0.7,9.2,1.4,13.9,1.4c3.8,0,7.7-0.1,11.5-0.1c-1.2-0.2-2.5-0.3-3.7-0.5c2.6,0.4,4.9,1.2,7.6,1.3c1.3,0.1,2.6,0.1,3.8,0.1
				c3.1,0.1,6.2,0.2,9.2,0.3c5.9,0.2,11.8,0.4,17.7,0.4c11.8,0,23.6,0.4,35.4,0.4s23.6-0.3,35.4-0.3c11.6,0,23.1,0.1,34.7,0.1
				C263.7,51.7,376.5,53.1,407.5,53.5z"/>
		</g>
	</g>
	<g>
		<path class="st0" d="M92.8,40.6L92.8,40.6c-1.1-5.6-7.1-10.4-12.3-13.4l0,0l0,0c-0.1-0.1-0.2-0.1-0.3-0.2
			c-0.8-0.4-1.6-0.9-2.6-1.3c-0.1,0-0.2-0.1-0.3-0.1c-1.9-0.9-4.1-1.8-6.6-2.7c-1.4-4.5-3.9-8.7-7.5-11.9c0,0,0-0.1-0.1-0.1
			c0,0-0.1-0.1-0.1-0.2c0-0.1,0-0.1-0.1-0.2c0.1-4.5-2.6-8.8-7-10.1c-4.3-1.3-8.5,0.7-11.1,4.2c-0.1,0.1-0.2,0.2-0.3,0.3
			c0,0,0,0-0.1,0c0,0-0.2,0.1-0.4,0.1l0,0c-5.5,0.8-10.5,3.2-14.6,6.9c-3.2-0.6-6.1-1-8.5-1.2l0,0c-5.1-1.1-11-0.8-15,1.2
			s-6.2,5.5-5.8,9.5c0.4,4.2,3.4,8.4,9.4,13.2c2.9,2.3,6.2,4.5,9.8,6.5c0.2,1.1,0.5,2.2,0.8,3.3c1.4,4.7,4,9.2,7.7,12.4
			c0,0.2,0.2,0.4,0.2,0.5c-0.1,4.4,2.6,8.8,7,10.1c4.3,1.3,8.5-0.7,11.1-4.2c0.1-0.1,0.2-0.2,0.3-0.3c0.1,0,0.2-0.1,0.3-0.1l0,0
			c0.2,0,0.4-0.1,0.6-0.1c6.6-1,12.4-4.4,16.7-9.2c2.4,0.2,4.9,0.3,7.4,0.3c0.6,0,1.2,0,1.8,0c5.5-0.2,11.1-0.7,15.2-3.3
			C91.9,48.1,93.5,44.5,92.8,40.6z M27.8,56.6c0-0.1-0.1-0.1-0.1-0.2C27.7,56.4,27.7,56.5,27.8,56.6C27.8,56.5,27.8,56.5,27.8,56.6z
			"/>
		<g>
			<path class="st1" d="M57,50.7c-3-0.4-5.9-0.9-8.8-1.5c-8.7-1.8-16.7-4.4-23.6-7.7c1.1,4.5,3.5,8.6,6.8,11.5l0,0
				c1,0.9,1.5,2.2,1.6,3.7l0,0c-0.2,2.5,1.1,4.7,3.3,5.5c2.2,0.7,4.6-0.4,5.9-2.5l0,0c0.9-1.1,2.1-1.9,3.4-2.1l0,0
				c5-0.5,9.7-2.8,13.5-6.6C58.5,50.9,57.7,50.8,57,50.7z"/>
		</g>
		<g>
			<path class="st1" d="M46.6,38.7c6.6,1.6,12.9,2.7,18.7,3.2c0.2-0.5,0.4-1.1,0.6-1.6c3.2-9.9,0.4-20.1-6.3-25.8l0,0
				c-1-0.9-1.5-2.2-1.6-3.7l0,0c0.2-2.5-1.1-4.7-3.3-5.5c-2.2-0.7-4.6,0.4-5.9,2.5l0,0c-0.9,1.1-2.1,1.9-3.4,2.1l0,0
				c-8.8,0.8-16.9,7.5-20.1,17.4c-0.3,0.9-0.5,1.8-0.7,2.7C30.7,33.6,38.3,36.6,46.6,38.7z M59.7,27c0.7-0.5,1.8-0.5,2.4,0.4
				c0.6,0.9,0.2,1.9-0.5,2.4c-0.3,0.2-0.7,0.3-1,0.3c-0.5,0-1-0.2-1.4-0.8l0,0C58.6,28.4,59,27.4,59.7,27z M56.1,19.2
				c0.3-0.6,0.9-0.9,1.5-1c0.6,0,1.1,0.2,1.4,0.7c0.6,0.9,0.2,1.8-0.5,2.3c-0.3,0.2-0.6,0.3-1,0.3c-0.5,0-1-0.2-1.3-0.7
				S55.9,19.7,56.1,19.2z M52.1,25.1c0.6-0.4,1.5-0.4,2.1,0.4c0.5,0.8,0.2,1.7-0.4,2.1c-0.3,0.2-0.6,0.3-0.9,0.3
				c-0.4,0-0.9-0.2-1.2-0.7l0,0C51.2,26.4,51.5,25.5,52.1,25.1z"/>
		</g>
		<g>
			<path d="M87.9,41.5c-1-5.2-10.8-11.2-15.8-12.7c-0.8-0.3-1.5,0.1-1.7,0.6c-0.3,0.6,0,1.4,0.7,1.7c4.5,2.4,8.8,4.8,11.6,8.5
				c0.9,1.2,1.2,2.2,0.9,2.9c-0.4,0.8-2.3,2.3-9.9,2.5c-8,0.3-17.6-1-27.9-3.5s-19.4-6.4-26.5-11.3c-7-4.8-8.6-7.4-8.6-8.7
				c0-0.5,0.2-0.9,0.6-1.2c2.4-1.9,7-0.9,10.7,0l1.1,0.2c1.1,0.3,2-0.1,2.3-0.9c0.4-0.7,0.1-1.6-0.7-2.2c-3.8-2.7-12.3-3.3-16.7-1.2
				c-2.1,1-3.2,2.6-3,4.5c0.3,2.7,2.7,5.9,7.6,9.8c3.7,3,8.2,5.7,13.2,8.2c6.7,3.2,14.4,5.7,22.9,7.4c2.8,0.6,5.7,1.1,8.6,1.5
				c4.3,0.6,10.1,1.3,15.6,1.1c4.7-0.1,9.6-0.5,12.6-2.5C88,44.7,88.1,42.8,87.9,41.5z"/>
		</g>
		<path class="st0" d="M5.1,12"/>
	</g>
</g>
<g>
	<path d="M103.9,40.7V29.8c0-0.9,0.7-1.5,1.5-1.5h7.8c0.8,0,1.4,0.6,1.4,1.4c0,0.8-0.6,1.4-1.4,1.4H107v2.8h5.3
		c0.8,0,1.4,0.6,1.4,1.4c0,0.8-0.6,1.4-1.4,1.4H107v2.9h6.3c0.8,0,1.4,0.6,1.4,1.4s-0.6,1.4-1.4,1.4h-7.9
		C104.6,42.3,103.9,41.6,103.9,40.7z"/>
	<path d="M117,33c0-0.8,0.7-1.5,1.5-1.5c0.8,0,1.5,0.7,1.5,1.5v0.1c0.7-0.9,1.6-1.7,3.1-1.7c2.3,0,3.6,1.5,3.6,4v5.5
		c0,0.8-0.7,1.5-1.5,1.5s-1.5-0.7-1.5-1.5v-4.6c0-1.4-0.7-2.2-1.8-2.2s-1.9,0.7-1.9,2.2v4.6c0,0.8-0.7,1.5-1.5,1.5
		c-0.8,0-1.5-0.7-1.5-1.5V33z"/>
	<path d="M135.2,41.3c-0.3-0.2-0.6-0.6-0.6-1c0-0.7,0.5-1.2,1.2-1.2c0.2,0,0.4,0.1,0.6,0.2c1,0.6,2,1,2.9,1c0.9,0,1.3-0.3,1.3-0.8v0
		c0-0.7-1-0.9-2.2-1.2c-1.5-0.4-3.2-1.1-3.2-3.2v0c0-2.2,1.8-3.4,3.9-3.4c1.1,0,2.3,0.3,3.3,0.8c0.4,0.2,0.7,0.6,0.7,1.1
		c0,0.7-0.5,1.2-1.2,1.2c-0.2,0-0.4,0-0.6-0.1c-0.9-0.4-1.7-0.7-2.3-0.7c-0.7,0-1.1,0.3-1.1,0.7v0c0,0.6,1,0.9,2.2,1.3
		c1.5,0.5,3.2,1.2,3.2,3.2v0c0,2.4-1.8,3.5-4.1,3.5C137.9,42.5,136.5,42.1,135.2,41.3z"/>
	<path d="M144.8,39.2L144.8,39.2c0-2.4,1.8-3.5,4.3-3.5c1.1,0,1.9,0.2,2.6,0.4V36c0-1.3-0.8-2-2.3-2c-0.8,0-1.5,0.1-2.1,0.3
		c-0.2,0.1-0.3,0.1-0.4,0.1c-0.7,0-1.3-0.5-1.3-1.2c0-0.5,0.3-1,0.8-1.2c1-0.4,2-0.6,3.4-0.6c1.7,0,2.9,0.4,3.6,1.2
		c0.8,0.8,1.2,2,1.2,3.4v4.9c0,0.8-0.7,1.5-1.5,1.5c-0.9,0-1.5-0.6-1.5-1.3v0c-0.7,0.8-1.8,1.4-3.2,1.4
		C146.5,42.5,144.8,41.3,144.8,39.2z M151.8,38.5V38c-0.5-0.2-1.2-0.4-1.9-0.4c-1.3,0-2.1,0.5-2.1,1.5v0c0,0.8,0.7,1.3,1.7,1.3
		C150.9,40.4,151.8,39.6,151.8,38.5z"/>
	<path d="M161.6,42.5h-0.2c-0.8,0-1.4-0.5-1.7-1.3l-3.3-7.6c-0.1-0.2-0.2-0.5-0.2-0.7c0-0.7,0.7-1.4,1.5-1.4c0.8,0,1.3,0.5,1.5,1.1
		l2.3,6.2l2.3-6.3c0.2-0.5,0.6-1,1.4-1s1.5,0.6,1.5,1.4c0,0.3-0.1,0.6-0.2,0.7l-3.3,7.6C163,42,162.4,42.5,161.6,42.5z"/>
	<path d="M167.9,37L167.9,37c0-3.1,2.5-5.6,5.8-5.6c3.3,0,5.8,2.5,5.8,5.5v0c0,3.1-2.5,5.6-5.8,5.6C170.4,42.5,167.9,40.1,167.9,37z
		 M176.5,37L176.5,37c0-1.6-1.1-3-2.8-3c-1.7,0-2.8,1.3-2.8,2.9v0c0,1.6,1.1,3,2.8,3C175.5,39.9,176.5,38.6,176.5,37z"/>
	<path d="M181.7,29c0-0.9,0.7-1.4,1.7-1.4s1.7,0.5,1.7,1.4v0c0,0.9-0.7,1.4-1.7,1.4S181.7,29.9,181.7,29L181.7,29z M181.8,33
		c0-0.8,0.7-1.5,1.5-1.5s1.5,0.7,1.5,1.5v7.9c0,0.8-0.7,1.5-1.5,1.5s-1.5-0.7-1.5-1.5V33z"/>
	<path d="M187.7,33c0-0.8,0.7-1.5,1.5-1.5c0.8,0,1.5,0.7,1.5,1.5v0.5c0.4-1,1.2-2,2.1-2c0.9,0,1.5,0.6,1.5,1.5
		c0,0.8-0.5,1.3-1.1,1.4c-1.5,0.4-2.4,1.5-2.4,3.7v2.8c0,0.8-0.7,1.5-1.5,1.5c-0.8,0-1.5-0.7-1.5-1.5V33z"/>
	<path d="M202.1,33c0-0.8,0.7-1.5,1.5-1.5c0.8,0,1.5,0.7,1.5,1.5v0.1c0.7-1,1.8-1.7,3.3-1.7c2.5,0,4.9,2,4.9,5.5v0
		c0,3.6-2.3,5.5-4.9,5.5c-1.6,0-2.6-0.7-3.3-1.6v3.2c0,0.8-0.7,1.5-1.5,1.5c-0.8,0-1.5-0.7-1.5-1.5V33z M210.3,36.9L210.3,36.9
		c0-1.8-1.2-3-2.6-3c-1.4,0-2.6,1.2-2.6,3v0c0,1.8,1.2,3,2.6,3C209.1,39.9,210.3,38.7,210.3,36.9z"/>
	<path d="M215.7,29.1c0-0.8,0.7-1.5,1.5-1.5s1.5,0.7,1.5,1.5v11.8c0,0.8-0.7,1.5-1.5,1.5s-1.5-0.7-1.5-1.5V29.1z"/>
	<path d="M231.4,40.9c0,0.8-0.7,1.5-1.5,1.5s-1.5-0.7-1.5-1.5v-0.1c-0.7,0.9-1.6,1.7-3.1,1.7c-2.3,0-3.6-1.5-3.6-4V33
		c0-0.8,0.7-1.5,1.5-1.5c0.8,0,1.5,0.7,1.5,1.5v4.6c0,1.4,0.7,2.2,1.8,2.2s1.9-0.7,1.9-2.2V33c0-0.8,0.7-1.5,1.5-1.5
		s1.5,0.7,1.5,1.5V40.9z"/>
	<path d="M233.8,41.3c-0.3-0.2-0.6-0.6-0.6-1c0-0.7,0.5-1.2,1.2-1.2c0.2,0,0.4,0.1,0.6,0.2c1,0.6,2,1,2.9,1c0.9,0,1.3-0.3,1.3-0.8v0
		c0-0.7-1-0.9-2.2-1.2c-1.5-0.4-3.2-1.1-3.2-3.2v0c0-2.2,1.8-3.4,3.9-3.4c1.1,0,2.3,0.3,3.3,0.8c0.4,0.2,0.7,0.6,0.7,1.1
		c0,0.7-0.5,1.2-1.2,1.2c-0.2,0-0.4,0-0.6-0.1c-0.9-0.4-1.7-0.7-2.3-0.7c-0.7,0-1.1,0.3-1.1,0.7v0c0,0.6,1,0.9,2.2,1.3
		c1.5,0.5,3.2,1.2,3.2,3.2v0c0,2.4-1.8,3.5-4.1,3.5C236.5,42.5,235.1,42.1,233.8,41.3z"/>
	<path d="M249.9,41.3c-0.3-0.2-0.6-0.6-0.6-1c0-0.7,0.5-1.2,1.2-1.2c0.2,0,0.4,0.1,0.6,0.2c1,0.6,2,1,2.9,1c0.9,0,1.3-0.3,1.3-0.8v0
		c0-0.7-1-0.9-2.2-1.2c-1.5-0.4-3.2-1.1-3.2-3.2v0c0-2.2,1.8-3.4,3.9-3.4c1.1,0,2.3,0.3,3.3,0.8c0.4,0.2,0.7,0.6,0.7,1.1
		c0,0.7-0.5,1.2-1.2,1.2c-0.2,0-0.4,0-0.6-0.1c-0.9-0.4-1.7-0.7-2.3-0.7c-0.7,0-1.1,0.3-1.1,0.7v0c0,0.6,1,0.9,2.2,1.3
		c1.5,0.5,3.2,1.2,3.2,3.2v0c0,2.4-1.8,3.5-4.1,3.5C252.6,42.5,251.2,42.1,249.9,41.3z"/>
	<path d="M269.9,40.9c0,0.8-0.7,1.5-1.5,1.5s-1.5-0.7-1.5-1.5v-0.1c-0.7,0.9-1.6,1.7-3.1,1.7c-2.3,0-3.6-1.5-3.6-4V33
		c0-0.8,0.7-1.5,1.5-1.5c0.8,0,1.5,0.7,1.5,1.5v4.6c0,1.4,0.7,2.2,1.8,2.2s1.9-0.7,1.9-2.2V33c0-0.8,0.7-1.5,1.5-1.5
		s1.5,0.7,1.5,1.5V40.9z"/>
	<path d="M272.6,33c0-0.8,0.7-1.5,1.5-1.5c0.8,0,1.5,0.7,1.5,1.5v0.5c0.4-1,1.2-2,2.1-2c0.9,0,1.5,0.6,1.5,1.5
		c0,0.8-0.5,1.3-1.1,1.4c-1.5,0.4-2.4,1.5-2.4,3.7v2.8c0,0.8-0.7,1.5-1.5,1.5c-0.8,0-1.5-0.7-1.5-1.5V33z"/>
	<path d="M287.1,29.1c0-0.8,0.7-1.5,1.5-1.5s1.5,0.7,1.5,1.5v11.8c0,0.8-0.7,1.5-1.5,1.5s-1.5-0.7-1.5-1.5V29.1z"/>
	<path d="M292.4,39.2L292.4,39.2c0-2.4,1.8-3.5,4.3-3.5c1.1,0,1.9,0.2,2.6,0.4V36c0-1.3-0.8-2-2.3-2c-0.8,0-1.5,0.1-2.1,0.3
		c-0.2,0.1-0.3,0.1-0.4,0.1c-0.7,0-1.3-0.5-1.3-1.2c0-0.5,0.3-1,0.8-1.2c1-0.4,2-0.6,3.4-0.6c1.7,0,2.9,0.4,3.6,1.2
		c0.8,0.8,1.2,2,1.2,3.4v4.9c0,0.8-0.7,1.5-1.5,1.5c-0.9,0-1.5-0.6-1.5-1.3v0c-0.7,0.8-1.8,1.4-3.2,1.4
		C294.1,42.5,292.4,41.3,292.4,39.2z M299.4,38.5V38c-0.5-0.2-1.2-0.4-1.9-0.4c-1.3,0-2.1,0.5-2.1,1.5v0c0,0.8,0.7,1.3,1.7,1.3
		C298.4,40.4,299.4,39.6,299.4,38.5z"/>
	<path d="M310.9,40.8c-0.3-0.2-0.6-0.7-0.6-1.2c0-0.8,0.6-1.4,1.4-1.4c0.4,0,0.7,0.1,0.9,0.3c1.1,0.8,2.2,1.3,3.6,1.3
		c1.3,0,2-0.5,2-1.3v0c0-0.8-0.5-1.2-2.8-1.8c-2.8-0.7-4.6-1.5-4.6-4.3v0c0-2.5,2-4.2,4.9-4.2c1.7,0,3.2,0.4,4.4,1.2
		c0.3,0.2,0.7,0.6,0.7,1.2c0,0.8-0.6,1.4-1.4,1.4c-0.3,0-0.5-0.1-0.8-0.2c-1-0.6-2-0.9-2.9-0.9c-1.2,0-1.8,0.5-1.8,1.2v0
		c0,0.9,0.6,1.2,3,1.8c2.8,0.7,4.4,1.8,4.4,4.2v0c0,2.8-2.1,4.3-5.1,4.3C314.3,42.5,312.5,41.9,310.9,40.8z"/>
	<path d="M324.1,39.2v-5.1H324c-0.7,0-1.3-0.6-1.3-1.3c0-0.7,0.6-1.3,1.3-1.3h0.1v-1.3c0-0.8,0.7-1.5,1.5-1.5s1.5,0.7,1.5,1.5v1.3
		h1.3c0.7,0,1.3,0.6,1.3,1.3c0,0.7-0.6,1.3-1.3,1.3h-1.3v4.6c0,0.7,0.3,1,1,1c0.1,0,0.3,0,0.4,0c0.7,0,1.3,0.6,1.3,1.3
		c0,0.5-0.4,1-0.8,1.1c-0.6,0.2-1.1,0.3-1.7,0.3C325.3,42.5,324.1,41.7,324.1,39.2z"/>
	<path d="M331.9,33c0-0.8,0.7-1.5,1.5-1.5c0.8,0,1.5,0.7,1.5,1.5v0.5c0.4-1,1.2-2,2.1-2c0.9,0,1.5,0.6,1.5,1.5
		c0,0.8-0.5,1.3-1.1,1.4c-1.5,0.4-2.4,1.5-2.4,3.7v2.8c0,0.8-0.7,1.5-1.5,1.5c-0.8,0-1.5-0.7-1.5-1.5V33z"/>
	<path d="M339.1,39.2L339.1,39.2c0-2.4,1.8-3.5,4.3-3.5c1.1,0,1.9,0.2,2.6,0.4V36c0-1.3-0.8-2-2.3-2c-0.8,0-1.5,0.1-2.1,0.3
		c-0.2,0.1-0.3,0.1-0.4,0.1c-0.7,0-1.3-0.5-1.3-1.2c0-0.5,0.3-1,0.8-1.2c1-0.4,2-0.6,3.4-0.6c1.7,0,2.9,0.4,3.6,1.2
		c0.8,0.8,1.2,2,1.2,3.4v4.9c0,0.8-0.7,1.5-1.5,1.5c-0.9,0-1.5-0.6-1.5-1.3v0c-0.7,0.8-1.8,1.4-3.2,1.4
		C340.8,42.5,339.1,41.3,339.1,39.2z M346.1,38.5V38c-0.5-0.2-1.2-0.4-1.9-0.4c-1.3,0-2.1,0.5-2.1,1.5v0c0,0.8,0.7,1.3,1.7,1.3
		C345.1,40.4,346.1,39.6,346.1,38.5z"/>
	<path d="M352,39.2v-5.1h-0.1c-0.7,0-1.3-0.6-1.3-1.3c0-0.7,0.6-1.3,1.3-1.3h0.1v-1.3c0-0.8,0.7-1.5,1.5-1.5s1.5,0.7,1.5,1.5v1.3
		h1.3c0.7,0,1.3,0.6,1.3,1.3c0,0.7-0.6,1.3-1.3,1.3H355v4.6c0,0.7,0.3,1,1,1c0.1,0,0.3,0,0.4,0c0.7,0,1.3,0.6,1.3,1.3
		c0,0.5-0.4,1-0.8,1.1c-0.6,0.2-1.1,0.3-1.7,0.3C353.2,42.5,352,41.7,352,39.2z"/>
	<path d="M364.6,42.5c-3.2,0-5.6-2.3-5.6-5.5v0c0-3.1,2.2-5.6,5.3-5.6c3.6,0,5.2,2.9,5.2,5.2c0,0.9-0.6,1.5-1.4,1.5h-6
		c0.3,1.4,1.3,2.1,2.6,2.1c0.8,0,1.5-0.3,2.2-0.7c0.2-0.2,0.4-0.2,0.7-0.2c0.7,0,1.2,0.5,1.2,1.2c0,0.4-0.2,0.7-0.4,0.9
		C367.3,42,366.1,42.5,364.6,42.5z M366.5,36.1c-0.2-1.4-1-2.3-2.3-2.3c-1.3,0-2.1,0.9-2.3,2.3H366.5z M363.3,30
		c0-0.2,0.1-0.4,0.2-0.5l1.1-1.7c0.3-0.4,0.6-0.7,1.1-0.7c0.7,0,1.7,0.5,1.7,0.9c0,0.3-0.2,0.5-0.4,0.7l-1.2,1.2
		c-0.6,0.5-1.1,0.7-1.7,0.7C363.7,30.5,363.3,30.3,363.3,30z"/>
	<path d="M372.6,44.8c-0.5-0.2-0.9-0.6-0.9-1.2c0-0.7,0.6-1.2,1.2-1.2c0.2,0,0.4,0,0.5,0.1c0.9,0.4,1.8,0.6,3,0.6
		c2.1,0,3.1-1,3.1-2.9v-0.5c-0.9,1.1-1.9,1.7-3.5,1.7c-2.5,0-4.8-1.8-4.8-5v0c0-3.2,2.3-5,4.8-5c1.7,0,2.6,0.7,3.5,1.6v0
		c0-0.8,0.7-1.5,1.5-1.5c0.8,0,1.5,0.7,1.5,1.5v6.9c0,1.9-0.5,3.3-1.4,4.2c-1,1-2.5,1.4-4.6,1.4C375.1,45.5,373.9,45.3,372.6,44.8z
		 M379.5,36.4L379.5,36.4c0-1.5-1.1-2.5-2.6-2.5s-2.6,1-2.6,2.5v0c0,1.5,1.1,2.5,2.6,2.5S379.5,37.9,379.5,36.4z"/>
	<path d="M385.2,29c0-0.9,0.7-1.4,1.7-1.4s1.7,0.5,1.7,1.4v0c0,0.9-0.7,1.4-1.7,1.4S385.2,29.9,385.2,29L385.2,29z M385.4,33
		c0-0.8,0.7-1.5,1.5-1.5s1.5,0.7,1.5,1.5v7.9c0,0.8-0.7,1.5-1.5,1.5s-1.5-0.7-1.5-1.5V33z"/>
	<path d="M396.4,42.5c-3.2,0-5.6-2.3-5.6-5.5v0c0-3.1,2.2-5.6,5.3-5.6c3.6,0,5.2,2.9,5.2,5.2c0,0.9-0.6,1.5-1.4,1.5h-6
		c0.3,1.4,1.3,2.1,2.6,2.1c0.8,0,1.5-0.3,2.2-0.7c0.2-0.2,0.4-0.2,0.7-0.2c0.7,0,1.2,0.5,1.2,1.2c0,0.4-0.2,0.7-0.4,0.9
		C399.1,42,397.9,42.5,396.4,42.5z M398.3,36.1c-0.2-1.4-1-2.3-2.3-2.3c-1.3,0-2.1,0.9-2.3,2.3H398.3z"/>
</g>
<text transform="matrix(1 0 0 1 108.2269 -61.4408)" style="font-family:'GothamRounded-Bold'; font-size:20px;">En savoir plus sur la Stratégie</text>
</svg>
