<?xml version="1.0" encoding="utf-8"?>
<!-- Generator: Adobe Illustrator 25.1.0, SVG Export Plug-In . SVG Version: 6.00 Build 0)  -->
<svg version="1.1" id="Calque_1" xmlns="http://www.w3.org/2000/svg" xmlns:xlink="http://www.w3.org/1999/xlink" x="0px" y="0px"
	 viewBox="0 0 399.7 60.9" style="enable-background:new 0 0 399.7 60.9;" xml:space="preserve">
<style type="text/css">
	.st0{fill:#FEE100;}
	.st1{fill:#FFFFFF;}
</style>
<g>
	<g>
		<path class="st0" d="M68.3,41.7c0.5,0.4,1.1,0.8,1.6,1.2c-0.7-0.5-1.3-1-2-1.6c1.7,1.4,3.3,2.5,5.5,3c0.9,0.2,1.7,0.3,2.6,0.4
			c2.5,0.4,5,0.9,7.6,0.8c3.5,0,7-0.1,10.4,0c-1.1-0.1-2.2-0.3-3.3-0.4c2.2,0.3,4,1.1,6.4,1.2c1,0.1,2,0.1,3.1,0.1
			c2.5,0.1,4.9,0.2,7.4,0.3c4.7,0.2,9.4,0.4,14.1,0.4c9.4,0.1,18.8,0.4,28.3,0.5c9.4,0.1,18.9-0.1,28.3-0.1
			c9.4,0.1,18.9,0.2,28.3,0.3c37.6,0.4,75.2,2.1,112.6,5c21.2,1.6,42.3,3.6,63.4,6c4.1,0.5,9.4-2.2,12.1-5c3-3,5.2-7.9,5-12.1
			c-0.2-4.4-1.7-9-5-12.1c-1.2-0.9-2.3-1.8-3.5-2.7c-2.7-1.6-5.6-2.3-8.7-2.3c-37.1-4.1-74.2-7.1-111.5-8.9
			c-37.1-1.8-74.2-2.3-111.3-1.3c-10.5,0.3-20.9,1-31.3,1.9c-5.1,0.4-10.3,0.7-15.4,1.4c-6.3,0.8-12.6,1.7-18.9,2.6
			c1.2-0.2,2.4-0.3,3.5-0.5c-3,0.3-5.1,0.7-7.8,2.1c1-0.4,2.1-0.9,3.1-1.3c-0.8,0.3-1.5,0.6-2.3,0.8c1.1-0.1,2.2-0.3,3.3-0.4
			c-3.9,0.5-7.8,0.8-11.7,1.3c-1.8,0.2-3.5,0.4-5.2,0.9c-0.9,0.3-1.7,0.5-2.6,0.8c-2.3,0.7-4.5,1.4-6.3,3.2
			c-0.6,0.5-1.1,1.1-1.6,1.6c-1.9,1.9-2.6,4.4-2.3,7C64.7,38.3,66.1,40,68.3,41.7L68.3,41.7z"/>
	</g>
</g>
<g>
	<path d="M92.7,29.2c0-0.9,0.7-1.6,1.6-1.6c0.9,0,1.6,0.7,1.6,1.6l0,10l5.9,0c0.8,0,1.4,0.6,1.4,1.4s-0.6,1.4-1.4,1.4l-7.4,0
		c-0.9,0-1.6-0.7-1.6-1.6L92.7,29.2z"/>
	<path d="M110,42.4c-3.3,0-5.7-2.3-5.7-5.7v0c0-3.1,2.2-5.7,5.5-5.7c3.7,0,5.3,3,5.3,5.3c0,0.9-0.6,1.5-1.5,1.5l-6.2,0
		c0.3,1.4,1.3,2.2,2.7,2.2c0.9,0,1.6-0.3,2.2-0.7c0.2-0.2,0.4-0.2,0.8-0.2c0.7,0,1.2,0.5,1.2,1.2c0,0.4-0.2,0.7-0.4,0.9
		C112.9,41.8,111.6,42.4,110,42.4z M112.1,35.7c-0.2-1.4-1-2.3-2.3-2.3c-1.3,0-2.1,0.9-2.4,2.3L112.1,35.7z"/>
	<path d="M116.8,39L116.8,39c0-2.4,1.8-3.5,4.4-3.5c1.1,0,1.9,0.2,2.7,0.5v-0.2c0-1.3-0.8-2-2.4-2c-0.9,0-1.6,0.1-2.2,0.3
		c-0.2,0.1-0.3,0.1-0.5,0.1c-0.7,0-1.3-0.6-1.3-1.3c0-0.6,0.4-1,0.8-1.2c1-0.4,2.1-0.6,3.5-0.6c1.7,0,2.9,0.5,3.7,1.2
		c0.8,0.8,1.2,2,1.2,3.5l0,5c0,0.8-0.7,1.5-1.5,1.5c-0.9,0-1.5-0.6-1.5-1.3v0c-0.8,0.8-1.8,1.4-3.3,1.4
		C118.5,42.3,116.8,41.1,116.8,39z M123.9,38.2l0-0.6c-0.5-0.2-1.2-0.4-2-0.4c-1.3,0-2.2,0.5-2.2,1.5v0c0,0.8,0.7,1.3,1.7,1.3
		C122.9,40.2,123.9,39.4,123.9,38.2z"/>
	<path d="M129.6,32.6c0-0.9,0.7-1.6,1.6-1.6c0.9,0,1.6,0.7,1.6,1.6l0,0.5c0.5-1.1,1.2-2.1,2.1-2.1c1,0,1.5,0.6,1.5,1.5
		c0,0.8-0.5,1.3-1.2,1.5c-1.6,0.4-2.5,1.6-2.5,3.8l0,2.9c0,0.9-0.7,1.6-1.6,1.6c-0.9,0-1.6-0.7-1.6-1.6L129.6,32.6z"/>
	<path d="M138.2,32.6c0-0.9,0.7-1.6,1.6-1.6c0.9,0,1.6,0.7,1.6,1.6v0.1c0.7-0.9,1.6-1.8,3.2-1.8c2.4,0,3.7,1.6,3.7,4.1l0,5.7
		c0,0.9-0.7,1.6-1.6,1.6s-1.6-0.7-1.6-1.6l0-4.7c0-1.5-0.7-2.2-1.9-2.2s-2,0.8-2,2.2l0,4.7c0,0.9-0.7,1.6-1.6,1.6
		c-0.9,0-1.6-0.7-1.6-1.6L138.2,32.6z"/>
	<path d="M157.1,32.6c0-0.9,0.7-1.6,1.6-1.6c0.9,0,1.6,0.7,1.6,1.6v0.1c0.7-0.9,1.7-1.8,3.2-1.8c1.4,0,2.5,0.6,3.1,1.8
		c1-1.1,2.1-1.7,3.6-1.7c2.3,0,3.7,1.4,3.7,4.1l0,5.7c0,0.9-0.7,1.6-1.6,1.6c-0.9,0-1.6-0.7-1.6-1.6l0-4.7c0-1.5-0.7-2.2-1.8-2.2
		s-1.9,0.8-1.9,2.2l0,4.7c0,0.9-0.7,1.6-1.6,1.6c-0.9,0-1.6-0.7-1.6-1.6l0-4.7c0-1.5-0.7-2.2-1.8-2.2s-1.9,0.8-1.9,2.2l0,4.7
		c0,0.9-0.7,1.6-1.6,1.6c-0.9,0-1.6-0.7-1.6-1.6L157.1,32.6z"/>
	<path d="M176.1,36.8L176.1,36.8c0-3.2,2.6-5.8,6-5.8c3.4,0,5.9,2.5,5.9,5.7l0,0c0,3.2-2.6,5.7-6,5.7
		C178.6,42.5,176.1,39.9,176.1,36.8z M184.9,36.8L184.9,36.8c0-1.7-1.2-3.1-2.9-3.1c-1.8,0-2.9,1.4-2.9,3l0,0c0,1.6,1.2,3,2.9,3
		C183.9,39.8,184.9,38.4,184.9,36.8z"/>
	<path d="M190.3,32.7c0-0.9,0.7-1.6,1.6-1.6c0.9,0,1.6,0.7,1.6,1.6l0,0.5c0.5-1.1,1.2-2.1,2.1-2.1c1,0,1.5,0.6,1.5,1.5
		c0,0.8-0.5,1.3-1.2,1.5c-1.6,0.4-2.5,1.6-2.5,3.8l0,2.9c0,0.9-0.7,1.6-1.6,1.6c-0.9,0-1.6-0.7-1.6-1.6L190.3,32.7z"/>
	<path d="M203.8,42.5c-3.3,0-5.7-2.3-5.7-5.7v0c0-3.1,2.2-5.7,5.5-5.7c3.7,0,5.3,3,5.3,5.3c0,0.9-0.6,1.5-1.5,1.5l-6.2,0
		c0.3,1.4,1.3,2.2,2.7,2.2c0.9,0,1.6-0.3,2.2-0.7c0.2-0.2,0.4-0.2,0.8-0.2c0.7,0,1.2,0.5,1.2,1.2c0,0.4-0.2,0.7-0.4,0.9
		C206.6,42,205.4,42.5,203.8,42.5z M205.8,35.9c-0.2-1.4-1-2.3-2.3-2.3c-1.3,0-2.1,0.9-2.4,2.3L205.8,35.9z"/>
	<path d="M216.7,39.1L216.7,39.1c0-2.4,1.8-3.5,4.4-3.5c1.1,0,1.9,0.2,2.7,0.5v-0.2c0-1.3-0.8-2-2.4-2c-0.9,0-1.6,0.1-2.2,0.3
		c-0.2,0.1-0.3,0.1-0.5,0.1c-0.7,0-1.3-0.6-1.3-1.3c0-0.6,0.4-1,0.8-1.2c1-0.4,2.1-0.6,3.5-0.6c1.7,0,2.9,0.5,3.7,1.2
		c0.8,0.8,1.2,2,1.2,3.5l0,5c0,0.8-0.7,1.5-1.5,1.5c-0.9,0-1.5-0.6-1.5-1.3v0c-0.8,0.8-1.8,1.4-3.3,1.4
		C218.4,42.5,216.7,41.3,216.7,39.1z M223.8,38.4l0-0.6c-0.5-0.2-1.2-0.4-2-0.4c-1.3,0-2.2,0.5-2.2,1.5v0c0,0.8,0.7,1.3,1.7,1.3
		C222.8,40.3,223.8,39.5,223.8,38.4z"/>
	<path d="M229.5,28.7c0-0.9,0.7-1.6,1.6-1.6c0.9,0,1.6,0.7,1.6,1.6l0,4.1c0.8-1,1.8-1.8,3.4-1.8c2.6,0,5,2,5,5.7l0,0
		c0,3.7-2.4,5.7-5,5.7c-1.7,0-2.7-0.8-3.4-1.6v0c0,0.8-0.7,1.5-1.6,1.5c-0.9,0-1.6-0.7-1.6-1.6L229.5,28.7z M237.9,36.8L237.9,36.8
		c0-1.9-1.2-3.1-2.7-3.1s-2.7,1.2-2.7,3l0,0c0,1.8,1.2,3,2.7,3C236.7,39.9,237.9,38.7,237.9,36.8z"/>
	<path d="M242.8,36.9L242.8,36.9c0-3.2,2.6-5.8,6-5.8c3.4,0,5.9,2.5,5.9,5.7l0,0c0,3.2-2.6,5.7-6,5.7
		C245.3,42.6,242.8,40,242.8,36.9z M251.6,36.9L251.6,36.9c0-1.7-1.2-3.1-2.9-3.1c-1.8,0-2.9,1.4-2.9,3l0,0c0,1.6,1.2,3,2.9,3
		C250.6,39.9,251.6,38.5,251.6,36.9z"/>
	<path d="M267,40.9c0,0.9-0.7,1.6-1.6,1.6c-0.9,0-1.6-0.7-1.6-1.6v-0.1c-0.7,0.9-1.6,1.8-3.2,1.8c-2.4,0-3.7-1.6-3.7-4.1l0-5.7
		c0-0.9,0.7-1.6,1.6-1.6c0.9,0,1.6,0.7,1.6,1.6l0,4.7c0,1.5,0.7,2.2,1.9,2.2c1.2,0,2-0.8,2-2.2l0-4.7c0-0.9,0.7-1.6,1.6-1.6
		c0.9,0,1.6,0.7,1.6,1.6L267,40.9z"/>
	<path d="M270.3,39.2l0-5.2h-0.1c-0.7,0-1.3-0.6-1.3-1.3c0-0.7,0.6-1.3,1.3-1.3h0.1l0-1.4c0-0.9,0.7-1.6,1.6-1.6
		c0.9,0,1.6,0.7,1.6,1.6l0,1.4l1.4,0c0.7,0,1.3,0.6,1.3,1.3c0,0.7-0.6,1.3-1.3,1.3l-1.4,0l0,4.7c0,0.7,0.3,1.1,1,1.1
		c0.1,0,0.3,0,0.4,0c0.7,0,1.3,0.6,1.3,1.3c0,0.6-0.4,1-0.8,1.2c-0.6,0.2-1.1,0.3-1.8,0.3C271.6,42.5,270.3,41.8,270.3,39.2z"/>
	<path d="M284.8,29.6c0-0.9,0.7-1.6,1.6-1.6l4,0c4.5,0,7.6,3.1,7.6,7.2v0c0,4-3.1,7.2-7.7,7.2l-4,0c-0.9,0-1.6-0.7-1.6-1.6
		L284.8,29.6z M290.4,39.5c2.6,0,4.3-1.7,4.3-4.3v0c0-2.5-1.7-4.3-4.3-4.3l-2.4,0l0,8.7L290.4,39.5z"/>
	<path d="M300.5,28.8c0-0.9,0.8-1.5,1.7-1.5c1,0,1.7,0.6,1.7,1.5v0c0,0.9-0.8,1.5-1.7,1.5C301.3,30.3,300.5,29.7,300.5,28.8
		L300.5,28.8z M300.7,32.8c0-0.9,0.7-1.6,1.6-1.6c0.9,0,1.6,0.7,1.6,1.6l0,8.1c0,0.9-0.7,1.6-1.6,1.6c-0.9,0-1.6-0.7-1.6-1.6
		L300.7,32.8z"/>
	<path d="M307.6,45c-0.5-0.2-0.9-0.6-0.9-1.2c0-0.7,0.6-1.3,1.3-1.3c0.2,0,0.4,0,0.5,0.1c0.9,0.4,1.9,0.7,3,0.7c2.1,0,3.1-1,3.1-3
		l0-0.5c-0.9,1.1-1.9,1.8-3.6,1.8c-2.6,0-4.9-1.9-4.9-5.1v0c0-3.3,2.4-5.1,4.9-5.1c1.7,0,2.7,0.7,3.5,1.6v0c0-0.8,0.7-1.5,1.6-1.5
		c0.9,0,1.6,0.7,1.6,1.6l0,7.1c0,2-0.5,3.4-1.4,4.3c-1,1-2.6,1.5-4.7,1.5C310.2,45.8,308.9,45.5,307.6,45z M314.7,36.4L314.7,36.4
		c0-1.5-1.2-2.6-2.7-2.6s-2.7,1-2.7,2.5v0c0,1.5,1.1,2.5,2.7,2.6S314.7,37.9,314.7,36.4z"/>
	<path d="M320.6,28.8c0-0.9,0.8-1.5,1.7-1.5c1,0,1.7,0.6,1.7,1.5v0c0,0.9-0.8,1.5-1.7,1.5C321.3,30.3,320.6,29.8,320.6,28.8
		L320.6,28.8z M320.7,32.9c0-0.9,0.7-1.6,1.6-1.6c0.9,0,1.6,0.7,1.6,1.6l0,8.1c0,0.9-0.7,1.6-1.6,1.6c-0.9,0-1.6-0.7-1.6-1.6
		L320.7,32.9z"/>
	<path d="M327.3,39.3l0-5.2l-0.1,0c-0.7,0-1.3-0.6-1.3-1.3c0-0.7,0.6-1.3,1.3-1.3l0.1,0l0-1.4c0-0.9,0.7-1.6,1.6-1.6
		c0.9,0,1.6,0.7,1.6,1.6l0,1.4l1.4,0c0.7,0,1.3,0.6,1.3,1.3c0,0.7-0.6,1.3-1.3,1.3l-1.4,0l0,4.7c0,0.7,0.3,1.1,1,1.1
		c0.1,0,0.3,0,0.4,0c0.7,0,1.3,0.6,1.3,1.3c0,0.6-0.4,1-0.8,1.2c-0.6,0.2-1.1,0.3-1.8,0.3C328.6,42.6,327.3,41.9,327.3,39.3z"/>
	<path d="M334.7,39.3L334.7,39.3c0-2.4,1.8-3.6,4.4-3.5c1.1,0,1.9,0.2,2.7,0.5V36c0-1.3-0.8-2-2.4-2c-0.9,0-1.6,0.1-2.2,0.3
		c-0.2,0.1-0.3,0.1-0.5,0.1c-0.7,0-1.3-0.6-1.3-1.3c0-0.6,0.4-1,0.8-1.2c1-0.4,2.1-0.6,3.5-0.6c1.7,0,2.9,0.5,3.7,1.2
		c0.8,0.8,1.2,2,1.2,3.5l0,5c0,0.8-0.7,1.5-1.5,1.5c-0.9,0-1.5-0.6-1.5-1.3v0c-0.8,0.8-1.8,1.4-3.3,1.4
		C336.4,42.7,334.7,41.5,334.7,39.3z M341.8,38.6l0-0.6c-0.5-0.2-1.2-0.4-2-0.4c-1.3,0-2.2,0.5-2.2,1.5v0c0,0.8,0.7,1.3,1.7,1.3
		C340.8,40.5,341.8,39.7,341.8,38.6z"/>
	<path d="M347.6,28.9c0-0.9,0.7-1.6,1.6-1.6c0.9,0,1.6,0.7,1.6,1.6l0,12.1c0,0.9-0.7,1.6-1.6,1.6c-0.9,0-1.6-0.7-1.6-1.6L347.6,28.9
		z"/>
</g>
<g>
	<g>
		<path class="st1" d="M84,36.6L84,36.6C82.6,29.3,69.7,22.8,64.9,21c-0.5-0.2-0.9-0.6-1-1.1c-1.2-4-3.3-7.2-6.6-10.1
			c0,0-0.1-0.1-0.1-0.2c0-0.1,0-0.1,0-0.2c0.1-4-2.4-7.9-6.3-9.1c-3.9-1.1-7.7,0.7-10,3.8c-0.1,0.1-0.2,0.2-0.2,0.2c0,0,0,0-0.1,0
			c-0.2,0.1-0.4,0.1-0.5,0.1c0,0,0,0,0,0c-5.4,0.8-10,2.6-13.8,6.2c-0.4,0.4-1,0.5-1.6,0.4C7.5,6.5,2,11.2,0.4,15.3
			c-1.9,4.7,3.1,11.4,8.5,15.7c2.4,1.9,5.1,3.8,8.1,5.5c0.4,0.2,0.7,0.6,0.8,1.1c0.2,0.7,0.3,1.5,0.6,2.2c1.3,4.2,3.6,8.1,6.8,11
			c0.2,0.2,0.4,0.6,0.4,0.9c0,3.9,2.5,7.6,6.3,8.8c3.9,1.2,7.7-0.7,10-3.8c0.3-0.4,0.7-0.3,1.1-0.4c5.7-0.9,10.6-3.7,14.4-7.7
			c0.3-0.4,0.8-0.6,1.3-0.5c1.9,0.1,3.9,0.2,5.9,0.2c0.6,0,1.1,0,1.7,0c4.9-0.1,10-0.6,13.7-3C83.2,43.4,84.6,40.1,84,36.6z"/>
		<g>
			<path class="st0" d="M51.7,45.7c-2.7-0.4-5.3-0.8-7.9-1.3c-7.9-1.6-15-3.9-21.3-6.9c1,4.1,3.1,7.7,6.2,10.3c0,0,0,0,0,0
				c0.9,0.8,1.4,2,1.4,3.3c0,0,0,0,0,0c-0.2,2.2,1,4.3,3,4.9c2,0.6,4.1-0.4,5.3-2.3c0,0,0,0,0,0c0.8-1,1.9-1.7,3.1-1.9l0,0
				c4.5-0.4,8.8-2.5,12.2-5.9C53.1,45.9,52.4,45.8,51.7,45.7z"/>
		</g>
		<g>
			<path class="st0" d="M42.3,34.9c5.9,1.5,11.7,2.4,16.9,2.9c0.2-0.5,0.4-1,0.5-1.5C62.5,27.3,60,18.1,54,13c0,0,0,0,0,0
				c-0.9-0.8-1.4-2-1.4-3.3c0,0,0,0,0,0c0.2-2.2-1-4.3-3-4.9c-2-0.6-4.1,0.4-5.3,2.3c0,0,0,0,0,0c-0.8,1-1.9,1.7-3.1,1.9
				c0,0,0,0,0,0c-7.9,0.7-15.3,6.8-18.1,15.7c-0.3,0.8-0.5,1.6-0.6,2.5C28,30.3,34.8,33,42.3,34.9z M54.1,24.3
				c0.7-0.4,1.6-0.4,2.2,0.4c0.6,0.8,0.2,1.7-0.5,2.2c-0.3,0.2-0.6,0.3-0.9,0.3c-0.5,0-0.9-0.2-1.2-0.7v0
				C53.1,25.6,53.5,24.7,54.1,24.3z M50.9,17.3c0.2-0.5,0.8-0.9,1.3-0.9c0.5,0,1,0.2,1.3,0.7c0.5,0.8,0.2,1.6-0.4,2
				c-0.3,0.2-0.6,0.3-0.9,0.3c-0.4,0-0.9-0.2-1.2-0.7C50.8,18.3,50.7,17.8,50.9,17.3z M47.3,22.6c0.6-0.4,1.4-0.4,1.9,0.3
				c0.5,0.7,0.2,1.5-0.4,1.9c-0.2,0.2-0.5,0.3-0.8,0.3c-0.4,0-0.8-0.2-1.1-0.6v0C46.5,23.7,46.8,23,47.3,22.6z"/>
		</g>
		<g>
			<path d="M79.5,37.4c-0.9-4.7-9.7-10.1-14.3-11.5c-0.7-0.2-1.4,0.1-1.6,0.6c-0.3,0.6,0,1.2,0.7,1.6c4.1,2.2,7.9,4.4,10.5,7.6
				c0.8,1.1,1.1,1.9,0.8,2.6c-0.4,0.8-2.1,2.1-8.9,2.3c-7.2,0.2-15.9-0.9-25.2-3.2c-9.2-2.3-17.4-5.8-23.8-10.2
				c-6.3-4.4-7.7-6.7-7.8-7.9c0-0.4,0.1-0.8,0.5-1.1c2.2-1.7,6.4-0.8,9.7,0l1,0.2c1,0.2,1.8-0.1,2.1-0.8c0.3-0.7,0.1-1.5-0.6-2
				c-3.5-2.5-11.1-3-15.1-1.1c-1.9,0.9-2.8,2.4-2.7,4c0.2,2.4,2.5,5.3,6.8,8.8c3.3,2.7,7.4,5.2,11.9,7.3c6.1,2.9,13,5.1,20.7,6.7
				c2.5,0.5,5.1,1,7.8,1.3c3.9,0.5,9.1,1.1,14.1,1c4.3-0.1,8.6-0.5,11.4-2.3C79.6,40.3,79.8,38.6,79.5,37.4z"/>
		</g>
	</g>
</g>
</svg>
