<?xml version="1.0" encoding="utf-8"?>
<!-- Generator: Adobe Illustrator 25.1.0, SVG Export Plug-In . SVG Version: 6.00 Build 0)  -->
<svg version="1.1" id="Calque_1" xmlns="http://www.w3.org/2000/svg" xmlns:xlink="http://www.w3.org/1999/xlink" x="0px" y="0px"
	 viewBox="0 0 407.6 67.6" style="enable-background:new 0 0 407.6 67.6;" xml:space="preserve">
<style type="text/css">
	.st0{fill:#FEE100;}
	.st1{fill:#FFFFFF;}
</style>
<g>
	<g>
		<g>
			<path class="st0" d="M76.2,36.7c0.5,0.4,1.1,0.8,1.6,1.2c-0.7-0.5-1.3-1-2-1.6c1.7,1.4,3.3,2.5,5.5,3c0.9,0.2,1.7,0.3,2.6,0.4
				c2.5,0.4,5,0.9,7.6,0.8c3.5,0,7-0.1,10.4,0c-1.1-0.1-2.2-0.3-3.3-0.4c2.2,0.3,4,1.1,6.4,1.2c1,0.1,2,0.1,3.1,0.1
				c2.5,0.1,4.9,0.2,7.4,0.3c4.7,0.2,9.4,0.4,14.1,0.4c9.4,0.1,18.8,0.4,28.3,0.5c9.4,0.1,18.9-0.1,28.3-0.1
				c9.4,0.1,18.9,0.2,28.3,0.3c37.6,0.4,75.2,2.1,112.6,5c21.2,1.6,42.3,3.6,63.4,6c4.1,0.5,9.4-2.2,12.1-5c3-3,5.2-7.9,5-12.1
				c-0.2-4.4-1.7-9-5-12.1c-1.2-0.9-2.3-1.8-3.5-2.7c-2.7-1.6-5.6-2.3-8.7-2.3c-37.1-4.1-74.2-7.1-111.5-8.9
				c-37.1-1.8-74.2-2.3-111.3-1.3c-10.5,0.3-20.9,1-31.3,1.9c-5.1,0.4-10.3,0.7-15.4,1.4c-6.3,0.8-12.6,1.7-18.9,2.6
				c1.2-0.2,2.4-0.3,3.5-0.5c-3,0.3-5.1,0.7-7.8,2.1c1-0.4,2.1-0.9,3.1-1.3c-0.8,0.3-1.5,0.6-2.3,0.8c1.1-0.1,2.2-0.3,3.3-0.4
				c-3.9,0.5-7.8,0.8-11.7,1.3c-1.8,0.2-3.5,0.4-5.2,0.9c-0.9,0.3-1.7,0.5-2.6,0.8c-2.3,0.7-4.5,1.4-6.3,3.2
				c-0.6,0.5-1.1,1.1-1.6,1.6c-1.9,1.9-2.6,4.4-2.3,7C72.6,33.4,74,35.1,76.2,36.7L76.2,36.7z"/>
		</g>
	</g>
	<g>
		<path d="M100.6,24.2c0-0.9,0.7-1.6,1.6-1.6c0.9,0,1.6,0.7,1.6,1.6l0,10l5.9,0c0.8,0,1.4,0.6,1.4,1.4s-0.6,1.4-1.4,1.4l-7.4,0
			c-0.9,0-1.6-0.7-1.6-1.6L100.6,24.2z"/>
		<path d="M118,37.4c-3.3,0-5.7-2.3-5.7-5.7v0c0-3.1,2.2-5.7,5.5-5.7c3.7,0,5.3,3,5.3,5.3c0,0.9-0.6,1.5-1.5,1.5l-6.2,0
			c0.3,1.4,1.3,2.2,2.7,2.2c0.9,0,1.6-0.3,2.2-0.7c0.2-0.2,0.4-0.2,0.8-0.2c0.7,0,1.2,0.5,1.2,1.2c0,0.4-0.2,0.7-0.4,0.9
			C120.8,36.9,119.6,37.4,118,37.4z M120,30.8c-0.2-1.4-1-2.3-2.3-2.3c-1.3,0-2.1,0.9-2.4,2.3L120,30.8z"/>
		<path d="M124.7,34L124.7,34c0-2.4,1.8-3.5,4.4-3.5c1.1,0,1.9,0.2,2.7,0.5v-0.2c0-1.3-0.8-2-2.4-2c-0.9,0-1.6,0.1-2.2,0.3
			c-0.2,0.1-0.3,0.1-0.5,0.1c-0.7,0-1.3-0.6-1.3-1.3c0-0.6,0.4-1,0.8-1.2c1-0.4,2.1-0.6,3.5-0.6c1.7,0,2.9,0.5,3.7,1.2
			c0.8,0.8,1.2,2,1.2,3.5l0,5c0,0.8-0.7,1.5-1.5,1.5c-0.9,0-1.5-0.6-1.5-1.3v0c-0.8,0.8-1.8,1.4-3.3,1.4
			C126.4,37.4,124.7,36.2,124.7,34z M131.9,33.3l0-0.6c-0.5-0.2-1.2-0.4-2-0.4c-1.3,0-2.2,0.5-2.2,1.5v0c0,0.8,0.7,1.3,1.7,1.3
			C130.9,35.2,131.9,34.4,131.9,33.3z"/>
		<path d="M137.5,27.6c0-0.9,0.7-1.6,1.6-1.6c0.9,0,1.6,0.7,1.6,1.6l0,0.5c0.5-1.1,1.2-2.1,2.1-2.1c1,0,1.5,0.6,1.5,1.5
			c0,0.8-0.5,1.3-1.2,1.5c-1.6,0.4-2.5,1.6-2.5,3.8l0,2.9c0,0.9-0.7,1.6-1.6,1.6c-0.9,0-1.6-0.7-1.6-1.6L137.5,27.6z"/>
		<path d="M146.1,27.6c0-0.9,0.7-1.6,1.6-1.6c0.9,0,1.6,0.7,1.6,1.6v0.1c0.7-0.9,1.6-1.8,3.2-1.8c2.4,0,3.7,1.6,3.7,4.1l0,5.7
			c0,0.9-0.7,1.6-1.6,1.6c-0.9,0-1.6-0.7-1.6-1.6l0-4.7c0-1.5-0.7-2.2-1.9-2.2s-2,0.8-2,2.2l0,4.7c0,0.9-0.7,1.6-1.6,1.6
			c-0.9,0-1.6-0.7-1.6-1.6L146.1,27.6z"/>
		<path d="M165.1,27.7c0-0.9,0.7-1.6,1.6-1.6c0.9,0,1.6,0.7,1.6,1.6v0.1c0.7-0.9,1.7-1.8,3.2-1.8c1.4,0,2.5,0.6,3.1,1.8
			c1-1.1,2.1-1.7,3.6-1.7c2.3,0,3.7,1.4,3.7,4.1l0,5.7c0,0.9-0.7,1.6-1.6,1.6c-0.9,0-1.6-0.7-1.6-1.6l0-4.7c0-1.5-0.7-2.2-1.8-2.2
			s-1.9,0.8-1.9,2.2l0,4.7c0,0.9-0.7,1.6-1.6,1.6c-0.9,0-1.6-0.7-1.6-1.6l0-4.7c0-1.5-0.7-2.2-1.8-2.2s-1.9,0.8-1.9,2.2l0,4.7
			c0,0.9-0.7,1.6-1.6,1.6c-0.9,0-1.6-0.7-1.6-1.6L165.1,27.7z"/>
		<path d="M184.1,31.8L184.1,31.8c0-3.2,2.6-5.8,6-5.8c3.4,0,5.9,2.5,5.9,5.7l0,0c0,3.2-2.6,5.7-6,5.7
			C186.6,37.5,184.1,35,184.1,31.8z M192.9,31.8L192.9,31.8c0-1.7-1.2-3.1-2.9-3.1c-1.8,0-2.9,1.4-2.9,3l0,0c0,1.6,1.2,3,2.9,3
			C191.8,34.8,192.9,33.5,192.9,31.8z"/>
		<path d="M198.2,27.7c0-0.9,0.7-1.6,1.6-1.6c0.9,0,1.6,0.7,1.6,1.6l0,0.5c0.5-1.1,1.2-2.1,2.1-2.1c1,0,1.5,0.6,1.5,1.5
			c0,0.8-0.5,1.3-1.2,1.5c-1.6,0.4-2.5,1.6-2.5,3.8l0,2.9c0,0.9-0.7,1.6-1.6,1.6c-0.9,0-1.6-0.7-1.6-1.6L198.2,27.7z"/>
		<path d="M211.7,37.6c-3.3,0-5.7-2.3-5.7-5.7v0c0-3.1,2.2-5.7,5.5-5.7c3.7,0,5.3,3,5.3,5.3c0,0.9-0.6,1.5-1.5,1.5l-6.2,0
			c0.3,1.4,1.3,2.2,2.7,2.2c0.9,0,1.6-0.3,2.2-0.7c0.2-0.2,0.4-0.2,0.8-0.2c0.7,0,1.2,0.5,1.2,1.2c0,0.4-0.2,0.7-0.4,0.9
			C214.6,37,213.3,37.6,211.7,37.6z M213.7,30.9c-0.2-1.4-1-2.3-2.3-2.3c-1.3,0-2.1,0.9-2.4,2.3L213.7,30.9z"/>
		<path d="M224.6,34.2L224.6,34.2c0-2.4,1.8-3.5,4.4-3.5c1.1,0,1.9,0.2,2.7,0.5v-0.2c0-1.3-0.8-2-2.4-2c-0.9,0-1.6,0.1-2.2,0.3
			c-0.2,0.1-0.3,0.1-0.5,0.1c-0.7,0-1.3-0.6-1.3-1.3c0-0.6,0.4-1,0.8-1.2c1-0.4,2.1-0.6,3.5-0.6c1.7,0,2.9,0.5,3.7,1.2
			c0.8,0.8,1.2,2,1.2,3.5l0,5c0,0.8-0.7,1.5-1.5,1.5c-0.9,0-1.5-0.6-1.5-1.3v0c-0.8,0.8-1.8,1.4-3.3,1.4
			C226.3,37.5,224.6,36.3,224.6,34.2z M231.8,33.5l0-0.6c-0.5-0.2-1.2-0.4-2-0.4c-1.3,0-2.2,0.5-2.2,1.5v0c0,0.8,0.7,1.3,1.7,1.3
			C230.8,35.4,231.8,34.6,231.8,33.5z"/>
		<path d="M237.4,23.8c0-0.9,0.7-1.6,1.6-1.6c0.9,0,1.6,0.7,1.6,1.6l0,4.1c0.8-1,1.8-1.8,3.4-1.8c2.6,0,5,2,5,5.7l0,0
			c0,3.7-2.4,5.7-5,5.7c-1.7,0-2.7-0.8-3.4-1.6v0c0,0.8-0.7,1.5-1.6,1.5c-0.9,0-1.6-0.7-1.6-1.6L237.4,23.8z M245.9,31.9L245.9,31.9
			c0-1.9-1.2-3.1-2.7-3.1c-1.5,0-2.7,1.2-2.7,3l0,0c0,1.8,1.2,3,2.7,3C244.6,34.9,245.9,33.7,245.9,31.9z"/>
		<path d="M250.8,31.9L250.8,31.9c0-3.2,2.6-5.8,6-5.8c3.4,0,5.9,2.5,5.9,5.7l0,0c0,3.2-2.6,5.7-6,5.7
			C253.3,37.6,250.8,35.1,250.8,31.9z M259.6,31.9L259.6,31.9c0-1.7-1.2-3.1-2.9-3.1c-1.8,0-2.9,1.4-2.9,3l0,0c0,1.6,1.2,3,2.9,3
			C258.5,34.9,259.6,33.6,259.6,31.9z"/>
		<path d="M274.9,36c0,0.9-0.7,1.6-1.6,1.6c-0.9,0-1.6-0.7-1.6-1.6v-0.1c-0.7,0.9-1.6,1.8-3.2,1.8c-2.4,0-3.7-1.6-3.7-4.1l0-5.7
			c0-0.9,0.7-1.6,1.6-1.6c0.9,0,1.6,0.7,1.6,1.6l0,4.7c0,1.5,0.7,2.2,1.9,2.2c1.2,0,2-0.8,2-2.2l0-4.7c0-0.9,0.7-1.6,1.6-1.6
			c0.9,0,1.6,0.7,1.6,1.6L274.9,36z"/>
		<path d="M278.2,34.3l0-5.2h-0.1c-0.7,0-1.3-0.6-1.3-1.3s0.6-1.3,1.3-1.3h0.1l0-1.4c0-0.9,0.7-1.6,1.6-1.6c0.9,0,1.6,0.7,1.6,1.6
			l0,1.4l1.4,0c0.7,0,1.3,0.6,1.3,1.3s-0.6,1.3-1.3,1.3l-1.4,0l0,4.7c0,0.7,0.3,1.1,1,1.1c0.1,0,0.3,0,0.4,0c0.7,0,1.3,0.6,1.3,1.3
			c0,0.6-0.4,1-0.8,1.2c-0.6,0.2-1.1,0.3-1.8,0.3C279.5,37.6,278.2,36.8,278.2,34.3z"/>
		<path d="M292.8,24.6c0-0.9,0.7-1.6,1.6-1.6l5.1,0c1.6,0,2.9,0.5,3.8,1.3c0.7,0.7,1,1.5,1,2.4v0c0,1.6-0.9,2.5-1.9,3.1
			c1.7,0.6,2.7,1.6,2.7,3.5v0c0,2.6-2.1,3.9-5.4,3.9l-5.3,0c-0.9,0-1.6-0.7-1.6-1.6L292.8,24.6z M299.6,34.7c1.4,0,2.2-0.5,2.2-1.6
			v0c0-1-0.7-1.6-2.3-1.6l-3.7,0l0,3.2L299.6,34.7z M298.8,28.9c1.4,0,2.3-0.4,2.3-1.5v0c0-0.9-0.7-1.5-2.1-1.5l-3.1,0l0,3
			L298.8,28.9z"/>
		<path d="M307.3,27.9c0-0.9,0.7-1.6,1.6-1.6c0.9,0,1.6,0.7,1.6,1.6l0,0.5c0.5-1.1,1.2-2.1,2.1-2c1,0,1.5,0.6,1.5,1.5
			c0,0.8-0.5,1.3-1.2,1.5c-1.6,0.4-2.5,1.6-2.5,3.8l0,2.9c0,0.9-0.7,1.6-1.6,1.6c-0.9,0-1.6-0.7-1.6-1.6L307.3,27.9z"/>
		<path d="M314.7,34.3L314.7,34.3c0-2.4,1.8-3.5,4.4-3.5c1.1,0,1.9,0.2,2.7,0.5V31c0-1.3-0.8-2-2.4-2c-0.9,0-1.6,0.1-2.2,0.3
			c-0.2,0.1-0.3,0.1-0.5,0.1c-0.7,0-1.3-0.6-1.3-1.3c0-0.6,0.4-1,0.8-1.2c1-0.4,2.1-0.6,3.5-0.6c1.7,0,2.9,0.5,3.7,1.2
			c0.8,0.8,1.2,2,1.2,3.5l0,5c0,0.8-0.7,1.5-1.5,1.5c-0.9,0-1.5-0.6-1.5-1.3v0c-0.8,0.8-1.8,1.4-3.3,1.4
			C316.4,37.7,314.7,36.5,314.7,34.3z M321.8,33.6l0-0.6c-0.5-0.2-1.2-0.4-2-0.4c-1.3,0-2.2,0.5-2.2,1.5v0c0,0.8,0.7,1.3,1.7,1.3
			C320.8,35.5,321.8,34.7,321.8,33.6z"/>
		<path d="M327.5,27.9c0-0.9,0.7-1.6,1.6-1.6c0.9,0,1.6,0.7,1.6,1.6V28c0.7-0.9,1.6-1.8,3.2-1.8c2.4,0,3.7,1.6,3.7,4.1l0,5.7
			c0,0.9-0.7,1.6-1.6,1.6c-0.9,0-1.6-0.7-1.6-1.6l0-4.7c0-1.5-0.7-2.2-1.9-2.2s-2,0.8-2,2.2l0,4.7c0,0.9-0.7,1.6-1.6,1.6
			c-0.9,0-1.6-0.7-1.6-1.6L327.5,27.9z"/>
		<path d="M351.3,36.1c0,0.9-0.7,1.6-1.6,1.6c-0.9,0-1.6-0.7-1.6-1.6v-0.1c-0.8,1-1.8,1.8-3.4,1.8c-2.6,0-5-2-5-5.7l0,0
			c0-3.7,2.4-5.7,5-5.7c1.7,0,2.7,0.8,3.4,1.6l0-4c0-0.9,0.7-1.6,1.6-1.6c0.9,0,1.6,0.7,1.6,1.6L351.3,36.1z M342.9,32L342.9,32
			c0,1.9,1.2,3.1,2.7,3.1c1.5,0,2.7-1.2,2.7-3l0,0c0-1.8-1.2-3-2.7-3C344.1,29,342.9,30.1,342.9,32z"/>
		<path d="M354.1,23.9c0-0.9,0.8-1.5,1.7-1.5c1,0,1.7,0.6,1.7,1.5v0c0,0.9-0.8,1.5-1.7,1.5C354.9,25.4,354.1,24.8,354.1,23.9
			L354.1,23.9z M354.3,28c0-0.9,0.7-1.6,1.6-1.6c0.9,0,1.6,0.7,1.6,1.6l0,8.1c0,0.9-0.7,1.6-1.6,1.6c-0.9,0-1.6-0.7-1.6-1.6
			L354.3,28z"/>
		<path d="M360.4,28c0-0.9,0.7-1.6,1.6-1.6c0.9,0,1.6,0.7,1.6,1.6v0.1c0.7-0.9,1.6-1.8,3.2-1.8c2.4,0,3.7,1.6,3.7,4.1l0,5.7
			c0,0.9-0.7,1.6-1.6,1.6c-0.9,0-1.6-0.7-1.6-1.6l0-4.7c0-1.5-0.7-2.2-1.9-2.2s-2,0.8-2,2.2l0,4.7c0,0.9-0.7,1.6-1.6,1.6
			c-0.9,0-1.6-0.7-1.6-1.6L360.4,28z"/>
		<path d="M374,40.1c-0.5-0.2-0.9-0.6-0.9-1.2c0-0.7,0.6-1.3,1.3-1.3c0.2,0,0.4,0,0.5,0.1c0.9,0.4,1.9,0.7,3,0.7c2.1,0,3.1-1,3.1-3
			l0-0.5c-0.9,1.1-1.9,1.8-3.6,1.8c-2.6,0-4.9-1.9-4.9-5.1v0c0-3.3,2.4-5.1,4.9-5.1c1.7,0,2.7,0.7,3.5,1.6v0c0-0.8,0.7-1.5,1.6-1.5
			c0.9,0,1.6,0.7,1.6,1.6l0,7.1c0,2-0.5,3.4-1.4,4.3c-1,1-2.6,1.5-4.7,1.5C376.6,40.9,375.3,40.6,374,40.1z M381.1,31.5L381.1,31.5
			c0-1.5-1.2-2.6-2.7-2.6c-1.5,0-2.7,1-2.7,2.5v0c0,1.5,1.1,2.5,2.7,2.6C380,34.1,381.1,33,381.1,31.5z"/>
	</g>
	<g>
		<path d="M92.8,40.6L92.8,40.6c-1.1-5.6-7.1-10.4-12.3-13.4l0,0l0,0c-0.1-0.1-0.2-0.1-0.3-0.2c-0.8-0.4-1.6-0.9-2.6-1.3
			c-0.1,0-0.2-0.1-0.3-0.1c-1.9-0.9-4.1-1.8-6.6-2.7c-1.4-4.5-3.9-8.7-7.5-11.9c0,0,0-0.1-0.1-0.1c0,0-0.1-0.1-0.1-0.2
			c0-0.1,0-0.1-0.1-0.2c0.1-4.5-2.6-8.8-7-10.1c-4.3-1.3-8.5,0.7-11.1,4.2c-0.1,0.1-0.2,0.2-0.3,0.3c0,0,0,0-0.1,0
			C44.4,4.9,44.2,5,44,5c0,0,0,0,0,0c-5.5,0.8-10.5,3.2-14.6,6.9c-3.2-0.6-6.1-1-8.5-1.2l0,0c-5.1-1.1-11-0.8-15,1.2
			c-4,2-6.2,5.5-5.8,9.5c0.4,4.2,3.4,8.4,9.4,13.2c2.9,2.3,6.2,4.5,9.8,6.5c0.2,1.1,0.5,2.2,0.8,3.3c1.4,4.7,4,9.2,7.7,12.4
			c0,0.2,0.2,0.4,0.2,0.5c-0.1,4.4,2.6,8.8,7,10.1c4.3,1.3,8.5-0.7,11.1-4.2c0.1-0.1,0.2-0.2,0.3-0.3c0.1,0,0.2-0.1,0.3-0.1
			c0,0,0,0,0,0c0.2,0,0.4-0.1,0.6-0.1c6.6-1,12.4-4.4,16.7-9.2c2.4,0.2,4.9,0.3,7.4,0.3c0.6,0,1.2,0,1.8,0
			c5.5-0.2,11.1-0.7,15.2-3.3C91.9,48.1,93.5,44.5,92.8,40.6z"/>
		<g>
			<path class="st0" d="M57,50.7c-3-0.4-5.9-0.9-8.8-1.5c-8.7-1.8-16.7-4.4-23.6-7.7c1.1,4.5,3.5,8.6,6.8,11.5c0,0,0,0,0,0
				c1,0.9,1.5,2.2,1.6,3.7c0,0,0,0,0,0c-0.2,2.5,1.1,4.7,3.3,5.5c2.2,0.7,4.6-0.4,5.9-2.5c0,0,0,0,0,0c0.9-1.1,2.1-1.9,3.4-2.1l0,0
				c5-0.5,9.7-2.8,13.5-6.6C58.5,50.9,57.7,50.8,57,50.7z"/>
		</g>
		<g>
			<path class="st0" d="M46.6,38.7c6.6,1.6,12.9,2.7,18.7,3.2c0.2-0.5,0.4-1.1,0.6-1.6c3.2-9.9,0.4-20.1-6.3-25.8c0,0,0,0,0,0
				c-1-0.9-1.5-2.2-1.6-3.7c0,0,0,0,0,0c0.2-2.5-1.1-4.7-3.3-5.5c-2.2-0.7-4.6,0.4-5.9,2.5c0,0,0,0,0,0c-0.9,1.1-2.1,1.9-3.4,2.1
				c0,0,0,0,0,0c-8.8,0.8-16.9,7.5-20.1,17.4c-0.3,0.9-0.5,1.8-0.7,2.7C30.7,33.6,38.3,36.6,46.6,38.7z M59.7,27
				c0.7-0.5,1.8-0.5,2.4,0.4c0.6,0.9,0.2,1.9-0.5,2.4c-0.3,0.2-0.7,0.3-1,0.3c-0.5,0-1-0.2-1.4-0.8v0C58.6,28.4,59,27.4,59.7,27z
				 M56.1,19.2c0.3-0.6,0.9-0.9,1.5-1c0.6,0,1.1,0.2,1.4,0.7c0.6,0.9,0.2,1.8-0.5,2.3c-0.3,0.2-0.6,0.3-1,0.3c-0.5,0-1-0.2-1.3-0.7
				C55.9,20.3,55.9,19.7,56.1,19.2z M52.1,25.1c0.6-0.4,1.5-0.4,2.1,0.4c0.5,0.8,0.2,1.7-0.4,2.1c-0.3,0.2-0.6,0.3-0.9,0.3
				c-0.4,0-0.9-0.2-1.2-0.7v0C51.2,26.4,51.5,25.5,52.1,25.1z"/>
		</g>
		<g>
			<path class="st1" d="M87.9,41.5c-1-5.2-10.8-11.2-15.8-12.7c-0.8-0.3-1.5,0.1-1.7,0.6c-0.3,0.6,0,1.4,0.7,1.7
				c4.5,2.4,8.8,4.8,11.6,8.5c0.9,1.2,1.2,2.2,0.9,2.9c-0.4,0.8-2.3,2.3-9.9,2.5c-8,0.3-17.6-1-27.9-3.5
				C35.5,39,26.4,35.1,19.3,30.2c-7-4.8-8.6-7.4-8.6-8.7c0-0.5,0.2-0.9,0.6-1.2c2.4-1.9,7-0.9,10.7,0l1.1,0.2c1.1,0.3,2-0.1,2.3-0.9
				c0.4-0.7,0.1-1.6-0.7-2.2c-3.8-2.7-12.3-3.3-16.7-1.2c-2.1,1-3.2,2.6-3,4.5c0.3,2.7,2.7,5.9,7.6,9.8c3.7,3,8.2,5.7,13.2,8.2
				c6.7,3.2,14.4,5.7,22.9,7.4c2.8,0.6,5.7,1.1,8.6,1.5c4.3,0.6,10.1,1.3,15.6,1.1c4.7-0.1,9.6-0.5,12.6-2.5
				C88,44.7,88.1,42.8,87.9,41.5z"/>
		</g>
	</g>
</g>
</svg>
