<?xml version="1.0" encoding="utf-8"?>
<!-- Generator: Adobe Illustrator 25.1.0, SVG Export Plug-In . SVG Version: 6.00 Build 0)  -->
<svg version="1.1" id="Calque_1" xmlns="http://www.w3.org/2000/svg" xmlns:xlink="http://www.w3.org/1999/xlink" x="0px" y="0px"
	 viewBox="0 0 271 67.8" style="enable-background:new 0 0 271 67.8;" xml:space="preserve">
<style type="text/css">
	.st0{fill:#FEE100;}
	.st1{fill:#FFFFFF;}
</style>
<g>
	<g>
		<g>
			<path class="st0" d="M179.5,14.3c-13.1,0.4-26.2,1.5-39.3,2.5c-6.7,0.5-13.3,1.1-20,1.9c-3.3,0.4-6.7,0.8-10,1.3
				c-1.5,0.2-3.1,0.4-4.6,0.6c-1.8,0.2-3.7,0.4-5.4,0.9c-1,0.3-1.9,0.6-2.9,0.9c1.2-0.2,2.5-0.3,3.7-0.5c-4.9,0.5-9.7,0.9-14.6,1.5
				c-3.2,0.3-6.2,1.1-9.4,1.9c-2.8,0.7-5,1.7-7.3,3.6c-0.7,0.6-1.5,1.2-2.2,1.8c-5,3.9-2.8,11.7,1.9,14.7l0,0
				c0.7,0.5,1.4,0.9,2.2,1.4c2.4,1.4,4.5,1.7,7.2,2.1c-1-0.1-2.1-0.3-3.1-0.4c4.6,0.7,9.2,1.4,13.9,1.4c3.8,0,7.7-0.1,11.5-0.1
				c-1.2-0.2-2.5-0.3-3.7-0.5c2.6,0.4,4.9,1.2,7.6,1.3c1.3,0.1,2.6,0.1,3.8,0.1c3.1,0.1,6.2,0.2,9.2,0.3c5.9,0.2,11.8,0.4,17.7,0.4
				c11.8,0,23.6,0.4,35.4,0.4s23.6-0.3,35.4-0.3c11.6,0,23.1,0.1,34.7,0.1l10.4-0.3c4.7,0.4,10.4-2.4,13.7-5.7
				c3.4-3.4,5.9-8.8,5.7-13.7c-0.2-5-1.9-10.2-5.7-13.7c-1.3-1-2.6-2-3.9-3c-3-1.7-6.3-2.6-9.8-2.6L179.5,14.3z"/>
		</g>
	</g>
	<g>
		<path d="M121.3,28c0-0.9,0.7-1.6,1.6-1.6s1.6,0.7,1.6,1.6v10h5.9c0.8,0,1.4,0.6,1.4,1.4s-0.6,1.4-1.4,1.4H123
			c-0.9,0-1.6-0.7-1.6-1.6L121.3,28z"/>
		<path d="M138.7,41.2c-3.3,0-5.7-2.3-5.7-5.7l0,0c0-3.1,2.2-5.7,5.5-5.7c3.7,0,5.3,3,5.3,5.3c0,0.9-0.6,1.5-1.5,1.5h-6.2
			c0.3,1.4,1.3,2.2,2.7,2.2c0.9,0,1.6-0.3,2.2-0.7c0.2-0.2,0.4-0.2,0.8-0.2c0.7,0,1.2,0.5,1.2,1.2c0,0.4-0.2,0.7-0.4,0.9
			C141.5,40.7,140.3,41.2,138.7,41.2z M140.7,34.5c-0.2-1.4-1-2.3-2.3-2.3s-2.1,0.9-2.4,2.3H140.7z"/>
		<path d="M145.4,37.8L145.4,37.8c0-2.4,1.8-3.5,4.4-3.5c1.1,0,1.9,0.2,2.7,0.5v-0.2c0-1.3-0.8-2-2.4-2c-0.9,0-1.6,0.1-2.2,0.3
			c-0.2,0.1-0.3,0.1-0.5,0.1c-0.7,0-1.3-0.6-1.3-1.3c0-0.6,0.4-1,0.8-1.2c1-0.4,2.1-0.6,3.5-0.6c1.7,0,2.9,0.5,3.7,1.2
			c0.8,0.8,1.2,2,1.2,3.5v5c0,0.8-0.7,1.5-1.5,1.5c-0.9,0-1.5-0.6-1.5-1.3l0,0c-0.8,0.8-1.8,1.4-3.3,1.4
			C147.1,41.1,145.4,39.9,145.4,37.8z M152.5,37.1v-0.6c-0.5-0.2-1.2-0.4-2-0.4c-1.3,0-2.2,0.5-2.2,1.5l0,0c0,0.8,0.7,1.3,1.7,1.3
			C151.6,39,152.5,38.2,152.5,37.1z"/>
		<path d="M158.2,31.4c0-0.9,0.7-1.6,1.6-1.6c0.9,0,1.6,0.7,1.6,1.6v0.5c0.5-1.1,1.2-2.1,2.1-2.1c1,0,1.5,0.6,1.5,1.5
			c0,0.8-0.5,1.3-1.2,1.5c-1.6,0.4-2.5,1.6-2.5,3.8v2.9c0,0.9-0.7,1.6-1.6,1.6c-0.9,0-1.6-0.7-1.6-1.6L158.2,31.4z"/>
		<path d="M166.8,31.4c0-0.9,0.7-1.6,1.6-1.6c0.9,0,1.6,0.7,1.6,1.6v0.1c0.7-0.9,1.6-1.8,3.2-1.8c2.4,0,3.7,1.6,3.7,4.1v5.7
			c0,0.9-0.7,1.6-1.6,1.6c-0.9,0-1.6-0.7-1.6-1.6v-4.7c0-1.5-0.7-2.2-1.9-2.2s-2,0.8-2,2.2v4.7c0,0.9-0.7,1.6-1.6,1.6
			c-0.9,0-1.6-0.7-1.6-1.6L166.8,31.4z"/>
		<path d="M185.7,31.4c0-0.9,0.7-1.6,1.6-1.6c0.9,0,1.6,0.7,1.6,1.6v0.1c0.7-0.9,1.7-1.8,3.2-1.8c1.4,0,2.5,0.6,3.1,1.8
			c1-1.1,2.1-1.7,3.6-1.7c2.3,0,3.7,1.4,3.7,4.1v5.7c0,0.9-0.7,1.6-1.6,1.6c-0.9,0-1.6-0.7-1.6-1.6v-4.7c0-1.5-0.7-2.2-1.8-2.2
			s-1.9,0.8-1.9,2.2v4.7c0,0.9-0.7,1.6-1.6,1.6c-0.9,0-1.6-0.7-1.6-1.6v-4.7c0-1.5-0.7-2.2-1.8-2.2s-1.9,0.8-1.9,2.2v4.7
			c0,0.9-0.7,1.6-1.6,1.6c-0.9,0-1.6-0.7-1.6-1.6L185.7,31.4z"/>
		<path d="M204.7,35.6L204.7,35.6c0-3.2,2.6-5.8,6-5.8s5.9,2.5,5.9,5.7l0,0c0,3.2-2.6,5.7-6,5.7C207.2,41.3,204.7,38.7,204.7,35.6z
			 M213.6,35.6L213.6,35.6c0-1.7-1.2-3.1-2.9-3.1c-1.8,0-2.9,1.4-2.9,3l0,0c0,1.6,1.2,3,2.9,3C212.5,38.6,213.6,37.2,213.6,35.6z"/>
		<path d="M218.9,31.5c0-0.9,0.7-1.6,1.6-1.6c0.9,0,1.6,0.7,1.6,1.6V32c0.5-1.1,1.2-2.1,2.1-2.1c1,0,1.5,0.6,1.5,1.5
			c0,0.8-0.5,1.3-1.2,1.5c-1.6,0.4-2.5,1.6-2.5,3.8v2.9c0,0.9-0.7,1.6-1.6,1.6c-0.9,0-1.6-0.7-1.6-1.6L218.9,31.5z"/>
		<path d="M232.4,41.3c-3.3,0-5.7-2.3-5.7-5.7l0,0c0-3.1,2.2-5.7,5.5-5.7c3.7,0,5.3,3,5.3,5.3c0,0.9-0.6,1.5-1.5,1.5h-6.2
			c0.3,1.4,1.3,2.2,2.7,2.2c0.9,0,1.6-0.3,2.2-0.7c0.2-0.2,0.4-0.2,0.8-0.2c0.7,0,1.2,0.5,1.2,1.2c0,0.4-0.2,0.7-0.4,0.9
			C235.2,40.8,234,41.3,232.4,41.3z M234.4,34.7c-0.2-1.4-1-2.3-2.3-2.3s-2.1,0.9-2.4,2.3H234.4z"/>
	</g>
	<g>
		<path d="M92.7,40.6L92.7,40.6c-1.1-5.6-7.1-10.4-12.3-13.4l0,0l0,0c-0.1-0.1-0.2-0.1-0.3-0.2c-0.8-0.4-1.6-0.9-2.6-1.3
			c-0.1,0-0.2-0.1-0.3-0.1c-1.9-0.9-4.1-1.8-6.6-2.7c-1.4-4.5-3.9-8.7-7.5-11.9c0,0,0-0.1-0.1-0.1c0,0-0.1-0.1-0.1-0.2
			c0-0.1,0-0.1-0.1-0.2c0.1-4.5-2.6-8.8-7-10.1c-4.3-1.3-8.5,0.7-11.1,4.2c-0.1,0.1-0.2,0.2-0.3,0.3c0,0,0,0-0.1,0
			c0,0-0.2,0.1-0.4,0.1l0,0c-5.5,0.8-10.5,3.2-14.6,6.9c-3.2-0.6-6.1-1-8.5-1.2l0,0c-5.1-1.1-11-0.8-15,1.2s-6.2,5.5-5.8,9.5
			c0.4,4.2,3.4,8.4,9.4,13.2c2.9,2.3,6.2,4.5,9.8,6.5c0.2,1.1,0.5,2.2,0.8,3.3c1.4,4.7,4,9.2,7.7,12.4c0,0.2,0.2,0.4,0.2,0.5
			c-0.1,4.4,2.6,8.8,7,10.1c4.3,1.3,8.5-0.7,11.1-4.2c0.1-0.1,0.2-0.2,0.3-0.3c0.1,0,0.2-0.1,0.3-0.1l0,0c0.2,0,0.4-0.1,0.6-0.1
			c6.6-1,12.4-4.4,16.7-9.2c2.4,0.2,4.9,0.3,7.4,0.3c0.6,0,1.2,0,1.8,0c5.5-0.2,11.1-0.7,15.2-3.3C91.8,48.1,93.4,44.5,92.7,40.6z
			 M27.7,56.6c0-0.1-0.1-0.1-0.1-0.2C27.6,56.4,27.6,56.5,27.7,56.6C27.7,56.5,27.7,56.5,27.7,56.6z"/>
		<g>
			<path class="st0" d="M56.9,50.7c-3-0.4-5.9-0.9-8.8-1.5c-8.7-1.8-16.7-4.4-23.6-7.7C25.6,46,28,50.1,31.3,53l0,0
				c1,0.9,1.5,2.2,1.6,3.7l0,0c-0.2,2.5,1.1,4.7,3.3,5.5c2.2,0.7,4.6-0.4,5.9-2.5l0,0c0.9-1.1,2.1-1.9,3.4-2.1l0,0
				c5-0.5,9.7-2.8,13.5-6.6C58.4,50.9,57.6,50.8,56.9,50.7z"/>
		</g>
		<g>
			<path class="st0" d="M46.5,38.7c6.6,1.6,12.9,2.7,18.7,3.2c0.2-0.5,0.4-1.1,0.6-1.6c3.2-9.9,0.4-20.1-6.3-25.8l0,0
				c-1-0.9-1.5-2.2-1.6-3.7l0,0c0.2-2.5-1.1-4.7-3.3-5.5c-2.2-0.7-4.6,0.4-5.9,2.5l0,0c-0.9,1.1-2.1,1.9-3.4,2.1l0,0
				c-8.8,0.8-16.9,7.5-20.1,17.4c-0.3,0.9-0.5,1.8-0.7,2.7C30.6,33.6,38.2,36.6,46.5,38.7z M59.6,27c0.7-0.5,1.8-0.5,2.4,0.4
				c0.6,0.9,0.2,1.9-0.5,2.4c-0.3,0.2-0.7,0.3-1,0.3c-0.5,0-1-0.2-1.4-0.8l0,0C58.5,28.4,58.9,27.4,59.6,27z M56,19.2
				c0.3-0.6,0.9-0.9,1.5-1c0.6,0,1.1,0.2,1.4,0.7c0.6,0.9,0.2,1.8-0.5,2.3c-0.3,0.2-0.6,0.3-1,0.3c-0.5,0-1-0.2-1.3-0.7
				S55.8,19.7,56,19.2z M52,25.1c0.6-0.4,1.5-0.4,2.1,0.4c0.5,0.8,0.2,1.7-0.4,2.1c-0.3,0.2-0.6,0.3-0.9,0.3c-0.4,0-0.9-0.2-1.2-0.7
				l0,0C51.1,26.4,51.4,25.5,52,25.1z"/>
		</g>
		<g>
			<path class="st1" d="M87.8,41.5C86.8,36.3,77,30.3,72,28.8c-0.8-0.3-1.5,0.1-1.7,0.6c-0.3,0.6,0,1.4,0.7,1.7
				c4.5,2.4,8.8,4.8,11.6,8.5c0.9,1.2,1.2,2.2,0.9,2.9c-0.4,0.8-2.3,2.3-9.9,2.5c-8,0.3-17.6-1-27.9-3.5s-19.4-6.4-26.5-11.3
				c-7-4.8-8.6-7.4-8.6-8.7c0-0.5,0.2-0.9,0.6-1.2c2.4-1.9,7-0.9,10.7,0l1.1,0.2c1.1,0.3,2-0.1,2.3-0.9c0.4-0.7,0.1-1.6-0.7-2.2
				c-3.8-2.7-12.3-3.3-16.7-1.2c-2.1,1-3.2,2.6-3,4.5c0.3,2.7,2.7,5.9,7.6,9.8c3.7,3,8.2,5.7,13.2,8.2c6.7,3.2,14.4,5.7,22.9,7.4
				c2.8,0.6,5.7,1.1,8.6,1.5c4.3,0.6,10.1,1.3,15.6,1.1c4.7-0.1,9.6-0.5,12.6-2.5C87.9,44.7,88,42.8,87.8,41.5z"/>
		</g>
		<path class="st1" d="M5,12"/>
	</g>
</g>
</svg>
