<?xml version="1.0" encoding="utf-8"?>
<!-- Generator: Adobe Illustrator 25.1.0, SVG Export Plug-In . SVG Version: 6.00 Build 0)  -->
<svg version="1.1" id="Calque_1" xmlns="http://www.w3.org/2000/svg" xmlns:xlink="http://www.w3.org/1999/xlink" x="0px" y="0px"
	 viewBox="0 0 481 67.6" style="enable-background:new 0 0 481 67.6;" xml:space="preserve">
<style type="text/css">
	.st0{fill:#FFFFFF;}
	.st1{fill:#FEE100;}
</style>
<g>
	<g>
		<g>
			<path class="st0" d="M69.5,45.4c0.7,0.5,1.4,0.9,2.2,1.4c2.4,1.4,4.5,1.7,7.2,2.1c-1-0.1-2.1-0.3-3.1-0.4
				c4.6,0.7,9.2,1.4,13.9,1.4c3.8,0,7.7-0.1,11.5-0.1c-1.2-0.2-2.5-0.3-3.7-0.5c2.6,0.4,4.9,1.2,7.6,1.3c1.3,0.1,2.6,0.1,3.8,0.1
				c3.1,0.1,6.2,0.2,9.2,0.3c5.9,0.2,11.8,0.4,17.7,0.4c11.8,0,23.6,0.4,35.4,0.4c11.8,0,23.6-0.3,35.4-0.3
				c11.6,0,23.1,0.1,34.7,0.1c47,0.1,94.1,1.5,141,4.1c26.5,1.5,53,3.3,79.4,5.6c4.7,0.4,10.4-2.4,13.7-5.7
				c3.4-3.4,5.9-8.8,5.7-13.7c-0.2-5-1.9-10.2-5.7-13.7c-1.3-1-2.6-2-3.9-3c-3-1.7-6.3-2.6-9.8-2.6c-46.9-3.9-94-6.7-141.1-8.1
				c-47-1.5-94-1.6-141-0.2c-13.1,0.4-26.2,1.5-39.3,2.5c-6.7,0.5-13.3,1.1-20,1.9c-3.3,0.4-6.7,0.8-10,1.3
				c-1.5,0.2-3.1,0.4-4.6,0.6c-1.8,0.2-3.7,0.4-5.4,0.9c-1,0.3-1.9,0.6-2.9,0.9c1.2-0.2,2.5-0.3,3.7-0.5c-4.9,0.5-9.7,0.9-14.6,1.5
				c-3.2,0.3-6.2,1.1-9.4,1.9c-2.8,0.7-5,1.7-7.3,3.6c-0.7,0.6-1.5,1.2-2.2,1.8C62.6,34.6,64.8,42.4,69.5,45.4L69.5,45.4z"/>
		</g>
	</g>
	<g>
		<path d="M94.4,29c0-0.9,0.7-1.6,1.6-1.6c0.9,0,1.6,0.7,1.6,1.6l0,10l5.9,0c0.8,0,1.4,0.6,1.4,1.4s-0.6,1.4-1.4,1.4l-7.4,0
			c-0.9,0-1.6-0.7-1.6-1.6L94.4,29z"/>
		<path d="M111.8,42.2c-3.3,0-5.7-2.3-5.7-5.7v0c0-3.1,2.2-5.7,5.5-5.7c3.7,0,5.3,3,5.3,5.3c0,0.9-0.6,1.5-1.5,1.5l-6.2,0
			c0.3,1.4,1.3,2.2,2.7,2.2c0.9,0,1.6-0.3,2.2-0.7c0.2-0.2,0.4-0.2,0.8-0.2c0.7,0,1.2,0.5,1.2,1.2c0,0.4-0.2,0.7-0.4,0.9
			C114.6,41.7,113.4,42.2,111.8,42.2z M113.8,35.5c-0.2-1.4-1-2.3-2.3-2.3c-1.3,0-2.1,0.9-2.4,2.3L113.8,35.5z"/>
		<path d="M118.5,38.8L118.5,38.8c0-2.4,1.8-3.5,4.4-3.5c1.1,0,1.9,0.2,2.7,0.5v-0.2c0-1.3-0.8-2-2.4-2c-0.9,0-1.6,0.1-2.2,0.3
			c-0.2,0.1-0.3,0.1-0.5,0.1c-0.7,0-1.3-0.6-1.3-1.3c0-0.6,0.4-1,0.8-1.2c1-0.4,2.1-0.6,3.5-0.6c1.7,0,2.9,0.5,3.7,1.2
			c0.8,0.8,1.2,2,1.2,3.5l0,5c0,0.8-0.7,1.5-1.5,1.5c-0.9,0-1.5-0.6-1.5-1.3v0c-0.8,0.8-1.8,1.4-3.3,1.4
			C120.2,42.1,118.5,40.9,118.5,38.8z M125.6,38.1l0-0.6c-0.5-0.2-1.2-0.4-2-0.4c-1.3,0-2.2,0.5-2.2,1.5v0c0,0.8,0.7,1.3,1.7,1.3
			C124.7,40,125.6,39.2,125.6,38.1z"/>
		<path d="M131.3,32.4c0-0.9,0.7-1.6,1.6-1.6c0.9,0,1.6,0.7,1.6,1.6l0,0.5c0.5-1.1,1.2-2.1,2.1-2.1c1,0,1.5,0.6,1.5,1.5
			c0,0.8-0.5,1.3-1.2,1.5c-1.6,0.4-2.5,1.6-2.5,3.8l0,2.9c0,0.9-0.7,1.6-1.6,1.6c-0.9,0-1.6-0.7-1.6-1.6L131.3,32.4z"/>
		<path d="M139.9,32.4c0-0.9,0.7-1.6,1.6-1.6c0.9,0,1.6,0.7,1.6,1.6v0.1c0.7-0.9,1.6-1.8,3.2-1.8c2.4,0,3.7,1.6,3.7,4.1l0,5.7
			c0,0.9-0.7,1.6-1.6,1.6c-0.9,0-1.6-0.7-1.6-1.6l0-4.7c0-1.5-0.7-2.2-1.9-2.2s-2,0.8-2,2.2l0,4.7c0,0.9-0.7,1.6-1.6,1.6
			c-0.9,0-1.6-0.7-1.6-1.6L139.9,32.4z"/>
		<path d="M158.8,32.4c0-0.9,0.7-1.6,1.6-1.6c0.9,0,1.6,0.7,1.6,1.6v0.1c0.7-0.9,1.7-1.8,3.2-1.8c1.4,0,2.5,0.6,3.1,1.8
			c1-1.1,2.1-1.7,3.6-1.7c2.3,0,3.7,1.4,3.7,4.1l0,5.7c0,0.9-0.7,1.6-1.6,1.6c-0.9,0-1.6-0.7-1.6-1.6l0-4.7c0-1.5-0.7-2.2-1.8-2.2
			s-1.9,0.8-1.9,2.2l0,4.7c0,0.9-0.7,1.6-1.6,1.6c-0.9,0-1.6-0.7-1.6-1.6l0-4.7c0-1.5-0.7-2.2-1.8-2.2s-1.9,0.8-1.9,2.2l0,4.7
			c0,0.9-0.7,1.6-1.6,1.6c-0.9,0-1.6-0.7-1.6-1.6L158.8,32.4z"/>
		<path d="M177.8,36.6L177.8,36.6c0-3.2,2.6-5.8,6-5.8c3.4,0,5.9,2.5,5.9,5.7l0,0c0,3.2-2.6,5.7-6,5.7
			C180.3,42.3,177.8,39.7,177.8,36.6z M186.7,36.6L186.7,36.6c0-1.7-1.2-3.1-2.9-3.1c-1.8,0-2.9,1.4-2.9,3l0,0c0,1.6,1.2,3,2.9,3
			C185.6,39.6,186.7,38.2,186.7,36.6z"/>
		<path d="M192,32.5c0-0.9,0.7-1.6,1.6-1.6c0.9,0,1.6,0.7,1.6,1.6l0,0.5c0.5-1.1,1.2-2.1,2.1-2.1c1,0,1.5,0.6,1.5,1.5
			c0,0.8-0.5,1.3-1.2,1.5c-1.6,0.4-2.5,1.6-2.5,3.8l0,2.9c0,0.9-0.7,1.6-1.6,1.6c-0.9,0-1.6-0.7-1.6-1.6L192,32.5z"/>
		<path d="M205.5,42.3c-3.3,0-5.7-2.3-5.7-5.7v0c0-3.1,2.2-5.7,5.5-5.7c3.7,0,5.3,3,5.3,5.3c0,0.9-0.6,1.5-1.5,1.5l-6.2,0
			c0.3,1.4,1.3,2.2,2.7,2.2c0.9,0,1.6-0.3,2.2-0.7c0.2-0.2,0.4-0.2,0.8-0.2c0.7,0,1.2,0.5,1.2,1.2c0,0.4-0.2,0.7-0.4,0.9
			C208.3,41.8,207.1,42.3,205.5,42.3z M207.5,35.7c-0.2-1.4-1-2.3-2.3-2.3c-1.3,0-2.1,0.9-2.4,2.3L207.5,35.7z"/>
		<path d="M218.4,38.9L218.4,38.9c0-2.4,1.8-3.5,4.4-3.5c1.1,0,1.9,0.2,2.7,0.5v-0.2c0-1.3-0.8-2-2.4-2c-0.9,0-1.6,0.1-2.2,0.3
			c-0.2,0.1-0.3,0.1-0.5,0.1c-0.7,0-1.3-0.6-1.3-1.3c0-0.6,0.4-1,0.8-1.2c1-0.4,2.1-0.6,3.5-0.6c1.7,0,2.9,0.5,3.7,1.2
			c0.8,0.8,1.2,2,1.2,3.5l0,5c0,0.8-0.7,1.5-1.5,1.5c-0.9,0-1.5-0.6-1.5-1.3v0c-0.8,0.8-1.8,1.4-3.3,1.4
			C220.1,42.3,218.4,41.1,218.4,38.9z M225.5,38.2l0-0.6c-0.5-0.2-1.2-0.4-2-0.4c-1.3,0-2.2,0.5-2.2,1.5v0c0,0.8,0.7,1.3,1.7,1.3
			C224.6,40.1,225.5,39.3,225.5,38.2z"/>
		<path d="M231.2,28.5c0-0.9,0.7-1.6,1.6-1.6c0.9,0,1.6,0.7,1.6,1.6l0,4.1c0.8-1,1.8-1.8,3.4-1.8c2.6,0,5,2,5,5.7l0,0
			c0,3.7-2.4,5.7-5,5.7c-1.7,0-2.7-0.8-3.4-1.6v0c0,0.8-0.7,1.5-1.6,1.5c-0.9,0-1.6-0.7-1.6-1.6L231.2,28.5z M239.6,36.6L239.6,36.6
			c0-1.9-1.2-3.1-2.7-3.1c-1.5,0-2.7,1.2-2.7,3l0,0c0,1.8,1.2,3,2.7,3C238.4,39.7,239.6,38.5,239.6,36.6z"/>
		<path d="M244.5,36.7L244.5,36.7c0-3.2,2.6-5.8,6-5.8c3.4,0,5.9,2.5,5.9,5.7l0,0c0,3.2-2.6,5.7-6,5.7
			C247,42.4,244.5,39.8,244.5,36.7z M253.4,36.7L253.4,36.7c0-1.7-1.2-3.1-2.9-3.1c-1.8,0-2.9,1.4-2.9,3l0,0c0,1.6,1.2,3,2.9,3
			C252.3,39.7,253.4,38.3,253.4,36.7z"/>
		<path d="M268.7,40.7c0,0.9-0.7,1.6-1.6,1.6c-0.9,0-1.6-0.7-1.6-1.6v-0.1c-0.7,0.9-1.6,1.8-3.2,1.8c-2.4,0-3.7-1.6-3.7-4.1l0-5.7
			c0-0.9,0.7-1.6,1.6-1.6c0.9,0,1.6,0.7,1.6,1.6l0,4.7c0,1.5,0.7,2.2,1.9,2.2c1.2,0,2-0.8,2-2.2l0-4.7c0-0.9,0.7-1.6,1.6-1.6
			c0.9,0,1.6,0.7,1.6,1.6L268.7,40.7z"/>
		<path d="M272,39l0-5.2h-0.1c-0.7,0-1.3-0.6-1.3-1.3c0-0.7,0.6-1.3,1.3-1.3h0.1l0-1.4c0-0.9,0.7-1.6,1.6-1.6c0.9,0,1.6,0.7,1.6,1.6
			l0,1.4l1.4,0c0.7,0,1.3,0.6,1.3,1.3c0,0.7-0.6,1.3-1.3,1.3l-1.4,0l0,4.7c0,0.7,0.3,1.1,1,1.1c0.1,0,0.3,0,0.4,0
			c0.7,0,1.3,0.6,1.3,1.3c0,0.6-0.4,1-0.8,1.2c-0.6,0.2-1.1,0.3-1.8,0.3C273.3,42.4,272,41.6,272,39z"/>
		<path d="M286.7,29.3c0-0.9,0.7-1.6,1.6-1.6c0.9,0,1.6,0.7,1.6,1.6l0,11.5c0,0.9-0.7,1.6-1.6,1.6c-0.9,0-1.6-0.7-1.6-1.6
			L286.7,29.3z"/>
		<path d="M293.1,32.6c0-0.9,0.7-1.6,1.6-1.6c0.9,0,1.6,0.7,1.6,1.6v0.1c0.7-0.9,1.7-1.8,3.2-1.8c1.4,0,2.5,0.6,3.1,1.8
			c1-1.1,2.1-1.7,3.6-1.7c2.3,0,3.7,1.4,3.7,4.1l0,5.7c0,0.9-0.7,1.6-1.6,1.6c-0.9,0-1.6-0.7-1.6-1.6l0-4.7c0-1.5-0.7-2.2-1.8-2.2
			c-1.2,0-1.9,0.8-1.9,2.2l0,4.7c0,0.9-0.7,1.6-1.6,1.6c-0.9,0-1.6-0.7-1.6-1.6l0-4.7c0-1.5-0.7-2.2-1.8-2.2s-1.9,0.8-1.9,2.2l0,4.7
			c0,0.9-0.7,1.6-1.6,1.6c-0.9,0-1.6-0.7-1.6-1.6L293.1,32.6z"/>
		<path d="M312.6,32.7c0-0.9,0.7-1.6,1.6-1.6c0.9,0,1.6,0.7,1.6,1.6v0.1c0.8-1,1.8-1.8,3.4-1.8c2.6,0,5,2,5,5.7l0,0
			c0,3.7-2.4,5.7-5,5.7c-1.7,0-2.7-0.8-3.4-1.6l0,3.3c0,0.9-0.7,1.6-1.6,1.6c-0.9,0-1.6-0.7-1.6-1.6L312.6,32.7z M321,36.8L321,36.8
			c0-1.9-1.2-3.1-2.7-3.1c-1.5,0-2.7,1.2-2.7,3l0,0c0,1.8,1.2,3,2.7,3C319.8,39.8,321,38.6,321,36.8z"/>
		<path d="M325.8,39.1L325.8,39.1c0-2.4,1.8-3.5,4.4-3.5c1.1,0,1.9,0.2,2.7,0.5v-0.2c0-1.3-0.8-2-2.4-2c-0.9,0-1.6,0.1-2.2,0.3
			c-0.2,0.1-0.3,0.1-0.5,0.1c-0.7,0-1.3-0.6-1.3-1.3c0-0.6,0.4-1,0.8-1.2c1-0.4,2.1-0.6,3.5-0.6c1.7,0,2.9,0.5,3.7,1.2
			c0.8,0.8,1.2,2,1.2,3.5l0,5c0,0.8-0.7,1.5-1.5,1.5c-0.9,0-1.5-0.6-1.5-1.3v0c-0.8,0.8-1.8,1.4-3.3,1.4
			C327.5,42.5,325.8,41.3,325.8,39.1z M333,38.4l0-0.6c-0.5-0.2-1.2-0.4-2-0.4c-1.3,0-2.2,0.5-2.2,1.5v0c0,0.8,0.7,1.3,1.7,1.3
			C332,40.3,333,39.5,333,38.4z"/>
		<path d="M338.1,36.8L338.1,36.8c0-3.2,2.4-5.8,5.8-5.8c1.7,0,2.8,0.5,3.8,1.2c0.2,0.2,0.5,0.5,0.5,1.1c0,0.8-0.6,1.4-1.4,1.4
			c-0.4,0-0.7-0.2-0.9-0.3c-0.6-0.4-1.1-0.7-2-0.7c-1.6,0-2.7,1.4-2.7,3l0,0c0,1.7,1.1,3,2.8,3c0.8,0,1.5-0.3,2.1-0.8
			c0.2-0.1,0.5-0.3,0.8-0.3c0.7,0,1.3,0.6,1.3,1.3c0,0.4-0.2,0.7-0.5,1c-0.9,0.8-2.1,1.4-3.9,1.4C340.5,42.5,338.1,40,338.1,36.8z"
			/>
		<path d="M350.9,39.2l0-5.2h-0.1c-0.7,0-1.3-0.6-1.3-1.3c0-0.7,0.6-1.3,1.3-1.3h0.1l0-1.4c0-0.9,0.7-1.6,1.6-1.6
			c0.9,0,1.6,0.7,1.6,1.6l0,1.4l1.4,0c0.7,0,1.3,0.6,1.3,1.3c0,0.7-0.6,1.3-1.3,1.3l-1.4,0l0,4.7c0,0.7,0.3,1.1,1,1.1
			c0.1,0,0.3,0,0.4,0c0.7,0,1.3,0.6,1.3,1.3c0,0.6-0.4,1-0.8,1.2c-0.6,0.2-1.1,0.3-1.8,0.3C352.1,42.5,350.9,41.7,350.9,39.2z"/>
		<path d="M365.1,40.8c-0.3-0.2-0.6-0.7-0.6-1.2c0-0.8,0.7-1.5,1.5-1.5c0.4,0,0.7,0.1,0.9,0.3c1.1,0.8,2.3,1.3,3.7,1.3
			c1.3,0,2.1-0.5,2.1-1.4v0c0-0.8-0.5-1.2-2.9-1.8c-2.9-0.7-4.8-1.5-4.8-4.4v0c0-2.6,2.1-4.3,5-4.3c1.7,0,3.3,0.5,4.6,1.3
			c0.3,0.2,0.7,0.6,0.7,1.3c0,0.8-0.7,1.5-1.5,1.5c-0.3,0-0.6-0.1-0.8-0.2c-1-0.6-2-1-3-1c-1.2,0-1.8,0.6-1.9,1.2v0
			c0,0.9,0.6,1.3,3.1,1.9c2.9,0.8,4.6,1.8,4.6,4.3l0,0c0,2.9-2.2,4.5-5.3,4.4C368.6,42.5,366.7,41.9,365.1,40.8z"/>
		<path d="M378.6,39.2l0-5.2h-0.1c-0.7,0-1.3-0.6-1.3-1.3c0-0.7,0.6-1.3,1.3-1.3h0.1l0-1.4c0-0.9,0.7-1.6,1.6-1.6
			c0.9,0,1.6,0.7,1.6,1.6l0,1.4l1.4,0c0.7,0,1.3,0.6,1.3,1.3c0,0.7-0.6,1.3-1.3,1.3l-1.4,0l0,4.7c0,0.7,0.3,1.1,1,1.1
			c0.1,0,0.3,0,0.4,0c0.7,0,1.3,0.6,1.3,1.3c0,0.6-0.4,1-0.8,1.2c-0.6,0.2-1.1,0.3-1.8,0.3C379.9,42.5,378.6,41.8,378.6,39.2z"/>
		<path d="M386.6,32.8c0-0.9,0.7-1.6,1.6-1.6c0.9,0,1.6,0.7,1.6,1.6l0,0.5c0.5-1.1,1.2-2.1,2.1-2c1,0,1.5,0.6,1.5,1.5
			c0,0.8-0.5,1.3-1.2,1.5c-1.6,0.4-2.5,1.6-2.5,3.8l0,2.9c0,0.9-0.7,1.6-1.6,1.6c-0.9,0-1.6-0.7-1.6-1.6L386.6,32.8z"/>
		<path d="M394,39.2L394,39.2c0-2.4,1.8-3.5,4.4-3.5c1.1,0,1.9,0.2,2.7,0.5v-0.2c0-1.3-0.8-2-2.4-2c-0.9,0-1.6,0.1-2.2,0.3
			c-0.2,0.1-0.3,0.1-0.5,0.1c-0.7,0-1.3-0.6-1.3-1.3c0-0.6,0.4-1,0.8-1.2c1-0.4,2.1-0.6,3.5-0.6c1.7,0,2.9,0.5,3.7,1.2
			c0.8,0.8,1.2,2,1.2,3.5l0,5c0,0.8-0.7,1.5-1.5,1.5c-0.9,0-1.5-0.6-1.5-1.3v0c-0.8,0.8-1.8,1.4-3.3,1.4
			C395.7,42.6,394,41.4,394,39.2z M401.2,38.5l0-0.6c-0.5-0.2-1.2-0.4-2-0.4c-1.3,0-2.2,0.5-2.2,1.5v0c0,0.8,0.7,1.3,1.7,1.3
			C400.2,40.4,401.2,39.6,401.2,38.5z"/>
		<path d="M407.2,39.3l0-5.2h-0.1c-0.7,0-1.3-0.6-1.3-1.3c0-0.7,0.6-1.3,1.3-1.3h0.1l0-1.4c0-0.9,0.7-1.6,1.6-1.6
			c0.9,0,1.6,0.7,1.6,1.6l0,1.4l1.4,0c0.7,0,1.3,0.6,1.3,1.3c0,0.7-0.6,1.3-1.3,1.3l-1.4,0l0,4.7c0,0.7,0.3,1.1,1,1.1
			c0.1,0,0.3,0,0.4,0c0.7,0,1.3,0.6,1.3,1.3c0,0.6-0.4,1-0.8,1.2c-0.6,0.2-1.1,0.3-1.8,0.3C408.5,42.6,407.2,41.8,407.2,39.3z"/>
		<path d="M420.2,42.6c-3.3,0-5.7-2.3-5.7-5.7v0c0-3.1,2.2-5.7,5.5-5.7c3.7,0,5.3,3,5.3,5.3c0,0.9-0.6,1.5-1.5,1.5l-6.2,0
			c0.3,1.4,1.3,2.2,2.7,2.2c0.9,0,1.6-0.3,2.2-0.7c0.2-0.2,0.4-0.2,0.8-0.2c0.7,0,1.2,0.5,1.2,1.2c0,0.4-0.2,0.7-0.4,0.9
			C423,42.1,421.8,42.7,420.2,42.6z M422.2,36c-0.2-1.4-1-2.3-2.3-2.3c-1.3,0-2.1,0.9-2.4,2.3L422.2,36z"/>
		<path d="M428.4,45c-0.5-0.2-0.9-0.6-0.9-1.2c0-0.7,0.6-1.3,1.3-1.3c0.2,0,0.4,0,0.5,0.1c0.9,0.4,1.9,0.7,3,0.7c2.1,0,3.1-1,3.1-3
			l0-0.5c-0.9,1.1-1.9,1.8-3.6,1.8c-2.6,0-4.9-1.9-4.9-5.1v0c0-3.3,2.4-5.1,4.9-5.1c1.7,0,2.7,0.7,3.5,1.6v0c0-0.8,0.7-1.5,1.6-1.5
			c0.9,0,1.6,0.7,1.6,1.6l0,7.1c0,2-0.5,3.4-1.4,4.3c-1,1-2.6,1.5-4.7,1.5C431,45.7,429.7,45.5,428.4,45z M435.5,36.4L435.5,36.4
			c0-1.5-1.2-2.6-2.7-2.6c-1.5,0-2.7,1-2.7,2.5v0c0,1.5,1.1,2.5,2.7,2.6C434.4,38.9,435.5,37.9,435.5,36.4z"/>
		<path d="M442,45.5c-0.5-0.2-1-0.5-1-1.3c0-0.8,0.6-1.3,1.2-1.3c0.2,0,0.4,0,0.5,0.1c0.3,0.1,0.4,0.1,0.7,0.1
			c0.6,0,0.8-0.1,1.1-0.7l0.1-0.2l-3.7-8.7c-0.1-0.2-0.2-0.5-0.2-0.7c0-0.9,0.7-1.5,1.5-1.5c0.8,0,1.2,0.4,1.5,1.2l2.4,6.4l2.3-6.4
			c0.2-0.7,0.7-1.2,1.5-1.2c0.8,0,1.5,0.6,1.5,1.4c0,0.2-0.1,0.6-0.1,0.7l-3.9,9.2c-0.9,2.2-1.9,3.1-3.7,3.1
			C443,45.8,442.5,45.7,442,45.5z"/>
	</g>
	<g>
		<path class="st0" d="M92.8,40.6L92.8,40.6c-1.1-5.6-7.1-10.4-12.3-13.4l0,0l0,0c-0.1-0.1-0.2-0.1-0.3-0.2
			c-0.8-0.4-1.6-0.9-2.6-1.3c-0.1,0-0.2-0.1-0.3-0.1c-1.9-0.9-4.1-1.8-6.6-2.7c-1.4-4.5-3.9-8.7-7.5-11.9c0,0,0-0.1-0.1-0.1
			c0,0-0.1-0.1-0.1-0.2c0-0.1,0-0.1-0.1-0.2c0.1-4.5-2.6-8.8-7-10.1c-4.3-1.3-8.5,0.7-11.1,4.2c-0.1,0.1-0.2,0.2-0.3,0.3
			c0,0,0,0-0.1,0C44.4,4.9,44.2,5,44,5c0,0,0,0,0,0c-5.5,0.8-10.5,3.2-14.6,6.9c-3.2-0.6-6.1-1-8.5-1.2l0,0c-5.1-1.1-11-0.8-15,1.2
			c-4,2-6.2,5.5-5.8,9.5c0.4,4.2,3.4,8.4,9.4,13.2c2.9,2.3,6.2,4.5,9.8,6.5c0.2,1.1,0.5,2.2,0.8,3.3c1.4,4.7,4,9.2,7.7,12.4
			c0,0.2,0.2,0.4,0.2,0.5c-0.1,4.4,2.6,8.8,7,10.1c4.3,1.3,8.5-0.7,11.1-4.2c0.1-0.1,0.2-0.2,0.3-0.3c0.1,0,0.2-0.1,0.3-0.1
			c0,0,0,0,0,0c0.2,0,0.4-0.1,0.6-0.1c6.6-1,12.4-4.4,16.7-9.2c2.4,0.2,4.9,0.3,7.4,0.3c0.6,0,1.2,0,1.8,0
			c5.5-0.2,11.1-0.7,15.2-3.3C91.9,48.1,93.5,44.5,92.8,40.6z M27.8,56.6c0-0.1-0.1-0.1-0.1-0.2C27.7,56.4,27.7,56.5,27.8,56.6
			C27.8,56.5,27.8,56.5,27.8,56.6z"/>
		<g>
			<path class="st1" d="M57,50.7c-3-0.4-5.9-0.9-8.8-1.5c-8.7-1.8-16.7-4.4-23.6-7.7c1.1,4.5,3.5,8.6,6.8,11.5c0,0,0,0,0,0
				c1,0.9,1.5,2.2,1.6,3.7c0,0,0,0,0,0c-0.2,2.5,1.1,4.7,3.3,5.5c2.2,0.7,4.6-0.4,5.9-2.5c0,0,0,0,0,0c0.9-1.1,2.1-1.9,3.4-2.1l0,0
				c5-0.5,9.7-2.8,13.5-6.6C58.5,50.9,57.7,50.8,57,50.7z"/>
		</g>
		<g>
			<path class="st1" d="M46.6,38.7c6.6,1.6,12.9,2.7,18.7,3.2c0.2-0.5,0.4-1.1,0.6-1.6c3.2-9.9,0.4-20.1-6.3-25.8c0,0,0,0,0,0
				c-1-0.9-1.5-2.2-1.6-3.7c0,0,0,0,0,0c0.2-2.5-1.1-4.7-3.3-5.5c-2.2-0.7-4.6,0.4-5.9,2.5c0,0,0,0,0,0c-0.9,1.1-2.1,1.9-3.4,2.1
				c0,0,0,0,0,0c-8.8,0.8-16.9,7.5-20.1,17.4c-0.3,0.9-0.5,1.8-0.7,2.7C30.7,33.6,38.3,36.6,46.6,38.7z M59.7,27
				c0.7-0.5,1.8-0.5,2.4,0.4c0.6,0.9,0.2,1.9-0.5,2.4c-0.3,0.2-0.7,0.3-1,0.3c-0.5,0-1-0.2-1.4-0.8v0C58.6,28.4,59,27.4,59.7,27z
				 M56.1,19.2c0.3-0.6,0.9-0.9,1.5-1c0.6,0,1.1,0.2,1.4,0.7c0.6,0.9,0.2,1.8-0.5,2.3c-0.3,0.2-0.6,0.3-1,0.3c-0.5,0-1-0.2-1.3-0.7
				C55.9,20.3,55.9,19.7,56.1,19.2z M52.1,25.1c0.6-0.4,1.5-0.4,2.1,0.4c0.5,0.8,0.2,1.7-0.4,2.1c-0.3,0.2-0.6,0.3-0.9,0.3
				c-0.4,0-0.9-0.2-1.2-0.7v0C51.2,26.4,51.5,25.5,52.1,25.1z"/>
		</g>
		<g>
			<path d="M87.9,41.5c-1-5.2-10.8-11.2-15.8-12.7c-0.8-0.3-1.5,0.1-1.7,0.6c-0.3,0.6,0,1.4,0.7,1.7c4.5,2.4,8.8,4.8,11.6,8.5
				c0.9,1.2,1.2,2.2,0.9,2.9c-0.4,0.8-2.3,2.3-9.9,2.5c-8,0.3-17.6-1-27.9-3.5C35.5,39,26.4,35.1,19.3,30.2c-7-4.8-8.6-7.4-8.6-8.7
				c0-0.5,0.2-0.9,0.6-1.2c2.4-1.9,7-0.9,10.7,0l1.1,0.2c1.1,0.3,2-0.1,2.3-0.9c0.4-0.7,0.1-1.6-0.7-2.2c-3.8-2.7-12.3-3.3-16.7-1.2
				c-2.1,1-3.2,2.6-3,4.5c0.3,2.7,2.7,5.9,7.6,9.8c3.7,3,8.2,5.7,13.2,8.2c6.7,3.2,14.4,5.7,22.9,7.4c2.8,0.6,5.7,1.1,8.6,1.5
				c4.3,0.6,10.1,1.3,15.6,1.1c4.7-0.1,9.6-0.5,12.6-2.5C88,44.7,88.1,42.8,87.9,41.5z"/>
		</g>
		<path class="st0" d="M5.1,12"/>
	</g>
</g>
</svg>
