<?xml version="1.0" encoding="utf-8"?>
<!-- Generator: Adobe Illustrator 25.1.0, SVG Export Plug-In . SVG Version: 6.00 Build 0)  -->
<svg version="1.1" id="Calque_1" xmlns="http://www.w3.org/2000/svg" xmlns:xlink="http://www.w3.org/1999/xlink" x="0px" y="0px"
	 viewBox="0 0 419.9 67.8" style="enable-background:new 0 0 419.9 67.8;" xml:space="preserve">
<style type="text/css">
	.st0{fill:#FEE100;}
	.st1{fill:#FFFFFF;}
</style>
<g>
	<g>
		<path class="st0" d="M56.8,37.2c0.6,0.5,1.3,0.9,1.8,1.4c-0.8-0.6-1.5-1.2-2.3-1.8c2,1.6,3.8,2.9,6.3,3.5c1,0.2,2,0.3,3,0.5
			c2.9,0.5,5.8,1,8.8,0.9c4,0,8.1-0.1,12,0c-1.3-0.1-2.5-0.3-3.8-0.5c2.5,0.3,4.6,1.3,7.4,1.4c1.2,0.1,2.3,2.2,3.6,2.2
			c2.9,0.1,5.6,1.3,8.5,1.4c5.4,0.2,10.8,0.5,16.3,0.5c10.8,0.1,21.7-0.6,32.6-0.5c10.8,0.1,21.8-0.1,32.6-0.1
			c10.8,0.1,21.8,0.2,32.6,0.3c43.4,0.5,86.7,2.4,129.8,5.8c24.4,1.8,29.8,1.1,54.1,3.9c4.7,0.6,10.8-2.5,14-5.8
			c3.5-3.5,6-9.1,5.8-14c-0.2-5.1-2-10.4-5.8-14c-1.4-1-2.7-2.1-4-3.1c-3.1-1.8-6.5-2.7-10-2.7c-42.8-4.7-66.6-7.2-109.6-9.3
			c-42.8-2.1-85.6-2.7-128.3-1.5C150,6.1,138,6.9,126.1,7.9c-5.9,0.5-11.9,0.8-17.8,1.6c-7.3,0.9-14.5,2-21.8,3
			c1.4-0.2,2.8-0.3,4-0.6c-3.5,0.3-5.9,0.8-9,2.4c1.2-0.5,2.4-1,3.6-1.5c-0.9,0.3-1.7,0.7-2.7,0.9c1.3-0.1,2.5-0.3,3.8-0.5
			c-4.5,0.6-9,0.9-13.5,1.5c-2.1,0.2-4,0.5-6,1c-1,0.3-2,0.6-3,0.9c-2.7,0.8-5.2,1.6-7.3,3.7c-0.7,0.6-1.3,1.3-1.8,1.8
			c-2.2,2.2-3,5.1-2.7,8.1C52.6,33.4,54.2,35.4,56.8,37.2L56.8,37.2z"/>
	</g>
</g>
<g>
	<g>
		<path d="M92.7,40.6L92.7,40.6c-1.1-5.6-7.1-10.4-12.3-13.4l0,0l0,0c-0.1-0.1-0.2-0.1-0.3-0.2c-0.8-0.4-1.6-0.9-2.6-1.3
			c-0.1,0-0.2-0.1-0.3-0.1c-1.9-0.9-4.1-1.8-6.6-2.7c-1.4-4.5-3.9-8.7-7.5-11.9c0,0,0-0.1-0.1-0.1c0,0-0.1-0.1-0.1-0.2
			c0-0.1,0-0.1-0.1-0.2c0.1-4.5-2.6-8.8-7-10.1c-4.3-1.3-8.5,0.7-11.1,4.2c-0.1,0.1-0.2,0.2-0.3,0.3c0,0,0,0-0.1,0
			c0,0-0.2,0.1-0.4,0.1l0,0c-5.5,0.8-10.5,3.2-14.6,6.9c-3.2-0.6-6.1-1-8.5-1.2l0,0c-5.1-1.1-11-0.8-15,1.2s-6.2,5.5-5.8,9.5
			c0.4,4.2,3.4,8.4,9.4,13.2c2.9,2.3,6.2,4.5,9.8,6.5c0.2,1.1,0.5,2.2,0.8,3.3c1.4,4.7,4,9.2,7.7,12.4c0,0.2,0.2,0.4,0.2,0.5
			c-0.1,4.4,2.6,8.8,7,10.1c4.3,1.3,8.5-0.7,11.1-4.2c0.1-0.1,0.2-0.2,0.3-0.3c0.1,0,0.2-0.1,0.3-0.1l0,0c0.2,0,0.4-0.1,0.6-0.1
			c6.6-1,12.4-4.4,16.7-9.2c2.4,0.2,4.9,0.3,7.4,0.3c0.6,0,1.2,0,1.8,0c5.5-0.2,11.1-0.7,15.2-3.3C91.8,48.1,93.4,44.5,92.7,40.6z"
			/>
		<g>
			<path class="st0" d="M56.9,50.7c-3-0.4-5.9-0.9-8.8-1.5c-8.7-1.8-16.7-4.4-23.6-7.7C25.6,46,28,50.1,31.3,53l0,0
				c1,0.9,1.5,2.2,1.6,3.7l0,0c-0.2,2.5,1.1,4.7,3.3,5.5c2.2,0.7,4.6-0.4,5.9-2.5l0,0c0.9-1.1,2.1-1.9,3.4-2.1l0,0
				c5-0.5,9.7-2.8,13.5-6.6C58.4,50.9,57.6,50.8,56.9,50.7z"/>
		</g>
		<g>
			<path class="st0" d="M46.5,38.7c6.6,1.6,12.9,2.7,18.7,3.2c0.2-0.5,0.4-1.1,0.6-1.6c3.2-9.9,0.4-20.1-6.3-25.8l0,0
				c-1-0.9-1.5-2.2-1.6-3.7l0,0c0.2-2.5-1.1-4.7-3.3-5.5c-2.2-0.7-4.6,0.4-5.9,2.5l0,0c-0.9,1.1-2.1,1.9-3.4,2.1l0,0
				c-8.8,0.8-16.9,7.5-20.1,17.4c-0.3,0.9-0.5,1.8-0.7,2.7C30.6,33.6,38.2,36.6,46.5,38.7z M59.6,27c0.7-0.5,1.8-0.5,2.4,0.4
				c0.6,0.9,0.2,1.9-0.5,2.4c-0.3,0.2-0.7,0.3-1,0.3c-0.5,0-1-0.2-1.4-0.8l0,0C58.5,28.4,58.9,27.4,59.6,27z M56,19.2
				c0.3-0.6,0.9-0.9,1.5-1c0.6,0,1.1,0.2,1.4,0.7c0.6,0.9,0.2,1.8-0.5,2.3c-0.3,0.2-0.6,0.3-1,0.3c-0.5,0-1-0.2-1.3-0.7
				S55.8,19.7,56,19.2z M52,25.1c0.6-0.4,1.5-0.4,2.1,0.4c0.5,0.8,0.2,1.7-0.4,2.1c-0.3,0.2-0.6,0.3-0.9,0.3c-0.4,0-0.9-0.2-1.2-0.7
				l0,0C51.1,26.4,51.4,25.5,52,25.1z"/>
		</g>
		<g>
			<path class="st1" d="M87.8,41.5C86.8,36.3,77,30.3,72,28.8c-0.8-0.3-1.5,0.1-1.7,0.6c-0.3,0.6,0,1.4,0.7,1.7
				c4.5,2.4,8.8,4.8,11.6,8.5c0.9,1.2,1.2,2.2,0.9,2.9c-0.4,0.8-2.3,2.3-9.9,2.5c-8,0.3-17.6-1-27.9-3.5s-19.4-6.4-26.5-11.3
				c-7-4.8-8.6-7.4-8.6-8.7c0-0.5,0.2-0.9,0.6-1.2c2.4-1.9,7-0.9,10.7,0l1.1,0.2c1.1,0.3,2-0.1,2.3-0.9c0.4-0.7,0.1-1.6-0.7-2.2
				c-3.8-2.7-12.3-3.3-16.7-1.2c-2.1,1-3.2,2.6-3,4.5c0.3,2.7,2.7,5.9,7.6,9.8c3.7,3,8.2,5.7,13.2,8.2c6.7,3.2,14.4,5.7,22.9,7.4
				c2.8,0.6,5.7,1.1,8.6,1.5c4.3,0.6,10.1,1.3,15.6,1.1c4.7-0.1,9.6-0.5,12.6-2.5C87.9,44.7,88,42.8,87.8,41.5z"/>
		</g>
	</g>
</g>
<g>
	<path d="M100.5,35.1V24.2c0-0.9,0.7-1.5,1.5-1.5h7.8c0.8,0,1.4,0.6,1.4,1.4c0,0.8-0.6,1.4-1.4,1.4h-6.2v2.8h5.3
		c0.8,0,1.4,0.6,1.4,1.4c0,0.8-0.6,1.4-1.4,1.4h-5.3v2.9h6.3c0.8,0,1.4,0.6,1.4,1.4s-0.6,1.4-1.4,1.4h-7.9
		C101.2,36.6,100.5,35.9,100.5,35.1z"/>
	<path d="M113.6,27.3c0-0.8,0.7-1.5,1.5-1.5c0.8,0,1.5,0.7,1.5,1.5v0.1c0.7-0.9,1.6-1.7,3.1-1.7c2.3,0,3.6,1.5,3.6,4v5.5
		c0,0.8-0.7,1.5-1.5,1.5s-1.5-0.7-1.5-1.5v-4.6c0-1.4-0.7-2.2-1.8-2.2s-1.9,0.7-1.9,2.2v4.6c0,0.8-0.7,1.5-1.5,1.5
		c-0.8,0-1.5-0.7-1.5-1.5V27.3z"/>
	<path d="M131.8,35.6c-0.3-0.2-0.6-0.6-0.6-1c0-0.7,0.5-1.2,1.2-1.2c0.2,0,0.4,0.1,0.6,0.2c1,0.6,2,1,2.9,1c0.9,0,1.3-0.3,1.3-0.8v0
		c0-0.7-1-0.9-2.2-1.2c-1.5-0.4-3.2-1.1-3.2-3.2v0c0-2.2,1.8-3.4,3.9-3.4c1.1,0,2.3,0.3,3.3,0.8c0.4,0.2,0.7,0.6,0.7,1.1
		c0,0.7-0.5,1.2-1.2,1.2c-0.2,0-0.4,0-0.6-0.1c-0.9-0.4-1.7-0.7-2.3-0.7c-0.7,0-1.1,0.3-1.1,0.7v0c0,0.6,1,0.9,2.2,1.3
		c1.5,0.5,3.2,1.2,3.2,3.2v0c0,2.4-1.8,3.5-4.1,3.5C134.5,36.8,133.1,36.4,131.8,35.6z"/>
	<path d="M141.5,33.5L141.5,33.5c0-2.4,1.8-3.5,4.3-3.5c1.1,0,1.9,0.2,2.6,0.4v-0.2c0-1.3-0.8-2-2.3-2c-0.8,0-1.5,0.1-2.1,0.3
		c-0.2,0.1-0.3,0.1-0.4,0.1c-0.7,0-1.3-0.5-1.3-1.2c0-0.5,0.3-1,0.8-1.2c1-0.4,2-0.6,3.4-0.6c1.7,0,2.9,0.4,3.6,1.2
		c0.8,0.8,1.2,2,1.2,3.4v4.9c0,0.8-0.7,1.5-1.5,1.5c-0.9,0-1.5-0.6-1.5-1.3v0c-0.7,0.8-1.8,1.4-3.2,1.4
		C143.1,36.8,141.5,35.7,141.5,33.5z M148.5,32.8v-0.5c-0.5-0.2-1.2-0.4-1.9-0.4c-1.3,0-2.1,0.5-2.1,1.5v0c0,0.8,0.7,1.3,1.7,1.3
		C147.5,34.7,148.5,33.9,148.5,32.8z"/>
	<path d="M158.3,36.8h-0.2c-0.8,0-1.4-0.5-1.7-1.3l-3.3-7.6c-0.1-0.2-0.2-0.5-0.2-0.7c0-0.7,0.7-1.4,1.5-1.4c0.8,0,1.3,0.5,1.5,1.1
		l2.3,6.2l2.3-6.3c0.2-0.5,0.6-1,1.4-1s1.5,0.6,1.5,1.4c0,0.3-0.1,0.6-0.2,0.7l-3.3,7.6C159.6,36.3,159.1,36.8,158.3,36.8z"/>
	<path d="M164.5,31.3L164.5,31.3c0-3.1,2.5-5.6,5.8-5.6c3.3,0,5.8,2.5,5.8,5.5v0c0,3.1-2.5,5.6-5.8,5.6
		C167,36.9,164.5,34.4,164.5,31.3z M173.1,31.3L173.1,31.3c0-1.6-1.1-3-2.8-3c-1.7,0-2.8,1.3-2.8,2.9v0c0,1.6,1.1,3,2.8,3
		C172.1,34.2,173.1,32.9,173.1,31.3z"/>
	<path d="M178.3,23.3c0-0.9,0.7-1.4,1.7-1.4s1.7,0.5,1.7,1.4v0c0,0.9-0.7,1.4-1.7,1.4S178.3,24.3,178.3,23.3L178.3,23.3z
		 M178.5,27.3c0-0.8,0.7-1.5,1.5-1.5s1.5,0.7,1.5,1.5v7.9c0,0.8-0.7,1.5-1.5,1.5s-1.5-0.7-1.5-1.5V27.3z"/>
	<path d="M184.4,27.3c0-0.8,0.7-1.5,1.5-1.5c0.8,0,1.5,0.7,1.5,1.5v0.5c0.4-1,1.2-2,2.1-2c0.9,0,1.5,0.6,1.5,1.5
		c0,0.8-0.5,1.3-1.1,1.4c-1.5,0.4-2.4,1.5-2.4,3.7v2.8c0,0.8-0.7,1.5-1.5,1.5c-0.8,0-1.5-0.7-1.5-1.5V27.3z"/>
	<path d="M198.7,27.3c0-0.8,0.7-1.5,1.5-1.5c0.8,0,1.5,0.7,1.5,1.5v0.1c0.7-1,1.8-1.7,3.3-1.7c2.5,0,4.9,2,4.9,5.5v0
		c0,3.6-2.3,5.5-4.9,5.5c-1.6,0-2.6-0.7-3.3-1.6v3.2c0,0.8-0.7,1.5-1.5,1.5c-0.8,0-1.5-0.7-1.5-1.5V27.3z M207,31.3L207,31.3
		c0-1.8-1.2-3-2.6-3c-1.4,0-2.6,1.2-2.6,3v0c0,1.8,1.2,3,2.6,3C205.8,34.2,207,33.1,207,31.3z"/>
	<path d="M212.4,23.4c0-0.8,0.7-1.5,1.5-1.5s1.5,0.7,1.5,1.5v11.8c0,0.8-0.7,1.5-1.5,1.5s-1.5-0.7-1.5-1.5V23.4z"/>
	<path d="M228,35.2c0,0.8-0.7,1.5-1.5,1.5s-1.5-0.7-1.5-1.5v-0.1c-0.7,0.9-1.6,1.7-3.1,1.7c-2.3,0-3.6-1.5-3.6-4v-5.5
		c0-0.8,0.7-1.5,1.5-1.5c0.8,0,1.5,0.7,1.5,1.5v4.6c0,1.4,0.7,2.2,1.8,2.2s1.9-0.7,1.9-2.2v-4.6c0-0.8,0.7-1.5,1.5-1.5
		s1.5,0.7,1.5,1.5V35.2z"/>
	<path d="M230.5,35.6c-0.3-0.2-0.6-0.6-0.6-1c0-0.7,0.5-1.2,1.2-1.2c0.2,0,0.4,0.1,0.6,0.2c1,0.6,2,1,2.9,1c0.9,0,1.3-0.3,1.3-0.8v0
		c0-0.7-1-0.9-2.2-1.2c-1.5-0.4-3.2-1.1-3.2-3.2v0c0-2.2,1.8-3.4,3.9-3.4c1.1,0,2.3,0.3,3.3,0.8c0.4,0.2,0.7,0.6,0.7,1.1
		c0,0.7-0.5,1.2-1.2,1.2c-0.2,0-0.4,0-0.6-0.1c-0.9-0.4-1.7-0.7-2.3-0.7c-0.7,0-1.1,0.3-1.1,0.7v0c0,0.6,1,0.9,2.2,1.3
		c1.5,0.5,3.2,1.2,3.2,3.2v0c0,2.4-1.8,3.5-4.1,3.5C233.2,36.8,231.8,36.4,230.5,35.6z"/>
	<path d="M246.5,35.6c-0.3-0.2-0.6-0.6-0.6-1c0-0.7,0.5-1.2,1.2-1.2c0.2,0,0.4,0.1,0.6,0.2c1,0.6,2,1,2.9,1c0.9,0,1.3-0.3,1.3-0.8v0
		c0-0.7-1-0.9-2.2-1.2c-1.5-0.4-3.2-1.1-3.2-3.2v0c0-2.2,1.8-3.4,3.9-3.4c1.1,0,2.3,0.3,3.3,0.8c0.4,0.2,0.7,0.6,0.7,1.1
		c0,0.7-0.5,1.2-1.2,1.2c-0.2,0-0.4,0-0.6-0.1c-0.9-0.4-1.7-0.7-2.3-0.7c-0.7,0-1.1,0.3-1.1,0.7v0c0,0.6,1,0.9,2.2,1.3
		c1.5,0.5,3.2,1.2,3.2,3.2v0c0,2.4-1.8,3.5-4.1,3.5C249.2,36.8,247.8,36.4,246.5,35.6z"/>
	<path d="M266.6,35.2c0,0.8-0.7,1.5-1.5,1.5s-1.5-0.7-1.5-1.5v-0.1c-0.7,0.9-1.6,1.7-3.1,1.7c-2.3,0-3.6-1.5-3.6-4v-5.5
		c0-0.8,0.7-1.5,1.5-1.5c0.8,0,1.5,0.7,1.5,1.5v4.6c0,1.4,0.7,2.2,1.8,2.2s1.9-0.7,1.9-2.2v-4.6c0-0.8,0.7-1.5,1.5-1.5
		s1.5,0.7,1.5,1.5V35.2z"/>
	<path d="M269.3,27.3c0-0.8,0.7-1.5,1.5-1.5c0.8,0,1.5,0.7,1.5,1.5v0.5c0.4-1,1.2-2,2.1-2c0.9,0,1.5,0.6,1.5,1.5
		c0,0.8-0.5,1.3-1.1,1.4c-1.5,0.4-2.4,1.5-2.4,3.7v2.8c0,0.8-0.7,1.5-1.5,1.5c-0.8,0-1.5-0.7-1.5-1.5V27.3z"/>
	<path d="M283.8,23.4c0-0.8,0.7-1.5,1.5-1.5s1.5,0.7,1.5,1.5v11.8c0,0.8-0.7,1.5-1.5,1.5s-1.5-0.7-1.5-1.5V23.4z"/>
	<path d="M294.8,36.9c-3.2,0-5.6-2.3-5.6-5.5v0c0-3.1,2.2-5.6,5.3-5.6c3.6,0,5.2,2.9,5.2,5.2c0,0.9-0.6,1.5-1.4,1.5h-6
		c0.3,1.4,1.3,2.1,2.6,2.1c0.8,0,1.5-0.3,2.2-0.7c0.2-0.2,0.4-0.2,0.7-0.2c0.7,0,1.2,0.5,1.2,1.2c0,0.4-0.2,0.7-0.4,0.9
		C297.5,36.4,296.3,36.9,294.8,36.9z M296.7,30.4c-0.2-1.4-1-2.3-2.3-2.3c-1.3,0-2.1,0.9-2.3,2.3H296.7z"/>
	<path d="M308.3,24.2c0-0.9,0.7-1.5,1.5-1.5h5c1.6,0,2.9,0.4,3.7,1.2c0.6,0.6,1,1.4,1,2.4v0c0,1.6-0.8,2.5-1.8,3
		c1.6,0.6,2.6,1.6,2.6,3.4v0c0,2.6-2.1,3.8-5.2,3.8h-5.1c-0.9,0-1.5-0.7-1.5-1.5V24.2z M314.1,28.3c1.4,0,2.2-0.4,2.2-1.5v0
		c0-0.9-0.7-1.4-2-1.4h-3v3H314.1z M314.9,33.9c1.4,0,2.2-0.5,2.2-1.5v0c0-0.9-0.7-1.5-2.3-1.5h-3.6v3.1H314.9z"/>
	<path d="M322.4,27.3c0-0.8,0.7-1.5,1.5-1.5c0.8,0,1.5,0.7,1.5,1.5v0.5c0.4-1,1.2-2,2.1-2c0.9,0,1.5,0.6,1.5,1.5
		c0,0.8-0.5,1.3-1.1,1.4c-1.5,0.4-2.4,1.5-2.4,3.7v2.8c0,0.8-0.7,1.5-1.5,1.5c-0.8,0-1.5-0.7-1.5-1.5V27.3z"/>
	<path d="M329.6,33.5L329.6,33.5c0-2.4,1.8-3.5,4.3-3.5c1.1,0,1.9,0.2,2.6,0.4v-0.2c0-1.3-0.8-2-2.3-2c-0.8,0-1.5,0.1-2.1,0.3
		c-0.2,0.1-0.3,0.1-0.4,0.1c-0.7,0-1.3-0.5-1.3-1.2c0-0.5,0.3-1,0.8-1.2c1-0.4,2-0.6,3.4-0.6c1.7,0,2.9,0.4,3.6,1.2
		c0.8,0.8,1.2,2,1.2,3.4v4.9c0,0.8-0.7,1.5-1.5,1.5c-0.9,0-1.5-0.6-1.5-1.3v0c-0.7,0.8-1.8,1.4-3.2,1.4
		C331.3,36.8,329.6,35.7,329.6,33.5z M336.6,32.8v-0.5c-0.5-0.2-1.2-0.4-1.9-0.4c-1.3,0-2.1,0.5-2.1,1.5v0c0,0.8,0.7,1.3,1.7,1.3
		C335.6,34.7,336.6,33.9,336.6,32.8z"/>
	<path d="M342.1,27.3c0-0.8,0.7-1.5,1.5-1.5c0.8,0,1.5,0.7,1.5,1.5v0.1c0.7-0.9,1.6-1.7,3.1-1.7c2.3,0,3.6,1.5,3.6,4v5.5
		c0,0.8-0.7,1.5-1.5,1.5s-1.5-0.7-1.5-1.5v-4.6c0-1.4-0.7-2.2-1.8-2.2c-1.2,0-1.9,0.7-1.9,2.2v4.6c0,0.8-0.7,1.5-1.5,1.5
		c-0.8,0-1.5-0.7-1.5-1.5V27.3z"/>
	<path d="M365.3,35.2c0,0.8-0.7,1.5-1.5,1.5c-0.8,0-1.5-0.7-1.5-1.5v-0.1c-0.7,1-1.8,1.7-3.3,1.7c-2.5,0-4.9-2-4.9-5.5v0
		c0-3.6,2.3-5.5,4.9-5.5c1.6,0,2.6,0.7,3.3,1.6v-3.9c0-0.8,0.7-1.5,1.5-1.5c0.8,0,1.5,0.7,1.5,1.5V35.2z M357.1,31.2L357.1,31.2
		c0,1.8,1.2,3,2.6,3c1.4,0,2.6-1.2,2.6-3v0c0-1.8-1.2-3-2.6-3C358.3,28.3,357.1,29.4,357.1,31.2z"/>
	<path d="M368,23.3c0-0.9,0.7-1.4,1.7-1.4s1.7,0.5,1.7,1.4v0c0,0.9-0.7,1.4-1.7,1.4S368,24.3,368,23.3L368,23.3z M368.2,27.3
		c0-0.8,0.7-1.5,1.5-1.5s1.5,0.7,1.5,1.5v7.9c0,0.8-0.7,1.5-1.5,1.5s-1.5-0.7-1.5-1.5V27.3z"/>
	<path d="M374.1,27.3c0-0.8,0.7-1.5,1.5-1.5c0.8,0,1.5,0.7,1.5,1.5v0.1c0.7-0.9,1.6-1.7,3.1-1.7c2.3,0,3.6,1.5,3.6,4v5.5
		c0,0.8-0.7,1.5-1.5,1.5s-1.5-0.7-1.5-1.5v-4.6c0-1.4-0.7-2.2-1.8-2.2c-1.2,0-1.9,0.7-1.9,2.2v4.6c0,0.8-0.7,1.5-1.5,1.5
		c-0.8,0-1.5-0.7-1.5-1.5V27.3z"/>
	<path d="M387.4,39.1c-0.5-0.2-0.9-0.6-0.9-1.2c0-0.7,0.6-1.2,1.2-1.2c0.2,0,0.4,0,0.5,0.1c0.9,0.4,1.8,0.6,3,0.6
		c2.1,0,3.1-1,3.1-2.9V34c-0.9,1.1-1.9,1.7-3.5,1.7c-2.5,0-4.8-1.8-4.8-5v0c0-3.2,2.3-5,4.8-5c1.7,0,2.6,0.7,3.5,1.6v0
		c0-0.8,0.7-1.5,1.5-1.5c0.8,0,1.5,0.7,1.5,1.5v6.9c0,1.9-0.5,3.3-1.4,4.2c-1,1-2.5,1.4-4.6,1.4C389.9,39.9,388.7,39.6,387.4,39.1z
		 M394.3,30.7L394.3,30.7c0-1.5-1.1-2.5-2.6-2.5s-2.6,1-2.6,2.5v0c0,1.5,1.1,2.5,2.6,2.5S394.3,32.2,394.3,30.7z"/>
</g>
<g>
	<g>
		<path class="st0" d="M56.8-63.8c0.6,0.5,1.3,0.9,1.8,1.4c-0.8-0.6-1.5-1.2-2.3-1.8c2,1.6,3.8,2.9,6.3,3.5c1,0.2,2,0.3,3,0.5
			c2.9,0.5,5.8,1,8.8,0.9c4,0,8.1-0.1,12,0c-1.3-0.1-2.5-0.3-3.8-0.5c2.5,0.3,4.6,1.3,7.4,1.4c1.2,0.1,2.3,2.2,3.6,2.2
			c2.9,0.1,5.6,1.3,8.5,1.4c5.4,0.2,10.8,0.5,16.3,0.5c10.8,0.1,21.7-0.6,32.6-0.5c10.8,0.1,21.8-0.1,32.6-0.1
			c10.8,0.1,21.8,0.2,32.6,0.3c43.4,0.5,86.7,2.4,129.8,5.8c24.4,1.8,29.8,1.1,54.1,3.9c4.7,0.6,10.8-2.5,14-5.8
			c3.5-3.5,6-9.1,5.8-14c-0.2-5.1-2-10.4-5.8-14c-1.4-1-2.7-2.1-4-3.1c-3.1-1.8-6.5-2.7-10-2.7c-42.8-4.7-66.6-7.2-109.6-9.3
			c-42.8-2.1-85.6-2.7-128.3-1.5C150-95,138-94.2,126.1-93.1c-5.9,0.5-11.9,0.8-17.8,1.6c-7.3,0.9-14.5,2-21.8,3
			c1.4-0.2,2.8-0.3,4-0.6c-3.5,0.3-5.9,0.8-9,2.4c1.2-0.5,2.4-1,3.6-1.5c-0.9,0.3-1.7,0.7-2.7,0.9c1.3-0.1,2.5-0.3,3.8-0.5
			c-4.5,0.6-9,0.9-13.5,1.5c-2.1,0.2-4,0.5-6,1c-1,0.3-2,0.6-3,0.9c-2.7,0.8-5.2,1.6-7.3,3.7c-0.7,0.6-1.3,1.3-1.8,1.8
			c-2.2,2.2-3,5.1-2.7,8.1C52.6-67.7,54.2-65.7,56.8-63.8L56.8-63.8z"/>
	</g>
</g>
<g>
	<g>
		<path d="M92.7-60.5L92.7-60.5c-1.1-5.6-7.1-10.4-12.3-13.4l0,0l0,0c-0.1-0.1-0.2-0.1-0.3-0.2c-0.8-0.4-1.6-0.9-2.6-1.3
			c-0.1,0-0.2-0.1-0.3-0.1c-1.9-0.9-4.1-1.8-6.6-2.7c-1.4-4.5-3.9-8.7-7.5-11.9c0,0,0-0.1-0.1-0.1c0,0-0.1-0.1-0.1-0.2
			s0-0.1-0.1-0.2c0.1-4.5-2.6-8.8-7-10.1c-4.3-1.3-8.5,0.7-11.1,4.2c-0.1,0.1-0.2,0.2-0.3,0.3c0,0,0,0-0.1,0c0,0-0.2,0.1-0.4,0.1
			l0,0c-5.5,0.8-10.5,3.2-14.6,6.9c-3.2-0.6-6.1-1-8.5-1.2l0,0c-5.1-1.1-11-0.8-15,1.2s-6.2,5.5-5.8,9.5c0.4,4.2,3.4,8.4,9.4,13.2
			c2.9,2.3,6.2,4.5,9.8,6.5c0.2,1.1,0.5,2.2,0.8,3.3c1.4,4.7,4,9.2,7.7,12.4c0,0.2,0.2,0.4,0.2,0.5c-0.1,4.4,2.6,8.8,7,10.1
			c4.3,1.3,8.5-0.7,11.1-4.2c0.1-0.1,0.2-0.2,0.3-0.3c0.1,0,0.2-0.1,0.3-0.1l0,0c0.2,0,0.4-0.1,0.6-0.1c6.6-1,12.4-4.4,16.7-9.2
			c2.4,0.2,4.9,0.3,7.4,0.3c0.6,0,1.2,0,1.8,0c5.5-0.2,11.1-0.7,15.2-3.3C91.8-53,93.4-56.6,92.7-60.5z"/>
		<g>
			<path class="st0" d="M56.9-50.4c-3-0.4-5.9-0.9-8.8-1.5c-8.7-1.8-16.7-4.4-23.6-7.7c1.1,4.5,3.5,8.6,6.8,11.5l0,0
				c1,0.9,1.5,2.2,1.6,3.7l0,0c-0.2,2.5,1.1,4.7,3.3,5.5c2.2,0.7,4.6-0.4,5.9-2.5l0,0c0.9-1.1,2.1-1.9,3.4-2.1l0,0
				c5-0.5,9.7-2.8,13.5-6.6C58.4-50.2,57.6-50.3,56.9-50.4z"/>
		</g>
		<g>
			<path class="st0" d="M46.5-62.4c6.6,1.6,12.9,2.7,18.7,3.2c0.2-0.5,0.4-1.1,0.6-1.6c3.2-9.9,0.4-20.1-6.3-25.8l0,0
				c-1-0.9-1.5-2.2-1.6-3.7l0,0c0.2-2.5-1.1-4.7-3.3-5.5c-2.2-0.7-4.6,0.4-5.9,2.5l0,0c-0.9,1.1-2.1,1.9-3.4,2.1l0,0
				c-8.8,0.8-16.9,7.5-20.1,17.4c-0.3,0.9-0.5,1.8-0.7,2.7C30.6-67.5,38.2-64.5,46.5-62.4z M59.6-74.1c0.7-0.5,1.8-0.5,2.4,0.4
				c0.6,0.9,0.2,1.9-0.5,2.4c-0.3,0.2-0.7,0.3-1,0.3c-0.5,0-1-0.2-1.4-0.8l0,0C58.5-72.7,58.9-73.7,59.6-74.1z M56-81.9
				c0.3-0.6,0.9-0.9,1.5-1c0.6,0,1.1,0.2,1.4,0.7c0.6,0.9,0.2,1.8-0.5,2.3c-0.3,0.2-0.6,0.3-1,0.3c-0.5,0-1-0.2-1.3-0.7
				S55.8-81.4,56-81.9z M52-76c0.6-0.4,1.5-0.4,2.1,0.4c0.5,0.8,0.2,1.7-0.4,2.1c-0.3,0.2-0.6,0.3-0.9,0.3c-0.4,0-0.9-0.2-1.2-0.7
				l0,0C51.1-74.7,51.4-75.6,52-76z"/>
		</g>
		<g>
			<path class="st1" d="M87.8-59.6C86.8-64.8,77-70.8,72-72.3c-0.8-0.3-1.5,0.1-1.7,0.6c-0.3,0.6,0,1.4,0.7,1.7
				c4.5,2.4,8.8,4.8,11.6,8.5c0.9,1.2,1.2,2.2,0.9,2.9c-0.4,0.8-2.3,2.3-9.9,2.5c-8,0.3-17.6-1-27.9-3.5S26.3-66,19.2-70.9
				c-7-4.8-8.6-7.4-8.6-8.7c0-0.5,0.2-0.9,0.6-1.2c2.4-1.9,7-0.9,10.7,0l1.1,0.2c1.1,0.3,2-0.1,2.3-0.9c0.4-0.7,0.1-1.6-0.7-2.2
				c-3.8-2.7-12.3-3.3-16.7-1.2c-2.1,1-3.2,2.6-3,4.5c0.3,2.7,2.7,5.9,7.6,9.8c3.7,3,8.2,5.7,13.2,8.2c6.7,3.2,14.4,5.7,22.9,7.4
				c2.8,0.6,5.7,1.1,8.6,1.5c4.3,0.6,10.1,1.3,15.6,1.1c4.7-0.1,9.6-0.5,12.6-2.5C87.9-56.4,88-58.3,87.8-59.6z"/>
		</g>
	</g>
</g>
<text transform="matrix(1 0 0 1 98.86 -64.4441)" style="font-family:'GothamRounded-Bold'; font-size:20px;">En savoir plus sur le Branding</text>
</svg>
