<svg xmlns="http://www.w3.org/2000/svg" viewBox="0 0 735.82 224.84"><defs><style>.cls-1{fill:#ffe600;}</style></defs><g id="Calque_2" data-name="Calque 2"><g id="_Calque_" data-name="&lt;Calque&gt;"><path class="cls-1" d="M274.19.74c-55.7-3.32-112.54,4.48-164.86,24.05-24.78,9.27-49.7,20.81-71,36.73C18.6,76.32.81,97.13,0,123c-.74,24.4,16.35,42.78,36.08,54.59,22.84,13.68,49.54,21.19,75.3,27.13,58.36,13.47,119,16.72,178.69,18.86,121,4.35,243.34-2.54,362.19-26.48,24.53-4.94,51.7-11.61,70-29.95,8.12-8.13,14.13-19,13.52-30.76-.68-13-7.94-24.5-16.43-33.88C702.71,84.16,680.23,72.08,657.49,63,632,52.79,605.05,46.06,578.25,40.26,462.4,15.2,341.85,14.84,224,21.13q-21.74,1.17-43.46,2.53c-6.19.38-6.27,10,0,9.7,113.21-5.46,227.46-10,340,6.66a825.84,825.84,0,0,1,81.32,16.06c24.38,6.15,48.83,13.33,71.31,24.79A145.3,145.3,0,0,1,703.62,101c8.87,7.84,17.71,17.4,21.06,29,7.52,26.1-22.94,42.52-43.18,49.39-25.5,8.64-53,12.4-79.44,16.65q-43.27,6.94-86.9,11.18a1649.27,1649.27,0,0,1-172.59,7.58C285,214.4,227,212.18,169.91,205c-27.95-3.51-55.79-8.71-82.79-16.81-22.6-6.78-47.21-15.42-64-32.78-7.69-7.95-13.07-18-13.57-29.24C9,113.62,13.7,101.53,20.79,91.35,35.22,70.62,58.8,57.13,80.89,46c47.47-23.84,100.91-37,154-38.85,13.12-.47,26.25-.25,39.35.57,4.5.28,4.49-6.74,0-7Z"/></g></g></svg>