<svg xmlns="http://www.w3.org/2000/svg" viewBox="0 0 552.83 191.82"><defs><style>.cls-1{fill:#ffe600;}</style></defs><g id="Calque_2" data-name="Calque 2"><g id="_Calque_" data-name="&lt;Calque&gt;"><path class="cls-1" d="M206,.62A270.68,270.68,0,0,0,83,20.91C49.27,35.14,5.92,59,.49,99.29c-5.67,42.09,38.91,62,72,72.15C116.2,184.8,162.58,188.11,208,190.33c93.91,4.6,189.1-1.14,280.94-22,18.69-4.25,38.81-10,52.43-24.37,6.15-6.49,10.73-14.69,11.39-23.73.74-10.09-3.43-20-9.1-28.1C520.9,59.55,479,46.28,442.34,36.65c-88.59-23.32-182.1-23.83-273-18.45q-16.9,1-33.78,2.25c-4.51.33-4.59,7.32,0,7.09C222,23.05,309.18,19,394.9,34a546.86,546.86,0,0,1,61.62,14.39c18,5.36,35.83,11.81,51.91,21.63,15.44,9.44,33,24.18,36.57,42.92,4,21-17.31,35.29-34.29,41.61-19.45,7.25-40.64,10.59-61,14.26q-32.78,5.9-65.9,9.48a1092.42,1092.42,0,0,1-133.27,6.07c-43.6-.61-87.84-2.56-130.93-9.58-21-3.43-41.86-8.37-61.8-15.9-16.36-6.18-34.06-14.94-43.95-30-11.19-17-7.44-38.19,3.57-54.31,10.83-15.86,27.57-27.1,44-36.42A255.88,255.88,0,0,1,176.54,5.25,267.41,267.41,0,0,1,206,5.74c3.28.23,3.27-4.89,0-5.12Z"/></g></g></svg>