<svg xmlns="http://www.w3.org/2000/svg" viewBox="0 0 518.86 137.78"><defs><style>.cls-1{fill:#ffe600;}</style></defs><g id="Calque_2" data-name="Calque 2"><g id="_Calque_" data-name="&lt;Calque&gt;"><path class="cls-1" d="M99.35,27.08c-17.77-1.09-35-.16-52.08,5.3a136.58,136.58,0,0,0-24.05,10.4C16,46.73,9.21,51,4.49,57.9A27.52,27.52,0,0,0,.87,80C2.8,87.64,9.6,95.1,15.37,100.24c12.8,11.42,29.76,17.63,46.12,21.94,19.57,5.15,39.8,7.14,59.93,8.6,21.83,1.59,43.68,2.72,65.54,3.59,43.28,1.71,86.61,2.44,129.92,3.11,42.23.66,84.61.66,126.62-4.34,10.37-1.23,20.71-2.75,31-4.62,8.06-1.47,16.33-2.66,23.8-6.17,12.1-5.67,21.59-17.43,20.48-31.33-1.33-16.88-16.44-29.4-29.56-38.2-15-10-32.29-16.32-49.41-21.67C400.28,18.78,359.08,13.12,318,9.09,231.76.63,144.92-.36,58.36.09Q42.55.17,26.75.28c-5.7,0-5.71,8.86,0,8.86,80.33.06,160.74-.3,241,5,39.36,2.59,78.92,5.95,117.74,13.12a437.54,437.54,0,0,1,55.62,13.84c16,5.17,31.78,11.24,45.59,21,11.72,8.25,28.42,22.49,21.68,38.7-5.69,13.67-21.56,16.3-34.33,18.69-39,7.3-78.79,9.17-118.41,9.32s-79.25-.86-118.84-1.82c-40.31-1-80.65-2.38-120.86-5.53-19.06-1.48-38.15-3.68-56.58-9C43.72,108,27.63,101.67,16.58,89.3,11,83,6.26,74.81,9.2,66.15c2.67-7.85,10.2-12.62,16.92-16.64A126.64,126.64,0,0,1,74.74,32.45a163.44,163.44,0,0,1,24.61-1.66c2.41,0,2.37-3.57,0-3.71Z"/></g></g></svg>