<?xml version="1.0" encoding="utf-8"?>
<!-- Generator: Adobe Illustrator 25.1.0, SVG Export Plug-In . SVG Version: 6.00 Build 0)  -->
<svg version="1.1" id="Calque_1" xmlns="http://www.w3.org/2000/svg" xmlns:xlink="http://www.w3.org/1999/xlink" x="0px" y="0px"
	 viewBox="0 0 715.7 159.7" style="enable-background:new 0 0 715.7 159.7;" xml:space="preserve">
<style type="text/css">
	.st0{fill:#FFE600;stroke:#FFE600;stroke-width:2;stroke-miterlimit:10;}
</style>
<g id="Calque_2_1_">
	<g id="_Calque_">
		<path class="st0" d="M176.8,22.6c-50.4-4.9-102.6,4.7-146.6,30.2C13.4,62.6-8.2,82,5.1,103c5.6,8.9,15.2,14.8,24.6,19.2
			c11.5,5.3,23.5,9.6,35.8,12.8c26.1,7,53.1,10,79.9,12.6c28.9,2.8,57.9,5.1,87,6.7c58.8,3.4,117.6,4.6,176.5,4.2
			c57.3-0.4,114.7-2.1,171.7-8.7c27.7-3.2,55.2-7.4,82.5-13.2c17.5-3.7,41.8-9.7,49.5-28c8.7-20.6-12.3-37.2-28.1-46
			c-22.7-12.6-47.5-21.8-72.3-29.1c-52-15.2-106.5-22.4-160.3-27.3C339-3.9,223.8,0.3,112.3,21c-13.8,2.6-27.5,5.4-41.1,8.9
			c-3.6,0.9-2,6.1,1.5,5.5c53.3-8.8,106.4-17.6,160.4-21.9c53.7-4.3,107.5-5.2,161.3-2.8c53,2.4,106.2,7.5,158.5,17.2
			c24.9,4.4,49.4,10.6,73.5,18.4c12.1,4,23.9,8.6,35.5,13.8c10.5,4.8,21.4,9.7,30.7,16.5c8.1,5.9,16.8,14.9,14.5,25.8
			c-1.9,8.9-10.3,14.5-18,18.2c-9.4,4.6-19.7,6.8-29.8,9c-13.1,2.7-26.3,5.1-39.6,7.2c-53.6,8.4-107.9,11.8-162.2,13.1
			c-110,2.8-220.9,0.4-330.2-11.8c-25.4-2.8-50.8-6.8-75.1-15.1c-16.3-5.6-52.9-18.7-41.9-42.6C15,70.3,25.5,63.2,35,57.7
			c10.5-6.2,21.6-11.4,33-15.8c23.1-8.7,47.4-14,72.1-15.7c12.2-0.8,24.5-0.6,36.7,0.5C179.4,27,179.3,22.8,176.8,22.6L176.8,22.6z"
			/>
	</g>
</g>
</svg>
