<svg xmlns="http://www.w3.org/2000/svg" viewBox="0 0 714.88 159.01"><defs><style>.cls-1{fill:#ffe600;}</style></defs><g id="Calque_2" data-name="Calque 2"><g id="_Calque_" data-name="&lt;Calque&gt;"><path class="cls-1" d="M176.37,22C125.84,17,73.66,26.52,29.5,52.07,12.42,62-9.28,81.69,4.23,103c5.69,9,15.36,15,24.79,19.43a213.53,213.53,0,0,0,36,12.89c26.15,7,53.19,10,80.07,12.66q43.4,4.23,86.95,6.71c58.76,3.4,117.63,4.61,176.49,4.22,57.32-.38,114.73-2.14,171.73-8.66,27.73-3.18,55.35-7.44,82.66-13.25,17.64-3.75,42-9.85,49.88-28.32,8.9-21-12.21-37.89-28.31-46.85C661.73,49.21,636.9,40,612,32.72,559.91,17.45,505.4,10.31,451.49,5.4,338.62-4.87,223.18-.78,111.7,20.12c-13.8,2.59-27.44,5.47-41,9-4.24,1.11-2.37,7.08,1.77,6.43,53.33-8.44,106.35-17.37,160.23-21.65A1296,1296,0,0,1,394,11.19c53,2.4,106.13,7.52,158.31,17.17a547.53,547.53,0,0,1,73.45,18.41,362.58,362.58,0,0,1,35.32,13.7c10.53,4.76,21.41,9.65,30.76,16.52,7.85,5.76,16.49,14.5,14.22,25.15-1.87,8.75-10.18,14.21-17.69,17.84-9.34,4.52-19.61,6.79-29.7,8.9Q638.93,133,619,136.11c-53.57,8.43-107.83,11.71-162,13.09-110,2.81-220.84.42-330.23-11.8-25.31-2.83-50.71-6.83-74.89-15C36,117-.37,104.06,10.35,80.63,15,70.41,25.5,63.37,34.85,57.88A219.63,219.63,0,0,1,67.78,42.12,255.65,255.65,0,0,1,139.7,26.27a227.93,227.93,0,0,1,36.67.5c3.09.27,3-4.51,0-4.81Z"/></g></g></svg>