<svg xmlns="http://www.w3.org/2000/svg" viewBox="0 0 492.24 137.79"><defs><style>.cls-1{fill:#ffe600;}</style></defs><g id="Calque_2" data-name="Calque 2"><g id="_Calque_" data-name="&lt;Calque&gt;"><path class="cls-1" d="M95.44,27.08a124.34,124.34,0,0,0-51.16,7.07,149.19,149.19,0,0,0-24,11.26C14,49.11,7.1,53.06,3.14,59.5c-8.56,13.93,2,30.42,12.2,40.24,11.6,11.2,27.26,17.52,42.5,22,18.39,5.34,37.52,7.44,56.55,8.94,20.24,1.6,40.52,2.73,60.81,3.61,41,1.77,81.95,2.49,122.93,3.19,40.14.69,80.44.83,120.37-4,10-1.22,20-2.71,29.92-4.58,7.69-1.45,15.75-2.6,22.92-5.87,11.8-5.39,20.81-16.38,20.9-29.73.1-16.34-13-29-25.11-38.17-13.68-10.41-29.68-17-45.83-22.57-37-12.76-75.78-18.76-114.54-22.92C224.07.7,140.68-.36,57.59.09Q42.2.17,26.8.28c-5.7,0-5.71,8.86,0,8.86,76.82.06,153.72-.3,230.39,5.17,37.24,2.66,74.69,6.1,111.34,13.48a388.29,388.29,0,0,1,53.08,14.42c15.1,5.36,30.16,11.82,42.66,22.08,10.9,8.95,24.22,22.74,16.85,38-6.18,12.77-20.73,15.08-33.2,17.49-36.93,7.16-74.64,8.93-112.19,9-37.72.09-75.49-.91-113.2-1.9s-75.22-2.4-112.7-5.56c-18-1.52-35.95-3.83-53.22-9.2-14.31-4.45-28.74-10.69-38.75-22.25C13,84.2,7,75.61,8.5,67.7,9.94,60.28,17.42,56,23.26,52.26a134.3,134.3,0,0,1,47.19-19,123.36,123.36,0,0,1,25-2.48c2.4,0,2.36-3.57,0-3.71Z"/></g></g></svg>