<svg xmlns="http://www.w3.org/2000/svg" viewBox="0 0 589.21 137.79"><defs><style>.cls-1{fill:#ffe600;}</style></defs><g id="Calque_2" data-name="Calque 2"><g id="_Calque_" data-name="&lt;Calque&gt;"><path class="cls-1" d="M113.79,27.08a176.22,176.22,0,0,0-61.63,7.18A194.65,194.65,0,0,0,22,46.38C14.65,50.06,6.36,54.1,2.32,61.69-6.59,78.43,12.15,96.3,24.93,104.6c16.75,10.87,37.39,16.18,56.79,19.82,22.16,4.16,44.69,5.65,67.16,7,23.84,1.41,47.7,2.43,71.57,3.21,47.59,1.56,95.21,2.28,142.82,2.91,46.93.62,94,.55,140.72-4.34,11.45-1.2,22.87-2.67,34.24-4.48,9.25-1.46,18.86-2.54,27.57-6.17,13.94-5.81,25.7-18.06,23-34.18-1.55-9.31-8-16.42-14.82-22.44a122.87,122.87,0,0,0-24.47-16.62c-18.29-9.5-38.44-15.39-58.33-20.47-45-11.52-91.39-16.64-137.61-20.43C258.39.59,162.69-.35,67.21.09L31.39.28c-5.69,0-5.71,8.86,0,8.86,89.55.06,179.14-.29,268.58,4.71,44.44,2.49,89,5.71,133.07,12.51a573.19,573.19,0,0,1,63.25,13.21c18.44,5,37.08,10.74,53.73,20.32,12.69,7.31,36.65,22.42,28.71,40.3-6.72,15.15-26.89,17.19-41,19.48-43.41,7-87.51,8.9-131.43,9.09-44.72.19-89.46-.83-134.17-1.76-44.38-.93-88.77-2.33-133.07-5.15-21.19-1.35-42.44-3.07-63.22-7.6C57.79,110.31,38,104.9,23.43,92.9,17.19,87.77,7.64,78.46,8.28,69.62c.62-8.68,10.88-13.28,17.47-16.81A181.79,181.79,0,0,1,83.08,33.36a178.71,178.71,0,0,1,30.71-2.57c2.41,0,2.38-3.59,0-3.71Z"/></g></g></svg>