<?xml version="1.0" encoding="utf-8"?>
<!-- Generator: Adobe Illustrator 25.1.0, SVG Export Plug-In . SVG Version: 6.00 Build 0)  -->
<svg version="1.1" id="Calque_1" xmlns="http://www.w3.org/2000/svg" xmlns:xlink="http://www.w3.org/1999/xlink" x="0px" y="0px"
	 viewBox="0 0 11.4 14.1" style="enable-background:new 0 0 11.4 14.1;" xml:space="preserve">
<style type="text/css">
	.st0{fill:#FFFFFF;}
</style>
<g>
	<g>
		<path class="st0" d="M7.3,2.5C3.4,3.1-1.1,6,0.3,10.7c1.4,4.6,7.6,4.2,10,0.7c2.5-3.7,1.1-10.2-4-10.5C1.6,0.6-0.5,6,2.4,9.2
			c3.2,3.5,8.5,0.7,8.8-3.6c0.3-4.3-4.6-7-8.3-4.9C-1.2,3-0.1,9,4.2,10.4c4.3,1.4,7.6-2.9,6.2-6.9C8.7-1.6,1.9-0.6,0.6,4.3
			c-0.6,2.4,0.4,5.1,2.9,5.7c2.4,0.5,5-1.1,5.5-3.5C9.7,3.2,4.7,1.8,4,5c0.1-0.4,1.5,0.5,1.4,0.6C5.7,5.6,5.6,5,5.8,5.1
			c-0.3-0.2-0.2,0.7,0,0.6C5.9,5.6,4.7,5.2,5.6,5c0.9-0.3,1,0.3,0.5,0.9C5.9,6.1,6,6.1,5.9,5.9C5.8,5.7,5.7,5.6,5.8,5.5
			c0-0.2-0.2,0,0,0c1.7-0.7,1.4,2.9,1,3.7c-0.9,1.6-3.4,1.5-3.3-0.6C3.6,6.2,6,5.2,7.9,4.7C9.4,4.3,8.7,2.4,7.3,2.5L7.3,2.5z"/>
	</g>
</g>
</svg>
