<?xml version="1.0" encoding="utf-8"?>
<!-- Generator: Adobe Illustrator 25.1.0, SVG Export Plug-In . SVG Version: 6.00 Build 0)  -->
<svg version="1.1" id="Calque_1" xmlns="http://www.w3.org/2000/svg" xmlns:xlink="http://www.w3.org/1999/xlink" x="0px" y="0px"
	 viewBox="0 0 32 40" style="enable-background:new 0 0 32 40;" xml:space="preserve">
<style type="text/css">
	.st0{fill:#FFFFFF;}
</style>
<path d="M2.4,18.8c0.1-0.6,0.2-1.1,0.4-1.7c2-6.1,7-10.2,12.4-10.7l0,0c0.8-0.1,1.6-0.6,2.1-1.3l0,0c0.8-1.3,2.2-1.9,3.6-1.5
	c1.3,0.5,2.1,1.9,2,3.4l0,0c0.1,0.9,0.4,1.7,1,2.3l0,0c4.1,3.5,5.8,9.8,3.9,15.9c-0.1,0.3-0.3,0.7-0.4,1l-0.1,0.2
	c-1.3,3-3.6,5.6-3.6,5.6l-0.1,0.1c-2.3,2.3-5.2,3.7-8.3,4l0,0c-0.8,0.1-1.5,0.6-2.1,1.3l0,0c-0.8,1.3-2.2,1.9-3.6,1.5
	c-1.3-0.5-2.1-1.9-2-3.4l0,0c-0.1-0.9-0.4-1.7-1-2.3l0,0c-2.1-1.8-3.4-4.1-4.1-6.9l-0.1-0.2C2.4,26.1,1.5,24.6,2.4,18.8"/>
<g>
	<g>
		<path class="st0" d="M20,19h-1v-2c0-2.9-2.4-4-4-4h0c-1.6,0-4,1.1-4,4v2h-1c-0.6,0-1,0.4-1,1v6c0,0.6,0.4,1,1,1h10
			c0.6,0,1-0.4,1-1v-6C21,19.4,20.6,19,20,19z M19,25h-8v-4h8V25z"/>
	</g>
	<path d="M13,17c0-1.8,1.5-2,2-2c0.3,0,2,0.1,2,2v2h-4V17z"/>
</g>
<g>
	<g>
		<path class="st0" d="M24.7,16.7c0.3-0.2,0.8-0.2,1.1,0.2c0.3,0.5,0.1,0.9-0.2,1.1c-0.2,0.1-0.3,0.2-0.5,0.2
			c-0.2,0-0.5-0.1-0.6-0.4l0,0C24.1,17.3,24.3,16.9,24.7,16.7z M23,13c0.2-0.2,0.4-0.5,0.7-0.5c0.2,0,0.5,0.1,0.7,0.3
			c0.3,0.4,0.1,0.8-0.2,1.1c-0.2,0.1-0.3,0.2-0.5,0.2c-0.2,0-0.5-0.1-0.6-0.3C22.9,13.5,22.9,13.3,23,13z M21.1,15.7
			c0.3-0.2,0.8-0.2,1,0.2s0.1,0.8-0.2,1C21.7,17,21.6,17,21.4,17c-0.2,0-0.4-0.1-0.5-0.3l0,0C20.7,16.4,20.8,16,21.1,15.7z"/>
	</g>
</g>
</svg>
