<?xml version="1.0" encoding="utf-8"?>
<!-- Generator: Adobe Illustrator 25.1.0, SVG Export Plug-In . SVG Version: 6.00 Build 0)  -->
<svg version="1.1" id="Calque_1" xmlns="http://www.w3.org/2000/svg" xmlns:xlink="http://www.w3.org/1999/xlink" x="0px" y="0px"
	 viewBox="0 0 89.9 69.3" style="enable-background:new 0 0 89.9 69.3;" xml:space="preserve">
<style type="text/css">
	.st0{fill:#FFFFFF;}
</style>
<g>
	<path class="st0" d="M22.3,57H2.5c-0.2,0-0.4-0.2-0.4-0.4v-47c0-0.2,0.2-0.4,0.4-0.4h26.5c0.2,0,0.4,0.2,0.4,0.4v27h1.9V4.2
		c0-2.2-1.8-4-4-4h-0.9C26.4,0.1,26.3,0,26.1,0h-3.4c-0.1,0-0.3,0.1-0.3,0.2H4.2c-2.2,0-4,1.8-4,4v5.1C0.1,9.3,0,9.5,0,9.6v1.3
		c0,0.1,0.1,0.3,0.2,0.3v1.5C0.1,12.8,0,12.9,0,13.1v1.3c0,0.1,0.1,0.3,0.2,0.3v47.2c0,2.2,1.8,4,4,4h18.2V57z M15.6,2.8
		c0.3,0,0.6,0.3,0.6,0.6C16.2,3.7,16,4,15.6,4S15,3.7,15,3.4C15,3,15.3,2.8,15.6,2.8z M13.5,5.6H18c0.2,0,0.4,0.2,0.4,0.4
		S18.2,6.3,18,6.3h-4.5c-0.2,0-0.4-0.2-0.4-0.4C13.2,5.7,13.4,5.6,13.5,5.6z M16,64.3c-1.7,0-3.1-1.4-3.1-3.1s1.4-3.1,3.1-3.1
		c1.7,0,3.1,1.4,3.1,3.1S17.7,64.3,16,64.3z"/>
	<path class="st0" d="M16,58.8c-1.3,0-2.4,1.1-2.4,2.4c0,1.3,1.1,2.4,2.4,2.4c1.3,0,2.4-1.1,2.4-2.4C18.4,59.9,17.3,58.8,16,58.8z"
		/>
	<path class="st0" d="M28.7,51.6c-1.3,0-2.4,1.1-2.4,2.4c0,1.3,1.1,2.4,2.4,2.4s2.4-1.1,2.4-2.4C31.1,52.7,30.1,51.6,28.7,51.6z"/>
	<path class="st0" d="M89.7,60.4V42.1c0-2.2-1.8-4-4-4h-5.1c-0.1-0.1-0.2-0.2-0.3-0.2H79c-0.1,0-0.3,0.1-0.3,0.2h-1.5
		C77.1,38.1,77,38,76.9,38h-1.3c-0.1,0-0.3,0.1-0.3,0.2H28.1c-2.2,0-4,1.8-4,4v23.2c0,2.2,1.8,4,4,4h57.7c2.2,0,4-1.8,4-4v-0.9
		c0.1-0.1,0.2-0.2,0.2-0.3v-3.4C89.9,60.5,89.9,60.4,89.7,60.4z M28.7,57.1c-1.7,0-3.1-1.4-3.1-3.1c0-1.7,1.4-3.1,3.1-3.1
		c1.7,0,3.1,1.4,3.1,3.1C31.9,55.7,30.5,57.1,28.7,57.1z M80.7,67.1c0,0.2-0.2,0.4-0.4,0.4h-47c-0.2,0-0.4-0.2-0.4-0.4V40.5
		c0-0.2,0.2-0.4,0.4-0.4h47c0.2,0,0.4,0.2,0.4,0.4L80.7,67.1L80.7,67.1z M84.4,56c0,0.2-0.2,0.4-0.4,0.4s-0.4-0.2-0.4-0.4v-4.5
		c0-0.2,0.2-0.4,0.4-0.4s0.4,0.2,0.4,0.4V56z M86.6,54.2c-0.3,0-0.6-0.3-0.6-0.6s0.3-0.6,0.6-0.6c0.3,0,0.6,0.3,0.6,0.6
		S86.9,54.2,86.6,54.2z"/>
	<path class="st0" d="M39.4,12.1l-1.8,1.7c9.6,1,14.1,6.5,16.3,11.2c2.4,5.1,2.3,10,2.3,10.3l0,0.5h-1.4l0-0.5c0,0,0-4.8-2.2-9.7
		c-2.8-6.1-7.9-9.5-14.9-10.3l1.6,1.7l-2.1-0.1l-2.3-2.5l2.5-2.3L39.4,12.1z"/>
</g>
</svg>
