<svg xmlns="http://www.w3.org/2000/svg" viewBox="0 0 667.66 316.97"><defs><style>.cls-1{fill:#fff;}</style></defs><g id="Acceuil"><path class="cls-1" d="M124.3,2.67C112.06,29.25,98.46,55.61,82.56,80.2c-1.75,2.71.51,7,3.88,6.75,14.84-1.32,29.9-4.18,44.51-7.07,6.21-1.23,3.42-10.13-2.56-9.31-14.34,2-29.09,4.08-43.15,7.56l5.07,6.6c14-26.22,27.24-52.6,38.4-80.2,1-2.51-3.27-4.34-4.41-1.86Z"/><path class="cls-1" d="M165.06,53.71c3.44,1.82,7.46.46,9.62-2.84,2.5-3.81.32-8.71-3.29-10.95-10-6.2-21.43,4.83-23.88,14-2.85,10.72,3.52,21.88,13.71,25.81,10.61,4.08,22.55-1.44,27-11.74,2.09-4.83-4.48-9.06-7.26-4.24-4.68,8.1-16.19,10.32-22.55,2.81a12.84,12.84,0,0,1-2.37-12.44,14.18,14.18,0,0,1,3.62-5.86,12.54,12.54,0,0,1,2.55-1.92,6.37,6.37,0,0,1,3.86-1.1c2.29-.72,2.88.49,1.78,3.65-3.16-1.66-6,3.12-2.8,4.79Z"/><path class="cls-1" d="M231.85,74.63c8.22-14.28,15.45-29.39,25.48-42.58l-6.95-1.88c-.5,11-.9,22-1.53,33-.26,4.47,6.1,5.87,8.23,2.23,8.2-14.06,15.57-28.65,23.28-43l-9.12-2.47-.18,24.91c-.05,8.23-.66,16.71.14,24.9a4.93,4.93,0,0,0,9.85,0c.8-8.19.2-16.67.14-24.9L281,19.9c0-4.69-6.83-6.9-9.13-2.47-7.52,14.45-15.44,28.77-22.45,43.47l8.23,2.23c-.07-11,.1-22,.16-33,0-3.66-5.15-5.15-6.95-1.89-4.16,7.52-8.52,14.93-12.39,22.61a134.2,134.2,0,0,0-9.16,22.68,1.38,1.38,0,0,0,2.51,1.06Z"/><path class="cls-1" d="M313.88,50.66c-7.67-5-18.14-.19-20.53,8.4-2.92,10.47,5.41,20.42,15.54,22,11.1,1.72,22.78-5.77,25.05-17,2.09-10.34-6.91-23-18.27-19.88-3.95,1.1-4.42,7.67,0,8.49,5.3,1,10.26,4.13,8.88,10.3s-7.82,9.94-13.81,9.69-11-4.56-11.07-10.82c-.06-6.77,7-10.44,12.95-8.25,1.8.66,2.74-2,1.26-3Z"/><path class="cls-1" d="M350.06,68.67c.11-4.26,1-11.5,6.46-12,4.88-.45,3.66,6.8,4.53,10C363,73.55,371,77.51,376.7,72.5c4.65-4.08-2.43-11.29-6.83-6.83q1.44-.11.3-.81a2.28,2.28,0,0,1-.9-1.91,24.92,24.92,0,0,1-.49-2.74,16.32,16.32,0,0,0-2.3-6.53,10.38,10.38,0,0,0-10.19-4.17c-9.83,1.39-12,11.44-10.52,19.74.43,2.5,4.23,1.8,4.29-.58Z"/><path class="cls-1" d="M409.05,44.75c-4.52-1.75-11.65-.62-15.69,2-4.41,2.91-6.53,8.76-6.08,13.85,1.15,12.92,16.44,19.47,26.81,11.81a4.84,4.84,0,1,0-5.89-7.63C403,68.89,396,65.11,395.28,59c-.35-3.14.78-5.48,2.88-7.74,2.82-3,5.81-2.78,9.52-1.55,3.19,1.05,4.4-3.8,1.37-5Z"/><path class="cls-1" d="M427.28,1.13C415.8,16.37,409.35,35.67,410.9,54.9c.59,7.31,3.52,15.8,11.55,17.62,6.69,1.51,13.14-2.74,13.71-9.59.4-4.81-6.5-5.12-7.94-1.08-.41,1.15-2.64,1.09-3.61.8-2.52-.74-3.43-3.71-4-6-1.27-5.62-.93-11.93-.37-17.62A90,90,0,0,1,431.73,3.74c1.7-3-2.5-5.18-4.45-2.61Z"/><path class="cls-1" d="M453.64,58.77c6.12-3.78,14.25-8.8,11.09-17.35-3.06-8.28-13.5-6-17.8-.22-12.06,16.17,8.6,37.76,25.31,26.65,5-3.31.7-10.26-4.61-7.89-6.94,3.1-15.11-1.05-15.3-8.92-.06-2.41,3.27-11.71,6.81-7.26s-5.06,8.73-7.74,9.69c-4,1.44-1.29,7.48,2.24,5.3Z"/><path class="cls-1" d="M59.32,138.4a27.35,27.35,0,0,0-24-.44c-8,3.8-15.23,13-11.5,22.24,3.41,8.43,14.26,10.55,21.87,7.06,10.39-4.77,13.89-16.09,16.23-26.38,1.58-6.95-8-9.34-10.49-2.89-7.72,20,13.18,38,32,29.41,5.66-2.58,1.63-12.29-4.27-10.13-11.07,4-21.36-4.89-17.24-16.39L51.47,138c-1.18,5.85-2.26,12.33-6.23,17-3.12,3.68-9.27,6.41-12.94,1.73-3.91-5,3.31-11.9,7.43-14.05a19.42,19.42,0,0,1,17.38-.53c2.52,1.2,4.74-2.53,2.21-3.77Z"/><path class="cls-1" d="M128.37,120.82c-4.36,4-4,14.24-4.12,19.82a98.45,98.45,0,0,0,2.23,23.22c1.17,5.64,10.32,3.22,8.67-2.39a86.78,86.78,0,0,1-3.59-21.75,91.18,91.18,0,0,1,.26-10.19c.27-3.26,1-5.37-.37-8.31a2,2,0,0,0-3.08-.4Z"/><path class="cls-1" d="M134,147.45c4.67-4.26,13.11-5.88,18.12-1.26a11.17,11.17,0,0,1,.34,16.32c-9.89,9.48-28.29,8.6-40.64,6.63-6.25-1-9.09,8.37-2.67,9.69,16.75,3.45,49.78,1.8,54.21-19.83,1.67-8.18-2.76-17.2-10.52-20.45A16,16,0,0,0,132.16,146a1.18,1.18,0,0,0,1.84,1.42Z"/><path class="cls-1" d="M179.58,162.43c5.47-1.78,11.06-2.43,14.82-7.32,3-4,3.89-9.41,1-13.69-6.54-9.59-19.8-3.83-23.18,5.22-4.07,10.89,2.47,23.64,12.76,28.28A23.13,23.13,0,0,0,215,164a4.89,4.89,0,0,0-8.44-4.94c-6.45,9.46-21.15,9-25.33-2.29-1.54-4.18-.63-12.93,5.68-12.19,3.69.44,4.05,4.3,2.38,7.07-2,3.33-6.79,5.21-10.45,5.49-4,.3-2.89,6.42.71,5.25Z"/><path class="cls-1" d="M242.43,132.85c-6.32-.67-12,.7-18.2,1.46-2.32.28-4.5,2.73-2.92,5.09,3,4.4,7,8,10.65,11.81s8.88,7.7,11.59,12.28c2.6,4.41-3.77,5.8-7,6.61-3.44.85-12.15,2.66-11.33-3.51.61-4.51-6.19-5.72-8.2-2.22-4.26,7.41,1.15,15.28,8.88,17,7.41,1.61,18.37-1.29,24-6.41,6.29-5.69,4.83-13.68-.63-19.35-3.54-3.67-7.5-7-11.25-10.43s-7.6-7.52-12.08-10.37v5.84c5-3,10.78-2.83,16.49-2.28,3.51.34,3.46-5.12,0-5.48Z"/><path class="cls-1" d="M291.77,143.83a16.68,16.68,0,0,0-22.87,6c-5.31,9.51.62,21.78,10.16,25.75,10.18,4.24,22.13-1.52,26.72-11.2,5.23-11,.31-23.24-8.87-30.28-5.14-3.94-10.28,4.86-5.1,8.73,4.71,3.52,7.51,10.1,5.74,15.87-1.68,5.51-7.71,9.75-13.51,8.82s-10.48-7.37-8.88-13.09,9-9.42,14.51-7c2.4,1.06,4.45-2.16,2.1-3.6Z"/><path class="cls-1" d="M331.62,140.7a28.2,28.2,0,0,0-4.42,8.15,70.33,70.33,0,0,0-2.67,9.54,106.55,106.55,0,0,0-1.92,19.6c-.05,5.31,8.23,4.61,7.43-1-1.76-12.34.81-24.08,1.71-36.25,0-.07-.09-.08-.13,0Z"/><path class="cls-1" d="M329.5,129.16c4.65,0,4.66-7.24,0-7.24s-4.67,7.24,0,7.24Z"/><path class="cls-1" d="M349.36,171.86c.28-4-.47-8.48.52-12.41.68-2.66,3.28-6.7,6.64-6.2,2.75.41,3.06,3.9,3.57,6.11.73,3.13,1.41,6.24,3.14,9a19.67,19.67,0,0,0,32,1.86c4-5-2.92-12.25-7.2-7.19-5.71,6.74-15.19,4.84-17.81-3.61-1.87-6.06-3.1-13-10.25-14.95-5.74-1.56-12.2,1.66-15.33,6.52-4.27,6.65-3,15.43.26,22.07,1.11,2.29,4.29.95,4.44-1.2Z"/><path class="cls-1" d="M463.24,141.28c-9.58-2.94-20.52-1.87-28,5.37-7.11,6.91-9.46,18.11-3.94,26.7,5.71,8.9,16.46,11.48,25.78,6.68,10.74-5.52,14.6-17.5,17.42-28.39,1.86-7.21-9.42-10.29-11.14-3.07-1.51,6.38-2.93,13.53-7.44,18.57-4.28,4.77-11.5,6.85-16,1.2-4-5.1-2.57-11.89,1.64-16.39,5.12-5.47,13.07-6.41,20.06-4.94,3.72.78,5.25-4.59,1.58-5.73Z"/><path class="cls-1" d="M474.61,100.05c-5.52,19-9.13,40.11-6.62,59.88,1,7.57,4.3,14.7,11.53,18s15,1.72,20.93-3.1c4.5-3.64-1.61-11.68-6.25-8.09-4,3.12-10.07,3.56-13.72-.55-4.22-4.73-3.72-13.35-3.87-19.21a179.49,179.49,0,0,1,4.6-45.14c1-4.28-5.37-6.06-6.6-1.82Z"/><path class="cls-1" d="M527.4,154.83c.85-7.6-6-14.1-13.24-14.92-8.52-1-15.11,6.86-16.46,14.62-1.6,9.13,3.44,17.37,11,22.17,9.79,6.22,21.67,5.2,32.38,2.37,7.14-1.89,4.11-13-3.05-11.07-9.75,2.58-25,4.14-29.94-7.33-1.57-3.63-.78-8.76,2.43-11.31,4.59-3.64,11.61-.46,11.47,5.47-.09,3.56,5,3.38,5.41,0Z"/><path class="cls-1" d="M74,211.6c-21.6-11.08-42.18,14.71-40.31,35,1,11.31,8.26,21.44,19.19,25.11a24.39,24.39,0,0,0,28.45-10.81c3.86-6.66-6.37-12.62-10.31-6a13.16,13.16,0,0,1-17,4.82c-6.37-3.13-10-10.26-10.23-17.14C43.3,228.12,57,210.75,72.65,214.7c1.81.46,3.07-2.19,1.31-3.1Z"/><path class="cls-1" d="M106.28,213.9l-1.75-1.8c-1.2-1.83-4.72-1.88-5.16.68-2.83,16.87-3.53,34-6,50.94-1.08,7.36,9.9,8.6,9.93,1.34.06-17.18,1.92-34.34,1.61-51.53l-3.57,2.72,2.06,1.38c2.46,2.34,5.77-1.75,2.88-3.73Z"/><path class="cls-1" d="M104,256.63c-2.5-5.47-2.72-13.23,3.73-16.11,5.75-2.58,8.27,1.49,9.66,6.4,2.33,8.26,8.47,16.25,17.86,12,5.68-2.56.75-10.81-4.87-8.34-2.1.93-7.11-12.44-8.57-14a12.84,12.84,0,0,0-13.3-3.43c-11.14,3.35-11.86,16.19-7.55,25.25,1,2,4,.26,3-1.78Z"/><path class="cls-1" d="M158.17,239.09c-6.34,2.25-13.35,5-16.91,11.11-3.08,5.32-2.8,12.79,1.88,17.1,5,4.62,12.53,3.89,17.8.16,6.6-4.67,7.86-12.5,9.12-19.9l-11.17-3.08c-1.52,11.16,8.14,20.76,19.43,17.93,7.32-1.84,4.21-12.83-3.1-11.26-3.19.68-5.11-2.38-5-5.13.42-7.44-11.21-7.44-11.58,0-.17,3.41-.51,7.37-2.26,10.4-1.28,2.21-4.59,5.16-7.14,3.08s-1-6.46.34-8.55c2.37-3.62,6.6-5.7,10.28-7.74,2.19-1.21.71-5-1.73-4.12Z"/><path class="cls-1" d="M194.5,266.36c-2.78.6,0-9.17.61-10.9a23.14,23.14,0,0,1,7.77-10.61l-4.74-.62c5.61,6.71,4.32,16.79,10.7,23.24,5.07,5.12,12.71,6,18.1,1,3.76-3.49-1.08-9.67-5.45-7.07-5.63,3.35-8.86-5.45-10.13-9.21-1.7-5-3.56-10-7.68-13.52a4,4,0,0,0-5.54,0c-7.55,7.86-11.32,18.75-7.81,29.34a1.51,1.51,0,0,0,2.88,0l1.35-1.55a.07.07,0,0,0-.06-.13Z"/><path class="cls-1" d="M268.6,249.89c2-7.72-6.35-13.19-13.29-11.13-8.37,2.49-14.83,14-14.44,22.37.47,9.9,10.39,14.56,19.07,11.28,10.52-4,12.69-15.61,13.95-25.47H263.41c.53,13.94,1.2,28.29-3,41.79-1.69,5.46-4.64,13.78-10.36,16.28-4.88,2.14-10.37-2.43-10.42-7.46-.08-6.78-9.77-6.55-10.37,0-.77,8.27,4.79,15.79,12.51,18.47,9.17,3.19,17.53-2.11,22.64-9.55,11.66-17,10.61-40,9.47-59.53-.39-6.82-9.82-6.66-10.48,0-.42,4.27-.81,9-3.09,12.79-1.79,3-7.3,6.72-10.2,2.95-2.58-3.35.1-9.21,1.95-12.26a16.48,16.48,0,0,1,4.5-5.15c2.73-1.9,10.72-2.74,9.14,3.82-.45,1.88,2.41,2.68,2.89.8Z"/><path class="cls-1" d="M298.9,262.18c8.46-2.89,19.85-9.49,15-20.36s-18.29-4.5-23.08,2.72c-5.65,8.49-5.39,20.5,1.41,28.25,7.26,8.26,18.89,10,28.68,5.72,6.14-2.69.84-11.85-5.3-9.07-10,4.55-21-4-19.85-14.66.44-3.92,6.15-15.29,11.22-10.45,5.65,5.4-6.27,11.58-10,13.32-2.53,1.19-.74,5.44,1.91,4.53Z"/><path class="cls-1" d="M340.76,236a40.58,40.58,0,0,0-.27-7.23c-.39-2.76-4.49-1.87-4.65.63-.47,7.75-.79,15.5-1,23.26-.22,7.12-1.68,15.48.13,22.41,1,3.83,7,4,7.93,0,1.6-7.05-.09-15.24-.54-22.41-.48-7.77-1-15.51-1.77-23.26l-3,2.28c2.25.54,3,.13,2.86,4.32,0,.21.31.21.32,0Z"/><path class="cls-1" d="M342.13,266.75c-.53-4-.95-9.44.41-13.28,1.22-3.44,5.86-7.19,8.92-3.46,2.35,2.86,2.19,9.52,2.3,12.84a48.37,48.37,0,0,1-1.53,13.66l10.32,1.4a44.74,44.74,0,0,1,3.2-16.08c.27-.66,1.21-3.55,1.83-3.78-.23.09.23.53.67,1.18,1.33,2,1.17,5.7,2.08,8,2.78,7,13.59,11.35,17.77,3,2.12-4.24-3.31-9.11-6.86-5.3-.4.43-1.81-4.43-2-5.29a19.71,19.71,0,0,0-3-7.65c-2.94-4.05-7.91-6.21-12.69-4.11s-6.79,7.56-8.45,12a52,52,0,0,0-3,18c0,6.89,9.84,6.6,10.51,0,1-9.84,2.68-35.26-11.63-37-4.88-.6-9.79,2.21-12.44,6.26-4.21,6.43-2.07,13.43-.26,20.13.56,2.09,4.21,1.75,3.91-.53Z"/><path class="cls-1" d="M409.63,257.6c7.83,6.83,18-3.73,15.28-12.29-3.68-11.43-18.76-11.24-24.93-2.16-6.67,9.8-.94,22.8,7.81,29.13a32,32,0,0,0,35.5,1c5.16-3.29.59-11.18-4.8-8.22-10.19,5.59-25.68,4.41-31.43-7-2.62-5.19-1.55-14.18,6.07-14.08,3.39,0,7,3.7,5.38,7.2-1.29,2.84-4.69,3-7.31,2.66-1.9-.22-2.95,2.58-1.57,3.79Z"/><path class="cls-1" d="M458.28,237.78a94,94,0,0,0-1.68,32.85l7.9-1.07c-1.17-5.15-3.55-14.07,2.38-17.26,5.72-3.08,6,5.72,7.1,9.19,1.43,4.41,4.22,8.55,9,9.61a8.16,8.16,0,0,0,9.65-5.65c1-2.88-2.74-5.87-5.31-4.08-4.23,2.94-6.25-10.34-7.81-12.9a11.77,11.77,0,0,0-12.75-5.61c-13.72,3.13-12.93,18.19-10.05,28.83,1.35,5,9.28,2.83,7.76-2.13-3.09-10.14-3.6-20.76-2.51-31.27.22-2.14-3.22-2.55-3.71-.51Z"/><path class="cls-1" d="M513.21,221.07c-6.26,12.4-10.81,30.93-3.75,44,3,5.54,8.9,9.72,15.36,9.43,6.26-.28,12.06-5.12,13-11.35,1.14-7.63-9.58-9.18-10.51-1.42-.49,4.13-6.34,2.11-8.18.55-3.47-3-4.38-7.9-4.7-12.21a70.11,70.11,0,0,1,3.61-27c.94-2.81-3.47-4.71-4.82-2Z"/><path class="cls-1" d="M505.68,253.9c10.23-2.5,20.35-6,30.36-9.24,5.13-1.68,2.89-9.86-2.24-8.11-10.28,3.51-20.7,7-30.69,11.27-3.56,1.53-1,6.94,2.57,6.08Z"/><path class="cls-1" d="M1.29,303.86c68.82-3,137.76,1,206.51,3.93,4.32.18,4.22-6.31,0-6.65-34.31-2.8-68.81-3.27-103.23-3.23s-68.83,1.8-103.28,3.28c-1.72.07-1.72,2.75,0,2.67Z"/><path class="cls-1" d="M303.82,315.12c71.82.64,143.62.28,215.44,0,5.79,0,5.8-9.07,0-9-71.82.89-143.63,1.72-215.44,3.53-3.52.09-3.54,5.45,0,5.48Z"/><path class="cls-1" d="M558.6,117.09c-1.06-17.55-2.67-35.54,2.59-52.62,4.44-14.42,15.1-27.88,30-32.38,33.1-10,50.89,36.07,58.23,60.05,9.54,31.18,11.14,64.18,9,96.54a443.07,443.07,0,0,1-6,49.13C649.6,253.06,644.82,270.08,631,279c-15,9.71-32.7,2.31-43.23-10.4C576,254.45,573.45,234.55,570.66,217c-1-6.3-10.5-3.6-9.55,2.63,2.69,17.89,5.81,37,16.73,52,9.41,12.93,25.08,23.09,41.63,21.29,39.44-4.27,42.93-56,46-86.17,3.78-36.93,3.3-75-6.85-111-4.79-17-11.62-34.39-21.8-48.89-8.82-12.56-22-23.73-38.24-22.69C581,25.23,566.12,38.74,559.44,54.47c-8.37,19.68-5.65,42.33-2.55,62.85.15,1,1.77.74,1.71-.23Z"/><path class="cls-1" d="M548.86,216.42a72.86,72.86,0,0,1,26.75-37.55l-4.87-1.28c6.39,11.77,14.59,23.62,24.8,32.42a4.12,4.12,0,0,0,5.82-5.82c-8.58-9.85-17.13-19.32-24.47-30.2a3.63,3.63,0,0,0-5.6-.72,79.87,79.87,0,0,0-25.51,42.3,1.6,1.6,0,0,0,3.08.85Z"/></g></svg>