<svg xmlns="http://www.w3.org/2000/svg" viewBox="0 0 647.83 254.27"><defs><style>.cls-1{fill:#fff;}</style></defs><g id="About_us" data-name="About us"><path class="cls-1" d="M152.48,37.26c-.9,10.49-.92,21-2.77,31.36-1.8,10.16-5.33,19.55-8.42,29.34-1.42,4.5,5.85,7.76,7.78,3.28,4.33-10.07,6.41-21.27,7.85-32.09s2.21-21.82.1-32.5c-.54-2.71-4.33-1.82-4.54.61Z"/><path class="cls-1" d="M89.21,93.81a403.66,403.66,0,0,1,57.91-49.07c20.71-14.44,42.69-26,65.36-36.95,5-2.45.63-9.52-4.32-7.4-23.41,10-45.66,23.92-66.2,38.89A391.28,391.28,0,0,0,85.28,89.87c-2.43,2.62,1.42,6.51,3.93,3.94Z"/><path class="cls-1" d="M133.27,75.75a31.61,31.61,0,0,1-6.16,3.8c-3.73,1.56-1.06,7,2.07,4.92,9.57-6.38,19.56-12.2,29.7-17.6q7.23-3.84,14.66-7.3C179,57,185,55.19,190.14,52.15c3.48-2,1.16-7.46-2.74-6.48-5.48,1.38-10.8,4.38-15.88,6.85s-10.29,5.16-15.32,8a283.51,283.51,0,0,0-29.74,19.34l3.27,4.23a32.15,32.15,0,0,1,5.56-4.85c2.05-1.5.09-5-2-3.45Z"/><path class="cls-1" d="M206.47,91.58a59.47,59.47,0,0,1-3.12,9.92l4.54,1.25c2.22-11.1.67-23,0-34.2l-2.72,3.57c9.93-3,19.73-6.38,29.53-9.74,4.86-1.67,2.79-9.42-2.14-7.76C222.74,58,212.87,61.24,203.19,65a3.8,3.8,0,0,0-2.58,4.56c2.72,10.87,2,21.56,2.66,32.6a2.35,2.35,0,0,0,4.7,0,56.73,56.73,0,0,1,1.48-9.73c.45-1.94-2.54-2.77-3-.82Z"/><path class="cls-1" d="M260.55,77.25c-7.21-3.85-15.81-4.41-22.56.78-5.9,4.53-8.78,12.6-5.42,19.53s11.32,10.6,18.62,7.69c9.19-3.65,11.88-13.79,13.44-22.57l-7.74-1.05c.15,15,16.82,21.71,28,12.48,4-3.32-1.69-8.85-5.68-5.69-6,4.72-14,.47-14.48-6.79-.26-4.13-7.07-5.7-7.74-1-.74,5.16-1.45,11.14-5,15.22-4,4.56-10.44,4.76-13.75-.77-2.9-4.85-.59-11,3.46-14.44,5.06-4.25,12.39-4.15,18.38-2.29a.58.58,0,0,0,.44-1Z"/><path class="cls-1" d="M301.15,65.2c-.74,11.89-.91,23.83-1.78,35.72-.33,4.46,7.27,4.47,6.94,0-.87-11.89-1-23.83-1.78-35.72a1.69,1.69,0,0,0-3.38,0Z"/><path class="cls-1" d="M301,48.82l2.26-1.07a3.19,3.19,0,0,0-3.22-5.5l-2.19,1.19a3.14,3.14,0,0,0-1.11,4.26,3.08,3.08,0,0,0,1.86,1.43,3.51,3.51,0,0,0,2.4-.31Z"/><path class="cls-1" d="M350,61.77c-6.25-1.25-14-3.37-19.12,1.79-5.93,6-2.43,15.2,3.28,19.8s19.54,6.94,20.9,15.71c.8,5.16-5.08,8.26-9.47,8.19-5.2-.08-10-3.39-14.51-5.68-3.83-2-7.7,2.77-4.64,6,6.21,6.59,16.14,10.74,25.16,7.88,8.06-2.56,14-10.77,11.47-19.29-2.72-9.08-11.81-12.45-19.55-16.08-4.19-2-11.72-6.86-8.36-12.53,2.53-4.27,10-4.12,14.18-3.41,1.54.26,2.23-2.07.66-2.39Z"/><path class="cls-1" d="M506.27,116.85c-11.65-8.48-23.86-17-34.52-26.75-9.75-8.89-18-19.75-21-32.82-3.11-13.47.06-28.5,11.88-36.77,9.78-6.84,23-6.3,30.83,3.31,8.92,11,1.75,23-7.26,31-9.69,8.63-20.73,15.68-30.53,24.25-8.89,7.77-22,17.54-23.8,30.12-1.52,10.68,7.5,17.56,17.42,17.35,13.51-.28,24.49-10.21,35-17.52,10.26-7.15,26-15,37.33-5.37,3.84,3.25,9.34-2,5.6-5.61-8.84-8.44-21.84-8.19-32.69-4-13,5-22.56,15.6-35,21.57-4.83,2.32-13.25,5-17.78.57-5.7-5.61,2.23-14.61,6.21-18.66,11.12-11.32,23.57-21,36.2-30.52,9.49-7.18,19.64-15.85,21.44-28.33,1.69-11.74-5.53-23-15.93-28.1-11-5.41-23.71-3-33.15,4.41-10.63,8.32-15.67,21.54-14.9,34.87.93,16.1,9.58,30.33,20.89,41.39A123.35,123.35,0,0,0,481.34,106c7.58,5,15.74,8.67,23.56,13.17,1.55.89,2.76-1.34,1.37-2.35Z"/><path class="cls-1" d="M152.61,144.89c-14.28-4.69-32.48-7.4-43,6.12-3.66,4.72-5.82,10.76-4.89,16.76,1.11,7.14,6.58,11.95,12.5,15.47,7.65,4.54,15.38,8.73,22.65,13.9,6.29,4.47,15.55,11.53,8.58,19.68-5.64,6.59-16.28,7.37-23.85,4.05-8.25-3.61-12.53-11.88-13.91-20.41-.66-4.11-7-2.94-7,1-.33,12.62,8.25,23.78,20,27.89,11.47,4,26.85.75,33.18-10.39,7-12.27-3.61-22.08-13-28.66a189.48,189.48,0,0,0-19.48-11.86c-5.52-3-12.17-6.44-12.61-13.49s4.85-13.7,10.82-16.67c8.73-4.34,20.18-3,29.46-1.47a1,1,0,0,0,.52-1.88Z"/><path class="cls-1" d="M200.76,192.84c-14.4-11.33-28.81,9.55-22.74,23.23,3.13,7.07,11.54,8.59,18,5.29,8.3-4.2,10.44-13.74,11.79-22.14a3.7,3.7,0,0,0-7.12-2,17.92,17.92,0,0,0,24.51,22.57c3.55-1.65,1-7.51-2.65-6.31-9.42,3.06-18.06-4.62-14.74-14.3l-7.12-2c-.63,4.38-1.23,9-3.3,13-2,3.78-7.41,8.16-11.84,5.34-10.19-6.47,4.19-31.17,13.18-20.77,1.2,1.39,3.39-.88,2-2Z"/><path class="cls-1" d="M235.18,209a17.36,17.36,0,0,0,2-7.2c.21-2.58-.44-8.73,2.53-10.11,5.6-2.6,5.4,7.4,5.68,9.93a17.92,17.92,0,0,0,2.4,7.82,16,16,0,0,0,23.51,3.89c3-2.47-.82-6.93-4-5.19-4.87,2.66-11.91,1.35-14.36-4-2.7-5.95-.3-12.78-6.33-17.27a8.08,8.08,0,0,0-11.43,1.34c-4.42,5.64-.66,12.81-3.36,18.86-1,2.21,2.11,4.17,3.33,1.95Z"/><path class="cls-1" d="M302.87,183.06c-.93-4.82-6.63-7.32-11.1-5.57-5.38,2.11-6.79,8.76-5.28,13.83,2.12,7.14,8.93,10.59,13.4,16,3.06,3.7,4.05,9,.65,12.87-3.15,3.62-7.58,3.24-11.63,1.73-4.37-1.63-7.29,5.39-3.17,7.52,11.58,6,25.61-3.2,24.51-16.28-.55-6.53-4.92-11-9.67-15.07-2.69-2.29-6.16-4.71-7.61-8a8.5,8.5,0,0,1-.63-5.39c.9-3.09,5.56-4.39,6.4-.45.58,2.71,4.65,1.55,4.13-1.14Z"/><path class="cls-1" d="M356.57,167.32c-4.79,19.5-6.61,38.91-9.07,58.77a4.16,4.16,0,0,0,3.08,4c10.7,2.06,22.82,1.6,32.3-4.28,3.59-2.23,1.32-8.21-2.93-7-9.15,2.7-17.53,4.84-27.15,3.17l3.08,4c-1.12-19,1.63-38.9,4.86-57.62.47-2.7-3.5-3.9-4.17-1.15Z"/><path class="cls-1" d="M402.62,198.09c-4.16,8.48-6.58,18.24-5.05,27.69.63,3.87,7.39,3,6.92-.94-1.07-8.87-1.22-16.6,2-25.1.87-2.26-2.85-3.82-3.91-1.65Z"/><path class="cls-1" d="M478.93,198.23c-4.26,9.65-5.39,20.47-1.69,30.52,1.57,4.27,8.47,2.43,6.88-1.9-3.29-8.94-4-17.69-.93-26.83.84-2.46-3.19-4.23-4.26-1.79Z"/><path class="cls-1" d="M479.93,184.43l.44-.27.17-.11a3.6,3.6,0,0,0,1.17-1.07,3,3,0,0,0,.68-1.3l.14-1a3.74,3.74,0,0,0-.16-1.1l-.06-.25a3.15,3.15,0,0,0-2.24-2.24,2.44,2.44,0,0,0-.26-.06,4.6,4.6,0,0,0-.59-.09,2.82,2.82,0,0,0-1.52.07,2.78,2.78,0,0,0-1.29.68,5.37,5.37,0,0,0-.45.35l-.6.77-.14.22-.27.43-.36.87a2.75,2.75,0,0,0-.07,1.45,1.84,1.84,0,0,0,.25.92,2.81,2.81,0,0,0,.75,1.17l.74.57.87.37a2.75,2.75,0,0,0,1.45.06,2.63,2.63,0,0,0,1.35-.43Z"/><path class="cls-1" d="M406.66,189c4.16,0,4.17-6.47,0-6.47s-4.18,6.47,0,6.47Z"/><path class="cls-1" d="M515.53,158.51c-6,18.83-9.39,37.63-7.26,57.48.68,6.41,2.52,13.36,8.92,16.28,7.51,3.42,15.65-1.21,21.64-5.58,3.83-2.81.14-9.28-3.77-6.45-4.93,3.56-13.8,9.75-18.34,2.5-3.26-5.22-3.05-13.47-3.29-19.36-.61-14.62.66-30.06,5-44.06.59-1.87-2.34-2.67-2.94-.81Z"/><path class="cls-1" d="M503.31,204.88a213.92,213.92,0,0,1,21.57-6.49c6.93-1.56,13.9-3.09,20.4-6,3-1.34.69-5.41-2.09-5-7.09,1.15-13.85,3.91-20.58,6.38s-13.72,4.2-20.69,6c-3.28.85-1.8,6.13,1.39,5Z"/><path class="cls-1" d="M573.69,205.43a36.15,36.15,0,0,0,12-18.29,3.09,3.09,0,0,0-2.09-3.68c-14.92-6.22-27.68,14.63-23.94,27.57,4.08,14.13,22.39,20.1,34.52,12.55,4.39-2.73.36-9.69-4-6.94-7.77,4.83-19.53,1.81-23.16-7s4.75-24,15-20.45l-2.09-3.68a30,30,0,0,1-10,16.11c-2.63,2.26,1.14,5.89,3.76,3.77Z"/><path class="cls-1" d="M40.65,59.77Q25.23,53.23,9.93,46.45a3.13,3.13,0,1,0-2.42,5.74q15.18,6.14,30.23,12.55c3.37,1.43,6.31-3.53,2.91-5Z"/><path class="cls-1" d="M34.94,150.08c-10.42.23-20.86-.21-31.27.37-3.46.19-3.51,5.4,0,5.42,10.43.06,20.85-.89,31.27-1.17,3-.08,3-4.68,0-4.62Z"/><path class="cls-1" d="M23.68,239.49c-7.67,4-15.62,7.47-23,11.95-1.4.84-.5,3.33,1.16,2.73,8.29-3,16.18-7,24.25-10.53,2.78-1.21.37-5.59-2.42-4.15Z"/><path class="cls-1" d="M588.18,69.82q21.09-9,42.24-17.88c3.65-1.53,1.52-6.78-2.12-5q-20.94,10-41.94,19.8c-2.13,1-.27,4,1.82,3.13Z"/><path class="cls-1" d="M629.91,158l14.51,1.33c3.24.29,3.28-4.89,0-5.1l-14.51-.9c-3-.19-2.95,4.39,0,4.67Z"/><path class="cls-1" d="M620.83,234.86q11.29,8,22.41,16.18c3.22,2.37,6.55-3.15,3.17-5.42Q635,237.9,623.69,230c-3-2.1-5.81,2.8-2.86,4.89Z"/><path class="cls-1" d="M425.69,196.33a17.26,17.26,0,0,0,.48-2.66l-2.32-.65c-1.65,9.67-1.16,19.63-4,29.12l5.94,1.64a39.14,39.14,0,0,1,5.79-16.49c.79-1.19,3.72-3.08,5.07-1.54.62.71.44,3.86.45,4.93a37.16,37.16,0,0,1-1.86,10.8l6.24.84c0-3.79,4.55-18.22,10.35-13.27,1.84,1.58,1.89,4.77,2.24,6.94a24.4,24.4,0,0,0,2,6.92c1.57,3.32,6.52.43,4.93-2.88-2.89-6-1.85-19.3-12.39-17.75-8.8,1.29-12.74,12.55-13.51,20-.39,3.84,5,3.9,6.24.84,2.53-6.47,5.55-26.11-6.37-25.44-10.47.59-14.39,17.11-15.26,25.24-.42,3.87,6.12,4,6.16,0,.09-9.93,2-20.05.27-29.94-.21-1.22-2-1.07-2.32,0a18.2,18.2,0,0,0-.64,2.62c-.32,1.61,2.12,2.31,2.48.69Z"/></g></svg>