<svg xmlns="http://www.w3.org/2000/svg" viewBox="0 0 443.28 314.51"><defs><style>.cls-1{fill:#fff;}</style></defs><g id="Sans_but_lucratif" data-name="Sans but lucratif"><path class="cls-1" d="M156.5,100.29c-8.65-3.09-19-3.12-28.12-4.3-6.51-.84-15.54-3.58-20.36,2.5-4.49,5.67-3.33,15.48-3.68,22.16q-.77,14.61-1.51,29.21c-.22,4.44,5.63,5.31,7.81,2.12,6.58-9.62,21.13-10.12,29.18-2.18,8.84,8.71,8.86,22.54,2.21,32.47-7.6,11.34-21.28,15.95-34.46,15.1-11.86-.76-30.5-7-26.68-22.45,1-3.91-4.4-6.26-6.52-2.75-7.65,12.66,3.5,25.45,15.09,30.15,13.93,5.65,30.75,5.6,44.22-1.29,11.47-5.86,20.36-17.42,21.7-30.38,1.28-12.3-4.71-25.67-15.78-31.69a28,28,0,0,0-36.2,8.79l7.81,2.11q.47-11.69.87-23.36.23-5.85.43-11.69c.1-3.16-.42-7.06.65-10.09,1.44-4.07,5.79-3.25,9.27-3,4,.24,7.93.49,11.9.72,7.23.43,15,1.71,22.17.6,1.5-.23,1.16-2.29,0-2.71Z"/><path class="cls-1" d="M233.31,121.9c-13-11.41-31.54-5-41.14,7.31-9.83,12.65-15.1,32.14-6.23,46.71C195.1,191,215.64,194,231,187.85c16.12-6.43,26.92-22.45,25.51-40-1.53-19-18.5-35.53-38.16-33.85-5,.43-5.19,8.07,0,7.94,13.21-.31,25.59,7.21,29.46,20.28a32.11,32.11,0,0,1-13,35.37c-11.21,7.51-27.51,8.7-38.4-.1-11.34-9.17-9.62-25.73-4.24-37.68,6.41-14.23,24.25-28.81,39.11-15.94,1.35,1.17,3.34-.79,2-2Z"/><path class="cls-1" d="M335.08,98.81c-12.26,18-21.86,38.12-32.31,57.2l-15.3,28c-5.15,9.42-11.58,18.88-15.08,29-1.3,3.78,3.91,5.23,6,2.51,6.45-8.59,10.68-19.38,15.6-28.92L309,157.36c9.73-18.91,20.72-37.7,28.58-57.48.61-1.54-1.69-2.28-2.52-1.07Z"/><path class="cls-1" d="M285.32,114.54c-9.16,2.34-17.3,8.64-17.89,18.75-.53,8.86,7.54,17.58,16.77,15.64,9.49-2,16.13-13.77,14.68-23-1.26-8-11.6-16.6-19.48-10.7-3.31,2.48-1.54,8.15,3,7,14.15-3.63,9.09,21.22-2.13,19.42-5.85-.94-7.41-7.85-5.86-12.66,1.78-5.54,7.17-9.19,12.24-11.42,1.77-.77.49-3.49-1.28-3Z"/><path class="cls-1" d="M313.6,183.05a19.17,19.17,0,0,0-19.48,17c-1.05,10.38,7.66,20.17,17.85,21.28,10.54,1.14,20.27-7,22.88-16.92,2.79-10.65-2.62-23.78-12.51-28.83-3.41-1.74-7.25,2.64-4.24,5.49,5.39,5.11,10.55,10.83,10,18.82-.47,7.13-6.13,13.89-13.41,14.63s-14.35-5.78-14.7-13.1c-.37-7.85,6.62-14.31,14-15.3,1.8-.25,1.28-3-.42-3.09Z"/><path class="cls-1" d="M112.24,19.18c-33,3-63.89,20-84.88,45.58C4.49,92.6-4.14,128,1.84,163.43c13.32,78.84,86.77,129.48,160.6,145,77.5,16.32,165.28-.34,228-50,28.75-22.77,50-54.31,52.58-91.62,2.5-36.48-12-73.38-35.95-100.56C349.91,1.52,256.33-5.35,176.05,2.7c-11.38,1.14-22.7,2.75-34,4.44-4,.59-3.07,7.5.95,7.05C222.26,5.33,309.71-.51,377.45,49.85c28.65,21.31,49.48,52.28,56,87.6,6.6,35.71-4.32,70.49-28.65,97.16-24.73,27.1-58.76,45.51-93.16,57.24a282.79,282.79,0,0,1-113.56,14.24c-72.67-5.8-149.54-42.18-180.2-111.94C3.46,161.32.89,123,16.65,90.17,30.8,60.68,57.28,37.1,88.42,26.89a108.15,108.15,0,0,1,23.82-4.81c1.84-.17,1.86-3.07,0-2.9Z"/><path class="cls-1" d="M219.74,12.08c-.25,7.24-1.93,14.59-2.83,21.79l-2.74,21.79c-1.82,14.49-3.9,29-5.15,43.58-.37,4.43,6.35,4.29,6.85,0,1.65-14.14,2.51-28.41,3.59-42.59l1.59-20.8c.59-7.69.4-15.77,1.68-23.37.36-2.19-2.92-2.61-3-.4Z"/><path class="cls-1" d="M195.93,218.92c-4,10.52-4.19,23.41-5.27,34.52-.57,5.91-1.09,11.81-1.52,17.73-.41,5.61-1.63,12-.35,17.51.64,2.76,4.74,2.62,5.46,0,1.41-5.16.61-11.2.69-16.53.1-5.91.27-11.82.55-17.72.28-5.57.65-11.14,1-16.71.41-6.14,1.41-12.47.77-18.61a.7.7,0,0,0-1.36-.19Z"/><path class="cls-1" d="M303.65,26.21A353.1,353.1,0,0,0,271.17,49.1q-7.86,6.21-15.4,12.81c-5,4.33-10.18,8.52-14,14-1.47,2.1,1.42,4.9,3.51,3.51,5.26-3.48,9.53-8.22,14.15-12.49s9.45-8.51,14.31-12.62c10.23-8.67,20.92-16.94,31.75-24.84,1.88-1.38.2-4.5-1.87-3.21Z"/><path class="cls-1" d="M342.18,47.35c-9.19,6.87-18.12,14-27.55,20.6S295,80,285.69,86.66a2.79,2.79,0,0,0,2.81,4.81c10.37-5.22,20.06-12.93,29.35-19.84,9.1-6.77,18.21-13.73,26.46-21.51,1.42-1.34-.51-4-2.13-2.77Z"/><path class="cls-1" d="M247.39,241.78a241.37,241.37,0,0,1-19.55,18.15c-6.9,5.69-14.36,10.56-21.4,16.05-2.49,1.94.74,6,3.38,4.37,14.9-9.49,28.18-23.15,40-36.19,1.45-1.6-.86-3.95-2.39-2.38Z"/><path class="cls-1" d="M415.63,134.91c-10.84,14.12-23.13,27-35.7,39.53-12.29,12.29-25.55,23.36-38.27,35.16-3,2.76,1.34,6.82,4.37,4.37,27.34-22.13,49.83-50.17,72.48-76.84a1.83,1.83,0,1,0-2.88-2.22Z"/><path class="cls-1" d="M297.53,258c-12.66,11.42-26.32,20.84-40.64,30l3.78,1-1.62-2.34a2.5,2.5,0,0,0-4.31,2.52l1.15,2.61a2.79,2.79,0,0,0,3.79,1c14.47-9.2,28-20.47,40.71-31.93,1.94-1.74-.93-4.59-2.86-2.86Z"/><path class="cls-1" d="M379.89,102.19c-7.77,9-15.78,17.85-23.26,27.11-2.22,2.75,1.61,6.7,3.94,3.94,7.7-9.14,14.87-18.71,22.28-28.09,1.63-2.06-1.18-5-3-3Z"/></g></svg>