<svg xmlns="http://www.w3.org/2000/svg" viewBox="0 0 708.68 396.18"><defs><style>.cls-1{fill:#fff;}</style></defs><g id="Portfolio"><path class="cls-1" d="M147,138.64a397.75,397.75,0,0,1,19.68-38.39C174,87.7,181.75,74.6,191.17,63.49l-5.42-3.15c-7,21.76-8.81,45.28-6.47,68,.39,3.77,5.4,5.81,7.56,2,11.76-20.48,23.93-40.69,36.92-60.42q9.6-14.58,19.69-28.86,4.91-6.93,9.92-13.8c3.52-4.8,7.54-9.37,9.75-14.93,1.48-3.75-3.55-5.35-6-3.48-4.46,3.47-7.54,8.66-10.83,13.2s-6.61,9.2-9.85,13.84Q226.18,50.6,216.4,65.63c-12.86,19.78-25.17,40-36.56,60.63l7.41,1c-3.06-22-.88-43.78,4.76-65.17.94-3.59-4-5.61-5.93-2.5-8,12.73-16.65,24.87-24,38A401.27,401.27,0,0,0,143,137c-.94,2.24,2.95,3.91,4,1.67Z"/><path class="cls-1" d="M253,93.65c-13,.66-28.57,2.12-34.75,15.5-5.36,11.59,1.07,24,14.16,24.95s26.58-9.2,27.2-22.62c.58-12.83-13.94-25.43-25.92-16.67-4.57,3.34-.68,10.48,4.51,7.72,9.15-4.85,15.25,5.85,11.5,13.77-3.29,6.93-13.1,11.89-20.53,9.16-8.27-3-6.24-13.58-1.41-18.8,6.26-6.75,16.64-7.83,25.24-8.77,2.64-.29,2.77-4.37,0-4.24Z"/><path class="cls-1" d="M301.37,80.56c-5.15-2-12.25-4.29-16.74.37-4.69,4.88-1.93,12.3,2.26,16.44,5.78,5.7,14.11,8.83,13.27,18.51-.67,7.59-9,13.56-16.36,10.45l2.13,2.76c-1.28-4-1-7.34-.19-11.41.83-4.36-4.39-6.4-7-2.93a17.25,17.25,0,0,0-2.65,13.81c1.06,5.17,3.93,6.88,9,7.43,8.46.9,17.18-3.68,20.8-11.46a22.45,22.45,0,0,0-3.31-23.4c-3.41-4-8.83-5.86-12-10-2.31-3-3-7.37,1.66-8.39,2.67-.58,5.64.48,8.13,1.38,2.27.83,3.16-2.71,1-3.58Z"/><path class="cls-1" d="M130.78,265.67a29.51,29.51,0,0,1-5,3.63l2.46,2.46c5.74-7.84,9.75-17,14.29-25.53q7.1-13.36,14.34-26.65c9.46-17.36,18.59-35.22,29.21-51.9l-6.47-1.76c-3.06,36.26-3.7,72.87-5.47,109.22-.26,5.34,8.11,5.35,8.32,0,1.41-36.34,4-72.85,4.09-109.22,0-3.3-4.89-4.91-6.47-1.75-9,18-19.36,35.46-28.79,53.28q-6.86,12.95-13.56,26c-4.53,8.78-9.74,17.52-12.77,27a1.8,1.8,0,0,0,3.28,1.38,29.42,29.42,0,0,1,3.67-4.92.83.83,0,0,0-1.17-1.17Z"/><path class="cls-1" d="M132,251.68,169,243.54c12.3-2.7,24.84-5.08,36.91-8.69,4.51-1.35,2.6-7.82-1.93-7-12.36,2.33-24.6,6-36.76,9.19l-36.61,9.74c-3.16.84-1.82,5.56,1.34,4.87Z"/><path class="cls-1" d="M206.76,245.71c-2.19,14.14,1.31,29.72,5.56,43.19a3.53,3.53,0,0,0,6.38.83c13.7-20.09,28.31-39.49,44.75-57.44A512.62,512.62,0,0,1,316.07,183c3.42-2.82-1.21-8.93-4.78-6.2a399.46,399.46,0,0,0-98.62,109.37l6.39.83a132.08,132.08,0,0,1-5.95-20.44c-1.4-6.92-1.83-14-3.09-20.89-.29-1.59-3-1.63-3.26,0Z"/><path class="cls-1" d="M274.26,257.88c9.35-.2,16.95-5.43,19.85-14.42.52-1.62-.93-3.83-2.75-3.62-8.46,1-17.28,2.51-23.91,8.29-6.08,5.32-9.54,14.17-6.4,22,2.85,7.08,10.17,11.26,17.48,12.21,9.82,1.29,18.87-3.25,27.2-7.89,4.25-2.36.52-8.35-3.75-6.4-9.12,4.16-26.6,12-33.4-.23-3.35-6,1-13.2,6.07-16.67s11.43-4.75,17.46-5.66l-3.51-3.51c-1.74,6.48-7.51,11.65-14.34,11.89-2.59.09-2.61,4.1,0,4Z"/><path class="cls-1" d="M325.78,234.47c-3.23,5.22-3.45,12.8-4.51,18.77-1.14,6.37-3.19,13.23-3.06,19.7a2.9,2.9,0,0,0,5.66.77c2-6.16,2-13.33,2.72-19.75.69-6,2.65-13.34,1.06-19.25a1,1,0,0,0-1.87-.24Z"/><path class="cls-1" d="M332.74,255.37c2.6-7.84,12.31-5.2,15.49.5,4,7.14.73,14.48-1.45,21.55-1.54,5,6,6.95,7.75,2.14,3.72-10.32,4.16-25-5.89-31.95-7.14-5-18-2.28-20.35,6.53-.78,2.89,3.51,4,4.45,1.23Z"/><path class="cls-1" d="M387.21,197.6A250.49,250.49,0,0,0,373.58,251c-.95,7-3.63,17.25-.49,24,2.58,5.54,9.35,7.9,14.05,3.46,3.22-3-.87-7.87-4.58-5.94-4.07,2.12-2.51-14.23-2.38-15.93.49-6.86,1.31-13.68,2.38-20.47a231.82,231.82,0,0,1,9-37.29c.92-2.8-3.36-3.9-4.36-1.21Z"/><path class="cls-1" d="M366.9,249.82c10.79-.95,21.61-1.75,32.38-3,3.67-.42,3.77-6.2,0-5.85-10.82,1-21.59,2.45-32.38,3.73-3.18.38-3.3,5.38,0,5.09Z"/><path class="cls-1" d="M406.28,258.46c-2.28,5.45-4.52,11.66-1.69,17.36,2.29,4.58,7,7.12,12.06,5.56,11.86-3.67,17.66-19.78,18.66-30.76.42-4.51-7-4.64-7.13,0a33.35,33.35,0,0,1-8.09,21.13c-3,3.48-8.17,6.94-11.49,1.72-2.72-4.28-.78-9.84.57-14.22.58-1.89-2.18-2.52-2.89-.79Z"/><path class="cls-1" d="M448.62,278.2a21.05,21.05,0,0,0,1.83-8.89c.06-3.82-1.28-9.8,2.53-12.2,3.19-2,7.76-.68,11.25-.33,3.75.37,7.33.22,10.44-2.09,2.95-2.19,1.39-7.7-2.69-6.39-7.46,2.39-17.4-2.5-23.4,4-6.33,6.88.58,16.6-2.92,24.14-.93,2,2,3.73,3,1.73Z"/><path class="cls-1" d="M492.92,266.51c4.5-2,9.6-4.75,10.7-10,.74-3.54-.55-7.92-3.89-9.72-9.49-5.12-18.3,8.59-19.71,16.11-4.48,23.93,24,36.64,42.11,23.64,4.28-3.06.22-10.21-4.18-7.14-9.52,6.65-25.86,5.72-30-6.9a17.69,17.69,0,0,1,2.34-15.78c1.5-2,7.43-7.57,8.36-2,.67,4-5.3,6.62-8,8s-.32,5,2.26,3.86Z"/><path class="cls-1" d="M546.87,250.9c-5.92-2.53-13.22-5-18.54.17-5.14,5-2.52,11.22,2.22,15.15,6.55,5.44,14.46,9.73,20.34,15.92,3.16,3.33,4.41,7.6,0,10.66s-10,1.46-14.58.28c-5.24-1.34-7.36,6.48-2.22,8.08,7.37,2.3,15.72,3,22.16-2,5.19-4,7.31-10.69,4.52-16.8-3.09-6.75-10.37-10.87-16.11-15.06-3.25-2.37-7.68-4.66-10.35-7.64-2.38-2.65-2.13-5.09,1.69-6.24,2.92-.88,6.42.55,9.16,1.44,2.29.75,3.95-3,1.67-4Z"/><path class="cls-1" d="M342,133.88c8.54-12.89,15.26-27.17,23.37-40.39C373.7,80,382.21,66.27,392.05,53.8l-5.32-2.2c-2.6,25.19-3.17,50.91-4,76.22-.17,5.18,7.8,5.15,8,0C392,102.55,393.5,76.89,393,51.6a3.14,3.14,0,0,0-5.8-1.57c-8.36,13.85-17.31,27.31-25.35,41.36-7.64,13.37-16.24,27.27-21.52,41.76-.39,1.06,1.17,1.59,1.74.73Z"/><path class="cls-1" d="M331.38,117.79a396.91,396.91,0,0,1,89-29.82c4.68-1,2.71-8.27-2-7.21a380.73,380.73,0,0,0-89.7,32.43c-3.08,1.58-.38,6,2.69,4.6Z"/><path class="cls-1" d="M412.28,118.19c-.75-2.94-3-11.38,2.08-12.29,3.62-.65,5.08,4.85,5.81,7.18,1.2,3.88,2.62,7.42,5.95,10,6.12,4.66,14.29,4,20.09-.74,3.89-3.16-1.71-8.84-5.55-5.55-5.22,4.46-11.64.76-13.86-4.68-1.81-4.43-3.36-9.32-8.19-11.35a8.29,8.29,0,0,0-10.39,3.51c-3,4.91-1.05,10.41,1.06,15.23.76,1.74,3.45.48,3-1.27Z"/><path class="cls-1" d="M469.67,96.21c-4.67.35-9.82,1.48-12.73,5.5s-2.4,9.16.23,13.16c7.87,11.94,22.41,6.29,32.18.55,3.87-2.28.45-8.07-3.5-6-5.79,3-14.16,7.8-20.61,4-3.09-1.79-5.74-5.56-3.77-9.12,1.68-3,5.53-4.17,8.64-4.87,1.81-.4,1.45-3.41-.44-3.27Z"/><path class="cls-1" d="M504,94.68c-4.56,9.65-5.13,19.72-1.07,29.7a3.3,3.3,0,1,0,6.05-2.55,40.55,40.55,0,0,1-2.07-25.92c.43-1.68-2.11-2.91-2.91-1.23Z"/><path class="cls-1" d="M530.31,111.53A18.7,18.7,0,0,0,543.73,98a2.72,2.72,0,0,0-1.88-3.32c-15.74-3.5-27.61,14.48-20.54,28.33,7.65,15,29,14.19,36.51-.45,2.37-4.61-4.51-8.69-7-4.08-4.79,8.91-17,10.06-22.67,1.32-6.32-9.74,2.46-20.65,13-19.82l-2.6-3.41a14,14,0,0,1-9.23,11.25c-2.27.83-1.39,4.32,1,3.67Z"/><path class="cls-1" d="M572.15,124.48a27.57,27.57,0,0,1,10-20.43H578c5.78,5.65,2.48,15.14,5.6,22,2.51,5.55,8.07,9,14.13,7.25,4.66-1.38,2.71-8.54-2-7.3-7.28,1.92-7.18-10.67-7.81-14.8-.67-4.39-2.19-8.52-5.75-11.34a3,3,0,0,0-4.15,0,34.3,34.3,0,0,0-9.73,24.58,2,2,0,0,0,3.9,0Z"/><path class="cls-1" d="M609.89,126.71A19,19,0,0,0,612,118c.13-3.58-.69-7.52,1.08-10.84,2.65-5,6.33-1.6,7.16,2.54.76,3.84-.12,7.85.82,11.7,2.69,11,17.3,14.66,25,6.27,3.43-3.77-2.12-9.37-5.62-5.62a7.46,7.46,0,0,1-8.31,1.77c-3.8-1.5-4.13-5.31-4.4-8.94-.43-5.87-1-12.6-6.73-15.86-4.74-2.67-10.06-.53-12.6,4-3.82,6.8.52,14.56-2.57,21.3-1.24,2.7,2.62,5.09,4.07,2.38Z"/><path class="cls-1" d="M655.68,117.82c3.88,8.44,16.1.69,14.17-7.19-3-12.24-18.16-9.32-24.19-1.64-6.45,8.21-6.43,21.76,2.16,28.53a17.48,17.48,0,0,0,25.08-3.86c3.06-4.54-4.25-8.73-7.31-4.27-2.18,3.16-6.52,3.93-10,2.87-4.56-1.37-6.89-5.83-7-10.38-.09-4.87,2.35-10,6.76-12.39,2.76-1.47,8.06-1.27,8.89,2.69.79,3.74-3.68,4.59-6.12,3.2a1.8,1.8,0,0,0-2.44,2.44Z"/><path class="cls-1" d="M700.29,95.41c-11.95-3-20.36,10.22-12.27,19.57,4.76,5.5,12.88,8.1,12.54,16.69a10.52,10.52,0,0,1-6.07,9.38c-3.64,1.69-7.12.7-10.9.44-4.28-.3-4.74,5.2-2,7.27,5.17,3.87,13.27,2.29,18.38-1a19,19,0,0,0,8.62-17.58c-.55-7-4.61-11.82-10.11-15.78-2.66-1.92-7-4.18-8-7.57-1.55-5.19,4-9.86,8.79-7.88,2.17.89,3.36-3,1-3.58Z"/><path class="cls-1" d="M606.9,198.14c4.29,0,4.3-6.66,0-6.66s-4.29,6.66,0,6.66Z"/><path class="cls-1" d="M361.32,360.48c4.9,0,4.91-7.62,0-7.62s-4.9,7.62,0,7.62Z"/><path class="cls-1" d="M71.09,175.5c3.89,0,3.89-6,0-6s-3.89,6,0,6Z"/><path class="cls-1" d="M560.93,42.49c3.88,0,3.89-6,0-6s-3.9,6,0,6Z"/><path class="cls-1" d="M145.43,4.34,146,4a1.95,1.95,0,0,0,0-3.36l-.55-.33a2.33,2.33,0,0,0-2.36,4,2.34,2.34,0,0,0,2.36,0Z"/><path class="cls-1" d="M29.13,292.9c-11.58,4.43-22.61,12.66-18.68,26.61,3.47,12.34,17,17.89,28.78,14.1s20-16.38,16.11-28.56c-4.77-14.87-21.77-16.32-34.2-10.5-3.72,1.74-.92,6.87,2.62,6.22,9.31-1.71,21.41-5.45,25.23,6.77,2.83,9-4.25,18.13-12.83,20.43-8.8,2.35-18.58-2-20.88-11.21C12.58,305.92,22,300,30.52,296.21c1.85-.82.52-4-1.39-3.31Z"/><path class="cls-1" d="M17.53,305.22c-5.1.3-9.81-.59-14,3.21C.46,311.2-1,315.51.78,319.39,5.38,329.27,23.2,327,31.57,326A164.49,164.49,0,0,0,52,322.05c4.81-1.19,10.15-2.65,13-7.12,2.32-3.67,2.5-8.82-1-11.82a7.56,7.56,0,0,0-10.52.45c-2.84,3,1.56,7.41,4.54,4.54q3.15,1.06,1.55,2.91a2.72,2.72,0,0,1-1.28,1.6,10.69,10.69,0,0,1-4.12,2.07c-2.74.92-5.66,1.47-8.48,2.11a129.81,129.81,0,0,1-19.68,3.31c-5.29.39-11.5.79-16.58-1-3.91-1.4-5-4.76-2.06-7.85,2.25-2.4,7-3.77,10.24-4,1.3-.08,1.31-2.12,0-2Z"/><path class="cls-1" d="M627.12,318a7.5,7.5,0,0,0-3.3.73,4.41,4.41,0,0,0-2.34,3.84,4.22,4.22,0,0,0,3.19,3.91,4,4,0,0,0,2.93-.33,3.85,3.85,0,0,0,1.78-2.27,3.2,3.2,0,0,0-5.83-2.46.51.51,0,0,1-.09.16l.5-.65-.06.06.65-.51a.35.35,0,0,1-.13.08l.77-.32-.15,0,.86-.12a.43.43,0,0,1-.16,0l.86.12-.16,0,.78.32a1.39,1.39,0,0,1-.31-.18l.66.51a1.26,1.26,0,0,1-.2-.2l.51.67c-.26-.34-.51-.7-.79-1.05l.52.67a.51.51,0,0,1-.09-.16l.32.78a1.21,1.21,0,0,1-.05-.18l.11.85a1.28,1.28,0,0,1,0-.19l-.11.84a1.83,1.83,0,0,1,.11-.33l-.31.74a1.83,1.83,0,0,1,.18-.3l-.48.61a2.57,2.57,0,0,1,.33-.33l-.59.46a3.52,3.52,0,0,1,.63-.4c.21-.11.62-.19-.19.07l.35-.14a2.69,2.69,0,0,0-.71-5.28Z"/><path class="cls-1" d="M617.67,360.25l-.41.34,1.7-.71h-.37l.74.1a3.06,3.06,0,0,0-2.64.44A3,3,0,0,0,615.2,363a3,3,0,0,0,3,3,3.32,3.32,0,0,0,3-4.13l.1.73v-.37l-.71,1.7.34-.41a2.51,2.51,0,0,0,.69-1.66,2.42,2.42,0,0,0-.69-1.67,2.37,2.37,0,0,0-1.66-.69l-.63.08a2.43,2.43,0,0,0-1,.61Z"/><path class="cls-1" d="M579.23,393.27l0-.58-.09.66v-.05l-.64,1.11,0,0a2.47,2.47,0,0,0,.52-2.78,1.86,1.86,0,0,0-.52-.83,2.61,2.61,0,0,0-1.81-.74l-.68.09a2.53,2.53,0,0,0-1.12.65,3.27,3.27,0,0,0-1,1.73,2.86,2.86,0,0,0,.75,2.82l.59.46a2.88,2.88,0,0,0,1.46.39,2.07,2.07,0,0,0,1.12-.25,2,2,0,0,0,.93-.6,2.89,2.89,0,0,0,.75-2.82,3.32,3.32,0,0,0-1-1.73,1.86,1.86,0,0,0-.83-.52,2.64,2.64,0,0,0-2.78.52,2.58,2.58,0,0,0-.75,1.81l.09.68a2.46,2.46,0,0,0,.66,1.12l0,0-.65-1.11,0,.05-.09-.66,0,.58a1.94,1.94,0,0,0,.21,1,1.83,1.83,0,0,0,.51.78,1.8,1.8,0,0,0,.79.51,1.88,1.88,0,0,0,.94.21,2.43,2.43,0,0,0,1.73-.72l.39-.49a2.45,2.45,0,0,0,.33-1.24Z"/><path class="cls-1" d="M654.05,358.65c4.44,0,4.45-6.9,0-6.9s-4.44,6.9,0,6.9Z"/><path class="cls-1" d="M586,389.64c7.13-5.54,14.3-11,21.35-16.67,1.72-1.38-.72-3.79-2.42-2.42-7,5.63-13.93,11.41-20.88,17.14-1.38,1.14.58,3,1.95,1.95Z"/><path class="cls-1" d="M621.39,333.82c-.27,4-.82,8-1.14,12-.15,1.93,3,2,3,0,0-4-.18-8-.1-12,0-1.17-1.73-1.15-1.81,0Z"/><path class="cls-1" d="M633.8,364.17l4.72-2.46c2.12-1.11.66-4.7-1.65-3.91l-5,1.72a2.54,2.54,0,1,0,2,4.65Z"/><path class="cls-1" d="M507.9,88c3.88,0,3.89-6,0-6s-3.9,6,0,6Z"/></g></svg>