<svg xmlns="http://www.w3.org/2000/svg" viewBox="0 0 500.28 265.64"><defs><style>.cls-1{fill:#fff;}</style></defs><g id="Notre_Approche" data-name="Notre Approche"><path class="cls-1" d="M52.82,44.24c0-4.05-.33-8.33.5-12.31,1.11-5.26-6.91-6.44-7.31-1-.85,11.67-1.24,23.3-2.72,34.93-1.51,11.85-4.63,23.28-6.6,35l9.56-1.25-1.91-4.33c-2.26-5.15-10.71-1.48-9.06,3.82l1.41,4.54c1.52,4.87,8.64,5,10.08,0,3.27-11.45,4.32-24,5.47-35.87,1.19-12.16,2.07-24.66,1.22-36.86l-7.32,1c1.08,4,1,8.22,1.26,12.31.21,3.45,5.4,3.51,5.42,0Z"/><path class="cls-1" d="M4.46,70c15.86-11.76,31-24,48-34.15a334.91,334.91,0,0,1,53.73-25.62C112.33,7.91,109.54-2,103.5.38A339.52,339.52,0,0,0,49,28.07C32.05,38.72,14.59,50.65.78,65.2c-2.26,2.38.8,6.89,3.68,4.76Z"/><path class="cls-1" d="M25.55,93.28c-.28,0-5.74.51-5.79.34-.12-.36.34-.38,1.13-1.18,2.33-2.35,4.8-4.57,7.3-6.74A191.39,191.39,0,0,1,44.71,72.84a162.85,162.85,0,0,1,35.55-19c5.3-2,2.16-9.71-3-7.21A185.92,185.92,0,0,0,43.07,67.43,150.42,150.42,0,0,0,28.64,80.29c-3.94,4-9,8.4-11.16,13.67-.12.29.2.48.44.45,2.55-.37,5.1-.61,7.65-1,.08,0,.06-.14,0-.14Z"/><path class="cls-1" d="M26.91,122.41C40,116,53.27,109.86,66.28,103.27l19.5-9.89c6.34-3.21,13.61-6,19.28-10.28,3.94-3,1.92-10.55-3.67-8.7C94.8,76.58,88.67,80.67,82.59,84L62.54,94.9c-13.07,7.11-25.91,14.67-38.86,22-3.62,2-.44,7.3,3.23,5.52Z"/><path class="cls-1" d="M134.85,68.89c7,9.1,13.45,19.4,21.73,27.39,3.27,3.17,9.19-1,6.5-5-6.54-9.84-15.68-18.24-23.57-27-2.9-3.23-7.17,1.41-4.66,4.66Z"/><path class="cls-1" d="M142.6,101.91c9.56-14.5,18.52-29.38,28-44,3.52-5.42-5.53-10.74-8.67-5.07C153.49,68.07,144.57,83,136.29,98.22c-2.26,4.16,3.72,7.6,6.31,3.69Z"/><path class="cls-1" d="M196.53,60.31c-.4-1.6-1.27-3.81-1.5-5.34-.34-2.33-4.33-2.32-4.69,0-1.51,9.65-1.05,20-1.11,29.71-.07,10.39-.17,20.65.67,31,.41,5,7.6,5.09,7.83,0,.46-10.38,0-20.62-.49-31-.43-9.75-.33-20.12-2.21-29.71l-4.69,1.29c.56,1.43.91,3.81,1.35,5.39.87,3.11,5.63,1.8,4.84-1.34Z"/><path class="cls-1" d="M189,53.65c7.06-5,20-12.63,27.21-3.62,3.1,3.87,1,8.35-2.7,10.93-4.52,3.14-10.7,3.36-16,4.22l5.79,7.53L206.15,69c3.39-4.43-3.94-9.92-7.69-5.92l-3.18,3.39c-2.86,3-1,9,3.62,8.75,8.36-.52,17.43-2.26,23.32-8.75,5-5.49,6.62-13.49,2.48-19.94-3.59-5.6-10.5-8.79-17-8.65-8.62.17-16.06,5.59-22.5,10.77-2.77,2.24.9,7,3.84,5Z"/><path class="cls-1" d="M237.79,6.29c-.09,23.79-.59,47.64,0,71.45.14,6.5,10.35,6.5,10.11,0C247,53.9,245,30.08,243.47,6.29c-.24-3.61-5.66-3.68-5.68,0Z"/><path class="cls-1" d="M276.81,40.19c-12.19-1.69-24.44,8.63-22.38,21.42,2.11,13,16.61,21,28.66,15.68,12.71-5.61,17.8-21.65,10-33.31-8.28-12.37-26.77-12.69-34.71.18-3.76,6.09,5.59,11.4,9.52,5.56,4.27-6.35,13.12-5.45,17.08.67,4.3,6.65,1,15.55-5.95,18.81s-15.63-1.57-17.6-8.82c-2.43-8.93,6.27-16.63,14.74-15.52,2.63.35,3.29-4.31.63-4.67Z"/><path class="cls-1" d="M309.61,67c7.49-9.9,1.81-25.06-5.29-33.32l-2.08,7.89c8.12-1.73,16.11-4.89,24-7.57,6.43-2.21,3.67-12.48-2.83-10.26-8.27,2.83-16.9,5.4-24.78,9.2-3.48,1.67-2.62,6.27,0,8.15,8.46,6.07,7.53,15.66,6.46,24.67-.33,2.72,3.3,2.9,4.55,1.24Z"/><path class="cls-1" d="M359.65,46.85A41,41,0,0,0,366,30a3.46,3.46,0,0,0-3.26-4.29c-17.76-2.35-29.12,16.62-21.67,32,8.08,16.66,30.66,18.65,42.91,5.68,3.39-3.59-1.17-10.35-5.53-7.17-8.44,6.15-21.17,8-27.84-1.64-6.49-9.42.36-22.86,12.13-22.1l-3.39-3.38a33.85,33.85,0,0,1-4.86,14.78c-2,3.32,3,6.17,5.13,3Z"/><path class="cls-1" d="M394.58,31.3c6.75-.07,14-4.36,20.25-6.65,7.25-2.65,14.49-5.42,21.84-7.78L432,10.8c-9.2,15.61-15.85,32.68-24.09,48.81-2.16,4.23,1.45,10,6.5,8.45,16-5.07,32.11-10.64,47.81-16.68,6.52-2.51,4-12.81-2.94-10.69-16.09,4.89-32.17,10.4-47.93,16.27L418.43,64c6.8-16.75,15.34-32.92,21.13-50.06,1.18-3.52-3.08-6.37-6.08-4.67-6.72,3.83-13.67,7.31-20.53,10.87-5.91,3.07-14,5.54-18.65,10.46a.39.39,0,0,0,.28.66Z"/><path class="cls-1" d="M73.6,153.07c-1.57,10.54-2.19,23.1.9,33.47,1,3.52,4.45,5.94,8.16,4.88,5-1.44,6.52-7.08,8.41-11.25a236.54,236.54,0,0,1,38.36-58.83c4.13-4.67-2.72-11.57-6.87-6.87a236,236,0,0,0-31.7,45.62q-3.24,6.1-6.12,12.4-1.38,3-2.68,6.07c-.42,1-.81,2-1.29,3-.2.41-1.93,2.75-.3,1.95,1.19-.58.46-1.23.07-2.7-.31-1.17-.59-2.35-.83-3.53-.56-2.7-1-5.43-1.26-8.17a120.78,120.78,0,0,1-.55-15.45c0-2.4-3.92-3.07-4.3-.58Z"/><path class="cls-1" d="M142.27,156.65c4.74-4.69-2.51-9.09-7.13-7.2-9.16,3.75-14.88,15.78-16.5,24.88a3.34,3.34,0,0,0,1.48,3.64c9.66,5.37,23.11,5.63,29.4-5A14.53,14.53,0,0,0,137.3,151c-6-.13-5.81,9.81,0,9.2,6.72-.71,7.4,7.32,3.5,11.16-4.68,4.6-12,3.43-17.42,1l1.6,2.78A32.75,32.75,0,0,1,129,162a30.42,30.42,0,0,1,4.15-5.79,19.66,19.66,0,0,1,3.24-2.94q7-3.18,5.76,3.31c-.06.07,0,.17.1.1Z"/><path class="cls-1" d="M171.05,114.59c-2.51,3.34-2.48,8.27-3,12.34a122.62,122.62,0,0,0-.78,14.2,152.68,152.68,0,0,0,3.22,28.27c1,5.23,9.66,3,8.05-2.22a102.93,102.93,0,0,1-4.36-27,119.59,119.59,0,0,1,.26-13.25c.3-3.94,1.62-8,.5-11.82a2.19,2.19,0,0,0-3.94-.52Z"/><path class="cls-1" d="M158.27,150.91c12.17-7.81,25.65-13.88,38.9-19.59,4.4-1.89.61-8.46-3.78-6.47C180,130.9,168,138.7,155.9,146.86c-2.48,1.67-.19,5.7,2.37,4Z"/><path class="cls-1" d="M193,171.2c-2.11-4.23-3.9-8.64-1.5-13.25a13.19,13.19,0,0,1,10.45-6.75c5.32-.4,5.16-8.86,0-8.22-7.26.9-13.55,4.68-16.14,11.81-2.24,6.17-1.33,14.52,3.86,19A2.13,2.13,0,0,0,193,171.2Z"/><path class="cls-1" d="M220.64,156.72c2.19-2.24,5.51-4.18,7.9-6.3,1.5-1.33.59-3.69-1.12-4.24C214.59,142,206.26,158.25,213.64,168c9,11.86,25.06,6.93,32.31-3.9,3.11-4.65-4.4-9-7.49-4.38-3.49,5.21-10.37,9.09-16.38,5.52-6.72-4-4.94-15.49,4-14.19L225,146.83c-2,2.53-3.78,5.93-5.94,8.27-1,1.08.58,2.67,1.62,1.62Z"/><path class="cls-1" d="M269,133c2.91,15.86,5.26,31.82,8,47.7s6.88,32.3,8.22,48.47c.32,3.92,6.27,6.64,8.28,2.24,5.07-11.11,8.26-23.21,12.84-34.56q7.28-18,15.91-35.4a504.3,504.3,0,0,1,39-65c3.93-5.59-5.2-10.8-9.12-5.33A457.45,457.45,0,0,0,312.86,157q-8.14,16.63-14.95,33.87c-4.64,11.85-10.28,24.57-12.5,37.15H294c-4.64-15.58-6.8-32.24-10-48.18-3.22-16.09-6.88-32.09-10-48.19-.64-3.3-5.63-1.9-5,1.38Z"/><path class="cls-1" d="M334.5,165.24a106.68,106.68,0,0,0-5.94,24.85c-.93,7.71-2,17.42,1.5,24.59,1.28,2.62,6.1,2.19,6.56-.85,1.11-7.43-1-15.27-.82-22.83a91,91,0,0,1,4.11-24.27c1-3.51-4.17-4.82-5.41-1.49Z"/><path class="cls-1" d="M362.63,167.07c-4.74-1-8.74,1.64-10.62,6-2.12,5,.05,10.53,3.15,14.57,3.61,4.72,11.38,9.41,9.74,16.26s-8.81,7.34-13.48,3.29-10.7,2-6.82,6.83c8.48,10.49,25.71,5.37,28.9-7.07,1.62-6.31-.74-12.1-5-16.75-2.36-2.59-5.17-4.72-7.59-7.25a13.5,13.5,0,0,1-3.58-5.19c-1-3.34.94-7,4.75-6.69,2.3.19,2.8-3.55.54-4Z"/><path class="cls-1" d="M382.09,168.81c-1.09,5.36-1.63,10.75-2.22,16.19-.61,5.73-2.2,12-1.61,17.71.4,3.87,6.44,5.48,7.36,1,1.12-5.42.36-11.23.32-16.75-.05-5.92,0-11.81-.59-17.71-.17-1.72-2.86-2.43-3.26-.44Z"/><path class="cls-1" d="M340,151.31c0,.09-.13.11-.19.13l.22.17,0-.29-.9,1.57c.21-.13-.67.2-.32.14l-.62.09h.12l-.71-.09.09,0a2.79,2.79,0,0,0,2.82-.74l.55-.71-.45.58a.87.87,0,0,1,.17-.16l-.57.44a.78.78,0,0,1,.2-.11l-.66.27.15,0,.66-.28a2.1,2.1,0,0,0,.77-.71,2.62,2.62,0,0,0,.58-1.66,3.19,3.19,0,0,0-.37-1.38A2.73,2.73,0,0,0,340,147.3a3.82,3.82,0,0,0-1.87,0,4.19,4.19,0,0,0-1.62.91l-.45.59a2.19,2.19,0,0,0-.35,1.08,2.89,2.89,0,0,0,.35,1.84,2.65,2.65,0,0,0,2.25,1.42A1.86,1.86,0,0,0,340,151.8c0-.09,0-.38.13-.45s-.12-.19-.12,0Z"/><path class="cls-1" d="M387.23,152.13c3.82,0,3.82-5.93,0-5.93s-3.83,5.93,0,5.93Z"/><path class="cls-1" d="M414.13,166.29c-10.95,1-19.47,10.37-17.94,21.62,1.61,11.75,13.43,19.53,24.94,17,11.22-2.5,18.82-14.36,16.67-25.57-2.26-11.74-16.26-18.5-25.66-9.81a4.67,4.67,0,0,0-1.24,4.68l1.17,2.93c1.65,4.13,8.93,4.16,8.52-1.15l-.24-3.06-1.41,3.41c6-4.78,10.66,4.12,9.92,9.17A13.79,13.79,0,0,1,416.51,197a12.9,12.9,0,0,1-13.74-11.44c-.88-7.66,4.7-13.6,11.93-15,2.35-.46,1.85-4.46-.57-4.23Z"/><path class="cls-1" d="M458.25,199.38c.06-7.81-.22-15.26,2.4-22.79a43.08,43.08,0,0,1,13.5-19l-6.72-1.77,6.09,17.54c1.72,4.93,3.06,10.41,5.67,15,4,7,13.44,10.69,19.7,4.22,4.38-4.53-2.6-11.5-6.92-6.92-3.78,4-8.19-10-8.93-11.86l-7.85-20.09c-1.1-2.81-4.36-4-6.72-1.78-12.1,11.3-20.66,32.42-13.38,48.35.72,1.6,3.14.72,3.16-.85Z"/><path class="cls-1" d="M286.23,260c-1.87.53-3.72,1.05-5.63,1.48-2.7.61-1.54,4.63,1.14,4.12,18.12-3.44,36.06-9.51,53.86-14.33l51.88-14c35.22-9.54,70.45-19.07,105.53-29.1,5-1.44,2.91-9.27-2.16-7.86-35.17,9.74-70.2,20-105.22,30.25Q359.83,238,334,245.59c-17.71,5.18-36.18,9.36-53.44,15.88l1.14,4.12c1.84-.66,3.68-1.2,5.55-1.76,2.45-.73,1.42-4.54-1.06-3.84Z"/></g></svg>