<svg xmlns="http://www.w3.org/2000/svg" viewBox="0 0 613.78 410.5"><defs><style>.cls-1{fill:#fff;}</style></defs><g id="Service"><path class="cls-1" d="M468.5,312.69c2.62,8.45,5.36,16.89,7.34,25.52a2.46,2.46,0,0,0,3,1.68c16.43-2.55,32.52-5,49.23-4.66,16.1.33,33.41,1.86,48.65,7.4a4,4,0,0,0,4.52-1.84c4.7-7.51,8.76-15.5,13.07-23.24a4.43,4.43,0,0,0-2.62-6.45c-32-7.58-66.54-10.24-99.17-5.48-4.71.69-3.62,8.65,1.12,8.33,15.92-1.08,31.77-1.91,47.73-1.05a305.67,305.67,0,0,1,48,6.67l-2.62-6.45c-4.16,7.84-8.66,15.59-12.41,23.63l4.52-1.84c-17-2.78-33.43-6.07-50.78-6.13-16.76-.07-34.47,1.37-50.51,6.49l2.95,1.67c-3.25-8.25-5.76-16.78-8.38-25.24-.7-2.28-4.29-1.3-3.58,1Z"/><path class="cls-1" d="M496.12,355.34c1.31,5.73,2.66,11.45,3.89,17.2.55,2.55,1.11,5.11,1.6,7.67.68,3.47,2.19,8.3,1.71,11.79-.31,2.29.9,4.67,3.53,4.64,13.73-.15,27.61-.79,41.24,1.37a4.59,4.59,0,0,0,5.44-3.09q5.94-16.64,11.6-33.36c1.82-5.41-6.6-7.63-8.49-2.35q-6,16.64-11.64,33.36l4.27-3.25c-14.13-.64-28.31-1.7-42.42,0l3.17,1.82c-3.74-4.84-5.26-12.57-7.14-18.37s-3.68-11.84-5.5-17.76a.65.65,0,0,0-1.26.34Z"/><path class="cls-1" d="M531.69,290.7c-3.74-14.8-2.62-30.5,1.53-45.1,4.24-14.89,12.93-25.93,22.15-38,1.83-2.39-1.72-5.76-4.1-4.11-12.93,9-20.75,25.39-24.55,40.3-4.05,15.85-2.65,32.17,2.9,47.46a1.07,1.07,0,0,0,2.07-.57Z"/><path class="cls-1" d="M524,243.56c-5.89-10.25-18-15.23-29.58-13.78-4.43.56-3.64,6.9.83,6.09,10-1.83,19.33,2.51,26.19,9.67a1.64,1.64,0,0,0,2.56-2Z"/><path class="cls-1" d="M533.5,229.72a246,246,0,0,1,43.64-7.13c3.46-.25,3.35-5.77,0-5.35a252.59,252.59,0,0,0-44.42,9.65,1.47,1.47,0,0,0,.78,2.83Z"/><path class="cls-1" d="M578.13,213.58c9.63-7.88,21.26-9.07,33-6.33a2.12,2.12,0,0,0,1.13-4.09c-12.33-4.65-26.76-.24-36.16,8.43-1.35,1.25.61,3.11,2,2Z"/><path class="cls-1" d="M599.64,214.76c-10.37,3.34-21.1,4.6-31.94,5.3a2,2,0,0,0,0,3.91c11.35.88,22.37-1.39,33-5.18,2.51-.89,1.48-4.86-1.11-4Z"/><path class="cls-1" d="M542.57,200.84A12.71,12.71,0,0,1,547.36,184c3.8-2.13.17-8.23-3.39-5.8-8,5.43-11,16.71-5.18,24.84a2.19,2.19,0,0,0,3.78-2.2Z"/><path class="cls-1" d="M544.15,187.31a2.39,2.39,0,0,1,2.26-1.52l-2.1-1.2A12.7,12.7,0,0,1,545.94,195c-1,3.64,4.88,5.18,5.6,1.54a18,18,0,0,0-3-14.42,2.58,2.58,0,0,0-2.75-1.12c-2.58.44-4.21,2.51-5.13,4.82-.79,2,2.62,3.46,3.52,1.48Z"/><path class="cls-1" d="M495.26,226.67c-4.94-2.52-8.76-4-14.45-3.07A22.18,22.18,0,0,0,467,231.35c-2.5,3.06,1.85,7.47,4.38,4.38,5-6.11,14.69-10,22.44-6.53,1.69.77,3.18-1.66,1.48-2.53Z"/><path class="cls-1" d="M472.49,239.27c8.78,5.07,18.53,4.11,26.34-2.29,1.82-1.49-.58-4.62-2.53-3.28a25.43,25.43,0,0,1-22.73,3c-1.52-.54-2.44,1.78-1.08,2.56Z"/><path class="cls-1" d="M42,168.22C48.9,154.54,53.15,139.55,59,125.39a369.31,369.31,0,0,1,21.4-43.51l-8.09-2.19c-3.4,28.37-4.9,57.07-7.24,85.54-.47,5.69,7.37,6.87,10.07,2.73,17.19-26.42,34.09-53,51.13-79.54Q138.94,68.74,151.55,49l12.89-20.1c4.28-6.67,9-13.25,12.33-20.44,2.41-5.2-4.29-11.77-8.61-6.64-10,11.91-17.57,26.33-25.88,39.47L116.77,81.7c-17,26.93-34.11,53.77-50.94,80.8l10.07,2.73c1.77-28.46,4.41-57,5.11-85.54.1-4.16-6.16-6.09-8.08-2.18C65.77,92,59.13,106.82,53.43,122c-5.54,14.71-11.34,30.21-12.32,46a.46.46,0,0,0,.85.23Z"/><path class="cls-1" d="M138.9,108.89c-10.82,8.09-22.55,17.26-25.58,31.22-2.58,11.91,3.29,25.88,16.14,28.62,14.5,3.09,24.47-9.95,29.52-21.61,5.36-12.34,10-27.61.5-39.25-11.43-13.94-29-5-39.95,4.4-5,4.27,2.11,10.88,7,7.06,8.3-6.41,23.36-14.81,28,.07,2,6.32-.05,13.06-2.23,19s-4.72,12.55-9.26,17.21c-10.34,10.61-23.78.84-22.92-12.26.88-13.32,12.36-22.64,21.84-30.51,2.2-1.82-.76-5.73-3.08-4Z"/><path class="cls-1" d="M187.38,106.73a49.47,49.47,0,0,0-3.91,29.58c1.18,7.37,4.28,19.32,13.46,20.15,9.51.87,13.63-10.59,15.58-17.93a58.06,58.06,0,0,0-.8-32.14,4.51,4.51,0,0,0-8.13-1.07,24,24,0,0,0-2.26,4.68c-1.45,3.87,4.09,6.72,6.76,3.94a24,24,0,0,0,3.18-4.13l-8.13-1.06a50.48,50.48,0,0,1,2.62,20.4c-.36,4.34-2.3,19.22-8.11,19.4s-8-13.56-8.49-17.77a61.3,61.3,0,0,1,1.8-22.55c.53-2.06-2.58-3.58-3.57-1.5Z"/><path class="cls-1" d="M243.19,102.18c-4-.82-7.95-1.71-11.91-2.75a3.33,3.33,0,0,0-3.29.87c-7.06,8.74-.28,18.71,6.2,25.47,4,4.13,8.58,9.28,4.52,15-4.29,6.09-11.28,4-17.47,4.49-4,.31-5.82,5.51-2.09,7.72,11.37,6.74,28.46-1.71,30.08-14.76.77-6.21-2.29-11.5-6.36-15.92s-13.4-10.81-9.58-18l-2.91,1.67c4.07.27,8.08.68,12.13,1.18,2.87.35,3.51-4.48.68-5.06Z"/><path class="cls-1" d="M290.88,113.61c-.43,15.58-.46,31.17-.86,46.75-.09,3.27,4.43,5.34,6.68,2.77,16.94-19.34,31.5-40.68,49-59.5a178.91,178.91,0,0,1,25.33-22.94,126.47,126.47,0,0,1,14.51-9.16c5.22-2.79,11.27-4.42,16.18-7.67,3.31-2.18,2.4-8.43-2.19-8.08-11,.85-22.64,8.86-31.41,15.09a175.68,175.68,0,0,0-26.78,23.75c-18.31,19.69-33.1,42.3-50.22,63l6.68,2.76c-.91-15.58-1.45-31.17-2.39-46.75-.18-2.92-4.49-3-4.57,0Z"/><path class="cls-1" d="M371.39,112c-12.72,3.4-27.35,7.45-35.3,18.83-6.82,9.76-7.53,23.71,2.31,31.75,10,8.2,24.71,6.51,34.77-.62,10.43-7.39,23.84-22.48,21.92-36.29-1-7.42-6.87-13-14-14.89-8.4-2.24-16.86.7-24.12,4.87-5.62,3.23-.67,11.45,5,8.62s13-6.13,19.18-2.74c6.73,3.69,4,11.3.92,16.58-5.91,10-15.94,21.57-28.64,21.28-13-.3-18.2-12.39-12.79-23.42,6-12.14,20-15.86,32-19.07,3.16-.84,1.82-5.75-1.35-4.9Z"/><path class="cls-1" d="M416.86,120.45c-5.6,7.79-9.92,15.42-10.22,25.35-.21,7.35,2.65,15.09,10.4,17.15s15.08-2.14,18.8-8.75c4.79-8.53,3.69-19.19,1.25-28.28-1.53-5.69-9.64-3.21-8.68,2.4,1,6.15,3,12.32,1.3,18.56-1.39,5.1-6.1,10.58-12,8.83s-6-10.09-5.92-15c.05-6.64,1.68-14.56,5.22-20.24a.07.07,0,1,0-.12-.07Z"/><path class="cls-1" d="M486.11,111.18c-8.85-1-18.19-.82-23.85,7.21-5.26,7.45-1.89,15.35,3.75,21.31s12.67,11.91,8,21a11.4,11.4,0,0,1-9.5,6.12c-4.55.34-8-2.32-12.12-3.7-3.85-1.28-6.19,3.14-4.78,6.23,3.67,8.1,16,9,23.38,6.38a22,22,0,0,0,14.16-20.12c.32-9.46-5.47-15.3-11.81-21.37-3.28-3.13-7-7-4.17-11.76,3.3-5.61,11.14-6.14,16.92-5.52,3.66.4,3.64-5.35,0-5.74Z"/><path class="cls-1" d="M27.11,227.2c-9,.38-19.14,3.29-24.12,11.43-4.84,7.91-4,19.06,4,24.6,7.62,5.3,18.11,3.3,25-2.19,8.59-6.79,11.49-18.08,13.8-28.25l-9.43-1.28c-1,9.45-1.58,20,4.78,27.85,5.47,6.73,13.89,9.27,21.89,5.85,5.87-2.51.81-11.18-5-8.62-4.93,2.17-9.91-3.17-11.4-7.29-2-5.62-1.19-12-.63-17.79.52-5.38-8.29-6.53-9.43-1.28-2.26,10.42-7.21,30.56-22.28,26.94C7.05,255.43,6.6,246.4,9.72,241c3.67-6.41,11-9,17.91-9.92,2.19-.3,1.66-3.93-.52-3.84Z"/><path class="cls-1" d="M90.19,230.32c-10.75,9.55-13,26.49-4.5,38.3a4.32,4.32,0,1,0,6.81-5.26c-7-8.64-6.73-21.87.36-30.37a1.89,1.89,0,0,0-2.67-2.67Z"/><path class="cls-1" d="M91.81,220.41c3.86,0,3.87-6,0-6s-3.87,6,0,6Z"/><path class="cls-1" d="M130.6,234.7c-10.64-4.1-22.09,4.11-23,15.16s8.32,22.11,19.85,21.48c12.06-.67,22-13.32,17.91-25.13a20.18,20.18,0,0,0-10.82-11.41c-4.89-2.19-12.66-3.17-16.48,1.46a4.7,4.7,0,0,0,3.27,7.91c2.74.21,5.22-.87,8,0a10,10,0,0,1,6.1,5c2.76,5.72-3,12-8.58,12.62-6,.69-10.43-5.19-10.94-10.67-.67-7.14,6.55-13,13.4-11.59a2.48,2.48,0,0,0,1.32-4.78Z"/><path class="cls-1" d="M151.31,198.9a114.58,114.58,0,0,0-13,42c-.7,6.43-1.52,13.83,1.53,19.82,2.92,5.72,8.09,8.67,14.41,7.28,4-.88,4.28-7.72,0-8.37-10.61-1.62-7.1-18.83-6-26.15a117.83,117.83,0,0,1,9-31.14c1.78-3.93-3.8-7.42-5.91-3.45Z"/><path class="cls-1" d="M184.21,234c-9.83,6-21.17,15.86-17,28.86,3.16,9.92,16,15.11,25.21,10.37s12.69-17.3,7.36-26.16c-6-10-20-11-28.46-3.89-4.65,3.91,1.59,12.15,6.56,8.5,3.81-2.79,10.1-3.22,12.84,1.38,2.31,3.85.22,9.91-3.92,11.63-5,2.07-10.83-1.86-11.84-6.83-1.68-8.33,6.1-14.89,12.3-18.68,3.29-2,.28-7.2-3-5.18Z"/><path class="cls-1" d="M221.42,262.71A36.69,36.69,0,0,1,228,247.65l-5.77.74c5.94,5,5,13.27,7.88,19.95,2.62,6.12,7.61,11.33,14.71,11,6.16-.31,6-10.11,0-9.52-6.47.63-8-8.61-9.23-13.21-1.51-5.51-3.7-11-8.91-13.95-1.61-.91-4.16-.5-5,1.32a54.18,54.18,0,0,0-5,18.11c-.26,2.73,4.28,3.35,4.8.65Z"/><path class="cls-1" d="M282.3,233.81c-4.7-3.38-11.19-6.79-16.7-3.1-5.08,3.41-5,10.45-2.23,15.33,3.86,6.76,12.38,8.5,16.6,14.89,3.66,5.54,1.55,14.66-6.5,11.63-4.66-1.75-8.83,5.33-5,8.5,12.08,9.87,26.65-4.6,23.46-17.78-1.76-7.29-7.33-12.48-13.55-16.15-3.06-1.8-7.59-3.59-8.63-7.42-1.91-7,7.32-3.78,10.39-2.3a2.09,2.09,0,0,0,2.11-3.6Z"/><path class="cls-1" d="M368.71,256.5a11.7,11.7,0,0,1,3.19-5.38c.82-.86.3-2.66-1-2.54-7,.64-14.91,2.94-19.84,8.31-4.24,4.61-5.91,12-2.8,17.61,3.42,6.23,11.21,7.77,17.49,5.3,7.81-3.06,11.25-11,13.3-18.57l-8.67,1.14c2.78,6.42,8.8,12.27,15.56,14.41,7.3,2.3,11.38-8,11.64-13.61.22-5-8-6.26-8.84-1.2a8.4,8.4,0,0,1-3.32,5.95l3.84-.5c-4.9-1.84-8.18-5.37-10.69-9.84-1.9-3.37-7.89-2.95-8.67,1.13s-2,8.91-5.34,11.75c-3.58,3.06-9.73,3.16-10.57-2.4-1.54-10.3,10.48-13.48,17.66-16.71l-2.23-1.28a16.17,16.17,0,0,1-.79,6.39c0,.09.1.12.13,0Z"/><path class="cls-1" d="M374.41,215.4a75.82,75.82,0,0,0-17.51,11.9,3.7,3.7,0,0,0,0,5.18c8.34,7.17,20.91,8.76,30.23,2.57,3.07-2,1.23-7.7-2.66-6.31-8.07,2.9-15.79,2.54-23.13-2l.74,5.75a55,55,0,0,1,14.7-13c2.61-1.57.32-5.38-2.37-4Z"/><path class="cls-1" d="M100.23,315.56c-16.27,7.61-32.63,15.35-44,29.84-9.67,12.35-14.92,28.5-9,43.68,5.53,14.17,18.73,23.14,34.08,21.14,8.45-1.1,16.74-4.85,23.84-9.48,6.06-4,12.4-9.69,13.36-17.28,1-7.78-4.24-13.88-11-16.8-9.15-3.92-19.45-1.42-28.6-5.24l-1,7.5a254.06,254.06,0,0,0,63.35-2.24c4.87-.77,2.8-8.17-2-7.41a256.15,256.15,0,0,1-61.3,2c-4.67-.39-4.66,6-1,7.5,8.31,3.39,17.29,1.37,25.7,3.92,9.39,2.85,11.16,10.71,4.33,17.67C95.21,402.31,72.34,410,59.18,396.44c-12.35-12.68-10-32-.91-45.82,10.11-15.26,27.23-24.86,43-33.28,1.18-.64.14-2.34-1-1.78Z"/><path class="cls-1" d="M166.75,369.58a26.9,26.9,0,0,0-.15-13.22c-1.26-5.22-4.08-11.63-1.27-16.78s9.35-6.57,14.72-7.31c6.12-.84,11.87-1.58,17.36-4.64,4.26-2.38.52-8.37-3.75-6.42-10.84,4.94-28.22.79-34.11,14.22-5.08,11.6,6.33,22,4.37,33.37-.32,1.83,2.41,2.65,2.83.78Z"/><path class="cls-1" d="M225.78,330.35c-7.09.28-13.83,1.91-18.5,7.72s-5.68,13.53-4,20.7c.44,1.89,2.15,2.73,3.88,3,15.56,2,28.32-12.41,26.53-27.47-.55-4.63-8.11-6.84-9-1.23-1.67,10.09,3.54,19.45,13.33,22.78,5.7,1.94,7.95-6.85,2.46-8.93a10.92,10.92,0,0,1-6.91-11.4h-8.88c1.45,10.82-7.41,18.11-17.49,18.21l3.88,2.95c-3.38-10,3.57-22.57,14.78-23,2.1-.08,2.11-3.34,0-3.26Z"/><path class="cls-1" d="M262.73,358.49c-3-7.32-3.38-19.87,3.43-25.69,8.12-6.94,9.21,13.77,10.18,17.18,4.16,14.54,22.62,19,32.74,7.64,3.64-4.09-2.05-9.88-6.05-6-3.39,3.25-8.36,4.67-12.75,2.53s-5.92-6.54-6.73-11.18c-1.25-7.12-3.16-16-11.25-18.32-6.91-2-12.2,3.42-14.56,9.36-3.25,8.19-2.44,17.6.84,25.67,1,2.53,5.19,1.43,4.15-1.15Z"/><path class="cls-1" d="M336.28,338.22c-7.13-11.38-23.45-2.59-21.8,9.49,2.3,16.85,25.69,17.13,32,3,1.64-3.67-2.91-8.22-6-4.67-4.34,4.93-13,9.27-17.34,1.89-4.09-7,5.25-13.28,10.5-7.64a1.7,1.7,0,0,0,2.66-2Z"/><path class="cls-1" d="M343,301.67c-6.5,19.9-2.73,44.44,11.72,60.1,4.25,4.6,10.46-2.06,6.73-6.74-11.85-14.87-17.07-32.86-12-51.57,1.14-4.2-5.15-5.88-6.48-1.79Z"/><path class="cls-1" d="M375.4,319.51c-3.52,9.77-3.07,20.29,2.14,29.37,2.46,4.29,9.11.42,6.64-3.89-4.29-7.49-6.19-15.71-4.31-24.25a2.32,2.32,0,0,0-4.47-1.23Z"/><path class="cls-1" d="M379.18,305.54l.49-1.29a3.32,3.32,0,0,0,0-1.77,3.22,3.22,0,0,0-.86-1.47,3.34,3.34,0,0,0-1.46-.86,3.54,3.54,0,0,0-1.77,0l-1.29.49a4,4,0,0,0-1.76,1,4.07,4.07,0,0,0-1,1.76,4,4,0,0,0,4.89,4.89,3.92,3.92,0,0,0,1.76-1,4,4,0,0,0,1-1.75Z"/><path class="cls-1" d="M405.14,360.2c.7-11.38-2.27-23-2.72-34.38l-4.81,4.81c4.86-.21,9.69-.5,14.54-.93,7.06-.64,6.88-11.86,0-11-5.3.69-10.55,1.51-15.82,2.45-2.58.46-4,3.59-3.35,5.91,2.89,11.07,3.44,23,7.42,33.74a2.42,2.42,0,0,0,4.74-.64Z"/><path class="cls-1" d="M158.24,405.71c74.87-12.19,150.54-12.37,226-6.37,5.28.42,5-7.44,0-8.09-75.48-9.75-152.72-4.5-227.29,9.74-3.12.6-1.77,5.22,1.3,4.72Z"/></g></svg>