<svg xmlns="http://www.w3.org/2000/svg" viewBox="0 0 344.72 11.21"><defs><style>.cls-1{fill:#fff;}</style></defs><g id="Layer_2" data-name="Layer 2"><g id="Layer_1-2" data-name="Layer 1"><path class="cls-1" d="M1.84,8.57c11,.32,22.08-.1,33.13-.34s22.09-.46,33.13-.66c22.1-.41,44.19-.57,66.29-.67Q200.68,6.59,267,8.5q18.6.52,37.19,1.23c12.39.47,24.79,1.32,37.18,1.48a3.45,3.45,0,0,0,3.4-3.4,3.48,3.48,0,0,0-3.4-3.4c-11-.91-22.09-1.13-33.12-1.57S286.11,2,275.07,1.68Q241.94.66,208.79.24q-66.3-.76-132.57,1c-12.4.33-24.8.72-37.2,1.25S14.18,3.38,1.84,4.76C-.55,5-.67,8.5,1.84,8.57Z"/></g></g></svg>