<svg xmlns="http://www.w3.org/2000/svg" viewBox="0 0 359.82 13.38"><defs><style>.cls-1{fill:#ffe600;}</style></defs><g id="Calque_2" data-name="Calque 2"><g id="Layer_1" data-name="Layer 1"><path class="cls-1" d="M1.29,13.07c5.84-.07,11.67-.63,17.5-1s11.68-.66,17.52-1c11.46-.69,22.91-1.37,34.37-2q34.39-1.77,68.83-2.41Q208.72,5.4,278,8.34c26,1.11,52,2.35,77.89,5,2.14.22,4-2,4-4a4.05,4.05,0,0,0-4-4c-23.16-1.12-46.29-2.72-69.46-3.65S240,.25,216.82.06c-46.16-.37-92.34,1-138.42,3.71-12.87.76-25.73,1.59-38.58,2.68Q30,7.29,20.2,8.3C13.77,9,7.31,9.43.94,10.5c-1.48.24-1.1,2.58.35,2.57Z"/></g></g></svg>