<?xml version="1.0" encoding="utf-8"?>
<!-- Generator: Adobe Illustrator 25.0.1, SVG Export Plug-In . SVG Version: 6.00 Build 0)  -->
<svg version="1.1" id="Calque_1" xmlns="http://www.w3.org/2000/svg" xmlns:xlink="http://www.w3.org/1999/xlink" x="0px" y="0px"
	 viewBox="0 0 440.6 249.2" style="enable-background:new 0 0 440.6 249.2;" xml:space="preserve">
<style type="text/css">
	.st0{fill:#FEE100;}
</style>
<g>
	<g>
		<g>
			<g>
				<path d="M62.7,68.2C70.3,68.1,74,68,81.3,68c2.4,0,3.2,1,3,3.3c-0.5,5.1,1.8,7,5.4,7c3.6,0,6.5-2.4,6.8-5.9
					c0.4-4.4-1.9-6.1-5.6-6.5c-20.2-2.1-30.8-10.5-28.3-32.2C65.2,11.6,79.1,0,97.5,0s28.8,12.1,27,32.7c-0.3,3.9-1.8,4.7-3.9,4.7
					c-6.9,0.1-10.4,0.1-17.5,0.1c-2.3,0-3.1-1-2.9-3.3c0.4-4.4-1.9-6.6-5.5-6.6c-3.5,0-6.4,2.4-6.8,5.9c-0.5,4.4,2,6.2,7.8,6.7
					c17.7,1.6,28.2,11.7,26.6,31.8c-1.7,21.9-15.9,33.5-35.3,33.7c-21,0.2-31.4-11.1-29-32.7C58.7,68.8,60.4,68.2,62.7,68.2z"/>
				<path d="M158,71.1c-0.6,11.6-0.9,17.4-1.5,29.1c-0.1,2.4-1,3.4-3.4,3.4c-7.7,0.1-11.5,0.1-19.3,0.2c-2.4,0-3.2-1-3-3.4
					c2.7-38.5,4.1-57.7,7.1-95.6c0.2-2.3,1.1-3.3,3.3-3.3c7.8,0,11.7,0,19.3,0c19.8,0,31.7,10.6,31.1,32.3
					c-0.6,21.5-11,33.5-30.4,33.7C159,67.7,158.1,68.7,158,71.1z M161.9,41.3c3.6,0,6.4-2.4,6.6-6.9c0.2-4.3-2.4-6.8-5.9-6.8
					c-0.3,0-0.4,0-0.7,0c-2.2,0-3,1-3.2,3.4c-0.2,2.8-0.2,4.2-0.4,7c-0.1,2.3,0.6,3.3,2.8,3.3C161.5,41.3,161.6,41.3,161.9,41.3z"/>
				<path d="M213.3,99.1c-0.8,3.6-2,4-5.9,4.1c-7,0.1-10.6,0.1-17.6,0.2c-1.9,0-2.6-0.9-2.5-2.3c0-0.6,0.2-1,0.3-1.8
					c10.2-38.5,14.9-57.8,23.9-94.2c0.7-2.5,1.7-3.2,3.8-3.2c6.2,0,9.2,0,15.4,0c2.1,0,3.1,0.7,3.8,3.2c9,36.1,14.2,55,25.5,93.5
					c0.2,0.7,0.3,1.2,0.4,1.8c0.1,1.5-0.6,2.4-2.5,2.4c-7.1,0.1-10.7,0.1-17.8,0.2c-3.9,0-5-0.4-6-4c-0.9-3.6-1.4-5.4-2.3-9
					c-0.8-2.7-1.8-3.2-4-3.2c-3.4,0-5.1,0.1-8.5,0.1c-2.3,0-3.4,0.6-3.9,3.3C214.6,93.6,214.1,95.4,213.3,99.1z M218.7,59.9
					c-0.3,1.2-0.4,2.2-0.4,2.8c0,1.2,1,1.6,2.5,1.6c2,0,3.1,0,5.1-0.1c1.5,0,2.3-0.6,2.3-1.6c0-0.6-0.2-1.6-0.5-2.8
					c-1.1-4.6-1.6-6.9-2.6-11.4c-0.4-1.9-1-3-2.1-3c-1.1,0-1.5,1.2-1.9,3.1C220.2,53,219.7,55.3,218.7,59.9z"/>
				<path d="M297.5,62.2c-0.2-2.3,0.6-3.2,2.9-3.2c7.3-0.1,10.9-0.1,18.3-0.2c2.3,0,3.3,0.8,3.7,5.5c2,20.1-1.4,39.3-26.5,39.5
					c-21.2,0.2-32-12.9-33.9-52.6c-1.9-39.7,6.8-50.6,26.3-50.6C311.3,0.6,318,18.9,319.8,37c0.4,4.5-0.3,5.4-2.6,5.4
					c-7.3,0.1-10.9,0.1-18.1,0.2c-2.2,0-3.1-0.8-3.3-3.1c-0.1-1.4-0.2-2.1-0.3-3.5c-0.5-6.5-2.3-8.6-4.8-8.6c-2.2,0-3.5,1.9-3.9,5.2
					c-0.5,3.5-0.6,9.1,0,18.3c0.6,9.2,1.6,14.9,2.6,18.6c0.9,3.5,2.5,5.4,4.8,5.4c2.6,0,4.1-2.3,3.6-9
					C297.6,64.4,297.6,63.7,297.5,62.2z"/>
				<path d="M375.8,71.8c2.5,0,3.5,1,3.8,3.3c1.1,9.1,1.7,13.7,2.9,22.9c0.3,2.4-0.5,3.5-3,3.5c-15.8,0.2-23.6,0.2-38.9,0.4
					c-2.4,0-3.4-1-3.7-3.4c-4.2-39.1-6.2-58.5-9.7-93.4c-0.2-2.1,0.5-3.1,2.8-3.1c14.4,0,21.8,0,37.2,0c2.4,0,3.4,0.9,3.7,3
					c1,8.1,1.5,12.2,2.5,20.7c0.3,2.2-0.5,3.2-3,3.2c-5,0-7.5,0.1-12.4,0.1c-2.4,0-3.2,0.9-2.9,3.1c0.1,0.9,0.2,1.4,0.3,2.4
					c0.3,2.2,1.3,3.1,3.7,3.1c3.7,0,5.6-0.1,9.4-0.1c2.4,0,3.5,0.9,3.8,3.2c0.9,7.4,1.4,11.2,2.3,18.9c0.3,2.3-0.5,3.3-3,3.4
					c-3.8,0-5.7,0.1-9.5,0.1c-2.4,0-3.2,0.9-3,3.2c0.1,1,0.2,1.5,0.3,2.5c0.3,2.3,1.3,3.2,3.7,3.2C368.2,71.8,370.8,71.8,375.8,71.8
					z"/>
			</g>
			<g>
				<path class="st0" d="M56.8,211.2c3,0,4,1,3.8,3.8c-1.1,11.4-1.7,17.2-2.8,28.7c-0.3,2.8-1.5,3.8-4.6,3.8c-19.7,0-29.6,0-49.4,0
					c-3.1,0-4.1-1.1-3.8-3.9c4.8-45.9,7.4-68.1,12.6-112.8c0.3-2.7,1.6-3.8,4.6-3.8c10.5-0.1,15.7-0.1,25.9-0.2c3,0,4,1,3.7,3.7
					c-3.4,30.6-5.1,45.9-8.4,76.8c-0.3,2.8,0.7,3.8,3.8,3.8C48.1,211.2,51,211.2,56.8,211.2z"/>
				<path class="st0" d="M127.3,212.8c3,0,4,1.2,3.9,4c-0.6,10.7-1,16-1.6,26.7c-0.2,2.8-1.4,4-4.4,4c-19.3,0-29,0-48.4,0
					c-3,0-4.1-1.2-3.8-4c4.1-45.5,6.2-68,10.6-113c0.3-2.7,1.5-4,4.3-4c18.2-0.1,27.2-0.2,44.9-0.3c2.8,0,3.8,1.2,3.6,3.9
					c-0.7,10.7-1,16-1.6,26.7c-0.2,2.8-1.3,4-4.2,4c-5.9,0-8.8,0-14.7,0c-2.9,0-4.1,1-4.3,3.8c-0.1,1.2-0.1,1.8-0.2,2.9
					c-0.2,2.8,0.8,3.8,3.7,3.8c4.5,0,6.8,0,11.2,0c2.9,0,3.9,1.2,3.7,4c-0.6,9.2-0.9,13.7-1.4,22.9c-0.2,2.8-1.4,4-4.3,4
					c-4.6,0-6.9,0-11.5,0c-3,0-4.2,1-4.4,3.8c-0.1,1.2-0.1,1.8-0.2,2.9c-0.2,2.8,0.8,3.8,3.8,3.8
					C118.2,212.8,121.2,212.8,127.3,212.8z"/>
				<path class="st0" d="M195.2,211.6c-4.1-6.7-6.2-10-10.2-16.7c-0.7-1.2-1.4-1.6-2.2-1.6c-1.1,0-1.8,1-1.9,2.4
					c-0.4,19.2-0.6,28.8-1.1,47.8c-0.1,2.8-1.2,4-4.3,4c-9.7,0-14.6,0-24.4,0c-3,0-4.1-1.2-4-4c2.2-45.2,3.2-68.1,5.4-113.5
					c0.1-2.8,1.2-4,4-4c5.6,0,8.4-0.1,14-0.1c4,0,5.1,1,7.3,4.6c7,11.8,10.6,17.7,18,29.6c0.9,1.4,1.6,2.4,2.8,2.4
					c1.2,0,2-1.1,2.8-2.5c7.6-11.9,11.2-17.9,18.4-29.8c2.2-3.7,3.4-4.7,7.3-4.8c5.5,0,8.3-0.1,13.9-0.1c2.7,0,3.8,1.2,3.9,4
					c1.6,45.9,2.5,69.3,3.9,114.1c0.1,2.7-1,3.9-4.1,3.9c-9.7,0-14.6,0-24.4,0c-3,0-4.2-1.2-4.2-3.9c-0.1-19-0.2-28.6-0.3-47.8
					c0-1.4-0.7-2.4-1.8-2.4c-0.7,0-1.3,0.2-2.2,1.6c-4.1,6.7-6.2,10-10.5,16.7c-0.7,1.2-1.7,1.7-3,1.7
					C197.1,213.3,196,212.8,195.2,211.6z"/>
				<path class="st0" d="M340,186.9c5,48.5-6.7,62.4-34.7,62.4c-28,0-41.5-14.2-43.8-62.4c-2.3-48.2,8.6-63.4,34.1-63.5
					C321.2,123.1,335,138.3,340,186.9z M307.6,186.9c-2-24.1-4.3-28.1-9.1-28.1c-4.8,0-6.5,4-4.7,28c1.7,24.1,4,27.8,9.1,27.8
					C307.8,214.7,309.6,211,307.6,186.9z"/>
				<path class="st0" d="M394.3,209.6c-1-2.1-1.9-3-3-3c-1.3,0-2,0.9-1.8,2.4c1.7,14.1,2.6,21,4.2,34.6c0.3,2.7-0.7,3.9-3.7,3.9
					c-9.8,0-14.6,0-24.4,0c-3,0-4.3-1.2-4.6-3.9c-4.7-44.3-7.5-68.4-12.7-114.9c-0.3-2.8,0.6-4.1,3.5-4.1c5.9,0,8.9-0.1,14.8-0.1
					c4.2,0,6.3,0.7,8.4,4.7c7.1,13.8,10.7,20.7,18,34.6c1,2.1,1.9,3,3,3c1.3,0,1.9-0.9,1.7-2.5c-1.8-14.4-2.8-21.6-4.6-35.9
					c-0.4-2.8,0.6-4.1,3.6-4.1c9.5-0.1,14.3-0.1,24-0.2c3,0,4.4,1.2,4.7,4.1c6.2,46.8,9.5,71.4,15.1,115.4c0.3,2.7-0.7,3.9-3.7,3.9
					c-6.3,0-9.4,0-15.6,0c-4.4,0-6.4-0.7-8.8-4.5C405.2,229.9,401.5,223.2,394.3,209.6z"/>
			</g>
		</g>
	</g>
</g>
</svg>
