<?xml version="1.0" encoding="utf-8"?>
<!-- Generator: Adobe Illustrator 25.1.0, SVG Export Plug-In . SVG Version: 6.00 Build 0)  -->
<svg version="1.1" id="Calque_1" xmlns="http://www.w3.org/2000/svg" xmlns:xlink="http://www.w3.org/1999/xlink" x="0px" y="0px"
	 viewBox="0 0 665.3 63.4" style="enable-background:new 0 0 665.3 63.4;" xml:space="preserve">
<style type="text/css">
	.st0{fill:#FFFFFF;}
</style>
<g>
	<g>
		<path class="st0" d="M631.5,11.9c1.4,0.1,2.8-0.7,4.1-1.1c-0.3,0-0.3,0,0,0c0.4,0,0.7,0,1-0.1c0.4-0.1,0.8-0.3,1.2-0.5
			c0.6-0.3,1.2-0.5,1.9-0.8c1.2-0.5,2.4-1,3.6-1.6c1.4-0.6,2.8-1.2,3.9-2.3c1-1,1.3-2.7,0.5-3.8c-0.3-0.5-0.7-0.8-1.1-1.1
			c-0.8-0.5-1.6-0.4-2.4-0.3c-1.5,0.2-2.9,1.1-4.2,1.8c-1.1,0.6-2.3,1.3-3.4,1.9c-0.6,0.3-1.2,0.7-1.8,1c-0.4,0.2-0.7,0.4-1.1,0.7
			c-0.2,0.3-0.4,0.5-0.6,0.8c0.5-0.5,0.6-0.6,0.2-0.3c-0.5,0.3-1.1,0.7-1.6,1c-0.8,0.5-1.5,1-2,1.8
			C628.9,10.3,630.1,11.7,631.5,11.9L631.5,11.9z"/>
	</g>
</g>
<g>
	<g>
		<path class="st0" d="M630.6,29.4c5.1,1.7,10.2,3.3,15.3,4.6c2.5,0.7,5.1,1.3,7.7,1.9c2.8,0.6,5.7,0.8,8.5,1.1
			c1.6,0.1,3-1.3,3.2-2.8c0.2-1.6-0.7-3.1-2.3-3.5c-2.5-0.7-5-1.5-7.6-2c-2.6-0.5-5.2-1.1-7.7-1.6c-5.1-1.2-10.2-2.6-15.2-4.1
			c-1.7-0.5-3.7,0.6-4.1,2.4C627.7,27.1,628.9,28.8,630.6,29.4L630.6,29.4z"/>
	</g>
</g>
<g>
	<g>
		<path class="st0" d="M622.6,53.4c1.4,0.3,2.7,0.6,4.1,1c0.9,0.2,1.8,0.4,2.8,0.5c0.7,0,1.4,0.1,2.1,0.1c0.3,0,0.5-0.1,0.8-0.1
			c0.4-0.1,0.7-0.3,1-0.6c0.5-0.4,1-1,1.1-1.6c0.3-1.3-0.2-2.8-1.4-3.5c-0.6-0.3-1.2-0.7-1.9-1c-0.8-0.4-1.7-0.7-2.6-1
			c-1.3-0.4-2.7-0.9-4-1.3c-0.9-0.3-2.2-0.1-3,0.4c-0.8,0.5-1.6,1.4-1.8,2.3c-0.2,1-0.2,2.1,0.4,3C620.8,52.5,621.6,53.2,622.6,53.4
			L622.6,53.4z"/>
	</g>
</g>
<g>
	<g>
		<path class="st0" d="M60.3,6.3c-1-1.5-2.2-1.7-3.9-1.8c-1,0-2-0.1-2.9-0.2c-0.9-0.1-1.8-0.2-2.8-0.3C50.4,4,50,4,49.6,3.9
			c1.2,0.2-1.3-0.2-1.6-0.2c-0.5,0-0.9-0.1-1.4-0.1c-0.2,0-1.6-0.2-0.6-0.1c-0.9-0.1-1.8-0.3-2.7-0.4c-2.7-0.5-5.6-1.5-8.2,0
			c-2.6,1.5-2.8,4.9-0.9,7c2,2.3,5.4,2.1,8.2,2.2c2,0.1,4.1,0.1,6.1,0c2.2-0.1,4.5-0.5,6.7-0.8c1-0.2,2.1-0.3,3-0.6
			C60,10.4,61.5,8,60.3,6.3L60.3,6.3z"/>
	</g>
</g>
<g>
	<g>
		<path class="st0" d="M42,28.6c-0.9,0.2-1.7,0.3-2.6,0.4c-0.1,0-1.1,0.2-0.5,0.1c-0.4,0.1-0.8,0.1-1.2,0.1c-0.4,0-0.8,0.1-1.2,0.1
			c0.9-0.1-2.5,0.3-1.4,0.2c-0.8,0.1-1.6,0.2-2.3,0.3c-3.3,0.3-6.6,0.5-9.9,0.5c-3.2,0-6.5-0.1-9.7-0.3c-1.7-0.1-3.3-0.4-4.9-0.5
			c-1.9-0.1-3.8,0.3-5.7,0.6c-3.3,0.6-3.4,5.2-0.9,6.8c1.6,1,3.4,1.9,5.2,2.3c2,0.4,4,0.6,6,0.7c3.4,0.3,6.8,0.4,10.2,0.2
			c7.1-0.4,14.2-1.5,21-3.7c2-0.7,3.6-2.9,2.9-5C46.3,29.2,44.3,28.2,42,28.6L42,28.6z"/>
	</g>
</g>
<g>
	<g>
		<path class="st0" d="M46.7,44.4c-0.3,0.1-0.6,0.1-0.1,0.1c0.5,0.1,0.9,0.3,1.4,0.4c-1.2-0.8-2.5-0.4-3.8,0c-1,0.3-1.9,0.7-2.7,1.3
			c-1.6,1.1-3.1,2.2-4.5,3.5c-1.2,1-2.3,2.2-3.3,3.4c-1.4,1.6-2.1,3.8-2.9,5.8c-0.5,1.4,0.4,3.3,1.6,4c1.4,0.7,3.2,0.6,4.3-0.6
			c0.6-0.6,1.2-1.2,1.8-1.8c0.3-0.3,0.6-0.6,1-0.9c0.5-0.5,1-1.1,1.4-1.7c-0.2,0.3-0.5,0.6-0.7,0.9c1.4-1.8,2.9-3.5,4.5-5.2
			c0.8-0.8,1.6-1.5,2.4-2.3c0.3-0.4,0.6-0.8,0.9-1.2c0.1-0.1,0.2-0.2,0.2-0.3c0.2-0.3,0.2-0.2-0.1,0.2c0.1-0.1,0.2-0.2,0.3-0.3
			c0.2-0.2,0.4-0.5,0.6-0.8c0.4-0.8,0.4-1.5,0.3-2.4c0,0.5,0,1,0,1.5c0-0.1,0-0.1,0.1-0.2c-0.2,0.4-0.5,0.8-0.7,1.2
			c0.2-0.1,0.3-0.3,0.5-0.4c0.8-0.7,1-2.2,0.4-3.1C48.9,44.7,47.7,44,46.7,44.4L46.7,44.4z"/>
	</g>
</g>
</svg>
