<?xml version="1.0" encoding="utf-8"?>
<!-- Generator: Adobe Illustrator 25.1.0, SVG Export Plug-In . SVG Version: 6.00 Build 0)  -->
<svg version="1.1" id="Calque_1" xmlns="http://www.w3.org/2000/svg" xmlns:xlink="http://www.w3.org/1999/xlink" x="0px" y="0px"
	 viewBox="0 0 535.6 119.8" style="enable-background:new 0 0 535.6 119.8;" xml:space="preserve">
<style type="text/css">
	.st0{fill:#FEE100;}
</style>
<g>
	<g>
		<path class="st0" d="M31.3,13.9C23.1,8.9,13.9,4.2,4.4,2C1.7,1.5,0.6,5.3,3.2,6.2c9.2,2.9,17.9,5.8,26.3,10.8
			C31.5,18,33.2,15.1,31.3,13.9L31.3,13.9z"/>
	</g>
</g>
<g>
	<g>
		<path class="st0" d="M31.9,67.8C22,69,12,69,2,69.7c-2.6,0.2-2.7,4,0,4.1c10.2,0.3,20.4-1.4,30.3-3.3
			C33.8,70.3,33.5,67.6,31.9,67.8L31.9,67.8z"/>
	</g>
</g>
<g>
	<g>
		<path class="st0" d="M46.4,104.4c-3.6,3.9-7,8.1-10.5,12.2c-1.8,2.1,1.4,4.6,3,2.3c3.2-4.3,6.4-8.6,9.4-13
			C49.1,104.7,47.3,103.4,46.4,104.4L46.4,104.4z"/>
	</g>
</g>
<g>
	<g>
		<path class="st0" d="M498.5,16.8c7.2-6.1,15.1-10.3,24-13.3c2.1-0.7,1.3-3.9-0.9-3.4c-9.7,2.3-18.1,7.8-25.3,14.5
			C494.8,15.9,497,18.1,498.5,16.8L498.5,16.8z"/>
	</g>
</g>
<g>
	<g>
		<path class="st0" d="M488.8,62.7c15,0.5,30,0.2,45-0.2c2.3-0.1,2.3-3.6,0-3.6c-15,0.1-30.1,0.4-45,1.5
			C487.3,60.4,487.3,62.6,488.8,62.7L488.8,62.7z"/>
	</g>
</g>
<g>
	<g>
		<path class="st0" d="M483,109.4c6.6-0.1,12,2.6,17.9,5.4c1.9,0.9,3.2-1.5,1.6-2.7c-5.5-4.2-12.7-5.2-19.4-4.9
			C481.6,107.2,481.6,109.4,483,109.4L483,109.4z"/>
	</g>
</g>
</svg>
