<?xml version="1.0" encoding="utf-8"?>
<!-- Generator: Adobe Illustrator 25.1.0, SVG Export Plug-In . SVG Version: 6.00 Build 0)  -->
<svg version="1.1" id="Calque_1" xmlns="http://www.w3.org/2000/svg" xmlns:xlink="http://www.w3.org/1999/xlink" x="0px" y="0px"
	 viewBox="0 0 57.2 41.6" style="enable-background:new 0 0 57.2 41.6;" xml:space="preserve">
<style type="text/css">
	.st0{fill:#FDE000;}
	.st1{fill:#FFFFFF;}
</style>
<g>
	<path d="M57.1,25L57.1,25c-0.7-3.4-4.4-6.4-7.6-8.2l0,0l0,0c-0.1,0-0.1-0.1-0.2-0.1c-0.5-0.3-1-0.5-1.6-0.8c-0.1,0-0.1-0.1-0.2-0.1
		c-1.2-0.5-2.5-1.1-4-1.7c-0.9-2.8-2.4-5.3-4.6-7.3c0,0,0,0,0-0.1c0,0,0-0.1-0.1-0.1c0,0,0-0.1,0-0.1c0.1-2.7-1.6-5.4-4.3-6.2
		c-2.6-0.8-5.2,0.5-6.8,2.6c-0.1,0.1-0.1,0.1-0.2,0.2c0,0,0,0,0,0c-0.1,0-0.2,0.1-0.4,0.1c0,0,0,0,0,0c-3.4,0.5-6.5,2-9,4.2
		c-2-0.4-3.8-0.6-5.2-0.8l0,0C9.7,5.9,6.1,6,3.6,7.3C1.1,8.5-0.2,10.6,0,13.1c0.3,2.6,2.1,5.2,5.8,8.1c1.8,1.4,3.8,2.8,6,4
		c0.1,0.7,0.3,1.4,0.5,2c0.9,2.9,2.5,5.6,4.8,7.7c0,0.1,0.1,0.3,0.1,0.3c-0.1,2.7,1.6,5.4,4.3,6.2c2.6,0.8,5.2-0.5,6.8-2.6
		c0.1-0.1,0.1-0.1,0.2-0.2c0.1,0,0.1,0,0.2-0.1c0,0,0,0,0,0c0.1,0,0.2,0,0.4-0.1c4.1-0.6,7.6-2.7,10.3-5.6c1.5,0.1,3,0.2,4.5,0.2
		c0.4,0,0.8,0,1.1,0c3.4-0.1,6.8-0.4,9.4-2.1C56.6,29.6,57.6,27.4,57.1,25z"/>
	<g>
		<path class="st0" d="M35.1,31.2c-1.8-0.2-3.7-0.6-5.4-0.9c-5.4-1.1-10.3-2.7-14.5-4.7c0.7,2.8,2.1,5.3,4.2,7.1c0,0,0,0,0,0
			c0.6,0.6,0.9,1.4,1,2.3c0,0,0,0,0,0c-0.1,1.5,0.7,2.9,2,3.4c1.4,0.4,2.8-0.2,3.6-1.5c0,0,0,0,0,0c0.6-0.7,1.3-1.2,2.1-1.3l0,0
			c3.1-0.3,6-1.7,8.3-4C36,31.4,35.5,31.3,35.1,31.2z"/>
	</g>
	<g>
		<path class="st0" d="M28.7,23.8c4.1,1,8,1.7,11.5,1.9c0.1-0.3,0.3-0.7,0.4-1c1.9-6.1,0.2-12.4-3.9-15.9c0,0,0,0,0,0
			c-0.6-0.6-0.9-1.4-1-2.3c0,0,0,0,0,0c0.1-1.5-0.7-2.9-2-3.4c-1.4-0.4-2.8,0.2-3.6,1.5c0,0,0,0,0,0c-0.5,0.7-1.3,1.2-2.1,1.3
			c0,0,0,0,0,0c-5.4,0.5-10.4,4.6-12.4,10.7c-0.2,0.6-0.3,1.1-0.4,1.7C18.9,20.7,23.6,22.6,28.7,23.8z M36.7,16.6
			c0.4-0.3,1.1-0.3,1.5,0.3c0.4,0.6,0.1,1.2-0.3,1.5c-0.2,0.1-0.4,0.2-0.6,0.2c-0.3,0-0.6-0.1-0.8-0.5v0
			C36,17.5,36.3,16.9,36.7,16.6z M34.6,11.8c0.2-0.3,0.5-0.6,0.9-0.6c0.3,0,0.7,0.1,0.9,0.4c0.4,0.5,0.1,1.1-0.3,1.4
			c-0.2,0.1-0.4,0.2-0.6,0.2c-0.3,0-0.6-0.1-0.8-0.4C34.4,12.5,34.4,12.2,34.6,11.8z M32.1,15.4c0.4-0.3,1-0.3,1.3,0.2
			c0.3,0.5,0.1,1-0.3,1.3c-0.2,0.1-0.4,0.2-0.6,0.2c-0.3,0-0.5-0.1-0.7-0.4v0C31.5,16.2,31.7,15.7,32.1,15.4z"/>
	</g>
	<g>
		<path class="st1" d="M54.1,25.6c-0.6-3.2-6.7-6.9-9.7-7.8c-0.5-0.2-0.9,0.1-1.1,0.4c-0.2,0.4,0,0.8,0.4,1.1c2.8,1.5,5.4,3,7.2,5.2
			c0.6,0.7,0.8,1.3,0.5,1.8c-0.3,0.5-1.4,1.4-6.1,1.6c-4.9,0.2-10.8-0.6-17.2-2.2c-6.3-1.6-11.9-4-16.3-7c-4.3-3-5.3-4.6-5.3-5.4
			c0-0.3,0.1-0.5,0.4-0.7c1.5-1.2,4.3-0.5,6.6,0l0.7,0.1c0.7,0.2,1.2-0.1,1.4-0.6c0.2-0.5,0-1-0.4-1.3C12.8,9.1,7.6,8.7,4.9,10
			c-1.3,0.6-1.9,1.6-1.8,2.8c0.2,1.7,1.7,3.6,4.7,6c2.3,1.8,5,3.5,8.2,5c4.1,2,8.9,3.5,14.1,4.6c1.7,0.3,3.5,0.6,5.3,0.9
			c2.7,0.4,6.2,0.8,9.6,0.7c2.9-0.1,5.9-0.3,7.8-1.6C54.1,27.5,54.3,26.4,54.1,25.6z"/>
	</g>
</g>
</svg>
