<?xml version="1.0" encoding="utf-8"?>
<!-- Generator: Adobe Illustrator 25.0.1, SVG Export Plug-In . SVG Version: 6.00 Build 0)  -->
<svg version="1.1" id="Calque_1" xmlns="http://www.w3.org/2000/svg" xmlns:xlink="http://www.w3.org/1999/xlink" x="0px" y="0px"
	 viewBox="0 0 1905.5 258.7" style="enable-background:new 0 0 1905.5 258.7;" xml:space="preserve">
<style type="text/css">
	.st0{fill:#FFFFFF;}
</style>
<g>
	<path class="st0" d="M107.6,256.4c-43.8-0.1-79-16.1-103.9-41.5c-3.9-3.9-5.3-8.2-1-12.5l36-34.1c4.6-4.3,7.5-4.3,12.1,0.4
		c13.1,12.8,35.6,23.6,60.8,23.6c22.1,0,33.5-7.4,33.5-17.4c0-10-7.5-14.6-29.2-14.7l-10.3,0C50,160.2,5.2,141.9,5.3,86.4
		C5.4,31.9,49.9-0.1,108.7,0c35.6,0.1,66.6,13.3,90.8,32.6c5,3.9,9.2,8.2,3.5,14.6l-32.8,35.2c-3.9,3.9-7.5,3.9-12.5,0
		c-14.9-12.1-34.9-18.2-53.8-18.2c-22.8,0-34.9,7.4-34.9,17c0,8.6,6,15,29.9,15l12.8,0c54.8,0.1,97.2,21.5,97.1,72.8
		C208.8,225.9,163.1,256.5,107.6,256.4z"/>
	<path class="st0" d="M243,70.7c-5.7,0-7.8-2.5-7.8-8.2l0.1-50.6c0-5.7,2.1-8.2,7.8-8.2l195.9,0.3c5.7,0,7.8,2.5,7.8,8.2l-0.1,50.6
		c0,5.7-2.1,8.2-7.8,8.2l-58.8-0.1c-5.7,0-7.8,2.5-7.8,8.2L372,245.1c0,5.7-2.2,8.2-7.9,8.2l-47-0.1c-5.7,0-7.8-2.5-7.8-8.2
		L309.5,79c0-5.7-2.1-8.2-7.8-8.2L243,70.7z"/>
	<path class="st0" d="M540.2,245.3c0,5.7-2.2,8.2-7.9,8.2l-45.9-0.1c-5.7,0-7.8-2.5-7.8-8.2L479,12.3c0-5.7,2.2-8.2,7.8-8.2
		l77.6,0.1c58,0.1,84.7,31.5,84.6,79.5c0,27.8-9.7,47-27.9,64.1c-3.2,3.2-3.2,6.8,0,10.7l67.9,83.1c3.9,5,2.1,12.1-5,12.1l-57.3-0.1
		c-6.4,0-10-0.7-15.3-7.5l-61.8-78.4c-3.5-4.6-9.3-3.6-9.3,2.8L540.2,245.3z M571.8,102.2c9.3,0,16.4-5.7,16.4-16.7
		c0-10.7-7.1-16.8-16.3-16.8l-27.4,0c-5.7,0-7.8,2.5-7.9,8.2l0,17.1c0,5.7,2.1,8.2,7.8,8.2L571.8,102.2z"/>
	<path class="st0" d="M803.8,218.3c-8.2,0-11,1.8-15.3,9.6l-8.9,16.4c-4.3,7.8-7.1,9.6-15.3,9.6l-48.4-0.1c-6.4,0-8.5-4.3-5.7-10
		l125.4-237c2.5-4.6,7.9-5.3,10.7,0l124.6,237.4c2.9,5.7,0.7,10-5.7,10l-48.8-0.1c-8.2,0-11-1.8-15.3-9.6l-8.9-16.4
		c-4.3-7.9-7.1-9.6-15.3-9.6L803.8,218.3z M845.5,135.8c-2.8-5.3-7.1-5.4-10,0l-11.8,20.6c-3.6,6.1-1.8,9.3,5,9.3l23.1,0
		c6.8,0,8.6-3.2,5-9.3L845.5,135.8z"/>
	<path class="st0" d="M964.5,71.9c-5.7,0-7.8-2.5-7.8-8.2l0.1-50.6c0-5.7,2.1-8.2,7.8-8.2l195.9,0.3c5.7,0,7.8,2.5,7.8,8.2
		l-0.1,50.6c0,5.7-2.1,8.2-7.8,8.2l-58.8-0.1c-5.7,0-7.8,2.5-7.9,8.2l-0.3,165.9c0,5.7-2.1,8.2-7.8,8.2l-47-0.1
		c-5.7,0-7.8-2.5-7.8-8.2l0.3-165.9c0-5.7-2.1-8.2-7.8-8.2L964.5,71.9z"/>
	<path class="st0" d="M1269.4,158.9c-5.7,0-7.8,2.5-7.9,8.2l0,12.8c0,5.7,2.1,8.2,7.8,8.2l95.1,0.1c5.7,0,7.8,2.5,7.8,8.2l-0.1,50.2
		c0,5.7-2.2,8.2-7.9,8.2l-156.3-0.2c-5.7,0-7.8-2.5-7.8-8.2l0.4-232.9c0-5.7,2.1-8.2,7.9-8.2l156.3,0.2c5.7,0,7.8,2.5,7.8,8.2
		l-0.1,50.2c0,5.7-2.2,8.2-7.9,8.2l-95.1-0.1c-5.7,0-7.8,2.5-7.9,8.2l0,13.2c0,5.7,2.1,8.2,7.8,8.2l77.3,0.1c5.7,0,7.8,2.5,7.8,8.2
		l-0.1,41c0,5.7-2.2,8.2-7.9,8.2L1269.4,158.9z"/>
	<path class="st0" d="M1601.3,255.2c-6.1,0-9.3,0-11.7-3.9c-4.6-7.1-9.6-3.6-16.4-0.7c-8.9,3.9-22.4,8.1-44.2,8.1
		c-71.9-0.1-124.6-54-124.4-128.4c0.1-74.4,52.6-128.1,124.5-128c47.4,0.1,89.7,23.3,108.5,62.8c3.6,7.1,4.6,12.8-2.5,16.4
		l-40.6,19.2c-5.3,2.5-8.9,2.8-12.5-2.5c-12.8-18.5-29.5-28.2-52.7-28.2c-34.5-0.1-59.5,26.6-59.6,60.5
		c-0.1,36.7,24.1,64.5,61.9,64.6c16.7,0,29.9-3.2,40.6-10.3c5.3-3.5,6.1-6,6.1-13.9l0.1-39.2c0-5.7,2.1-8.2,7.8-8.2l45.6,0.1
		c5.7,0,7.8,2.5,7.8,8.2l-0.2,115.4c0,5.7-2.2,8.2-7.9,8.2L1601.3,255.2z"/>
	<path class="st0" d="M1898.1,6.4c7.1,0,9.3,5.4,5.7,11.1l-88.9,147.6c-3.9,6.4-4.3,8.9-4.3,17.1l-0.1,65.2c0,5.7-2.1,8.2-7.9,8.2
		l-49.1-0.1c-5.7,0-7.8-2.5-7.8-8.2l0.1-65.2c0-8.2-0.3-10.7-4.2-17.1l-88.4-147.9c-3.6-5.7-1.4-11,5.7-11l53.8,0.1
		c8.2,0,10.7,2.2,15.3,9.6l45.5,77c2.5,4.3,7.5,4.3,10,0l45.7-76.9c4.3-7.5,7.1-9.6,15.3-9.6L1898.1,6.4z"/>
</g>
</svg>
