<?xml version="1.0" encoding="utf-8"?>
<!-- Generator: Adobe Illustrator 25.0.1, SVG Export Plug-In . SVG Version: 6.00 Build 0)  -->
<svg version="1.1" id="Calque_1" xmlns="http://www.w3.org/2000/svg" xmlns:xlink="http://www.w3.org/1999/xlink" x="0px" y="0px"
	 viewBox="0 0 541.5 181.5" style="enable-background:new 0 0 541.5 181.5;" xml:space="preserve">
<g>
	<g>
		<path d="M50.5,28.3c-0.3,10.4-0.6,20.8-0.8,31.2c-0.2,9.6-1.7,20.5,0.7,29.9c0.6,2.2,3.7,2.1,4.3,0c2.7-9.3,1.4-20.2,1.5-29.9
			c0.1-10.4,0-20.8,0-31.2C56.2,24.6,50.6,24.6,50.5,28.3L50.5,28.3z"/>
	</g>
</g>
<g>
	<g>
		<path d="M7.6,54.8c-1.7,0.1-3.3,0.2-5,0.3c0.5,1.7,0.9,3.4,1.4,5c26.3-20.3,55.7-35.9,86.5-48c3.3-1.3,1.9-6.6-1.5-5.4
			C57.4,18.3,28.1,35.3,1.2,55.4c-2,1.5-1.6,5.1,1.4,5c1.7-0.1,3.3-0.1,5-0.2C11.1,60.1,11.1,54.6,7.6,54.8L7.6,54.8z"/>
	</g>
</g>
<g>
	<g>
		<path d="M30.9,102.8c-1.3-0.8-2.6-1.6-3.9-2.4c0,1.3,0,2.6,0,3.9C37,96.9,47,89.6,57.6,83.1c10.6-6.5,21.7-12,32.9-17.5
			c3-1.5,0.9-6.8-2.3-5.5C65,69.4,42.5,83.6,24.3,100.7c-1,0.9-0.9,3,0.5,3.6c1.4,0.6,2.8,1.2,4.1,1.9
			C31.2,107.4,33.2,104.1,30.9,102.8L30.9,102.8z"/>
	</g>
</g>
<g>
	<g>
		<path d="M109.6,78.3c1.6-9.9,5.9-19.2,15.9-23c-1.4-0.6-2.7-1.1-4.1-1.7c3.5,5.6,3.5,13-0.9,18.1c2.1,0.9,4.3,1.8,6.4,2.6
			c0.1-2.7,0.6-6.4,2.5-8.5c0.8-0.8,2.1-2.5,3.3-0.8c0.9,1.2-1.3,4.9-1.9,6c2.1,1.2,4.3,2.5,6.4,3.7c2.9-6.2,6.4-12.1,10.7-17.3
			c-1.5-0.6-3-1.3-4.5-1.9c0,7.5-0.8,15-0.2,22.4c0.3,3.7,5.9,3.9,5.9,0c0.1-7.5-0.8-14.9-0.4-22.4c0.1-2.5-2.9-3.3-4.5-1.9
			c-5.7,4.8-10.3,10.5-13.4,17.4c-2,4.3,4.2,8.1,6.4,3.7c1.8-3.6,3.6-7.6,2.5-11.7c-0.9-3.5-3.9-6.5-7.6-6.7
			c-8.6-0.5-12.9,11.1-12.7,18c0.1,2.9,4.2,5.3,6.4,2.6c6.3-7.9,7.5-18.4,1.9-27.1c-0.8-1.2-2.6-2.3-4.1-1.7
			c-11.7,4.8-21.2,16.9-18.7,30C105.3,80.6,109.2,80.7,109.6,78.3L109.6,78.3z"/>
	</g>
</g>
<g>
	<g>
		<path d="M166.7,56.6c0.2-1.1,0.5-2.2,0.7-3.2c0.5-2.4-3.2-3.4-3.7-1c-1.8,8.5-1.3,17.9-1.7,26.5c-0.4,9.3-1.1,18.6-0.8,28
			c0.1,3.4,4.9,3.3,5.2,0c0.9-9.3,0.9-18.6,1.1-28c0.2-8.7,1.2-17.9,0-26.5c-1.2,0.3-2.5,0.7-3.7,1c0.3,1.1,0.6,2.1,0.8,3.2
			C164.7,57.6,166.4,57.7,166.7,56.6L166.7,56.6z"/>
	</g>
</g>
<g>
	<g>
		<path d="M153.4,61.7c0.9-13.2,16.7-21,26.1-10.1c4.1,4.8,4.7,11.3,1.2,16.6c-3.5,5.2-8.4,5.5-13.5,7.8c-2,1-1.1,3.6,0.6,4.3
			c7.5,3.1,16.6-5.1,19.6-11.4c3.5-7.5,1.7-16.2-4-22c-5.6-5.7-14.2-8.1-21.7-4.7c-7.5,3.4-12.8,11.2-12,19.5
			C149.7,64.2,153.2,64.2,153.4,61.7L153.4,61.7z"/>
	</g>
</g>
<g>
	<g>
		<path d="M213.4,48.4c-10.8-1.3-24.9,7.8-21.3,20.3c1.5,5.4,6.9,7.9,12.2,6.3c6.4-2,9.1-8.6,10.2-14.6c0.8-3.8-4.9-5.5-5.9-1.6
			c-1.4,5-0.5,10.4,3.6,13.8c3.5,2.9,9.8,4.2,13,0.2c1.1-1.4,0.9-3.7-1.1-4.1c-2-0.5-4.3-0.1-6.1-0.8c-3.1-1.1-4.5-4.4-3.5-7.5
			c-2-0.5-4-1.1-5.9-1.6c-1.1,3.1-2,7.4-5.2,9c-4.1,2.1-5.7-1.7-4.8-5.2c1.6-6.2,8.6-10.7,14.8-11C215.4,51.4,215.4,48.7,213.4,48.4
			L213.4,48.4z"/>
	</g>
</g>
<g>
	<g>
		<path d="M240.6,47.5c-7.6-0.8-14.6,7.3-12.2,14.7c2.3,7.2,11.8,10.7,18.2,6.7c4-2.5,0.5-8.2-3.6-6.2c-2.7,1.3-6.3,0.2-7.6-2.5
			c-1.8-3.7,1.6-8,5.3-8.5C243.2,51.4,243.3,47.8,240.6,47.5L240.6,47.5z"/>
	</g>
</g>
<g>
	<g>
		<path d="M260.8,0.9c-4.9,10.2-7.5,21.2-8.5,32.5c-1,11.1-0.9,24.3,3.4,34.8c1.6,4,7.2,2.5,6.5-1.8c-1.6-10.8-4.1-21-3.8-32.1
			c0.3-11,2.6-21.5,5.9-31.9C264.9,0.4,261.8-1,260.8,0.9L260.8,0.9z"/>
	</g>
</g>
<g>
	<g>
		<path d="M250,39.6c10-4.6,20.1-9.2,30.1-13.9c4-1.9,0.5-8-3.5-6c-9.9,4.9-19.7,9.9-29.6,14.8C243.6,36.2,246.6,41.2,250,39.6
			L250,39.6z"/>
	</g>
</g>
<g>
	<g>
		<path d="M264.9,118.7c9.8,0.5,17.2-7.1,18.3-16.5c0.2-1.8-1.6-2.9-3.1-3.1c-14.5-1.9-26.6,11.5-22.7,25.7
			c3.6,13.5,21.2,20.7,32.1,10.7c2.1-1.9-0.1-6.2-2.9-5c-8.5,3.6-19.2,2.6-22.1-7.6c-2.8-10.1,5.7-18.4,15.6-17.5
			c-1-1-2.1-2.1-3.1-3.1c-0.5,6.3-5.9,11.2-12.1,12C262.1,114.6,261.9,118.5,264.9,118.7L264.9,118.7z"/>
	</g>
</g>
<g>
	<g>
		<path d="M304.7,93.6c0.7-3.9,0.3-7.4-0.6-11.2c-0.5-2.3-3.8-2.1-4.5,0c-2.7,9.4-3.1,19.5-3.7,29.2c-0.6,9.8-1.1,19.8,0.3,29.6
			c0.5,3.9,6.3,2.7,6.5-0.9c0.5-9.5-0.3-19.1,0-28.7c0.2-9.5,1.6-19.1,1.4-28.6c-1.3,0.5-2.6,1.1-3.9,1.6c2.4,2.2,2.9,5.3,2.3,8.4
			C302.4,94.4,304.5,94.9,304.7,93.6L304.7,93.6z"/>
	</g>
</g>
<g>
	<g>
		<path d="M326.2,102.6c-3.9-0.3-8.9-0.4-12,2.5c-3.2,3-3,7.6-0.5,11c3.6,4.8,10.1,4.8,13.9,9c3.1,3.4-0.1,7.5-3.5,8.7
			c-3.5,1.3-7.2,0.5-10.7,0c-4-0.5-4.9,6.2-1,7.1c9.5,2.1,24.1-1.6,23-13.9c-0.4-5.2-4.4-8.2-8.8-10.2c-2.6-1.2-6.7-2.1-8.1-4.9
			c-2.7-5.2,4.3-5.9,7.6-6C328.4,105.7,328.3,102.7,326.2,102.6L326.2,102.6z"/>
	</g>
</g>
<g>
	<g>
		<path d="M345.4,125.5c6.7,2.3,17.4-0.8,16.4-9.6c-0.8-7.2-10-8.8-15.1-5c-6.6,5-6.4,15.5-2.4,22.1c4.6,7.5,15.2,10.2,21.6,3.5
			c2.5-2.6-0.7-7-3.9-5c-8.4,5.2-15.4-4.6-13.4-12.5c0.7-2.8,5.7-7.7,8-3.2c0.6,1.2-0.4,3.4-1.3,4.2c-1,1.1-2.6,1.6-4,1.9
			c-1.9,0.5-4,0.5-5.9,0.8C343.9,123.1,344.2,125.1,345.4,125.5L345.4,125.5z"/>
	</g>
</g>
<g>
	<g>
		<path d="M372.5,118.6c0-1.3,0.1-2.5,0.4-3.8c-1-0.3-2-0.5-2.9-0.8c-1.4,7.6,0.2,15.6,2.1,22.9c0.7,2.8,4.8,2.7,5.6,0
			c1.4-4.9,2.6-9.8,3.9-14.7c-1.9,0.2-3.8,0.5-5.6,0.7c2.6,5.3,5.2,10.6,7.8,16c1,2,4.5,2.1,5.5,0c3.3-7.1,6.6-14.2,9.8-21.3
			c1.7-3.8-3.9-7.1-5.6-3.3c-3.2,7.1-6.5,14.2-9.7,21.4c1.8,0,3.7,0,5.5,0c-2.6-5.3-5.3-10.6-7.9-15.9c-1.2-2.4-5-1.8-5.6,0.7
			c-1.2,4.9-2.5,9.8-3.5,14.8c1.9,0,3.7,0,5.6,0c-2.3-7-3-14.2-4.7-21.4c-0.5-1.9-3.4-1.1-2.9,0.8c0.3,1.2,0.4,2.5,0.4,3.8
			C370.4,120,372.4,120,372.5,118.6L372.5,118.6z"/>
	</g>
</g>
<g>
	<g>
		<path d="M410.7,82.9c-1.9,9.1-2.9,18.3-4,27.5c-0.6,4.5-1.1,9-1.7,13.5c-0.6,5-1.9,10.4-1.3,15.5c0.3,2.6,3.7,3.2,4.6,0.6
			c1.6-4.5,1.6-9.5,2.1-14.2c0.4-4.5,0.9-9,1.3-13.5c1-9.6,2.1-19.3,2.2-29C414,81.4,411.1,81,410.7,82.9L410.7,82.9z"/>
	</g>
</g>
<g>
	<g>
		<path d="M407.5,118.2c1.2-5.3,7.3-4.4,10-0.9c2,2.6,2.4,6.3,2.4,9.5c0,6.4-1.4,12.6,0.5,18.9c0.6,2,3.1,3.2,4.9,2
			c1-0.6,1.9-1.3,2.9-1.9c3.4-2.2,0.4-7.3-3.2-5.5c-1,0.5-2,1-3.1,1.5c1.6,0.7,3.3,1.3,4.9,2c-2.9-10.1,2.3-23.3-6.6-31.2
			c-5.5-4.8-15.4-3.7-16.9,4.4C402.9,119.7,406.9,120.9,407.5,118.2L407.5,118.2z"/>
	</g>
</g>
<g>
	<g>
		<path d="M441.6,128.1c6.4,1.5,15.7-4.5,11.2-11.7c-4-6.4-13.6-4.1-18.1,0.3c-5.6,5.5-5.4,14.3-0.7,20.3c5.5,7,15,8.3,22.9,5.1
			c4.2-1.7,2.5-8.5-1.9-6.9c-7,2.6-16.8,0.7-17.7-8.1c-0.4-4,2.5-8.2,6.8-8.4c3.1-0.2,5,2,1.7,4.1c-1.4,0.9-3.1,1.3-4.6,2.2
			C439.9,125.6,440.1,127.7,441.6,128.1L441.6,128.1z"/>
	</g>
</g>
<g>
	<g>
		<path d="M472.2,141.2c0.6-7.6-3-14.3-4.5-21.5c-0.7,1.3-1.5,2.6-2.2,3.8c4.8-1.2,9.6-2.8,14.3-4.4c4.1-1.4,2.4-7.9-1.8-6.6
			c-4.7,1.5-9.5,3-14.1,4.9c-2.3,0.9-2.9,3.3-1.4,5.2c4.2,5.2,4.4,12.8,6.1,19C469.1,143.8,472,143.2,472.2,141.2L472.2,141.2z"/>
	</g>
</g>
<g>
	<g>
		<path d="M486.7,133.6c4.8-2,10.7-5.7,8.6-11.9c-2.1-6.2-9.6-4.6-13-0.6c-4.1,4.9-3.3,12.6,0.6,17.3c4.4,5.5,11.6,6.4,17.8,3.5
			c3.5-1.6,1-7.5-2.6-6.2c-5.2,1.8-10.8-0.8-11.5-6.5c-0.2-1.7,0.7-7,3.4-5.6c3.3,1.8-3.2,5.8-4.7,6.6
			C483.4,131.2,484.7,134.4,486.7,133.6L486.7,133.6z"/>
	</g>
</g>
<g>
	<g>
		<path d="M519.5,91.1c0.3,0,0.6,0,0.9,0.1c0.3,0,0.6-0.3,0.6-0.6c0-0.3-0.3-0.6-0.6-0.6c-0.3,0-0.6,0-0.9,0.1
			c-0.3,0-0.6,0.2-0.6,0.6C518.9,90.9,519.2,91.1,519.5,91.1L519.5,91.1z"/>
	</g>
</g>
<g>
	<g>
		<path d="M521.9,92c3-4.6,10.6-9.3,12.4-1.1c1.2,5.4-2.8,10.6-5.1,15.1c-4.6,8.7-8.6,20.9-5.9,30.7c0.8,2.8,5.7,3.3,6.2,0
			c0.7-4.6,0.4-9.3,1.2-13.9c0.8-4.3,2.2-8.5,4.1-12.5c3-6.2,7.4-12.2,6.5-19.5c-0.7-5.5-4.2-10.7-10.1-11.4
			c-6.6-0.8-11.5,4.4-14.3,9.8C515.2,92.4,519.9,95.1,521.9,92L521.9,92z"/>
	</g>
</g>
<g>
	<g>
		<path d="M527.6,165.3c4.3,0,4.3-6.7,0-6.7C523.3,158.5,523.3,165.3,527.6,165.3L527.6,165.3z"/>
	</g>
</g>
<g>
	<g>
		<path d="M275.1,177.9c4.7,1.1,9.7,0.3,14.5,0.1c4.6-0.2,9.2-0.4,13.9-0.5c9.9-0.3,19.8-0.8,29.7-1c19.5-0.5,39-0.7,58.5-0.5
			c39.4,0.4,78.7,2.2,117.9,5.5c4.8,0.4,4.7-7,0-7.4c-39.2-3.3-78.5-5.2-117.9-5.5c-19.5-0.1-39,0.2-58.5,0.8
			c-9.9,0.3-19.8,0.7-29.7,1.3c-4.6,0.3-9.2,0.6-13.9,1c-4.7,0.4-10,0.2-14.5,1.8C273.1,174.2,272.7,177.4,275.1,177.9L275.1,177.9z
			"/>
	</g>
</g>
</svg>
