<?xml version="1.0" encoding="utf-8"?>
<!-- Generator: Adobe Illustrator 25.1.0, SVG Export Plug-In . SVG Version: 6.00 Build 0)  -->
<svg version="1.1" id="Calque_1" xmlns="http://www.w3.org/2000/svg" xmlns:xlink="http://www.w3.org/1999/xlink" x="0px" y="0px"
	 viewBox="0 0 99.8 75.4" style="enable-background:new 0 0 99.8 75.4;" xml:space="preserve">
<style type="text/css">
	.st0{fill:#FFFFFF;}
</style>
<g>
	<path class="st0" d="M19.1,44v-8.2h-8.6c-3.3,0-6-2.9-6-6.4V10.9c0-3.5,2.7-6.4,6-6.4h38.3c3.3,0,6,2.9,6,6.4v18.5
		c0,3.5-2.7,6.4-6,6.4v4.5c5.8,0,10.5-4.9,10.5-10.9V10.9c0-6-4.7-10.9-10.5-10.9H10.5C4.7,0,0,4.9,0,10.9v18.5
		c0,6,4.7,10.9,10.5,10.9h4.1v8c0,1.2,0.8,2.3,2,2.8c0.3,0.1,0.7,0.2,1,0.2c0.8,0,1.6-0.4,2.2-1l8.4-9.9h8.4v-4.5H26L19.1,44z"/>
	<path class="st0" d="M89.3,24.2h-26v4.5h26c3.3,0,6,2.9,6,6.4v18.5c0,3.5-2.7,6.4-6,6.4h-8.6v8.2L73.8,60H50.9c-3.3,0-6-2.9-6-6.4
		V35.1c0-3.5,2.7-6.4,6-6.4v-4.5c-5.8,0-10.5,4.9-10.5,10.9v18.5c0,6,4.7,10.9,10.5,10.9h20.8l8.4,9.9c0.6,0.7,1.3,1,2.2,1
		c0.3,0,0.7-0.1,1-0.2c1.2-0.4,2-1.5,2-2.8v-8h4.1c5.8,0,10.5-4.9,10.5-10.9V35.1C99.8,29.1,95.1,24.2,89.3,24.2z"/>
	<path class="st0" d="M26.4,7.4l-8,21h4.7l1.6-4.7h7.8l1.6,4.7H39l-7.8-21H26.4z M26,20.3l2.7-7.7h0.1l2.6,7.7H26z"/>
	<path class="st0" d="M60,49.1c0,2.3,1.5,3.8,3.9,3.8c2.9-0.1,5.7-1.9,6.6-2.7c0.9-0.8,3.4-3.7,4.5-6c1.4,0.7,2.1,1.8,2.1,3
		c0,2.6-2.5,4.2-6.6,4.6l2,2.7c6.4-0.8,8.5-3.5,8.5-7.4c0-3.3-2.1-5.3-4.7-6.2c0-0.2,0.1-0.5,0.2-0.7l-3.6-0.6
		c0,0.4-0.1,0.4-0.2,0.8c-1.3-0.1-2.7,0.1-3.2,0.2c0-0.7,0-2.4,0-3.1c3-0.1,6-0.4,8.7-0.8l-0.3-3.6c-2.8,0.6-5.5,0.9-8.2,1
		c0.1-0.7,0.2-2.7,0.2-2.7l-3.8-0.3c-0.1,1-0.1,2.1-0.1,3.1c-1.7,0-3.7,0-4.7,0l0.2,3.4h0.4c1,0,2.6-0.1,4.1-0.1c0,1,0,3,0,3.9
		C62.5,43.1,60,45.7,60,49.1z M71.5,43.6c-0.5,1-1.1,2-1.8,2.7c-0.1-0.8-0.1-1.6-0.2-2.5C69.8,43.8,70.8,43.6,71.5,43.6z M66.1,45
		c0.1,1.4,0.3,2.7,0.5,3.9c-0.6,0.3-1.2,0.5-1.8,0.5c-1.2,0-1.2-0.7-1.2-1.1C63.6,47.1,64.6,45.9,66.1,45z"/>
</g>
</svg>
