<svg xmlns="http://www.w3.org/2000/svg" viewBox="0 0 1414.86 403.45"><defs><style>.cls-1{fill:#ffe600;}</style></defs><g id="Calque_2" data-name="Calque 2"><g id="Layer_1" data-name="Layer 1"><path class="cls-1" d="M1283.39,60.2c2.79,0,2.8-4.34,0-4.34s-2.79,4.34,0,4.34Z"/><path class="cls-1" d="M1284.91,57.06a5.1,5.1,0,1,0-5.1-5.1,5.16,5.16,0,0,0,5.1,5.1Z"/><path class="cls-1" d="M1307.66,330.58c3.71,0,7.26-3.26,7.09-7.09a7.21,7.21,0,0,0-7.09-7.09c-3.71,0-7.26,3.26-7.09,7.09a7.22,7.22,0,0,0,7.09,7.09Z"/><path class="cls-1" d="M1140.8,19.32c3.56,0,7-3.13,6.8-6.8a6.93,6.93,0,0,0-6.8-6.8c-3.55,0-7,3.13-6.8,6.8a6.93,6.93,0,0,0,6.8,6.8Z"/><path class="cls-1" d="M1393.34,94.73a41.42,41.42,0,0,0-32.63-2.1C1350,96.68,1340.47,106,1340.08,118c-.41,12.37,9,23,20.32,26.7s24.74,1.58,34.06-5.85a22.05,22.05,0,0,0,8.41-17.52c-.15-7.93-4.11-14.86-8.31-21.32-1.41-2.15-4.43-3.25-6.74-1.76a5,5,0,0,0-1.76,6.73c1.46,2.47,2.89,5,4.11,7.57.16.34.31.69.46,1,.37.81-.46-1.1.09.23,0,0,.84,2.09.35.83.11.28.22.55.32.83a25.74,25.74,0,0,1,1.21,4.22c.06.28.11.56.15.85-.17-1.1,0-.14,0,.15,0,.64.07,1.28.06,1.93,0,.36-.06.72-.07,1.07,0,.81.28-1.14,0,.18-.15.63-.27,1.26-.47,1.88-.07.23-.15.44-.22.67-.34,1.09.36-.71,0-.06-.23.46-.45.93-.71,1.38s-.54.88-.83,1.31-.38.91,0,0a4,4,0,0,1-.67.8,27.46,27.46,0,0,1-2.27,2.18c-.66.57,0,0,.14-.1a6.36,6.36,0,0,1-.72.53c-.54.37-1.09.73-1.65,1.07-.94.55-1.9,1-2.89,1.49-.79.37,0,0,.14,0a7.88,7.88,0,0,1-.85.33c-.62.23-1.25.44-1.88.63a32.1,32.1,0,0,1-3.18.79c-.54.11-1.09.2-1.63.28,1-.15,0,0-.21,0-.41.05-.82.09-1.24.12a37,37,0,0,1-3.94.09c-.55,0-1.1-.05-1.65-.1-.34,0-.69-.07-1-.1s-.27,0,.18,0l-.61-.09a32.06,32.06,0,0,1-3.62-.81c-.59-.17-1.18-.36-1.76-.56l-1-.35-.57-.23c.36.15.39.16.11,0-1.09-.57-2.18-1.08-3.22-1.74-.49-.31-1-.64-1.42-1,.6.42.07,0,0,0-.29-.25-.59-.49-.88-.75a24.74,24.74,0,0,1-2.51-2.61c-.12-.14-.62-.8-.19-.23l-.45-.62c-.36-.52-.71-1-1-1.6s-.62-1.11-.89-1.68c-.11-.22-.22-.45-.32-.68.26.58,0,0,0-.11a24.2,24.2,0,0,1-1-3.63c0,.07-.18-1.14-.11-.61s-.06-.7-.05-.62c0-.5-.06-1,0-1.51s0-1.27.1-1.9c0-.09.12-.71,0-.15q.09-.55.21-1.11a23.26,23.26,0,0,1,1-3.24c.12-.3.25-.59.56-1.23s.58-1.13.9-1.68a27.3,27.3,0,0,1,9.75-9.61,33.94,33.94,0,0,1,15.29-4.61,30.64,30.64,0,0,1,16.23,3.55c1.94,1,3.66-1.94,1.72-2.94Z"/><path class="cls-1" d="M1352,104.12c-6.44-1-12.76-.45-18.6,2.67-4.53,2.42-8.54,7.19-4.65,12.11,3.55,4.49,10.85,6.53,16.22,7.6a86.45,86.45,0,0,0,20.51,1.11c8.4-.35,16.78-1.1,25.13-2.08,6.1-.71,13-1,18.33-4.35,3.89-2.41,7.56-7.4,5.17-12.07s-8.15-4.78-12.5-3.77c-3.28.75-2.42,5.59.77,5.7.72,0,4.4.11,4.83.64,1.61,2-1.64,3.81-2.82,4.43-3.46,1.84-8,2.13-11.83,2.62q-13.48,1.76-27.08,2.49c-7.87.42-16,.54-23.6-1.77a22.42,22.42,0,0,1-5.28-2.08c-4-2.59-1.83-6.05,1.42-7.69a30.55,30.55,0,0,1,13.65-3.12c1.35,0,1.75-2.21.33-2.44Z"/><path class="cls-1" d="M267.8,7.5l-1.22-.37a6.36,6.36,0,0,0-6.21,1.64l-1,1.29a6.3,6.3,0,0,0-.87,3.22,4.83,4.83,0,0,0,.54,2.46,4.84,4.84,0,0,0,1.32,2,6.42,6.42,0,0,0,6.21,1.64l1.22-.36,1.44-.61a4.53,4.53,0,0,0,1.68-1.54,3,3,0,0,0,.77-1.33,4.46,4.46,0,0,0,.52-2.31L272,11.69l-.6-1.44a4.48,4.48,0,0,0-1.55-1.68,4.47,4.47,0,0,0-2-1.07Z"/><path class="cls-1" d="M469.52,55.71l1.26-.27,1.23-.52a4,4,0,0,0,1.45-1.33,2.52,2.52,0,0,0,.66-1.14,3.84,3.84,0,0,0,.44-2l-.18-1.37-.52-1.23a3.8,3.8,0,0,0-1.33-1.45,3.85,3.85,0,0,0-1.75-.92l-1.26-.28a5.66,5.66,0,0,0-2.89,0,5.51,5.51,0,0,0-2.4,1.4,5.69,5.69,0,0,0-1.59,3.85,4.07,4.07,0,0,0,.47,2.09,4,4,0,0,0,1.12,1.75,5.43,5.43,0,0,0,5.29,1.4Z"/><path class="cls-1" d="M742.73,25l.81-.64c2.46-1.94.34-6-2.47-6h-.73a4.22,4.22,0,1,0,4.22,4.22v-.73c0-2.79-4-4.94-6-2.48l-.65.82A3.38,3.38,0,0,0,742.73,25Z"/><path class="cls-1" d="M861.2,8c5.12,0,5.13-8,0-8s-5.14,8,0,8Z"/><path class="cls-1" d="M93.56,403.44h1.32a3.71,3.71,0,0,0,1.94-.43,5.14,5.14,0,0,0,3.08-4.58l-.18-1.33a5.09,5.09,0,0,0-1.29-2.22,5.22,5.22,0,0,0-3.55-1.47H93.56a3.82,3.82,0,0,0-1.94.44,3.69,3.69,0,0,0-1.61,1,3.8,3.8,0,0,0-1,1.62,3.75,3.75,0,0,0-.43,1.93l.18,1.33A5.09,5.09,0,0,0,90,402a5.21,5.21,0,0,0,3.55,1.46Z"/><path class="cls-1" d="M4.57,197.31c6.1,0,6.11-9.47,0-9.47s-6.1,9.47,0,9.47Z"/></g></g></svg>